G04*
G04 #@! TF.GenerationSoftware,Altium Limited,Altium Designer,25.8.1 (18)*
G04*
G04 Layer_Physical_Order=2*
G04 Layer_Color=16711680*
%FSLAX44Y44*%
%MOMM*%
G71*
G04*
G04 #@! TF.SameCoordinates,110BE5AE-6940-414C-97C9-718F002BE886*
G04*
G04*
G04 #@! TF.FilePolarity,Positive*
G04*
G01*
G75*
%ADD11C,0.2000*%
%ADD80C,0.2030*%
%ADD82C,0.4000*%
%ADD83C,2.0000*%
%ADD84C,1.0000*%
%ADD87R,2.1000X2.1000*%
%ADD88C,2.1000*%
%ADD89C,1.9500*%
%ADD90C,1.5000*%
%ADD91C,1.5748*%
%ADD92R,1.5748X1.5748*%
%ADD93R,1.9500X1.9500*%
%ADD94R,1.5000X1.5000*%
%ADD95R,1.5748X1.5748*%
%ADD97C,1.6500*%
%ADD98C,0.4570*%
%ADD99C,5.0000*%
%ADD100C,0.4572*%
%ADD101O,2.0000X1.2000*%
G36*
X390617Y1277095D02*
Y592363D01*
X304834D01*
X304659Y592328D01*
X304481D01*
X303180Y592069D01*
X303015Y592001D01*
X302840Y591966D01*
X302260Y591726D01*
X301023Y592473D01*
X300993Y592526D01*
X300990Y592533D01*
Y1263606D01*
Y1265059D01*
X301557Y1267909D01*
X302669Y1270593D01*
X304283Y1273009D01*
X306338Y1275064D01*
X308753Y1276678D01*
X311438Y1277790D01*
X314288Y1278357D01*
X315740D01*
X389366Y1278364D01*
X390617Y1277095D01*
D02*
G37*
G36*
X1522160Y1279278D02*
X1526336Y1277548D01*
X1530095Y1275036D01*
X1533292Y1271840D01*
X1535803Y1268081D01*
X1537533Y1263904D01*
X1538415Y1259471D01*
Y1257210D01*
X1538579D01*
X1538882Y1257085D01*
X1539114Y1256853D01*
X1539240Y1256550D01*
Y1256385D01*
Y262596D01*
Y260094D01*
X1538264Y255187D01*
X1536349Y250565D01*
X1533569Y246404D01*
X1530031Y242867D01*
X1525871Y240087D01*
X1521249Y238172D01*
X1516342Y237196D01*
X1511998D01*
Y237002D01*
X1511849Y236643D01*
X1511575Y236369D01*
X1511216Y236220D01*
X322618D01*
X317711Y237196D01*
X313089Y239111D01*
X308928Y241891D01*
X305390Y245428D01*
X302611Y249589D01*
X300696Y254211D01*
X299720Y259118D01*
Y264160D01*
X300736D01*
Y588578D01*
X301680Y589364D01*
X302308Y589784D01*
X303533Y590291D01*
X304834Y590550D01*
X392430D01*
Y1278364D01*
X392409Y1278789D01*
X392385Y1278908D01*
X393244Y1280089D01*
X393395Y1280160D01*
X1517726D01*
X1522160Y1279278D01*
D02*
G37*
%LPC*%
G36*
X338717Y1268330D02*
X337820D01*
Y1242060D01*
X364090D01*
Y1242958D01*
X363412Y1247239D01*
X362072Y1251362D01*
X360104Y1255224D01*
X357556Y1258731D01*
X354491Y1261796D01*
X350984Y1264344D01*
X347122Y1266312D01*
X342999Y1267652D01*
X338717Y1268330D01*
D02*
G37*
G36*
X335280D02*
X334383D01*
X330101Y1267652D01*
X325978Y1266312D01*
X322116Y1264344D01*
X318609Y1261796D01*
X315544Y1258731D01*
X312996Y1255224D01*
X311028Y1251362D01*
X309688Y1247239D01*
X309010Y1242958D01*
Y1242060D01*
X335280D01*
Y1268330D01*
D02*
G37*
G36*
X364090Y1239520D02*
X337820D01*
Y1213250D01*
X338717D01*
X342999Y1213928D01*
X347122Y1215268D01*
X350984Y1217236D01*
X354491Y1219784D01*
X357556Y1222849D01*
X360104Y1226356D01*
X362072Y1230218D01*
X363412Y1234341D01*
X364090Y1238623D01*
Y1239520D01*
D02*
G37*
G36*
X335280D02*
X309010D01*
Y1238623D01*
X309688Y1234341D01*
X311028Y1230218D01*
X312996Y1226356D01*
X315544Y1222849D01*
X318609Y1219784D01*
X322116Y1217236D01*
X325978Y1215268D01*
X330101Y1213928D01*
X334383Y1213250D01*
X335280D01*
Y1239520D01*
D02*
G37*
G36*
X344584Y1079094D02*
X341944D01*
X339393Y1078411D01*
X337107Y1077091D01*
X335239Y1075224D01*
X333919Y1072937D01*
X333236Y1070387D01*
Y1067746D01*
X333919Y1065196D01*
X335239Y1062909D01*
X337107Y1061042D01*
X339393Y1059722D01*
X341944Y1059038D01*
X344584D01*
X347135Y1059722D01*
X349421Y1061042D01*
X351288Y1062909D01*
X352608Y1065196D01*
X353292Y1067746D01*
Y1070387D01*
X352608Y1072937D01*
X351288Y1075224D01*
X349421Y1077091D01*
X347135Y1078411D01*
X344584Y1079094D01*
D02*
G37*
G36*
Y1044095D02*
X341944D01*
X339393Y1043411D01*
X337107Y1042091D01*
X335239Y1040224D01*
X333919Y1037937D01*
X333236Y1035387D01*
Y1032747D01*
X333919Y1030196D01*
X335239Y1027909D01*
X337107Y1026042D01*
X339393Y1024722D01*
X341944Y1024039D01*
X344584D01*
X347135Y1024722D01*
X349421Y1026042D01*
X351288Y1027909D01*
X352608Y1030196D01*
X353292Y1032747D01*
Y1035387D01*
X352608Y1037937D01*
X351288Y1040224D01*
X349421Y1042091D01*
X347135Y1043411D01*
X344584Y1044095D01*
D02*
G37*
G36*
X344684Y1009857D02*
X344534D01*
Y1000337D01*
X354054D01*
Y1000487D01*
X353319Y1003231D01*
X351898Y1005692D01*
X349889Y1007701D01*
X347429Y1009121D01*
X344684Y1009857D01*
D02*
G37*
G36*
X341994D02*
X341843D01*
X339099Y1009121D01*
X336639Y1007701D01*
X334630Y1005692D01*
X333209Y1003231D01*
X332474Y1000487D01*
Y1000337D01*
X341994D01*
Y1009857D01*
D02*
G37*
G36*
X354054Y997797D02*
X344534D01*
Y988277D01*
X344684D01*
X347429Y989012D01*
X349889Y990433D01*
X351898Y992441D01*
X353319Y994902D01*
X354054Y997646D01*
Y997797D01*
D02*
G37*
G36*
X341994D02*
X332474D01*
Y997646D01*
X333209Y994902D01*
X334630Y992441D01*
X336639Y990433D01*
X339099Y989012D01*
X341843Y988277D01*
X341994D01*
Y997797D01*
D02*
G37*
G36*
X344584Y974094D02*
X341944D01*
X339393Y973411D01*
X337107Y972091D01*
X335239Y970224D01*
X333919Y967937D01*
X333236Y965387D01*
Y962746D01*
X333919Y960196D01*
X335239Y957909D01*
X337107Y956042D01*
X339393Y954722D01*
X341944Y954038D01*
X344584D01*
X347135Y954722D01*
X349421Y956042D01*
X351288Y957909D01*
X352608Y960196D01*
X353292Y962746D01*
Y965387D01*
X352608Y967937D01*
X351288Y970224D01*
X349421Y972091D01*
X347135Y973411D01*
X344584Y974094D01*
D02*
G37*
G36*
X351418Y662540D02*
X350520D01*
Y636270D01*
X376790D01*
Y637168D01*
X376112Y641449D01*
X374772Y645572D01*
X372804Y649434D01*
X370256Y652941D01*
X367191Y656006D01*
X363684Y658554D01*
X359822Y660522D01*
X355699Y661862D01*
X351418Y662540D01*
D02*
G37*
G36*
X347980D02*
X347082D01*
X342801Y661862D01*
X338678Y660522D01*
X334816Y658554D01*
X331309Y656006D01*
X328244Y652941D01*
X325696Y649434D01*
X323728Y645572D01*
X322388Y641449D01*
X321710Y637168D01*
Y636270D01*
X347980D01*
Y662540D01*
D02*
G37*
G36*
X376790Y633730D02*
X350520D01*
Y607460D01*
X351418D01*
X355699Y608138D01*
X359822Y609478D01*
X363684Y611446D01*
X367191Y613994D01*
X370256Y617059D01*
X372804Y620566D01*
X374772Y624428D01*
X376112Y628551D01*
X376790Y632832D01*
Y633730D01*
D02*
G37*
G36*
X347980D02*
X321710D01*
Y632832D01*
X322388Y628551D01*
X323728Y624428D01*
X325696Y620566D01*
X328244Y617059D01*
X331309Y613994D01*
X334816Y611446D01*
X338678Y609478D01*
X342801Y608138D01*
X347082Y607460D01*
X347980D01*
Y633730D01*
D02*
G37*
G36*
X678180Y1249298D02*
Y1245870D01*
X681608D01*
X681001Y1247334D01*
X679644Y1248691D01*
X678180Y1249298D01*
D02*
G37*
G36*
X675640D02*
X674176Y1248691D01*
X672819Y1247334D01*
X672212Y1245870D01*
X675640D01*
Y1249298D01*
D02*
G37*
G36*
X1503307Y1268330D02*
X1502410D01*
Y1242060D01*
X1528680D01*
Y1242958D01*
X1528002Y1247239D01*
X1526662Y1251362D01*
X1524694Y1255224D01*
X1522146Y1258731D01*
X1519081Y1261796D01*
X1515574Y1264344D01*
X1511712Y1266312D01*
X1507589Y1267652D01*
X1503307Y1268330D01*
D02*
G37*
G36*
X1499870D02*
X1498972D01*
X1494691Y1267652D01*
X1490568Y1266312D01*
X1486706Y1264344D01*
X1483199Y1261796D01*
X1480134Y1258731D01*
X1477586Y1255224D01*
X1475618Y1251362D01*
X1474278Y1247239D01*
X1473600Y1242958D01*
Y1242060D01*
X1499870D01*
Y1268330D01*
D02*
G37*
G36*
X681608Y1243330D02*
X678180D01*
Y1239902D01*
X679644Y1240509D01*
X681001Y1241866D01*
X681608Y1243330D01*
D02*
G37*
G36*
X675640D02*
X672212D01*
X672819Y1241866D01*
X674176Y1240509D01*
X675640Y1239902D01*
Y1243330D01*
D02*
G37*
G36*
X1528680Y1239520D02*
X1502410D01*
Y1213250D01*
X1503307D01*
X1507589Y1213928D01*
X1511712Y1215268D01*
X1515574Y1217236D01*
X1519081Y1219784D01*
X1522146Y1222849D01*
X1524694Y1226356D01*
X1526662Y1230218D01*
X1528002Y1234341D01*
X1528680Y1238623D01*
Y1239520D01*
D02*
G37*
G36*
X1499870D02*
X1473600D01*
Y1238623D01*
X1474278Y1234341D01*
X1475618Y1230218D01*
X1477586Y1226356D01*
X1480134Y1222849D01*
X1483199Y1219784D01*
X1486706Y1217236D01*
X1490568Y1215268D01*
X1494691Y1213928D01*
X1498972Y1213250D01*
X1499870D01*
Y1239520D01*
D02*
G37*
G36*
X647700Y1212468D02*
Y1209040D01*
X651128D01*
X650521Y1210504D01*
X649164Y1211861D01*
X647700Y1212468D01*
D02*
G37*
G36*
X645160D02*
X643696Y1211861D01*
X642339Y1210504D01*
X641732Y1209040D01*
X645160D01*
Y1212468D01*
D02*
G37*
G36*
X651128Y1206500D02*
X647700D01*
Y1203072D01*
X649164Y1203679D01*
X650521Y1205036D01*
X651128Y1206500D01*
D02*
G37*
G36*
X645160D02*
X641732D01*
X642339Y1205036D01*
X643696Y1203679D01*
X645160Y1203072D01*
Y1206500D01*
D02*
G37*
G36*
X1305080Y1204697D02*
Y1201270D01*
X1308506D01*
X1307901Y1202733D01*
X1306543Y1204090D01*
X1305080Y1204697D01*
D02*
G37*
G36*
X1302540D02*
X1301077Y1204090D01*
X1299720Y1202733D01*
X1299114Y1201270D01*
X1302540D01*
Y1204697D01*
D02*
G37*
G36*
X1205080D02*
Y1201270D01*
X1208506D01*
X1207900Y1202733D01*
X1206543Y1204090D01*
X1205080Y1204697D01*
D02*
G37*
G36*
X1202540D02*
X1201077Y1204090D01*
X1199720Y1202733D01*
X1199114Y1201270D01*
X1202540D01*
Y1204697D01*
D02*
G37*
G36*
X1105080D02*
Y1201270D01*
X1108506D01*
X1107900Y1202733D01*
X1106543Y1204090D01*
X1105080Y1204697D01*
D02*
G37*
G36*
X1102540D02*
X1101077Y1204090D01*
X1099720Y1202733D01*
X1099113Y1201270D01*
X1102540D01*
Y1204697D01*
D02*
G37*
G36*
X1055080D02*
Y1201270D01*
X1058506D01*
X1057900Y1202733D01*
X1056543Y1204090D01*
X1055080Y1204697D01*
D02*
G37*
G36*
X1052540D02*
X1051077Y1204090D01*
X1049720Y1202733D01*
X1049113Y1201270D01*
X1052540D01*
Y1204697D01*
D02*
G37*
G36*
X1005080D02*
Y1201270D01*
X1008506D01*
X1007900Y1202733D01*
X1006543Y1204090D01*
X1005080Y1204697D01*
D02*
G37*
G36*
X1002540D02*
X1001077Y1204090D01*
X999720Y1202733D01*
X999113Y1201270D01*
X1002540D01*
Y1204697D01*
D02*
G37*
G36*
X855080D02*
Y1201270D01*
X858506D01*
X857900Y1202733D01*
X856543Y1204090D01*
X855080Y1204697D01*
D02*
G37*
G36*
X852540D02*
X851077Y1204090D01*
X849720Y1202733D01*
X849113Y1201270D01*
X852540D01*
Y1204697D01*
D02*
G37*
G36*
X555080D02*
Y1201270D01*
X558507D01*
X557901Y1202733D01*
X556543Y1204090D01*
X555080Y1204697D01*
D02*
G37*
G36*
X552540D02*
X551077Y1204090D01*
X549720Y1202733D01*
X549114Y1201270D01*
X552540D01*
Y1204697D01*
D02*
G37*
G36*
X505080D02*
Y1201270D01*
X508507D01*
X507901Y1202733D01*
X506543Y1204090D01*
X505080Y1204697D01*
D02*
G37*
G36*
X502540D02*
X501077Y1204090D01*
X499720Y1202733D01*
X499114Y1201270D01*
X502540D01*
Y1204697D01*
D02*
G37*
G36*
X722682Y1207650D02*
X722630D01*
Y1198880D01*
X731400D01*
Y1198932D01*
X730716Y1201485D01*
X729394Y1203775D01*
X727525Y1205644D01*
X725235Y1206966D01*
X722682Y1207650D01*
D02*
G37*
G36*
X805232D02*
X805180D01*
Y1198880D01*
X813950D01*
Y1198932D01*
X813266Y1201485D01*
X811944Y1203775D01*
X810075Y1205644D01*
X807785Y1206966D01*
X805232Y1207650D01*
D02*
G37*
G36*
X720090D02*
X720038D01*
X717485Y1206966D01*
X715195Y1205644D01*
X713326Y1203775D01*
X712004Y1201485D01*
X711320Y1198932D01*
Y1198880D01*
X720090D01*
Y1207650D01*
D02*
G37*
G36*
X802640D02*
X802588D01*
X800035Y1206966D01*
X797745Y1205644D01*
X795876Y1203775D01*
X794554Y1201485D01*
X793870Y1198932D01*
Y1198880D01*
X802640D01*
Y1207650D01*
D02*
G37*
G36*
X1308506Y1198730D02*
X1305080D01*
Y1195304D01*
X1306543Y1195910D01*
X1307901Y1197267D01*
X1308506Y1198730D01*
D02*
G37*
G36*
X1302540D02*
X1299114D01*
X1299720Y1197267D01*
X1301077Y1195910D01*
X1302540Y1195304D01*
Y1198730D01*
D02*
G37*
G36*
X1208506D02*
X1205080D01*
Y1195304D01*
X1206543Y1195910D01*
X1207900Y1197267D01*
X1208506Y1198730D01*
D02*
G37*
G36*
X1202540D02*
X1199114D01*
X1199720Y1197267D01*
X1201077Y1195910D01*
X1202540Y1195304D01*
Y1198730D01*
D02*
G37*
G36*
X1108506D02*
X1105080D01*
Y1195304D01*
X1106543Y1195910D01*
X1107900Y1197267D01*
X1108506Y1198730D01*
D02*
G37*
G36*
X1102540D02*
X1099113D01*
X1099720Y1197267D01*
X1101077Y1195910D01*
X1102540Y1195304D01*
Y1198730D01*
D02*
G37*
G36*
X1058506D02*
X1055080D01*
Y1195304D01*
X1056543Y1195910D01*
X1057900Y1197267D01*
X1058506Y1198730D01*
D02*
G37*
G36*
X1052540D02*
X1049113D01*
X1049720Y1197267D01*
X1051077Y1195910D01*
X1052540Y1195304D01*
Y1198730D01*
D02*
G37*
G36*
X1008506D02*
X1005080D01*
Y1195304D01*
X1006543Y1195910D01*
X1007900Y1197267D01*
X1008506Y1198730D01*
D02*
G37*
G36*
X1002540D02*
X999113D01*
X999720Y1197267D01*
X1001077Y1195910D01*
X1002540Y1195304D01*
Y1198730D01*
D02*
G37*
G36*
X858506D02*
X855080D01*
Y1195304D01*
X856543Y1195910D01*
X857900Y1197267D01*
X858506Y1198730D01*
D02*
G37*
G36*
X852540D02*
X849113D01*
X849720Y1197267D01*
X851077Y1195910D01*
X852540Y1195304D01*
Y1198730D01*
D02*
G37*
G36*
X558507D02*
X555080D01*
Y1195304D01*
X556543Y1195910D01*
X557901Y1197267D01*
X558507Y1198730D01*
D02*
G37*
G36*
X552540D02*
X549114D01*
X549720Y1197267D01*
X551077Y1195910D01*
X552540Y1195304D01*
Y1198730D01*
D02*
G37*
G36*
X508507D02*
X505080D01*
Y1195304D01*
X506543Y1195910D01*
X507901Y1197267D01*
X508507Y1198730D01*
D02*
G37*
G36*
X502540D02*
X499114D01*
X499720Y1197267D01*
X501077Y1195910D01*
X502540Y1195304D01*
Y1198730D01*
D02*
G37*
G36*
X1164590Y1190878D02*
X1163126Y1190271D01*
X1162241Y1189386D01*
X1161415Y1189055D01*
X1160590Y1189386D01*
X1159704Y1190271D01*
X1158240Y1190878D01*
Y1186180D01*
Y1181482D01*
X1159704Y1182089D01*
X1160590Y1182974D01*
X1161415Y1183305D01*
X1162241Y1182974D01*
X1163126Y1182089D01*
X1164590Y1181482D01*
Y1186180D01*
Y1190878D01*
D02*
G37*
G36*
X891078Y1228344D02*
X889462D01*
X887968Y1227725D01*
X886825Y1226582D01*
X886206Y1225088D01*
Y1223472D01*
X886825Y1221978D01*
X887968Y1220835D01*
X889462Y1220216D01*
X891078D01*
X892572Y1220835D01*
X893170Y1221432D01*
X939890D01*
X942032Y1219290D01*
Y1206888D01*
X939412D01*
Y1188332D01*
X957968D01*
Y1206888D01*
X947728D01*
Y1220470D01*
X947728Y1220470D01*
X947511Y1221560D01*
X946894Y1222484D01*
X943084Y1226294D01*
X942160Y1226911D01*
X941070Y1227128D01*
X941070Y1227128D01*
X893170D01*
X892572Y1227725D01*
X891078Y1228344D01*
D02*
G37*
G36*
X869488D02*
X867872D01*
X866378Y1227725D01*
X865235Y1226582D01*
X864616Y1225088D01*
Y1223472D01*
X865235Y1221978D01*
X865832Y1221380D01*
Y1209040D01*
X865832Y1209040D01*
X866049Y1207950D01*
X866666Y1207026D01*
X876083Y1197609D01*
X876083Y1197609D01*
X877007Y1196992D01*
X878097Y1196775D01*
X914012D01*
Y1196388D01*
X914644Y1194029D01*
X915866Y1191913D01*
X917593Y1190186D01*
X919709Y1188964D01*
X922068Y1188332D01*
X924511D01*
X926871Y1188964D01*
X928987Y1190186D01*
X930714Y1191913D01*
X931936Y1194029D01*
X932568Y1196388D01*
Y1198831D01*
X931936Y1201191D01*
X930714Y1203307D01*
X928987Y1205034D01*
X926871Y1206256D01*
X924511Y1206888D01*
X922068D01*
X919709Y1206256D01*
X917593Y1205034D01*
X915866Y1203307D01*
X915383Y1202471D01*
X879277D01*
X871528Y1210220D01*
Y1221380D01*
X872125Y1221978D01*
X872744Y1223472D01*
Y1225088D01*
X872125Y1226582D01*
X870982Y1227725D01*
X869488Y1228344D01*
D02*
G37*
G36*
X838588Y1206888D02*
X820032D01*
Y1188332D01*
X838588D01*
Y1206888D01*
D02*
G37*
G36*
X756038D02*
X737482D01*
Y1188332D01*
X756038D01*
Y1206888D01*
D02*
G37*
G36*
X813950Y1196340D02*
X805180D01*
Y1187570D01*
X805232D01*
X807785Y1188254D01*
X810075Y1189576D01*
X811944Y1191445D01*
X813266Y1193735D01*
X813950Y1196288D01*
Y1196340D01*
D02*
G37*
G36*
X802640D02*
X793870D01*
Y1196288D01*
X794554Y1193735D01*
X795876Y1191445D01*
X797745Y1189576D01*
X800035Y1188254D01*
X802588Y1187570D01*
X802640D01*
Y1196340D01*
D02*
G37*
G36*
X731400D02*
X722630D01*
Y1187570D01*
X722682D01*
X725235Y1188254D01*
X727525Y1189576D01*
X729394Y1191445D01*
X730716Y1193735D01*
X731400Y1196288D01*
Y1196340D01*
D02*
G37*
G36*
X720090D02*
X711320D01*
Y1196288D01*
X712004Y1193735D01*
X713326Y1191445D01*
X715195Y1189576D01*
X717485Y1188254D01*
X720038Y1187570D01*
X720090D01*
Y1196340D01*
D02*
G37*
G36*
X1167130Y1190878D02*
Y1187450D01*
X1170558D01*
X1169951Y1188914D01*
X1168594Y1190271D01*
X1167130Y1190878D01*
D02*
G37*
G36*
X1155700D02*
X1154236Y1190271D01*
X1152879Y1188914D01*
X1152272Y1187450D01*
X1155700D01*
Y1190878D01*
D02*
G37*
G36*
X1420206Y1208618D02*
X1416974D01*
X1413851Y1207781D01*
X1411051Y1206165D01*
X1408765Y1203879D01*
X1407149Y1201079D01*
X1406312Y1197956D01*
Y1194724D01*
X1407149Y1191601D01*
X1408765Y1188801D01*
X1411051Y1186515D01*
X1413851Y1184899D01*
X1416974Y1184062D01*
X1420206D01*
X1423329Y1184899D01*
X1426129Y1186515D01*
X1428415Y1188801D01*
X1430031Y1191601D01*
X1430868Y1194724D01*
Y1197956D01*
X1430031Y1201079D01*
X1428415Y1203879D01*
X1426129Y1206165D01*
X1423329Y1207781D01*
X1420206Y1208618D01*
D02*
G37*
G36*
X1170558Y1184910D02*
X1167130D01*
Y1181482D01*
X1168594Y1182089D01*
X1169951Y1183446D01*
X1170558Y1184910D01*
D02*
G37*
G36*
X1155700D02*
X1152272D01*
X1152879Y1183446D01*
X1154236Y1182089D01*
X1155700Y1181482D01*
Y1184910D01*
D02*
G37*
G36*
X1481668Y1195588D02*
X1457112D01*
Y1171032D01*
X1481668D01*
Y1195588D01*
D02*
G37*
G36*
X1344006Y1183218D02*
X1340774D01*
X1337651Y1182381D01*
X1334851Y1180765D01*
X1332565Y1178479D01*
X1330949Y1175679D01*
X1330112Y1172556D01*
Y1169324D01*
X1330949Y1166201D01*
X1332565Y1163401D01*
X1334851Y1161115D01*
X1337651Y1159499D01*
X1340774Y1158662D01*
X1344006D01*
X1347129Y1159499D01*
X1349929Y1161115D01*
X1352215Y1163401D01*
X1353831Y1166201D01*
X1354668Y1169324D01*
Y1172556D01*
X1353831Y1175679D01*
X1352215Y1178479D01*
X1349929Y1180765D01*
X1347129Y1182381D01*
X1344006Y1183218D01*
D02*
G37*
G36*
X1280080Y1154697D02*
Y1151270D01*
X1283506D01*
X1282901Y1152733D01*
X1281543Y1154090D01*
X1280080Y1154697D01*
D02*
G37*
G36*
X1277540D02*
X1276077Y1154090D01*
X1274720Y1152733D01*
X1274114Y1151270D01*
X1277540D01*
Y1154697D01*
D02*
G37*
G36*
X1230080D02*
Y1151270D01*
X1233506D01*
X1232900Y1152733D01*
X1231543Y1154090D01*
X1230080Y1154697D01*
D02*
G37*
G36*
X1227540D02*
X1226077Y1154090D01*
X1224720Y1152733D01*
X1224114Y1151270D01*
X1227540D01*
Y1154697D01*
D02*
G37*
G36*
X1180080D02*
Y1151270D01*
X1183506D01*
X1182900Y1152733D01*
X1181543Y1154090D01*
X1180080Y1154697D01*
D02*
G37*
G36*
X1177540D02*
X1176077Y1154090D01*
X1174720Y1152733D01*
X1174114Y1151270D01*
X1177540D01*
Y1154697D01*
D02*
G37*
G36*
X1130080D02*
Y1151270D01*
X1133506D01*
X1132900Y1152733D01*
X1131543Y1154090D01*
X1130080Y1154697D01*
D02*
G37*
G36*
X1127540D02*
X1126077Y1154090D01*
X1124720Y1152733D01*
X1124114Y1151270D01*
X1127540D01*
Y1154697D01*
D02*
G37*
G36*
X1080080D02*
Y1151270D01*
X1083506D01*
X1082900Y1152733D01*
X1081543Y1154090D01*
X1080080Y1154697D01*
D02*
G37*
G36*
X1077540D02*
X1076077Y1154090D01*
X1074720Y1152733D01*
X1074113Y1151270D01*
X1077540D01*
Y1154697D01*
D02*
G37*
G36*
X1030080D02*
Y1151270D01*
X1033506D01*
X1032900Y1152733D01*
X1031543Y1154090D01*
X1030080Y1154697D01*
D02*
G37*
G36*
X1027540D02*
X1026077Y1154090D01*
X1024720Y1152733D01*
X1024113Y1151270D01*
X1027540D01*
Y1154697D01*
D02*
G37*
G36*
X980080D02*
Y1151270D01*
X983506D01*
X982900Y1152733D01*
X981543Y1154090D01*
X980080Y1154697D01*
D02*
G37*
G36*
X977540D02*
X976077Y1154090D01*
X974720Y1152733D01*
X974113Y1151270D01*
X977540D01*
Y1154697D01*
D02*
G37*
G36*
X880080D02*
Y1151270D01*
X883506D01*
X882900Y1152733D01*
X881543Y1154090D01*
X880080Y1154697D01*
D02*
G37*
G36*
X877540D02*
X876077Y1154090D01*
X874720Y1152733D01*
X874113Y1151270D01*
X877540D01*
Y1154697D01*
D02*
G37*
G36*
X830080D02*
Y1151270D01*
X833506D01*
X832900Y1152733D01*
X831543Y1154090D01*
X830080Y1154697D01*
D02*
G37*
G36*
X827540D02*
X826077Y1154090D01*
X824720Y1152733D01*
X824113Y1151270D01*
X827540D01*
Y1154697D01*
D02*
G37*
G36*
X780080D02*
Y1151270D01*
X783506D01*
X782900Y1152733D01*
X781543Y1154090D01*
X780080Y1154697D01*
D02*
G37*
G36*
X777540D02*
X776077Y1154090D01*
X774720Y1152733D01*
X774113Y1151270D01*
X777540D01*
Y1154697D01*
D02*
G37*
G36*
X680080D02*
Y1151270D01*
X683506D01*
X682900Y1152733D01*
X681543Y1154090D01*
X680080Y1154697D01*
D02*
G37*
G36*
X677540D02*
X676077Y1154090D01*
X674720Y1152733D01*
X674113Y1151270D01*
X677540D01*
Y1154697D01*
D02*
G37*
G36*
X630080D02*
Y1151270D01*
X633507D01*
X632901Y1152733D01*
X631543Y1154090D01*
X630080Y1154697D01*
D02*
G37*
G36*
X627540D02*
X626077Y1154090D01*
X624720Y1152733D01*
X624114Y1151270D01*
X627540D01*
Y1154697D01*
D02*
G37*
G36*
X580080D02*
Y1151270D01*
X583507D01*
X582901Y1152733D01*
X581543Y1154090D01*
X580080Y1154697D01*
D02*
G37*
G36*
X577540D02*
X576077Y1154090D01*
X574720Y1152733D01*
X574114Y1151270D01*
X577540D01*
Y1154697D01*
D02*
G37*
G36*
X530080D02*
Y1151270D01*
X533507D01*
X532901Y1152733D01*
X531543Y1154090D01*
X530080Y1154697D01*
D02*
G37*
G36*
X527540D02*
X526077Y1154090D01*
X524720Y1152733D01*
X524114Y1151270D01*
X527540D01*
Y1154697D01*
D02*
G37*
G36*
X1283506Y1148730D02*
X1280080D01*
Y1145304D01*
X1281543Y1145910D01*
X1282901Y1147267D01*
X1283506Y1148730D01*
D02*
G37*
G36*
X1277540D02*
X1274114D01*
X1274720Y1147267D01*
X1276077Y1145910D01*
X1277540Y1145304D01*
Y1148730D01*
D02*
G37*
G36*
X1233506D02*
X1230080D01*
Y1145304D01*
X1231543Y1145910D01*
X1232900Y1147267D01*
X1233506Y1148730D01*
D02*
G37*
G36*
X1227540D02*
X1224114D01*
X1224720Y1147267D01*
X1226077Y1145910D01*
X1227540Y1145304D01*
Y1148730D01*
D02*
G37*
G36*
X1183506D02*
X1180080D01*
Y1145304D01*
X1181543Y1145910D01*
X1182900Y1147267D01*
X1183506Y1148730D01*
D02*
G37*
G36*
X1177540D02*
X1174114D01*
X1174720Y1147267D01*
X1176077Y1145910D01*
X1177540Y1145304D01*
Y1148730D01*
D02*
G37*
G36*
X1133506D02*
X1130080D01*
Y1145304D01*
X1131543Y1145910D01*
X1132900Y1147267D01*
X1133506Y1148730D01*
D02*
G37*
G36*
X1127540D02*
X1124114D01*
X1124720Y1147267D01*
X1126077Y1145910D01*
X1127540Y1145304D01*
Y1148730D01*
D02*
G37*
G36*
X1083506D02*
X1080080D01*
Y1145304D01*
X1081543Y1145910D01*
X1082900Y1147267D01*
X1083506Y1148730D01*
D02*
G37*
G36*
X1077540D02*
X1074113D01*
X1074720Y1147267D01*
X1076077Y1145910D01*
X1077540Y1145304D01*
Y1148730D01*
D02*
G37*
G36*
X1033506D02*
X1030080D01*
Y1145304D01*
X1031543Y1145910D01*
X1032900Y1147267D01*
X1033506Y1148730D01*
D02*
G37*
G36*
X1027540D02*
X1024113D01*
X1024720Y1147267D01*
X1026077Y1145910D01*
X1027540Y1145304D01*
Y1148730D01*
D02*
G37*
G36*
X983506D02*
X980080D01*
Y1145304D01*
X981543Y1145910D01*
X982900Y1147267D01*
X983506Y1148730D01*
D02*
G37*
G36*
X977540D02*
X974113D01*
X974720Y1147267D01*
X976077Y1145910D01*
X977540Y1145304D01*
Y1148730D01*
D02*
G37*
G36*
X883506D02*
X880080D01*
Y1145304D01*
X881543Y1145910D01*
X882900Y1147267D01*
X883506Y1148730D01*
D02*
G37*
G36*
X877540D02*
X874113D01*
X874720Y1147267D01*
X876077Y1145910D01*
X877540Y1145304D01*
Y1148730D01*
D02*
G37*
G36*
X833506D02*
X830080D01*
Y1145304D01*
X831543Y1145910D01*
X832900Y1147267D01*
X833506Y1148730D01*
D02*
G37*
G36*
X827540D02*
X824113D01*
X824720Y1147267D01*
X826077Y1145910D01*
X827540Y1145304D01*
Y1148730D01*
D02*
G37*
G36*
X783506D02*
X780080D01*
Y1145304D01*
X781543Y1145910D01*
X782900Y1147267D01*
X783506Y1148730D01*
D02*
G37*
G36*
X777540D02*
X774113D01*
X774720Y1147267D01*
X776077Y1145910D01*
X777540Y1145304D01*
Y1148730D01*
D02*
G37*
G36*
X683506D02*
X680080D01*
Y1145304D01*
X681543Y1145910D01*
X682900Y1147267D01*
X683506Y1148730D01*
D02*
G37*
G36*
X677540D02*
X674113D01*
X674720Y1147267D01*
X676077Y1145910D01*
X677540Y1145304D01*
Y1148730D01*
D02*
G37*
G36*
X633507D02*
X630080D01*
Y1145304D01*
X631543Y1145910D01*
X632901Y1147267D01*
X633507Y1148730D01*
D02*
G37*
G36*
X627540D02*
X624114D01*
X624720Y1147267D01*
X626077Y1145910D01*
X627540Y1145304D01*
Y1148730D01*
D02*
G37*
G36*
X583507D02*
X580080D01*
Y1145304D01*
X581543Y1145910D01*
X582901Y1147267D01*
X583507Y1148730D01*
D02*
G37*
G36*
X577540D02*
X574114D01*
X574720Y1147267D01*
X576077Y1145910D01*
X577540Y1145304D01*
Y1148730D01*
D02*
G37*
G36*
X533507D02*
X530080D01*
Y1145304D01*
X531543Y1145910D01*
X532901Y1147267D01*
X533507Y1148730D01*
D02*
G37*
G36*
X527540D02*
X524114D01*
X524720Y1147267D01*
X526077Y1145910D01*
X527540Y1145304D01*
Y1148730D01*
D02*
G37*
G36*
X1189990Y1134998D02*
Y1131570D01*
X1193418D01*
X1192811Y1133034D01*
X1191454Y1134391D01*
X1189990Y1134998D01*
D02*
G37*
G36*
X1187450D02*
X1185986Y1134391D01*
X1184629Y1133034D01*
X1184022Y1131570D01*
X1187450D01*
Y1134998D01*
D02*
G37*
G36*
X1206500Y1132458D02*
Y1129030D01*
X1209928D01*
X1209321Y1130494D01*
X1207964Y1131851D01*
X1206500Y1132458D01*
D02*
G37*
G36*
X1203960D02*
X1202496Y1131851D01*
X1201139Y1130494D01*
X1200532Y1129030D01*
X1203960D01*
Y1132458D01*
D02*
G37*
G36*
X1193418Y1129030D02*
X1189990D01*
Y1125602D01*
X1191454Y1126209D01*
X1192811Y1127566D01*
X1193418Y1129030D01*
D02*
G37*
G36*
X1187450D02*
X1184022D01*
X1184629Y1127566D01*
X1185986Y1126209D01*
X1187450Y1125602D01*
Y1129030D01*
D02*
G37*
G36*
X1209928Y1126490D02*
X1206500D01*
Y1123062D01*
X1207964Y1123669D01*
X1209321Y1125026D01*
X1209928Y1126490D01*
D02*
G37*
G36*
X1203960D02*
X1200532D01*
X1201139Y1125026D01*
X1202496Y1123669D01*
X1203960Y1123062D01*
Y1126490D01*
D02*
G37*
G36*
X1471006Y1145588D02*
X1467774D01*
X1464651Y1144751D01*
X1461851Y1143135D01*
X1459565Y1140849D01*
X1457949Y1138049D01*
X1457112Y1134926D01*
Y1131693D01*
X1457949Y1128571D01*
X1459565Y1125771D01*
X1461851Y1123485D01*
X1464651Y1121869D01*
X1467774Y1121032D01*
X1471006D01*
X1474129Y1121869D01*
X1476929Y1123485D01*
X1479215Y1125771D01*
X1480831Y1128571D01*
X1481668Y1131693D01*
Y1134926D01*
X1480831Y1138049D01*
X1479215Y1140849D01*
X1476929Y1143135D01*
X1474129Y1144751D01*
X1471006Y1145588D01*
D02*
G37*
G36*
X1070610Y1112398D02*
Y1108970D01*
X1074038D01*
X1073431Y1110434D01*
X1072074Y1111791D01*
X1070610Y1112398D01*
D02*
G37*
G36*
X1068070D02*
X1066606Y1111791D01*
X1065249Y1110434D01*
X1064642Y1108970D01*
X1068070D01*
Y1112398D01*
D02*
G37*
G36*
X1420206Y1132418D02*
X1416974D01*
X1413851Y1131581D01*
X1411051Y1129965D01*
X1408765Y1127679D01*
X1407149Y1124879D01*
X1406312Y1121756D01*
Y1118524D01*
X1407149Y1115401D01*
X1408765Y1112601D01*
X1411051Y1110315D01*
X1413851Y1108699D01*
X1416974Y1107862D01*
X1420206D01*
X1423329Y1108699D01*
X1426129Y1110315D01*
X1428415Y1112601D01*
X1430031Y1115401D01*
X1430868Y1118524D01*
Y1121756D01*
X1430031Y1124879D01*
X1428415Y1127679D01*
X1426129Y1129965D01*
X1423329Y1131581D01*
X1420206Y1132418D01*
D02*
G37*
G36*
X1043940Y1109598D02*
Y1106170D01*
X1047368D01*
X1046761Y1107634D01*
X1045404Y1108991D01*
X1043940Y1109598D01*
D02*
G37*
G36*
X1041400D02*
X1039936Y1108991D01*
X1038579Y1107634D01*
X1037972Y1106170D01*
X1041400D01*
Y1109598D01*
D02*
G37*
G36*
X991020Y1109088D02*
Y1105660D01*
X994448D01*
X993841Y1107124D01*
X992484Y1108481D01*
X991020Y1109088D01*
D02*
G37*
G36*
X988480D02*
X987016Y1108481D01*
X985659Y1107124D01*
X985052Y1105660D01*
X988480D01*
Y1109088D01*
D02*
G37*
G36*
X1074038Y1106430D02*
X1070610D01*
Y1103002D01*
X1072074Y1103609D01*
X1073431Y1104966D01*
X1074038Y1106430D01*
D02*
G37*
G36*
X1068070D02*
X1064642D01*
X1065249Y1104966D01*
X1066606Y1103609D01*
X1068070Y1103002D01*
Y1106430D01*
D02*
G37*
G36*
X1255080Y1104697D02*
Y1101270D01*
X1258506D01*
X1257900Y1102733D01*
X1256543Y1104090D01*
X1255080Y1104697D01*
D02*
G37*
G36*
X1252540D02*
X1251077Y1104090D01*
X1249720Y1102733D01*
X1249114Y1101270D01*
X1252540D01*
Y1104697D01*
D02*
G37*
G36*
X1205080D02*
Y1101270D01*
X1208506D01*
X1207900Y1102733D01*
X1206543Y1104090D01*
X1205080Y1104697D01*
D02*
G37*
G36*
X1202540D02*
X1201077Y1104090D01*
X1199720Y1102733D01*
X1199114Y1101270D01*
X1202540D01*
Y1104697D01*
D02*
G37*
G36*
X1155080D02*
Y1101270D01*
X1158506D01*
X1157900Y1102733D01*
X1156543Y1104090D01*
X1155080Y1104697D01*
D02*
G37*
G36*
X1152540D02*
X1151077Y1104090D01*
X1149720Y1102733D01*
X1149114Y1101270D01*
X1152540D01*
Y1104697D01*
D02*
G37*
G36*
X955080D02*
Y1101270D01*
X958506D01*
X957900Y1102733D01*
X956543Y1104090D01*
X955080Y1104697D01*
D02*
G37*
G36*
X952540D02*
X951077Y1104090D01*
X949720Y1102733D01*
X949113Y1101270D01*
X952540D01*
Y1104697D01*
D02*
G37*
G36*
X905080D02*
Y1101270D01*
X908506D01*
X907900Y1102733D01*
X906543Y1104090D01*
X905080Y1104697D01*
D02*
G37*
G36*
X902540D02*
X901077Y1104090D01*
X899720Y1102733D01*
X899113Y1101270D01*
X902540D01*
Y1104697D01*
D02*
G37*
G36*
X705080D02*
Y1101270D01*
X708506D01*
X707900Y1102733D01*
X706543Y1104090D01*
X705080Y1104697D01*
D02*
G37*
G36*
X702540D02*
X701077Y1104090D01*
X699720Y1102733D01*
X699113Y1101270D01*
X702540D01*
Y1104697D01*
D02*
G37*
G36*
X655080D02*
Y1101270D01*
X658506D01*
X657900Y1102733D01*
X656543Y1104090D01*
X655080Y1104697D01*
D02*
G37*
G36*
X652540D02*
X651077Y1104090D01*
X649720Y1102733D01*
X649113Y1101270D01*
X652540D01*
Y1104697D01*
D02*
G37*
G36*
X605080D02*
Y1101270D01*
X608507D01*
X607901Y1102733D01*
X606543Y1104090D01*
X605080Y1104697D01*
D02*
G37*
G36*
X602540D02*
X601077Y1104090D01*
X599720Y1102733D01*
X599114Y1101270D01*
X602540D01*
Y1104697D01*
D02*
G37*
G36*
X555080D02*
Y1101270D01*
X558507D01*
X557901Y1102733D01*
X556543Y1104090D01*
X555080Y1104697D01*
D02*
G37*
G36*
X552540D02*
X551077Y1104090D01*
X549720Y1102733D01*
X549114Y1101270D01*
X552540D01*
Y1104697D01*
D02*
G37*
G36*
X1047368Y1103630D02*
X1043940D01*
Y1100202D01*
X1045404Y1100809D01*
X1046761Y1102166D01*
X1047368Y1103630D01*
D02*
G37*
G36*
X1041400D02*
X1037972D01*
X1038579Y1102166D01*
X1039936Y1100809D01*
X1041400Y1100202D01*
Y1103630D01*
D02*
G37*
G36*
X994448Y1103120D02*
X991020D01*
Y1099692D01*
X992484Y1100299D01*
X993841Y1101656D01*
X994448Y1103120D01*
D02*
G37*
G36*
X988480D02*
X985052D01*
X985659Y1101656D01*
X987016Y1100299D01*
X988480Y1099692D01*
Y1103120D01*
D02*
G37*
G36*
X1070148Y1096692D02*
X1068532D01*
X1067756Y1096371D01*
X1063777D01*
X1063777Y1096371D01*
X1062303Y1096077D01*
X1061053Y1095242D01*
X1042265Y1076454D01*
X1041441D01*
X1040996Y1076270D01*
X1019391D01*
X1018557Y1077104D01*
X1017307Y1077939D01*
X1015833Y1078232D01*
X1015833Y1078232D01*
X991118D01*
X990606Y1078444D01*
X988989D01*
X987496Y1077826D01*
X986353Y1076682D01*
X985734Y1075189D01*
Y1073572D01*
X986353Y1072078D01*
X987496Y1070935D01*
X988989Y1070316D01*
X990606D01*
X991118Y1070528D01*
X1014237D01*
X1015072Y1069694D01*
X1015072Y1069694D01*
X1016321Y1068859D01*
X1017796Y1068566D01*
X1039824D01*
Y1046541D01*
X1025525Y1032243D01*
X1023804Y1033964D01*
X1022554Y1034799D01*
X1021080Y1035092D01*
X1021080Y1035092D01*
X732790D01*
X732790Y1035092D01*
X731316Y1034799D01*
X730066Y1033964D01*
X730066Y1033964D01*
X713556Y1017454D01*
X712721Y1016204D01*
X712428Y1014730D01*
X712428Y1014730D01*
Y900430D01*
X712428Y900430D01*
X712721Y898956D01*
X713556Y897706D01*
X716096Y895166D01*
X716096Y895166D01*
X717346Y894331D01*
X718820Y894038D01*
X827714D01*
X836888Y884864D01*
Y749584D01*
X830060Y742756D01*
X829548Y742544D01*
X828405Y741401D01*
X827786Y739907D01*
Y738290D01*
X828405Y736797D01*
X829548Y735654D01*
X831042Y735035D01*
X832658D01*
X834152Y735654D01*
X835295Y736797D01*
X835507Y737309D01*
X843464Y745265D01*
X843464Y745265D01*
X844299Y746515D01*
X844592Y747989D01*
X844592Y747989D01*
Y788837D01*
X845862Y789294D01*
X846896Y788260D01*
X848360Y787654D01*
Y792352D01*
Y797049D01*
X846896Y796443D01*
X845862Y795409D01*
X844592Y795866D01*
Y886460D01*
X844592Y886460D01*
X844299Y887934D01*
X843464Y889184D01*
X843464Y889184D01*
X832034Y900614D01*
X830784Y901449D01*
X829310Y901742D01*
X829310Y901742D01*
X720416D01*
X720132Y902026D01*
Y1013134D01*
X734386Y1027388D01*
X1019484D01*
X1022801Y1024071D01*
X1022801Y1024071D01*
X1024848Y1022024D01*
Y1006709D01*
X1023003Y1005644D01*
X1021276Y1003917D01*
X1020054Y1001801D01*
X1019422Y999442D01*
Y996999D01*
X1020054Y994639D01*
X1021276Y992523D01*
X1023003Y990796D01*
X1025119Y989574D01*
X1027478Y988942D01*
X1029921D01*
X1031912Y989475D01*
X1032570Y988337D01*
X933976Y889744D01*
X933797Y889475D01*
X932527Y889860D01*
Y910551D01*
X932310Y911641D01*
X931693Y912564D01*
X931693Y912564D01*
X851546Y992711D01*
X851926Y993369D01*
X852558Y995729D01*
Y998171D01*
X851926Y1000531D01*
X850704Y1002647D01*
X848977Y1004374D01*
X846861Y1005596D01*
X844501Y1006228D01*
X842058D01*
X839699Y1005596D01*
X837583Y1004374D01*
X835856Y1002647D01*
X834634Y1000531D01*
X834002Y998171D01*
Y995729D01*
X834634Y993369D01*
X835856Y991253D01*
X837583Y989526D01*
X839699Y988304D01*
X842058Y987672D01*
X844501D01*
X846861Y988304D01*
X847519Y988684D01*
X880204Y955998D01*
X880080Y955663D01*
Y951270D01*
X884473D01*
X884808Y951394D01*
X926831Y909371D01*
Y870310D01*
X926234Y869712D01*
X925615Y868218D01*
Y866602D01*
X926234Y865108D01*
X927377Y863965D01*
X928871Y863346D01*
X930488D01*
X931303Y863684D01*
X932275Y862712D01*
X931926Y861868D01*
Y860252D01*
X932545Y858758D01*
X933688Y857615D01*
X935182Y856996D01*
X936798D01*
X938292Y857615D01*
X939435Y858758D01*
X940054Y860252D01*
Y861868D01*
X939435Y863362D01*
X938838Y863960D01*
Y886550D01*
X1045255Y992968D01*
X1046515Y992802D01*
X1046676Y992523D01*
X1048403Y990796D01*
X1050519Y989574D01*
X1052878Y988942D01*
X1055322D01*
X1057681Y989574D01*
X1059797Y990796D01*
X1061234Y992233D01*
X1062504Y991821D01*
Y847512D01*
X1011768Y796777D01*
X1009069D01*
X1008223Y798046D01*
X1008506Y798730D01*
X999113D01*
X999397Y798046D01*
X998551Y796777D01*
X900852D01*
X897983Y799645D01*
X898231Y800891D01*
X898442Y800978D01*
X899800Y802336D01*
X900406Y803800D01*
X895709D01*
Y805070D01*
X894439D01*
Y809767D01*
X892975Y809161D01*
X891617Y807803D01*
X891530Y807592D01*
X890284Y807344D01*
X885074Y812554D01*
X883658Y813641D01*
X882010Y814324D01*
X880240Y814557D01*
X878471Y814324D01*
X876822Y813641D01*
X875406Y812554D01*
X874320Y811138D01*
X873636Y809489D01*
X873404Y807720D01*
X873636Y805951D01*
X874320Y804302D01*
X875406Y802886D01*
X893186Y785106D01*
X894602Y784019D01*
X896251Y783336D01*
X898020Y783103D01*
X960631D01*
X961254Y781833D01*
X961136Y781549D01*
X960903Y779780D01*
Y666724D01*
X959050Y664871D01*
X825238D01*
X807474Y682634D01*
X806058Y683721D01*
X804409Y684404D01*
X802640Y684637D01*
X800871Y684404D01*
X799222Y683721D01*
X797806Y682634D01*
X796719Y681218D01*
X796037Y679569D01*
X795804Y677800D01*
X796037Y676031D01*
X796719Y674382D01*
X797806Y672966D01*
X817572Y653200D01*
X818988Y652113D01*
X820637Y651431D01*
X822406Y651198D01*
X879746D01*
X880386Y650240D01*
X885190D01*
Y648970D01*
X886460D01*
Y644272D01*
X887924Y644879D01*
X889281Y646236D01*
X889783Y647449D01*
X891053Y647196D01*
Y645582D01*
X887976Y642504D01*
X887384Y641733D01*
X886922D01*
X885428Y641115D01*
X884286Y639972D01*
X883667Y638478D01*
Y636862D01*
X884286Y635369D01*
X885428Y634226D01*
X886922Y633607D01*
X887384D01*
X887976Y632836D01*
X895038Y625774D01*
Y621247D01*
X893056Y619266D01*
X892078Y620056D01*
X892428Y620900D01*
X889000D01*
Y617472D01*
X890464Y618079D01*
X890945Y618560D01*
X891969Y617850D01*
X891569Y616884D01*
X891286Y616201D01*
X891053Y614432D01*
Y578680D01*
X891286Y576911D01*
X891569Y576227D01*
X891969Y575262D01*
X893056Y573846D01*
X893154Y573748D01*
Y562740D01*
X893283Y561752D01*
Y558782D01*
X886118Y551617D01*
X830498D01*
X830157Y552887D01*
X832592Y554292D01*
X834880Y556581D01*
X836498Y559383D01*
X837336Y562509D01*
Y562857D01*
X812756D01*
Y562509D01*
X813594Y559383D01*
X815212Y556581D01*
X817500Y554292D01*
X819935Y552887D01*
X819594Y551617D01*
X604358D01*
X503406Y652568D01*
Y653980D01*
X503761Y654442D01*
X504444Y656091D01*
X504677Y657860D01*
X504444Y659629D01*
X503761Y661278D01*
X502674Y662694D01*
X501258Y663781D01*
X499609Y664464D01*
X497840Y664697D01*
X496071Y664464D01*
X494422Y663781D01*
X493006Y662694D01*
X492468Y662157D01*
X491486D01*
X489717Y661924D01*
X488068Y661241D01*
X486652Y660154D01*
X486402Y659904D01*
X485315Y658488D01*
X484632Y656839D01*
X484399Y655070D01*
X484632Y653301D01*
X485315Y651652D01*
X486402Y650236D01*
X487818Y649149D01*
X489467Y648466D01*
X489908Y648408D01*
X489967Y647967D01*
X490249Y647284D01*
X490649Y646318D01*
X491736Y644902D01*
X580911Y555727D01*
X580191Y554650D01*
X580080Y554697D01*
Y551270D01*
X583507D01*
X583460Y551381D01*
X584537Y552101D01*
X596692Y539946D01*
X598107Y538860D01*
X599756Y538177D01*
X601526Y537944D01*
X888950D01*
X890720Y538177D01*
X891403Y538460D01*
X892368Y538860D01*
X893784Y539946D01*
X904954Y551116D01*
X906041Y552532D01*
X906723Y554181D01*
X906956Y555950D01*
Y562610D01*
X906826Y563598D01*
Y576580D01*
X906593Y578349D01*
X905910Y579998D01*
X904824Y581414D01*
X904726Y581512D01*
Y611600D01*
X906708Y613581D01*
X907795Y614997D01*
X908478Y616646D01*
X908710Y618416D01*
Y628606D01*
X908478Y630376D01*
X907795Y632024D01*
X906708Y633440D01*
X902478Y637670D01*
X902724Y637916D01*
X903811Y639332D01*
X904493Y640981D01*
X904726Y642750D01*
Y651198D01*
X945341D01*
X946046Y650142D01*
X945896Y649778D01*
Y648162D01*
X946515Y646668D01*
X947128Y646055D01*
Y632002D01*
X947128Y632002D01*
X947343Y630918D01*
X947957Y629999D01*
X951500Y626456D01*
X951252Y625211D01*
X951036Y625121D01*
X949679Y623764D01*
X949072Y622300D01*
X953770D01*
Y621030D01*
X955040D01*
Y616332D01*
X956504Y616939D01*
X957861Y618296D01*
X957951Y618512D01*
X959196Y618760D01*
X985228Y592728D01*
Y537113D01*
X983038Y534924D01*
X982172D01*
X980678Y534305D01*
X979535Y533162D01*
X978916Y531668D01*
Y530052D01*
X979535Y528558D01*
X980678Y527415D01*
X982172Y526796D01*
X983788D01*
X985282Y527415D01*
X986425Y528558D01*
X987044Y530052D01*
Y530918D01*
X990063Y533937D01*
X990063Y533937D01*
X990677Y534856D01*
X990892Y535940D01*
X990892Y535940D01*
Y593902D01*
X990677Y594986D01*
X990063Y595904D01*
X990063Y595904D01*
X971033Y614934D01*
X971559Y616204D01*
X972510D01*
X974284Y616939D01*
X975641Y618296D01*
X976248Y619760D01*
X971550D01*
Y621030D01*
X970280D01*
Y625728D01*
X968816Y625121D01*
X967459Y623764D01*
X966724Y621990D01*
Y621039D01*
X965454Y620513D01*
X952792Y633175D01*
Y646055D01*
X953405Y646668D01*
X954024Y648162D01*
Y649778D01*
X953874Y650142D01*
X954579Y651198D01*
X960903D01*
Y640080D01*
X961136Y638311D01*
X961419Y637628D01*
X961819Y636662D01*
X962906Y635246D01*
X966716Y631436D01*
X968132Y630349D01*
X969781Y629666D01*
X971550Y629434D01*
X973319Y629666D01*
X974968Y630349D01*
X976384Y631436D01*
X977471Y632852D01*
X978154Y634501D01*
X978387Y636270D01*
X978154Y638039D01*
X977471Y639688D01*
X976384Y641104D01*
X974576Y642912D01*
Y663892D01*
Y776948D01*
X980732Y783103D01*
X1014600D01*
X1016369Y783336D01*
X1017052Y783619D01*
X1018018Y784019D01*
X1019434Y785106D01*
X1023971Y789642D01*
X1025144Y789156D01*
Y788980D01*
X1025879Y787206D01*
X1027236Y785849D01*
X1028700Y785242D01*
Y789940D01*
X1029970D01*
Y791210D01*
X1034668D01*
X1034061Y792674D01*
X1032704Y794031D01*
X1030930Y794766D01*
X1030754D01*
X1030268Y795939D01*
X1074174Y839846D01*
X1075261Y841262D01*
X1075944Y842911D01*
X1076177Y844680D01*
Y1068708D01*
X1075944Y1070478D01*
X1075261Y1072126D01*
X1074174Y1073542D01*
X1072758Y1074629D01*
X1071109Y1075312D01*
X1071036Y1075321D01*
X1070865Y1076625D01*
X1071642Y1076947D01*
X1072785Y1078090D01*
X1073404Y1079584D01*
Y1081200D01*
X1073192Y1081712D01*
Y1091308D01*
X1073404Y1091820D01*
Y1093437D01*
X1072785Y1094930D01*
X1071642Y1096074D01*
X1070148Y1096692D01*
D02*
G37*
G36*
X1258506Y1098730D02*
X1255080D01*
Y1095303D01*
X1256543Y1095910D01*
X1257900Y1097267D01*
X1258506Y1098730D01*
D02*
G37*
G36*
X1252540D02*
X1249114D01*
X1249720Y1097267D01*
X1251077Y1095910D01*
X1252540Y1095303D01*
Y1098730D01*
D02*
G37*
G36*
X1208506D02*
X1205080D01*
Y1095303D01*
X1206543Y1095910D01*
X1207900Y1097267D01*
X1208506Y1098730D01*
D02*
G37*
G36*
X1202540D02*
X1199114D01*
X1199720Y1097267D01*
X1201077Y1095910D01*
X1202540Y1095303D01*
Y1098730D01*
D02*
G37*
G36*
X1158506D02*
X1155080D01*
Y1095303D01*
X1156543Y1095910D01*
X1157900Y1097267D01*
X1158506Y1098730D01*
D02*
G37*
G36*
X1152540D02*
X1149114D01*
X1149720Y1097267D01*
X1151077Y1095910D01*
X1152540Y1095303D01*
Y1098730D01*
D02*
G37*
G36*
X958506D02*
X955080D01*
Y1095303D01*
X956543Y1095910D01*
X957900Y1097267D01*
X958506Y1098730D01*
D02*
G37*
G36*
X952540D02*
X949113D01*
X949720Y1097267D01*
X951077Y1095910D01*
X952540Y1095303D01*
Y1098730D01*
D02*
G37*
G36*
X908506D02*
X905080D01*
Y1095303D01*
X906543Y1095910D01*
X907900Y1097267D01*
X908506Y1098730D01*
D02*
G37*
G36*
X902540D02*
X899113D01*
X899720Y1097267D01*
X901077Y1095910D01*
X902540Y1095303D01*
Y1098730D01*
D02*
G37*
G36*
X708506D02*
X705080D01*
Y1095303D01*
X706543Y1095910D01*
X707900Y1097267D01*
X708506Y1098730D01*
D02*
G37*
G36*
X702540D02*
X699113D01*
X699720Y1097267D01*
X701077Y1095910D01*
X702540Y1095303D01*
Y1098730D01*
D02*
G37*
G36*
X658506D02*
X655080D01*
Y1095303D01*
X656543Y1095910D01*
X657900Y1097267D01*
X658506Y1098730D01*
D02*
G37*
G36*
X652540D02*
X649113D01*
X649720Y1097267D01*
X651077Y1095910D01*
X652540Y1095303D01*
Y1098730D01*
D02*
G37*
G36*
X608507D02*
X605080D01*
Y1095303D01*
X606543Y1095910D01*
X607901Y1097267D01*
X608507Y1098730D01*
D02*
G37*
G36*
X602540D02*
X599114D01*
X599720Y1097267D01*
X601077Y1095910D01*
X602540Y1095303D01*
Y1098730D01*
D02*
G37*
G36*
X558507D02*
X555080D01*
Y1095303D01*
X556543Y1095910D01*
X557901Y1097267D01*
X558507Y1098730D01*
D02*
G37*
G36*
X552540D02*
X549114D01*
X549720Y1097267D01*
X551077Y1095910D01*
X552540Y1095303D01*
Y1098730D01*
D02*
G37*
G36*
X834390Y1090548D02*
Y1087120D01*
X837818D01*
X837211Y1088584D01*
X835854Y1089941D01*
X834390Y1090548D01*
D02*
G37*
G36*
X831850D02*
X830386Y1089941D01*
X829029Y1088584D01*
X828422Y1087120D01*
X831850D01*
Y1090548D01*
D02*
G37*
G36*
X837818Y1084580D02*
X834390D01*
Y1081152D01*
X835854Y1081759D01*
X837211Y1083116D01*
X837818Y1084580D01*
D02*
G37*
G36*
X831850D02*
X828422D01*
X829029Y1083116D01*
X830386Y1081759D01*
X831850Y1081152D01*
Y1084580D01*
D02*
G37*
G36*
X1471006Y1095588D02*
X1467774D01*
X1464651Y1094751D01*
X1461851Y1093135D01*
X1459565Y1090849D01*
X1457949Y1088049D01*
X1457112Y1084926D01*
Y1081694D01*
X1457949Y1078571D01*
X1459565Y1075771D01*
X1461851Y1073485D01*
X1464651Y1071869D01*
X1467774Y1071032D01*
X1471006D01*
X1474129Y1071869D01*
X1476929Y1073485D01*
X1479215Y1075771D01*
X1480831Y1078571D01*
X1481668Y1081694D01*
Y1084926D01*
X1480831Y1088049D01*
X1479215Y1090849D01*
X1476929Y1093135D01*
X1474129Y1094751D01*
X1471006Y1095588D01*
D02*
G37*
G36*
X511810Y1065148D02*
X510346Y1064541D01*
X509460Y1063655D01*
X508635Y1063325D01*
X507809Y1063655D01*
X506924Y1064541D01*
X505460Y1065148D01*
Y1060450D01*
Y1055752D01*
X506924Y1056359D01*
X507809Y1057244D01*
X508635Y1057575D01*
X509460Y1057244D01*
X510346Y1056359D01*
X511810Y1055752D01*
Y1060450D01*
Y1065148D01*
D02*
G37*
G36*
X514350D02*
Y1061720D01*
X517778D01*
X517171Y1063184D01*
X515814Y1064541D01*
X514350Y1065148D01*
D02*
G37*
G36*
X502920D02*
X501456Y1064541D01*
X500099Y1063184D01*
X499492Y1061720D01*
X502920D01*
Y1065148D01*
D02*
G37*
G36*
X517778Y1059180D02*
X514350D01*
Y1055752D01*
X515814Y1056359D01*
X517171Y1057716D01*
X517778Y1059180D01*
D02*
G37*
G36*
X502920D02*
X499492D01*
X500099Y1057716D01*
X501456Y1056359D01*
X502920Y1055752D01*
Y1059180D01*
D02*
G37*
G36*
X1180080Y1054697D02*
Y1051270D01*
X1183506D01*
X1182900Y1052733D01*
X1181543Y1054090D01*
X1180080Y1054697D01*
D02*
G37*
G36*
X1177540D02*
X1176077Y1054090D01*
X1174720Y1052733D01*
X1174114Y1051270D01*
X1177540D01*
Y1054697D01*
D02*
G37*
G36*
X1130080D02*
Y1051270D01*
X1133506D01*
X1132900Y1052733D01*
X1131543Y1054090D01*
X1130080Y1054697D01*
D02*
G37*
G36*
X1127540D02*
X1126077Y1054090D01*
X1124720Y1052733D01*
X1124114Y1051270D01*
X1127540D01*
Y1054697D01*
D02*
G37*
G36*
X1030080D02*
Y1051270D01*
X1033506D01*
X1032900Y1052733D01*
X1031543Y1054090D01*
X1030080Y1054697D01*
D02*
G37*
G36*
X1027540D02*
X1026077Y1054090D01*
X1024720Y1052733D01*
X1024113Y1051270D01*
X1027540D01*
Y1054697D01*
D02*
G37*
G36*
X980080D02*
Y1051270D01*
X983506D01*
X982900Y1052733D01*
X981543Y1054090D01*
X980080Y1054697D01*
D02*
G37*
G36*
X977540D02*
X976077Y1054090D01*
X974720Y1052733D01*
X974113Y1051270D01*
X977540D01*
Y1054697D01*
D02*
G37*
G36*
X780080D02*
Y1051270D01*
X783506D01*
X782900Y1052733D01*
X781543Y1054090D01*
X780080Y1054697D01*
D02*
G37*
G36*
X777540D02*
X776077Y1054090D01*
X774720Y1052733D01*
X774113Y1051270D01*
X777540D01*
Y1054697D01*
D02*
G37*
G36*
X730080D02*
Y1051270D01*
X733506D01*
X732900Y1052733D01*
X731543Y1054090D01*
X730080Y1054697D01*
D02*
G37*
G36*
X727540D02*
X726077Y1054090D01*
X724720Y1052733D01*
X724113Y1051270D01*
X727540D01*
Y1054697D01*
D02*
G37*
G36*
X630080D02*
Y1051270D01*
X633507D01*
X632901Y1052733D01*
X631543Y1054090D01*
X630080Y1054697D01*
D02*
G37*
G36*
X627540D02*
X626077Y1054090D01*
X624720Y1052733D01*
X624114Y1051270D01*
X627540D01*
Y1054697D01*
D02*
G37*
G36*
X580080D02*
Y1051270D01*
X583507D01*
X582901Y1052733D01*
X581543Y1054090D01*
X580080Y1054697D01*
D02*
G37*
G36*
X577540D02*
X576077Y1054090D01*
X574720Y1052733D01*
X574114Y1051270D01*
X577540D01*
Y1054697D01*
D02*
G37*
G36*
X1183506Y1048730D02*
X1180080D01*
Y1045303D01*
X1181543Y1045910D01*
X1182900Y1047267D01*
X1183506Y1048730D01*
D02*
G37*
G36*
X1177540D02*
X1174114D01*
X1174720Y1047267D01*
X1176077Y1045910D01*
X1177540Y1045303D01*
Y1048730D01*
D02*
G37*
G36*
X1133506D02*
X1130080D01*
Y1045303D01*
X1131543Y1045910D01*
X1132900Y1047267D01*
X1133506Y1048730D01*
D02*
G37*
G36*
X1127540D02*
X1124114D01*
X1124720Y1047267D01*
X1126077Y1045910D01*
X1127540Y1045303D01*
Y1048730D01*
D02*
G37*
G36*
X1033506D02*
X1030080D01*
Y1045303D01*
X1031543Y1045910D01*
X1032900Y1047267D01*
X1033506Y1048730D01*
D02*
G37*
G36*
X1027540D02*
X1024113D01*
X1024720Y1047267D01*
X1026077Y1045910D01*
X1027540Y1045303D01*
Y1048730D01*
D02*
G37*
G36*
X983506D02*
X980080D01*
Y1045303D01*
X981543Y1045910D01*
X982900Y1047267D01*
X983506Y1048730D01*
D02*
G37*
G36*
X977540D02*
X974113D01*
X974720Y1047267D01*
X976077Y1045910D01*
X977540Y1045303D01*
Y1048730D01*
D02*
G37*
G36*
X783506D02*
X780080D01*
Y1045303D01*
X781543Y1045910D01*
X782900Y1047267D01*
X783506Y1048730D01*
D02*
G37*
G36*
X777540D02*
X774113D01*
X774720Y1047267D01*
X776077Y1045910D01*
X777540Y1045303D01*
Y1048730D01*
D02*
G37*
G36*
X733506D02*
X730080D01*
Y1045303D01*
X731543Y1045910D01*
X732900Y1047267D01*
X733506Y1048730D01*
D02*
G37*
G36*
X727540D02*
X724113D01*
X724720Y1047267D01*
X726077Y1045910D01*
X727540Y1045303D01*
Y1048730D01*
D02*
G37*
G36*
X633507D02*
X630080D01*
Y1045303D01*
X631543Y1045910D01*
X632901Y1047267D01*
X633507Y1048730D01*
D02*
G37*
G36*
X627540D02*
X624114D01*
X624720Y1047267D01*
X626077Y1045910D01*
X627540Y1045303D01*
Y1048730D01*
D02*
G37*
G36*
X583507D02*
X580080D01*
Y1045303D01*
X581543Y1045910D01*
X582901Y1047267D01*
X583507Y1048730D01*
D02*
G37*
G36*
X577540D02*
X574114D01*
X574720Y1047267D01*
X576077Y1045910D01*
X577540Y1045303D01*
Y1048730D01*
D02*
G37*
G36*
X1159510Y1019428D02*
X1158046Y1018821D01*
X1157160Y1017935D01*
X1156335Y1017605D01*
X1155509Y1017935D01*
X1154624Y1018821D01*
X1153160Y1019428D01*
Y1014730D01*
Y1010032D01*
X1154624Y1010639D01*
X1155509Y1011525D01*
X1156335Y1011855D01*
X1157160Y1011525D01*
X1158046Y1010639D01*
X1159510Y1010032D01*
Y1014730D01*
Y1019428D01*
D02*
G37*
G36*
X1162050D02*
Y1016000D01*
X1165478D01*
X1164871Y1017464D01*
X1163514Y1018821D01*
X1162050Y1019428D01*
D02*
G37*
G36*
X1150620D02*
X1149156Y1018821D01*
X1147799Y1017464D01*
X1147192Y1016000D01*
X1150620D01*
Y1019428D01*
D02*
G37*
G36*
X1165478Y1013460D02*
X1162050D01*
Y1010032D01*
X1163514Y1010639D01*
X1164871Y1011996D01*
X1165478Y1013460D01*
D02*
G37*
G36*
X1150620D02*
X1147192D01*
X1147799Y1011996D01*
X1149156Y1010639D01*
X1150620Y1010032D01*
Y1013460D01*
D02*
G37*
G36*
X1247948Y1134364D02*
X1246332D01*
X1244838Y1133745D01*
X1243695Y1132602D01*
X1243076Y1131108D01*
Y1129492D01*
X1243695Y1127998D01*
X1244838Y1126855D01*
X1246332Y1126236D01*
X1247948D01*
X1248460Y1126448D01*
X1305234D01*
X1407608Y1024074D01*
X1407149Y1023279D01*
X1406312Y1020156D01*
Y1016924D01*
X1407149Y1013801D01*
X1408765Y1011001D01*
X1411051Y1008715D01*
X1413851Y1007099D01*
X1416974Y1006262D01*
X1420206D01*
X1423329Y1007099D01*
X1426129Y1008715D01*
X1428415Y1011001D01*
X1430031Y1013801D01*
X1430868Y1016924D01*
Y1020156D01*
X1430031Y1023279D01*
X1428415Y1026079D01*
X1426129Y1028365D01*
X1423329Y1029981D01*
X1420206Y1030818D01*
X1416974D01*
X1413851Y1029981D01*
X1413056Y1029522D01*
X1309554Y1133024D01*
X1308304Y1133859D01*
X1306830Y1134152D01*
X1306830Y1134152D01*
X1248460D01*
X1247948Y1134364D01*
D02*
G37*
G36*
X1344006Y1030818D02*
X1340774D01*
X1337651Y1029981D01*
X1334851Y1028365D01*
X1332565Y1026079D01*
X1330949Y1023279D01*
X1330112Y1020156D01*
Y1016924D01*
X1330949Y1013801D01*
X1332565Y1011001D01*
X1334851Y1008715D01*
X1337651Y1007099D01*
X1340774Y1006262D01*
X1344006D01*
X1347129Y1007099D01*
X1349929Y1008715D01*
X1352215Y1011001D01*
X1353831Y1013801D01*
X1354668Y1016924D01*
Y1020156D01*
X1353831Y1023279D01*
X1352215Y1026079D01*
X1349929Y1028365D01*
X1347129Y1029981D01*
X1344006Y1030818D01*
D02*
G37*
G36*
X1305080Y1004697D02*
Y1001270D01*
X1308506D01*
X1307901Y1002733D01*
X1306543Y1004090D01*
X1305080Y1004697D01*
D02*
G37*
G36*
X1302540D02*
X1301077Y1004090D01*
X1299720Y1002733D01*
X1299114Y1001270D01*
X1302540D01*
Y1004697D01*
D02*
G37*
G36*
X1205080D02*
Y1001270D01*
X1208506D01*
X1207900Y1002733D01*
X1206543Y1004090D01*
X1205080Y1004697D01*
D02*
G37*
G36*
X1202540D02*
X1201077Y1004090D01*
X1199720Y1002733D01*
X1199114Y1001270D01*
X1202540D01*
Y1004697D01*
D02*
G37*
G36*
X905080D02*
Y1001270D01*
X908506D01*
X907900Y1002733D01*
X906543Y1004090D01*
X905080Y1004697D01*
D02*
G37*
G36*
X902540D02*
X901077Y1004090D01*
X899720Y1002733D01*
X899113Y1001270D01*
X902540D01*
Y1004697D01*
D02*
G37*
G36*
X705080D02*
Y1001270D01*
X708506D01*
X707900Y1002733D01*
X706543Y1004090D01*
X705080Y1004697D01*
D02*
G37*
G36*
X702540D02*
X701077Y1004090D01*
X699720Y1002733D01*
X699113Y1001270D01*
X702540D01*
Y1004697D01*
D02*
G37*
G36*
X605080D02*
Y1001270D01*
X608507D01*
X607901Y1002733D01*
X606543Y1004090D01*
X605080Y1004697D01*
D02*
G37*
G36*
X602540D02*
X601077Y1004090D01*
X599720Y1002733D01*
X599114Y1001270D01*
X602540D01*
Y1004697D01*
D02*
G37*
G36*
X953822Y1008260D02*
X953770D01*
Y999490D01*
X962540D01*
Y999542D01*
X961856Y1002095D01*
X960534Y1004385D01*
X958665Y1006254D01*
X956375Y1007576D01*
X953822Y1008260D01*
D02*
G37*
G36*
X951230D02*
X951178D01*
X948625Y1007576D01*
X946335Y1006254D01*
X944466Y1004385D01*
X943144Y1002095D01*
X942460Y999542D01*
Y999490D01*
X951230D01*
Y1008260D01*
D02*
G37*
G36*
X768402Y1006990D02*
X768350D01*
Y998220D01*
X777120D01*
Y998272D01*
X776436Y1000825D01*
X775114Y1003115D01*
X773245Y1004984D01*
X770955Y1006306D01*
X768402Y1006990D01*
D02*
G37*
G36*
X765810D02*
X765758D01*
X763205Y1006306D01*
X760915Y1004984D01*
X759046Y1003115D01*
X757724Y1000825D01*
X757040Y998272D01*
Y998220D01*
X765810D01*
Y1006990D01*
D02*
G37*
G36*
X511810Y999108D02*
X510346Y998501D01*
X509270Y997425D01*
X508194Y998501D01*
X506730Y999108D01*
Y994410D01*
Y989712D01*
X508194Y990319D01*
X509270Y991395D01*
X510346Y990319D01*
X511810Y989712D01*
Y994410D01*
Y999108D01*
D02*
G37*
G36*
X514350D02*
Y995680D01*
X517778D01*
X517171Y997144D01*
X515814Y998501D01*
X514350Y999108D01*
D02*
G37*
G36*
X504190D02*
X502726Y998501D01*
X501369Y997144D01*
X500762Y995680D01*
X504190D01*
Y999108D01*
D02*
G37*
G36*
X1308506Y998730D02*
X1305080D01*
Y995303D01*
X1306543Y995910D01*
X1307901Y997267D01*
X1308506Y998730D01*
D02*
G37*
G36*
X1302540D02*
X1299114D01*
X1299720Y997267D01*
X1301077Y995910D01*
X1302540Y995303D01*
Y998730D01*
D02*
G37*
G36*
X1208506D02*
X1205080D01*
Y995303D01*
X1206543Y995910D01*
X1207900Y997267D01*
X1208506Y998730D01*
D02*
G37*
G36*
X1202540D02*
X1199114D01*
X1199720Y997267D01*
X1201077Y995910D01*
X1202540Y995303D01*
Y998730D01*
D02*
G37*
G36*
X908506D02*
X905080D01*
Y995303D01*
X906543Y995910D01*
X907900Y997267D01*
X908506Y998730D01*
D02*
G37*
G36*
X902540D02*
X899113D01*
X899720Y997267D01*
X901077Y995910D01*
X902540Y995303D01*
Y998730D01*
D02*
G37*
G36*
X708506D02*
X705080D01*
Y995303D01*
X706543Y995910D01*
X707900Y997267D01*
X708506Y998730D01*
D02*
G37*
G36*
X702540D02*
X699113D01*
X699720Y997267D01*
X701077Y995910D01*
X702540Y995303D01*
Y998730D01*
D02*
G37*
G36*
X608507D02*
X605080D01*
Y995303D01*
X606543Y995910D01*
X607901Y997267D01*
X608507Y998730D01*
D02*
G37*
G36*
X602540D02*
X599114D01*
X599720Y997267D01*
X601077Y995910D01*
X602540Y995303D01*
Y998730D01*
D02*
G37*
G36*
X517778Y993140D02*
X514350D01*
Y989712D01*
X515814Y990319D01*
X517171Y991676D01*
X517778Y993140D01*
D02*
G37*
G36*
X504190D02*
X500762D01*
X501369Y991676D01*
X502726Y990319D01*
X504190Y989712D01*
Y993140D01*
D02*
G37*
G36*
X1004521Y1007498D02*
X1002078D01*
X999719Y1006866D01*
X997603Y1005644D01*
X995876Y1003917D01*
X994654Y1001801D01*
X994022Y999442D01*
Y996999D01*
X994654Y994639D01*
X995876Y992523D01*
X997603Y990796D01*
X999719Y989574D01*
X1002078Y988942D01*
X1004521D01*
X1006881Y989574D01*
X1008997Y990796D01*
X1010724Y992523D01*
X1011946Y994639D01*
X1012578Y996999D01*
Y999442D01*
X1011946Y1001801D01*
X1010724Y1003917D01*
X1008997Y1005644D01*
X1006881Y1006866D01*
X1004521Y1007498D01*
D02*
G37*
G36*
X979121D02*
X976678D01*
X974319Y1006866D01*
X972203Y1005644D01*
X970476Y1003917D01*
X969254Y1001801D01*
X968622Y999442D01*
Y996999D01*
X969254Y994639D01*
X970476Y992523D01*
X972203Y990796D01*
X974319Y989574D01*
X976678Y988942D01*
X979121D01*
X981481Y989574D01*
X983597Y990796D01*
X985324Y992523D01*
X986546Y994639D01*
X987178Y996999D01*
Y999442D01*
X986546Y1001801D01*
X985324Y1003917D01*
X983597Y1005644D01*
X981481Y1006866D01*
X979121Y1007498D01*
D02*
G37*
G36*
X936378D02*
X917822D01*
Y988942D01*
X936378D01*
Y1007498D01*
D02*
G37*
G36*
X962540Y996950D02*
X953770D01*
Y988180D01*
X953822D01*
X956375Y988864D01*
X958665Y990186D01*
X960534Y992055D01*
X961856Y994345D01*
X962540Y996898D01*
Y996950D01*
D02*
G37*
G36*
X951230D02*
X942460D01*
Y996898D01*
X943144Y994345D01*
X944466Y992055D01*
X946335Y990186D01*
X948625Y988864D01*
X951178Y988180D01*
X951230D01*
Y996950D01*
D02*
G37*
G36*
X869902Y1006228D02*
X867458D01*
X865099Y1005596D01*
X862983Y1004374D01*
X861256Y1002647D01*
X860034Y1000531D01*
X859402Y998171D01*
Y995729D01*
X860034Y993369D01*
X861256Y991253D01*
X862983Y989526D01*
X865099Y988304D01*
X867458Y987672D01*
X869902D01*
X872261Y988304D01*
X874377Y989526D01*
X876104Y991253D01*
X877326Y993369D01*
X877958Y995729D01*
Y998171D01*
X877326Y1000531D01*
X876104Y1002647D01*
X874377Y1004374D01*
X872261Y1005596D01*
X869902Y1006228D01*
D02*
G37*
G36*
X750958D02*
X732402D01*
Y987672D01*
X750958D01*
Y1006228D01*
D02*
G37*
G36*
X777120Y995680D02*
X768350D01*
Y986910D01*
X768402D01*
X770955Y987594D01*
X773245Y988916D01*
X775114Y990785D01*
X776436Y993075D01*
X777120Y995628D01*
Y995680D01*
D02*
G37*
G36*
X765810D02*
X757040D01*
Y995628D01*
X757724Y993075D01*
X759046Y990785D01*
X760915Y988916D01*
X763205Y987594D01*
X765758Y986910D01*
X765810D01*
Y995680D01*
D02*
G37*
G36*
X819101Y1006228D02*
X816658D01*
X814299Y1005596D01*
X812183Y1004374D01*
X810456Y1002647D01*
X809234Y1000531D01*
X808602Y998171D01*
Y995729D01*
X809234Y993369D01*
X810456Y991253D01*
X812183Y989526D01*
X814299Y988304D01*
X816302Y987767D01*
Y965418D01*
X815032Y964892D01*
X797420Y982505D01*
Y989089D01*
X798177Y989526D01*
X799904Y991253D01*
X801126Y993369D01*
X801758Y995729D01*
Y998171D01*
X801126Y1000531D01*
X799904Y1002647D01*
X798177Y1004374D01*
X796061Y1005596D01*
X793701Y1006228D01*
X791258D01*
X788899Y1005596D01*
X786783Y1004374D01*
X785056Y1002647D01*
X783834Y1000531D01*
X783202Y998171D01*
Y995729D01*
X783834Y993369D01*
X785056Y991253D01*
X786783Y989526D01*
X788899Y988304D01*
X791258Y987672D01*
X791724D01*
Y981325D01*
X791724Y981325D01*
X791941Y980235D01*
X792559Y979311D01*
X952549Y819321D01*
X952549Y819321D01*
X953473Y818704D01*
X954123Y818574D01*
X954135Y818546D01*
X955278Y817403D01*
X956772Y816784D01*
X958388D01*
X959882Y817403D01*
X961025Y818546D01*
X961644Y820040D01*
Y821656D01*
X961025Y823150D01*
X959882Y824294D01*
X958388Y824912D01*
X956839D01*
X956684Y825127D01*
X956293Y826086D01*
X957215Y827008D01*
X957834Y828502D01*
Y830118D01*
X957215Y831612D01*
X956072Y832755D01*
X954578Y833374D01*
X953733D01*
X821998Y965110D01*
Y988614D01*
X823577Y989526D01*
X825304Y991253D01*
X826526Y993369D01*
X827158Y995729D01*
Y998171D01*
X826526Y1000531D01*
X825304Y1002647D01*
X823577Y1004374D01*
X821461Y1005596D01*
X819101Y1006228D01*
D02*
G37*
G36*
X1186180Y962278D02*
Y958850D01*
X1189608D01*
X1189001Y960314D01*
X1187644Y961671D01*
X1186180Y962278D01*
D02*
G37*
G36*
X1183640D02*
X1182176Y961671D01*
X1180819Y960314D01*
X1180212Y958850D01*
X1183640D01*
Y962278D01*
D02*
G37*
G36*
X1202690Y958468D02*
Y955040D01*
X1206118D01*
X1205511Y956504D01*
X1204154Y957861D01*
X1202690Y958468D01*
D02*
G37*
G36*
X1200150D02*
X1198686Y957861D01*
X1197329Y956504D01*
X1196722Y955040D01*
X1200150D01*
Y958468D01*
D02*
G37*
G36*
X1420206Y978748D02*
X1416974D01*
X1413851Y977911D01*
X1411051Y976295D01*
X1408765Y974009D01*
X1407149Y971209D01*
X1406312Y968086D01*
Y964854D01*
X1407149Y961731D01*
X1408765Y958931D01*
X1411051Y956645D01*
X1413851Y955029D01*
X1416974Y954192D01*
X1420206D01*
X1423329Y955029D01*
X1426129Y956645D01*
X1428415Y958931D01*
X1430031Y961731D01*
X1430868Y964854D01*
Y968086D01*
X1430031Y971209D01*
X1428415Y974009D01*
X1426129Y976295D01*
X1423329Y977911D01*
X1420206Y978748D01*
D02*
G37*
G36*
X1189608Y956310D02*
X1186180D01*
Y952882D01*
X1187644Y953489D01*
X1189001Y954846D01*
X1189608Y956310D01*
D02*
G37*
G36*
X1183640D02*
X1180212D01*
X1180819Y954846D01*
X1182176Y953489D01*
X1183640Y952882D01*
Y956310D01*
D02*
G37*
G36*
X1280080Y954697D02*
Y951270D01*
X1283506D01*
X1282901Y952733D01*
X1281543Y954090D01*
X1280080Y954697D01*
D02*
G37*
G36*
X1277540D02*
X1276077Y954090D01*
X1274720Y952733D01*
X1274114Y951270D01*
X1277540D01*
Y954697D01*
D02*
G37*
G36*
X1230080D02*
Y951270D01*
X1233506D01*
X1232900Y952733D01*
X1231543Y954090D01*
X1230080Y954697D01*
D02*
G37*
G36*
X1227540D02*
X1226077Y954090D01*
X1224720Y952733D01*
X1224114Y951270D01*
X1227540D01*
Y954697D01*
D02*
G37*
G36*
X1130080D02*
Y951270D01*
X1133506D01*
X1132900Y952733D01*
X1131543Y954090D01*
X1130080Y954697D01*
D02*
G37*
G36*
X1127540D02*
X1126077Y954090D01*
X1124720Y952733D01*
X1124114Y951270D01*
X1127540D01*
Y954697D01*
D02*
G37*
G36*
X1030080D02*
Y951270D01*
X1033506D01*
X1032900Y952733D01*
X1031543Y954090D01*
X1030080Y954697D01*
D02*
G37*
G36*
X1027540D02*
X1026077Y954090D01*
X1024720Y952733D01*
X1024113Y951270D01*
X1027540D01*
Y954697D01*
D02*
G37*
G36*
X981708D02*
Y951270D01*
X985135D01*
X984528Y952733D01*
X983171Y954090D01*
X981708Y954697D01*
D02*
G37*
G36*
X979168D02*
X977705Y954090D01*
X976348Y952733D01*
X975742Y951270D01*
X979168D01*
Y954697D01*
D02*
G37*
G36*
X930080D02*
Y951270D01*
X933506D01*
X932900Y952733D01*
X931543Y954090D01*
X930080Y954697D01*
D02*
G37*
G36*
X927540D02*
X926077Y954090D01*
X924720Y952733D01*
X924113Y951270D01*
X927540D01*
Y954697D01*
D02*
G37*
G36*
X877540D02*
X876077Y954090D01*
X874720Y952733D01*
X874113Y951270D01*
X877540D01*
Y954697D01*
D02*
G37*
G36*
X780080D02*
Y951270D01*
X783506D01*
X782900Y952733D01*
X781543Y954090D01*
X780080Y954697D01*
D02*
G37*
G36*
X777540D02*
X776077Y954090D01*
X774720Y952733D01*
X774113Y951270D01*
X777540D01*
Y954697D01*
D02*
G37*
G36*
X730080D02*
Y951270D01*
X733506D01*
X732900Y952733D01*
X731543Y954090D01*
X730080Y954697D01*
D02*
G37*
G36*
X727540D02*
X726077Y954090D01*
X724720Y952733D01*
X724113Y951270D01*
X727540D01*
Y954697D01*
D02*
G37*
G36*
X680080D02*
Y951270D01*
X683506D01*
X682900Y952733D01*
X681543Y954090D01*
X680080Y954697D01*
D02*
G37*
G36*
X677540D02*
X676077Y954090D01*
X674720Y952733D01*
X674113Y951270D01*
X677540D01*
Y954697D01*
D02*
G37*
G36*
X1206118Y952500D02*
X1202690D01*
Y949072D01*
X1204154Y949679D01*
X1205511Y951036D01*
X1206118Y952500D01*
D02*
G37*
G36*
X1200150D02*
X1196722D01*
X1197329Y951036D01*
X1198686Y949679D01*
X1200150Y949072D01*
Y952500D01*
D02*
G37*
G36*
X1283506Y948730D02*
X1280080D01*
Y945303D01*
X1281543Y945910D01*
X1282901Y947267D01*
X1283506Y948730D01*
D02*
G37*
G36*
X1277540D02*
X1274114D01*
X1274720Y947267D01*
X1276077Y945910D01*
X1277540Y945303D01*
Y948730D01*
D02*
G37*
G36*
X1233506D02*
X1230080D01*
Y945303D01*
X1231543Y945910D01*
X1232900Y947267D01*
X1233506Y948730D01*
D02*
G37*
G36*
X1227540D02*
X1224114D01*
X1224720Y947267D01*
X1226077Y945910D01*
X1227540Y945303D01*
Y948730D01*
D02*
G37*
G36*
X1133506D02*
X1130080D01*
Y945303D01*
X1131543Y945910D01*
X1132900Y947267D01*
X1133506Y948730D01*
D02*
G37*
G36*
X1127540D02*
X1124114D01*
X1124720Y947267D01*
X1126077Y945910D01*
X1127540Y945303D01*
Y948730D01*
D02*
G37*
G36*
X1033506D02*
X1030080D01*
Y945303D01*
X1031543Y945910D01*
X1032900Y947267D01*
X1033506Y948730D01*
D02*
G37*
G36*
X1027540D02*
X1024113D01*
X1024720Y947267D01*
X1026077Y945910D01*
X1027540Y945303D01*
Y948730D01*
D02*
G37*
G36*
X985135D02*
X981708D01*
Y945303D01*
X983171Y945910D01*
X984528Y947267D01*
X985135Y948730D01*
D02*
G37*
G36*
X979168D02*
X975742D01*
X976348Y947267D01*
X977705Y945910D01*
X979168Y945303D01*
Y948730D01*
D02*
G37*
G36*
X933506D02*
X930080D01*
Y945303D01*
X931543Y945910D01*
X932900Y947267D01*
X933506Y948730D01*
D02*
G37*
G36*
X927540D02*
X924113D01*
X924720Y947267D01*
X926077Y945910D01*
X927540Y945303D01*
Y948730D01*
D02*
G37*
G36*
X883506D02*
X880080D01*
Y945303D01*
X881543Y945910D01*
X882900Y947267D01*
X883506Y948730D01*
D02*
G37*
G36*
X877540D02*
X874113D01*
X874720Y947267D01*
X876077Y945910D01*
X877540Y945303D01*
Y948730D01*
D02*
G37*
G36*
X783506D02*
X780080D01*
Y945303D01*
X781543Y945910D01*
X782900Y947267D01*
X783506Y948730D01*
D02*
G37*
G36*
X777540D02*
X774113D01*
X774720Y947267D01*
X776077Y945910D01*
X777540Y945303D01*
Y948730D01*
D02*
G37*
G36*
X733506D02*
X730080D01*
Y945303D01*
X731543Y945910D01*
X732900Y947267D01*
X733506Y948730D01*
D02*
G37*
G36*
X727540D02*
X724113D01*
X724720Y947267D01*
X726077Y945910D01*
X727540Y945303D01*
Y948730D01*
D02*
G37*
G36*
X683506D02*
X680080D01*
Y945303D01*
X681543Y945910D01*
X682900Y947267D01*
X683506Y948730D01*
D02*
G37*
G36*
X677540D02*
X674113D01*
X674720Y947267D01*
X676077Y945910D01*
X677540Y945303D01*
Y948730D01*
D02*
G37*
G36*
X553821Y942594D02*
X553720D01*
Y933450D01*
X562864D01*
Y933551D01*
X562154Y936200D01*
X560783Y938574D01*
X558844Y940513D01*
X556470Y941884D01*
X553821Y942594D01*
D02*
G37*
G36*
X551180D02*
X551079D01*
X548430Y941884D01*
X546056Y940513D01*
X544117Y938574D01*
X542746Y936200D01*
X542036Y933551D01*
Y933450D01*
X551180D01*
Y942594D01*
D02*
G37*
G36*
X1344006Y953348D02*
X1340774D01*
X1337651Y952511D01*
X1334851Y950895D01*
X1332565Y948609D01*
X1330949Y945809D01*
X1330112Y942686D01*
Y939454D01*
X1330949Y936331D01*
X1332565Y933531D01*
X1334851Y931245D01*
X1337651Y929629D01*
X1340774Y928792D01*
X1344006D01*
X1347129Y929629D01*
X1349929Y931245D01*
X1352215Y933531D01*
X1353831Y936331D01*
X1354668Y939454D01*
Y942686D01*
X1353831Y945809D01*
X1352215Y948609D01*
X1349929Y950895D01*
X1347129Y952511D01*
X1344006Y953348D01*
D02*
G37*
G36*
X579121Y941832D02*
X576579D01*
X574124Y941174D01*
X571923Y939903D01*
X570126Y938107D01*
X568856Y935906D01*
X568198Y933451D01*
Y930909D01*
X568856Y928455D01*
X570126Y926254D01*
X571923Y924456D01*
X574124Y923186D01*
X576579Y922528D01*
X579121D01*
X581576Y923186D01*
X583777Y924456D01*
X585574Y926254D01*
X586844Y928455D01*
X587502Y930909D01*
Y933451D01*
X586844Y935906D01*
X585574Y938107D01*
X583777Y939903D01*
X581576Y941174D01*
X579121Y941832D01*
D02*
G37*
G36*
X528321D02*
X525779D01*
X523325Y941174D01*
X521124Y939903D01*
X519327Y938107D01*
X518056Y935906D01*
X517398Y933451D01*
Y930909D01*
X518056Y928455D01*
X519327Y926254D01*
X521124Y924456D01*
X523325Y923186D01*
X525779Y922528D01*
X528321D01*
X530775Y923186D01*
X532976Y924456D01*
X534773Y926254D01*
X536044Y928455D01*
X536702Y930909D01*
Y933451D01*
X536044Y935906D01*
X534773Y938107D01*
X532976Y939903D01*
X530775Y941174D01*
X528321Y941832D01*
D02*
G37*
G36*
X511302D02*
X491998D01*
Y922528D01*
X511302D01*
Y941832D01*
D02*
G37*
G36*
X562864Y930910D02*
X553720D01*
Y921766D01*
X553821D01*
X556470Y922476D01*
X558844Y923847D01*
X560783Y925786D01*
X562154Y928160D01*
X562864Y930809D01*
Y930910D01*
D02*
G37*
G36*
X551180D02*
X542036D01*
Y930809D01*
X542746Y928160D01*
X544117Y925786D01*
X546056Y923847D01*
X548430Y922476D01*
X551079Y921766D01*
X551180D01*
Y930910D01*
D02*
G37*
G36*
X1480398Y941118D02*
X1455842D01*
Y916562D01*
X1480398D01*
Y941118D01*
D02*
G37*
G36*
X1255080Y904697D02*
Y901270D01*
X1258506D01*
X1257900Y902733D01*
X1256543Y904090D01*
X1255080Y904697D01*
D02*
G37*
G36*
X1252540D02*
X1251077Y904090D01*
X1249720Y902733D01*
X1249114Y901270D01*
X1252540D01*
Y904697D01*
D02*
G37*
G36*
X1205080D02*
Y901270D01*
X1208506D01*
X1207900Y902733D01*
X1206543Y904090D01*
X1205080Y904697D01*
D02*
G37*
G36*
X1202540D02*
X1201077Y904090D01*
X1199720Y902733D01*
X1199114Y901270D01*
X1202540D01*
Y904697D01*
D02*
G37*
G36*
X1155080D02*
Y901270D01*
X1158506D01*
X1157900Y902733D01*
X1156543Y904090D01*
X1155080Y904697D01*
D02*
G37*
G36*
X1152540D02*
X1151077Y904090D01*
X1149720Y902733D01*
X1149114Y901270D01*
X1152540D01*
Y904697D01*
D02*
G37*
G36*
X1005080D02*
Y901270D01*
X1008506D01*
X1007900Y902733D01*
X1006543Y904090D01*
X1005080Y904697D01*
D02*
G37*
G36*
X1002540D02*
X1001077Y904090D01*
X999720Y902733D01*
X999113Y901270D01*
X1002540D01*
Y904697D01*
D02*
G37*
G36*
X855080D02*
Y901270D01*
X858506D01*
X857900Y902733D01*
X856543Y904090D01*
X855080Y904697D01*
D02*
G37*
G36*
X852540D02*
X851077Y904090D01*
X849720Y902733D01*
X849113Y901270D01*
X852540D01*
Y904697D01*
D02*
G37*
G36*
X705080D02*
Y901270D01*
X708506D01*
X707900Y902733D01*
X706543Y904090D01*
X705080Y904697D01*
D02*
G37*
G36*
X702540D02*
X701077Y904090D01*
X699720Y902733D01*
X699113Y901270D01*
X702540D01*
Y904697D01*
D02*
G37*
G36*
X655080D02*
Y901270D01*
X658506D01*
X657900Y902733D01*
X656543Y904090D01*
X655080Y904697D01*
D02*
G37*
G36*
X652540D02*
X651077Y904090D01*
X649720Y902733D01*
X649113Y901270D01*
X652540D01*
Y904697D01*
D02*
G37*
G36*
X608328D02*
Y901270D01*
X611754D01*
X611148Y902733D01*
X609791Y904090D01*
X608328Y904697D01*
D02*
G37*
G36*
X605788D02*
X604325Y904090D01*
X602968Y902733D01*
X602361Y901270D01*
X605788D01*
Y904697D01*
D02*
G37*
G36*
X556148Y903628D02*
Y900201D01*
X559575D01*
X558969Y901665D01*
X557612Y903022D01*
X556148Y903628D01*
D02*
G37*
G36*
X553609D02*
X552145Y903022D01*
X550788Y901665D01*
X550182Y900201D01*
X553609D01*
Y903628D01*
D02*
G37*
G36*
X903551Y903167D02*
Y899741D01*
X906977D01*
X906372Y901204D01*
X905014Y902561D01*
X903551Y903167D01*
D02*
G37*
G36*
X901011D02*
X899548Y902561D01*
X898191Y901204D01*
X897585Y899741D01*
X901011D01*
Y903167D01*
D02*
G37*
G36*
X505080Y900330D02*
Y896904D01*
X508507D01*
X507901Y898367D01*
X506543Y899724D01*
X505080Y900330D01*
D02*
G37*
G36*
X502540D02*
X501077Y899724D01*
X499720Y898367D01*
X499114Y896904D01*
X502540D01*
Y900330D01*
D02*
G37*
G36*
X1258506Y898730D02*
X1255080D01*
Y895303D01*
X1256543Y895910D01*
X1257900Y897267D01*
X1258506Y898730D01*
D02*
G37*
G36*
X1252540D02*
X1249114D01*
X1249720Y897267D01*
X1251077Y895910D01*
X1252540Y895303D01*
Y898730D01*
D02*
G37*
G36*
X1208506D02*
X1205080D01*
Y895303D01*
X1206543Y895910D01*
X1207900Y897267D01*
X1208506Y898730D01*
D02*
G37*
G36*
X1202540D02*
X1199114D01*
X1199720Y897267D01*
X1201077Y895910D01*
X1202540Y895303D01*
Y898730D01*
D02*
G37*
G36*
X1158506D02*
X1155080D01*
Y895303D01*
X1156543Y895910D01*
X1157900Y897267D01*
X1158506Y898730D01*
D02*
G37*
G36*
X1152540D02*
X1149114D01*
X1149720Y897267D01*
X1151077Y895910D01*
X1152540Y895303D01*
Y898730D01*
D02*
G37*
G36*
X1008506D02*
X1005080D01*
Y895303D01*
X1006543Y895910D01*
X1007900Y897267D01*
X1008506Y898730D01*
D02*
G37*
G36*
X1002540D02*
X999113D01*
X999720Y897267D01*
X1001077Y895910D01*
X1002540Y895303D01*
Y898730D01*
D02*
G37*
G36*
X858506D02*
X855080D01*
Y895303D01*
X856543Y895910D01*
X857900Y897267D01*
X858506Y898730D01*
D02*
G37*
G36*
X852540D02*
X849113D01*
X849720Y897267D01*
X851077Y895910D01*
X852540Y895303D01*
Y898730D01*
D02*
G37*
G36*
X708506D02*
X705080D01*
Y895303D01*
X706543Y895910D01*
X707900Y897267D01*
X708506Y898730D01*
D02*
G37*
G36*
X702540D02*
X699113D01*
X699720Y897267D01*
X701077Y895910D01*
X702540Y895303D01*
Y898730D01*
D02*
G37*
G36*
X658506D02*
X655080D01*
Y895303D01*
X656543Y895910D01*
X657900Y897267D01*
X658506Y898730D01*
D02*
G37*
G36*
X652540D02*
X649113D01*
X649720Y897267D01*
X651077Y895910D01*
X652540Y895303D01*
Y898730D01*
D02*
G37*
G36*
X611754D02*
X608328D01*
Y895303D01*
X609791Y895910D01*
X611148Y897267D01*
X611754Y898730D01*
D02*
G37*
G36*
X605788D02*
X602361D01*
X602968Y897267D01*
X604325Y895910D01*
X605788Y895303D01*
Y898730D01*
D02*
G37*
G36*
X559575Y897662D02*
X556148D01*
Y894235D01*
X557612Y894841D01*
X558969Y896198D01*
X559575Y897662D01*
D02*
G37*
G36*
X553609D02*
X550182D01*
X550788Y896198D01*
X552145Y894841D01*
X553609Y894235D01*
Y897662D01*
D02*
G37*
G36*
X906977Y897201D02*
X903551D01*
Y893775D01*
X905014Y894381D01*
X906372Y895738D01*
X906977Y897201D01*
D02*
G37*
G36*
X901011D02*
X897585D01*
X898191Y895738D01*
X899548Y894381D01*
X901011Y893775D01*
Y897201D01*
D02*
G37*
G36*
X508507Y894363D02*
X505080D01*
Y890937D01*
X506543Y891543D01*
X507901Y892900D01*
X508507Y894363D01*
D02*
G37*
G36*
X502540D02*
X499114D01*
X499720Y892900D01*
X501077Y891543D01*
X502540Y890937D01*
Y894363D01*
D02*
G37*
G36*
X1420206Y902548D02*
X1416974D01*
X1413851Y901711D01*
X1411051Y900095D01*
X1408765Y897809D01*
X1407149Y895009D01*
X1406312Y891886D01*
Y888654D01*
X1407149Y885531D01*
X1408765Y882731D01*
X1411051Y880445D01*
X1413851Y878829D01*
X1416974Y877992D01*
X1420206D01*
X1423329Y878829D01*
X1426129Y880445D01*
X1428415Y882731D01*
X1430031Y885531D01*
X1430868Y888654D01*
Y891886D01*
X1430031Y895009D01*
X1428415Y897809D01*
X1426129Y900095D01*
X1423329Y901711D01*
X1420206Y902548D01*
D02*
G37*
G36*
X1469736Y891118D02*
X1466504D01*
X1463381Y890281D01*
X1460581Y888665D01*
X1458295Y886379D01*
X1456679Y883579D01*
X1455842Y880456D01*
Y877224D01*
X1456679Y874101D01*
X1458295Y871301D01*
X1460581Y869015D01*
X1463381Y867399D01*
X1466504Y866562D01*
X1469736D01*
X1472859Y867399D01*
X1475659Y869015D01*
X1477945Y871301D01*
X1479561Y874101D01*
X1480398Y877224D01*
Y880456D01*
X1479561Y883579D01*
X1477945Y886379D01*
X1475659Y888665D01*
X1472859Y890281D01*
X1469736Y891118D01*
D02*
G37*
G36*
X572770Y863726D02*
Y860298D01*
X576198D01*
X575591Y861762D01*
X574234Y863119D01*
X572770Y863726D01*
D02*
G37*
G36*
X570230D02*
X568766Y863119D01*
X567409Y861762D01*
X566802Y860298D01*
X570230D01*
Y863726D01*
D02*
G37*
G36*
X576198Y857758D02*
X572770D01*
Y854330D01*
X574234Y854937D01*
X575591Y856294D01*
X576198Y857758D01*
D02*
G37*
G36*
X570230D02*
X566802D01*
X567409Y856294D01*
X568766Y854937D01*
X570230Y854330D01*
Y857758D01*
D02*
G37*
G36*
X1030080Y854697D02*
Y851270D01*
X1033506D01*
X1032900Y852733D01*
X1031543Y854090D01*
X1030080Y854697D01*
D02*
G37*
G36*
X1027540D02*
X1026077Y854090D01*
X1024720Y852733D01*
X1024113Y851270D01*
X1027540D01*
Y854697D01*
D02*
G37*
G36*
X980080D02*
Y851270D01*
X983506D01*
X982900Y852733D01*
X981543Y854090D01*
X980080Y854697D01*
D02*
G37*
G36*
X977540D02*
X976077Y854090D01*
X974720Y852733D01*
X974113Y851270D01*
X977540D01*
Y854697D01*
D02*
G37*
G36*
X880080D02*
Y851270D01*
X883506D01*
X882900Y852733D01*
X881543Y854090D01*
X880080Y854697D01*
D02*
G37*
G36*
X877540D02*
X876077Y854090D01*
X874720Y852733D01*
X874113Y851270D01*
X877540D01*
Y854697D01*
D02*
G37*
G36*
X830080D02*
Y851270D01*
X833506D01*
X832900Y852733D01*
X831543Y854090D01*
X830080Y854697D01*
D02*
G37*
G36*
X827540D02*
X826077Y854090D01*
X824720Y852733D01*
X824113Y851270D01*
X827540D01*
Y854697D01*
D02*
G37*
G36*
X780080D02*
Y851270D01*
X783506D01*
X782900Y852733D01*
X781543Y854090D01*
X780080Y854697D01*
D02*
G37*
G36*
X777540D02*
X776077Y854090D01*
X774720Y852733D01*
X774113Y851270D01*
X777540D01*
Y854697D01*
D02*
G37*
G36*
X680080D02*
Y851270D01*
X683506D01*
X682900Y852733D01*
X681543Y854090D01*
X680080Y854697D01*
D02*
G37*
G36*
X677540D02*
X676077Y854090D01*
X674720Y852733D01*
X674113Y851270D01*
X677540D01*
Y854697D01*
D02*
G37*
G36*
X1033506Y848730D02*
X1030080D01*
Y845303D01*
X1031543Y845910D01*
X1032900Y847267D01*
X1033506Y848730D01*
D02*
G37*
G36*
X1027540D02*
X1024113D01*
X1024720Y847267D01*
X1026077Y845910D01*
X1027540Y845303D01*
Y848730D01*
D02*
G37*
G36*
X983506D02*
X980080D01*
Y845303D01*
X981543Y845910D01*
X982900Y847267D01*
X983506Y848730D01*
D02*
G37*
G36*
X977540D02*
X974113D01*
X974720Y847267D01*
X976077Y845910D01*
X977540Y845303D01*
Y848730D01*
D02*
G37*
G36*
X883506D02*
X880080D01*
Y845303D01*
X881543Y845910D01*
X882900Y847267D01*
X883506Y848730D01*
D02*
G37*
G36*
X877540D02*
X874113D01*
X874720Y847267D01*
X876077Y845910D01*
X877540Y845303D01*
Y848730D01*
D02*
G37*
G36*
X833506D02*
X830080D01*
Y845303D01*
X831543Y845910D01*
X832900Y847267D01*
X833506Y848730D01*
D02*
G37*
G36*
X827540D02*
X824113D01*
X824720Y847267D01*
X826077Y845910D01*
X827540Y845303D01*
Y848730D01*
D02*
G37*
G36*
X783506D02*
X780080D01*
Y845303D01*
X781543Y845910D01*
X782900Y847267D01*
X783506Y848730D01*
D02*
G37*
G36*
X777540D02*
X774113D01*
X774720Y847267D01*
X776077Y845910D01*
X777540Y845303D01*
Y848730D01*
D02*
G37*
G36*
X683506D02*
X680080D01*
Y845303D01*
X681543Y845910D01*
X682900Y847267D01*
X683506Y848730D01*
D02*
G37*
G36*
X677540D02*
X674113D01*
X674720Y847267D01*
X676077Y845910D01*
X677540Y845303D01*
Y848730D01*
D02*
G37*
G36*
X727710Y847978D02*
Y844550D01*
X731138D01*
X730531Y846014D01*
X729174Y847371D01*
X727710Y847978D01*
D02*
G37*
G36*
X725170D02*
X723706Y847371D01*
X722349Y846014D01*
X721742Y844550D01*
X725170D01*
Y847978D01*
D02*
G37*
G36*
X1165657Y842890D02*
X1162230D01*
Y839462D01*
X1163693Y840069D01*
X1165051Y841426D01*
X1165657Y842890D01*
D02*
G37*
G36*
X731138Y842010D02*
X727710D01*
Y838582D01*
X729174Y839189D01*
X730531Y840546D01*
X731138Y842010D01*
D02*
G37*
G36*
X725170D02*
X721742D01*
X722349Y840546D01*
X723706Y839189D01*
X725170Y838582D01*
Y842010D01*
D02*
G37*
G36*
X1084356Y835044D02*
X1084255D01*
X1081607Y834334D01*
X1079232Y832963D01*
X1077293Y831024D01*
X1075922Y828650D01*
X1075212Y826001D01*
Y825900D01*
X1084356D01*
Y835044D01*
D02*
G37*
G36*
X1469736Y841118D02*
X1466504D01*
X1463381Y840281D01*
X1460581Y838665D01*
X1458295Y836379D01*
X1456679Y833579D01*
X1455842Y830456D01*
Y827224D01*
X1456679Y824101D01*
X1458295Y821301D01*
X1460581Y819015D01*
X1463381Y817399D01*
X1466504Y816562D01*
X1469736D01*
X1472859Y817399D01*
X1475659Y819015D01*
X1477945Y821301D01*
X1479561Y824101D01*
X1480398Y827224D01*
Y830456D01*
X1479561Y833579D01*
X1477945Y836379D01*
X1475659Y838665D01*
X1472859Y840281D01*
X1469736Y841118D01*
D02*
G37*
G36*
X866140Y812418D02*
Y808990D01*
X869568D01*
X868961Y810454D01*
X867604Y811811D01*
X866140Y812418D01*
D02*
G37*
G36*
X863600D02*
X862136Y811811D01*
X860779Y810454D01*
X860172Y808990D01*
X863600D01*
Y812418D01*
D02*
G37*
G36*
X727710Y811148D02*
Y807720D01*
X731138D01*
X730531Y809184D01*
X729174Y810541D01*
X727710Y811148D01*
D02*
G37*
G36*
X725170D02*
X723706Y810541D01*
X722349Y809184D01*
X721742Y807720D01*
X725170D01*
Y811148D01*
D02*
G37*
G36*
X896979Y809767D02*
Y806340D01*
X900406D01*
X899800Y807803D01*
X898442Y809161D01*
X896979Y809767D01*
D02*
G37*
G36*
X869568Y806450D02*
X866140D01*
Y803022D01*
X867604Y803629D01*
X868961Y804986D01*
X869568Y806450D01*
D02*
G37*
G36*
X863600D02*
X860172D01*
X860779Y804986D01*
X862136Y803629D01*
X863600Y803022D01*
Y806450D01*
D02*
G37*
G36*
X731138Y805180D02*
X727710D01*
Y801752D01*
X729174Y802359D01*
X730531Y803716D01*
X731138Y805180D01*
D02*
G37*
G36*
X725170D02*
X721742D01*
X722349Y803716D01*
X723706Y802359D01*
X725170Y801752D01*
Y805180D01*
D02*
G37*
G36*
X1255080Y804697D02*
Y801270D01*
X1258506D01*
X1257900Y802733D01*
X1256543Y804090D01*
X1255080Y804697D01*
D02*
G37*
G36*
X1252540D02*
X1251077Y804090D01*
X1249720Y802733D01*
X1249114Y801270D01*
X1252540D01*
Y804697D01*
D02*
G37*
G36*
X1155080D02*
Y801270D01*
X1158506D01*
X1157900Y802733D01*
X1156543Y804090D01*
X1155080Y804697D01*
D02*
G37*
G36*
X1152540D02*
X1151077Y804090D01*
X1149720Y802733D01*
X1149114Y801270D01*
X1152540D01*
Y804697D01*
D02*
G37*
G36*
X1005080D02*
Y801270D01*
X1008506D01*
X1007900Y802733D01*
X1006543Y804090D01*
X1005080Y804697D01*
D02*
G37*
G36*
X1002540D02*
X1001077Y804090D01*
X999720Y802733D01*
X999113Y801270D01*
X1002540D01*
Y804697D01*
D02*
G37*
G36*
X755080D02*
Y801270D01*
X758506D01*
X757900Y802733D01*
X756543Y804090D01*
X755080Y804697D01*
D02*
G37*
G36*
X752540D02*
X751077Y804090D01*
X749720Y802733D01*
X749113Y801270D01*
X752540D01*
Y804697D01*
D02*
G37*
G36*
X655080D02*
Y801270D01*
X658506D01*
X657900Y802733D01*
X656543Y804090D01*
X655080Y804697D01*
D02*
G37*
G36*
X652540D02*
X651077Y804090D01*
X649720Y802733D01*
X649113Y801270D01*
X652540D01*
Y804697D01*
D02*
G37*
G36*
X555080D02*
Y801270D01*
X558507D01*
X557901Y802733D01*
X556543Y804090D01*
X555080Y804697D01*
D02*
G37*
G36*
X552540D02*
X551077Y804090D01*
X549720Y802733D01*
X549114Y801270D01*
X552540D01*
Y804697D01*
D02*
G37*
G36*
X505080D02*
Y801270D01*
X508507D01*
X507901Y802733D01*
X506543Y804090D01*
X505080Y804697D01*
D02*
G37*
G36*
X502540D02*
X501077Y804090D01*
X499720Y802733D01*
X499114Y801270D01*
X502540D01*
Y804697D01*
D02*
G37*
G36*
X1302540Y798730D02*
X1299114D01*
X1299720Y797267D01*
X1301077Y795910D01*
X1302540Y795303D01*
Y798730D01*
D02*
G37*
G36*
X1258506D02*
X1255080D01*
Y795303D01*
X1256543Y795910D01*
X1257900Y797267D01*
X1258506Y798730D01*
D02*
G37*
G36*
X1252540D02*
X1249114D01*
X1249720Y797267D01*
X1251077Y795910D01*
X1252540Y795303D01*
Y798730D01*
D02*
G37*
G36*
X1158506D02*
X1155080D01*
Y795303D01*
X1156543Y795910D01*
X1157900Y797267D01*
X1158506Y798730D01*
D02*
G37*
G36*
X1152540D02*
X1149114D01*
X1149720Y797267D01*
X1151077Y795910D01*
X1152540Y795303D01*
Y798730D01*
D02*
G37*
G36*
X758506D02*
X755080D01*
Y795303D01*
X756543Y795910D01*
X757900Y797267D01*
X758506Y798730D01*
D02*
G37*
G36*
X752540D02*
X749113D01*
X749720Y797267D01*
X751077Y795910D01*
X752540Y795303D01*
Y798730D01*
D02*
G37*
G36*
X658506D02*
X655080D01*
Y795303D01*
X656543Y795910D01*
X657900Y797267D01*
X658506Y798730D01*
D02*
G37*
G36*
X652540D02*
X649113D01*
X649720Y797267D01*
X651077Y795910D01*
X652540Y795303D01*
Y798730D01*
D02*
G37*
G36*
X558507D02*
X555080D01*
Y795303D01*
X556543Y795910D01*
X557901Y797267D01*
X558507Y798730D01*
D02*
G37*
G36*
X552540D02*
X549114D01*
X549720Y797267D01*
X551077Y795910D01*
X552540Y795303D01*
Y798730D01*
D02*
G37*
G36*
X508507D02*
X505080D01*
Y795303D01*
X506543Y795910D01*
X507901Y797267D01*
X508507Y798730D01*
D02*
G37*
G36*
X502540D02*
X499114D01*
X499720Y797267D01*
X501077Y795910D01*
X502540Y795303D01*
Y798730D01*
D02*
G37*
G36*
X850900Y797049D02*
Y793622D01*
X854327D01*
X853721Y795085D01*
X852363Y796443D01*
X850900Y797049D01*
D02*
G37*
G36*
X572770Y796416D02*
Y792988D01*
X576198D01*
X575591Y794452D01*
X574234Y795809D01*
X572770Y796416D01*
D02*
G37*
G36*
X570230D02*
X568766Y795809D01*
X567409Y794452D01*
X566802Y792988D01*
X570230D01*
Y796416D01*
D02*
G37*
G36*
X1196340Y795908D02*
Y792480D01*
X1199768D01*
X1199161Y793944D01*
X1197804Y795301D01*
X1196340Y795908D01*
D02*
G37*
G36*
X1193800D02*
X1192336Y795301D01*
X1190979Y793944D01*
X1190372Y792480D01*
X1193800D01*
Y795908D01*
D02*
G37*
G36*
X1209040Y792098D02*
Y788670D01*
X1212468D01*
X1211861Y790134D01*
X1210504Y791491D01*
X1209040Y792098D01*
D02*
G37*
G36*
X1206500D02*
X1205036Y791491D01*
X1203679Y790134D01*
X1203072Y788670D01*
X1206500D01*
Y792098D01*
D02*
G37*
G36*
X854327Y791081D02*
X850900D01*
Y787654D01*
X852363Y788260D01*
X853721Y789618D01*
X854327Y791081D01*
D02*
G37*
G36*
X576198Y790448D02*
X572770D01*
Y787020D01*
X574234Y787627D01*
X575591Y788984D01*
X576198Y790448D01*
D02*
G37*
G36*
X570230D02*
X566802D01*
X567409Y788984D01*
X568766Y787627D01*
X570230Y787020D01*
Y790448D01*
D02*
G37*
G36*
X1199768Y789940D02*
X1196340D01*
Y786512D01*
X1197804Y787119D01*
X1199161Y788476D01*
X1199768Y789940D01*
D02*
G37*
G36*
X1193800D02*
X1190372D01*
X1190979Y788476D01*
X1192336Y787119D01*
X1193800Y786512D01*
Y789940D01*
D02*
G37*
G36*
X1034668Y788670D02*
X1031240D01*
Y785242D01*
X1032704Y785849D01*
X1034061Y787206D01*
X1034668Y788670D01*
D02*
G37*
G36*
X1212468Y786130D02*
X1209040D01*
Y782702D01*
X1210504Y783309D01*
X1211861Y784666D01*
X1212468Y786130D01*
D02*
G37*
G36*
X1206500D02*
X1203072D01*
X1203679Y784666D01*
X1205036Y783309D01*
X1206500Y782702D01*
Y786130D01*
D02*
G37*
G36*
X1242868Y962914D02*
X1241252D01*
X1239758Y962295D01*
X1238615Y961152D01*
X1237996Y959658D01*
Y958042D01*
X1238615Y956548D01*
X1239758Y955405D01*
X1241252Y954786D01*
X1242868D01*
X1243116Y954889D01*
X1246924D01*
X1407608Y794204D01*
X1407149Y793409D01*
X1406312Y790286D01*
Y787054D01*
X1407149Y783931D01*
X1408765Y781131D01*
X1411051Y778845D01*
X1413851Y777229D01*
X1416974Y776392D01*
X1420206D01*
X1423329Y777229D01*
X1426129Y778845D01*
X1428415Y781131D01*
X1430031Y783931D01*
X1430868Y787054D01*
Y790286D01*
X1430031Y793409D01*
X1428415Y796209D01*
X1426129Y798495D01*
X1423329Y800111D01*
X1420206Y800948D01*
X1416974D01*
X1413851Y800111D01*
X1413056Y799652D01*
X1251243Y961464D01*
X1249994Y962299D01*
X1248519Y962593D01*
X1248519Y962593D01*
X1243644D01*
X1242868Y962914D01*
D02*
G37*
G36*
X1269026Y870104D02*
X1147784D01*
X1144709Y869699D01*
X1141844Y868512D01*
X1139384Y866624D01*
X1097214Y824454D01*
X1096040Y824940D01*
Y826001D01*
X1095331Y828650D01*
X1093960Y831024D01*
X1092020Y832963D01*
X1089646Y834334D01*
X1086997Y835044D01*
X1086896D01*
Y824630D01*
X1085626D01*
Y823360D01*
X1075212D01*
Y823259D01*
X1075922Y820610D01*
X1077293Y818235D01*
X1079232Y816297D01*
X1081607Y814926D01*
X1084255Y814216D01*
X1085316D01*
X1085802Y813043D01*
X1079731Y806972D01*
X1079700Y806953D01*
X1077903Y805156D01*
X1077259Y804042D01*
X1076880Y803548D01*
X1076642Y802973D01*
X1076632Y802955D01*
X1076627Y802935D01*
X1075694Y800683D01*
X1075289Y797608D01*
X1075694Y794534D01*
X1076880Y791669D01*
X1078768Y789208D01*
X1081229Y787320D01*
X1084094Y786134D01*
X1087169Y785729D01*
X1090243Y786134D01*
X1093108Y787320D01*
X1095569Y789208D01*
X1149701Y843340D01*
X1151015Y842859D01*
X1151609Y841426D01*
X1152966Y840069D01*
X1154430Y839462D01*
Y844160D01*
X1156970D01*
Y839462D01*
X1158330Y840026D01*
X1159690Y839462D01*
Y844160D01*
X1160960D01*
Y845430D01*
X1165811D01*
X1166422Y846344D01*
X1264105D01*
X1304355Y806095D01*
X1303829Y804825D01*
X1302850D01*
X1301077Y804090D01*
X1299720Y802733D01*
X1299114Y801270D01*
X1303810D01*
Y800000D01*
X1305080D01*
Y795303D01*
X1306543Y795910D01*
X1307901Y797267D01*
X1308635Y799040D01*
Y800019D01*
X1309905Y800545D01*
X1331450Y779000D01*
X1333910Y777112D01*
X1336775Y775925D01*
X1339850Y775520D01*
X1342925Y775925D01*
X1344135Y776426D01*
X1347129Y777229D01*
X1349929Y778845D01*
X1352215Y781131D01*
X1353831Y783931D01*
X1354668Y787054D01*
Y790286D01*
X1353831Y793409D01*
X1352215Y796209D01*
X1349929Y798495D01*
X1347129Y800111D01*
X1344006Y800948D01*
X1343102D01*
X1277426Y866624D01*
X1274966Y868512D01*
X1272101Y869699D01*
X1269026Y870104D01*
D02*
G37*
G36*
X1043940Y767968D02*
Y764540D01*
X1047368D01*
X1046761Y766004D01*
X1045404Y767361D01*
X1043940Y767968D01*
D02*
G37*
G36*
X1041400D02*
X1039936Y767361D01*
X1038579Y766004D01*
X1037972Y764540D01*
X1041400D01*
Y767968D01*
D02*
G37*
G36*
X1086897Y783482D02*
X1084355D01*
X1081901Y782824D01*
X1079700Y781553D01*
X1077903Y779756D01*
X1076632Y777555D01*
X1075974Y775101D01*
Y772559D01*
X1076632Y770104D01*
X1077903Y767903D01*
X1079700Y766106D01*
X1081901Y764836D01*
X1084355Y764178D01*
X1086897D01*
X1089352Y764836D01*
X1091553Y766106D01*
X1093350Y767903D01*
X1094620Y770104D01*
X1095278Y772559D01*
Y775101D01*
X1094620Y777555D01*
X1093350Y779756D01*
X1091553Y781553D01*
X1089352Y782824D01*
X1086897Y783482D01*
D02*
G37*
G36*
X1047368Y762000D02*
X1043940D01*
Y758572D01*
X1045404Y759179D01*
X1046761Y760536D01*
X1047368Y762000D01*
D02*
G37*
G36*
X1041400D02*
X1037972D01*
X1038579Y760536D01*
X1039936Y759179D01*
X1041400Y758572D01*
Y762000D01*
D02*
G37*
G36*
X1280080Y754697D02*
Y751270D01*
X1283506D01*
X1282901Y752733D01*
X1281543Y754090D01*
X1280080Y754697D01*
D02*
G37*
G36*
X1277540D02*
X1276077Y754090D01*
X1274720Y752733D01*
X1274114Y751270D01*
X1277540D01*
Y754697D01*
D02*
G37*
G36*
X1230080D02*
Y751270D01*
X1233506D01*
X1232900Y752733D01*
X1231543Y754090D01*
X1230080Y754697D01*
D02*
G37*
G36*
X1227540D02*
X1226077Y754090D01*
X1224720Y752733D01*
X1224114Y751270D01*
X1227540D01*
Y754697D01*
D02*
G37*
G36*
X1180080D02*
Y751270D01*
X1183506D01*
X1182900Y752733D01*
X1181543Y754090D01*
X1180080Y754697D01*
D02*
G37*
G36*
X1177540D02*
X1176077Y754090D01*
X1174720Y752733D01*
X1174114Y751270D01*
X1177540D01*
Y754697D01*
D02*
G37*
G36*
X930080D02*
Y751270D01*
X933506D01*
X932900Y752733D01*
X931543Y754090D01*
X930080Y754697D01*
D02*
G37*
G36*
X927540D02*
X926077Y754090D01*
X924720Y752733D01*
X924113Y751270D01*
X927540D01*
Y754697D01*
D02*
G37*
G36*
X680080D02*
Y751270D01*
X683506D01*
X682900Y752733D01*
X681543Y754090D01*
X680080Y754697D01*
D02*
G37*
G36*
X677540D02*
X676077Y754090D01*
X674720Y752733D01*
X674113Y751270D01*
X677540D01*
Y754697D01*
D02*
G37*
G36*
X580080D02*
Y751270D01*
X583507D01*
X582901Y752733D01*
X581543Y754090D01*
X580080Y754697D01*
D02*
G37*
G36*
X577540D02*
X576077Y754090D01*
X574720Y752733D01*
X574114Y751270D01*
X577540D01*
Y754697D01*
D02*
G37*
G36*
X1283506Y748730D02*
X1280080D01*
Y745303D01*
X1281543Y745910D01*
X1282901Y747267D01*
X1283506Y748730D01*
D02*
G37*
G36*
X1277540D02*
X1274114D01*
X1274720Y747267D01*
X1276077Y745910D01*
X1277540Y745303D01*
Y748730D01*
D02*
G37*
G36*
X1233506D02*
X1230080D01*
Y745303D01*
X1231543Y745910D01*
X1232900Y747267D01*
X1233506Y748730D01*
D02*
G37*
G36*
X1227540D02*
X1224114D01*
X1224720Y747267D01*
X1226077Y745910D01*
X1227540Y745303D01*
Y748730D01*
D02*
G37*
G36*
X1183506D02*
X1180080D01*
Y745303D01*
X1181543Y745910D01*
X1182900Y747267D01*
X1183506Y748730D01*
D02*
G37*
G36*
X1177540D02*
X1174114D01*
X1174720Y747267D01*
X1176077Y745910D01*
X1177540Y745303D01*
Y748730D01*
D02*
G37*
G36*
X933506D02*
X930080D01*
Y745303D01*
X931543Y745910D01*
X932900Y747267D01*
X933506Y748730D01*
D02*
G37*
G36*
X927540D02*
X924113D01*
X924720Y747267D01*
X926077Y745910D01*
X927540Y745303D01*
Y748730D01*
D02*
G37*
G36*
X683506D02*
X680080D01*
Y745303D01*
X681543Y745910D01*
X682900Y747267D01*
X683506Y748730D01*
D02*
G37*
G36*
X677540D02*
X674113D01*
X674720Y747267D01*
X676077Y745910D01*
X677540Y745303D01*
Y748730D01*
D02*
G37*
G36*
X583507D02*
X580080D01*
Y745303D01*
X581543Y745910D01*
X582901Y747267D01*
X583507Y748730D01*
D02*
G37*
G36*
X577540D02*
X574114D01*
X574720Y747267D01*
X576077Y745910D01*
X577540Y745303D01*
Y748730D01*
D02*
G37*
G36*
X740410Y745108D02*
Y741680D01*
X743838D01*
X743231Y743144D01*
X741874Y744501D01*
X740410Y745108D01*
D02*
G37*
G36*
X737870D02*
X736406Y744501D01*
X735049Y743144D01*
X734442Y741680D01*
X737870D01*
Y745108D01*
D02*
G37*
G36*
X1095278Y758082D02*
X1075974D01*
Y738778D01*
X1095278D01*
Y758082D01*
D02*
G37*
G36*
X707580Y754205D02*
X699580D01*
X697550Y753938D01*
X695657Y753154D01*
X694033Y751908D01*
X692786Y750283D01*
X692002Y748391D01*
X691735Y746360D01*
X692002Y744330D01*
X692786Y742438D01*
X694033Y740813D01*
X695657Y739566D01*
X697550Y738782D01*
X699580Y738515D01*
X707580D01*
X709611Y738782D01*
X711503Y739566D01*
X713127Y740813D01*
X714374Y742438D01*
X715158Y744330D01*
X715425Y746360D01*
X715158Y748391D01*
X714374Y750283D01*
X713127Y751908D01*
X711503Y753154D01*
X709611Y753938D01*
X707580Y754205D01*
D02*
G37*
G36*
X649353Y769014D02*
X630049D01*
Y749710D01*
X641993D01*
X657432Y734271D01*
X656946Y733098D01*
X649353D01*
Y735233D01*
X648696Y737688D01*
X647425Y739889D01*
X645628Y741686D01*
X643427Y742956D01*
X640972Y743614D01*
X638430D01*
X635976Y742956D01*
X633775Y741686D01*
X631978Y739889D01*
X630707Y737688D01*
X630049Y735233D01*
Y732691D01*
X630707Y730237D01*
X631978Y728036D01*
X633775Y726239D01*
X635976Y724968D01*
X638430Y724310D01*
X640972D01*
X643427Y724968D01*
X645628Y726239D01*
X646791Y727402D01*
X652968D01*
X653353Y726132D01*
X653026Y725914D01*
X644214Y717102D01*
X643427Y717556D01*
X640972Y718214D01*
X638430D01*
X635976Y717556D01*
X633775Y716286D01*
X631978Y714489D01*
X630707Y712288D01*
X630049Y709833D01*
Y707291D01*
X630707Y704837D01*
X631978Y702636D01*
X633775Y700839D01*
X635976Y699568D01*
X638430Y698910D01*
X640972D01*
X643427Y699568D01*
X645628Y700839D01*
X647425Y702636D01*
X648696Y704837D01*
X649353Y707291D01*
Y709833D01*
X648696Y712288D01*
X648241Y713075D01*
X656219Y721052D01*
X671768D01*
X672294Y719782D01*
X644214Y691702D01*
X643427Y692156D01*
X640972Y692814D01*
X638430D01*
X635976Y692156D01*
X633775Y690886D01*
X631978Y689089D01*
X630707Y686888D01*
X630049Y684433D01*
Y681891D01*
X630707Y679436D01*
X631978Y677236D01*
X633775Y675439D01*
X635976Y674168D01*
X638430Y673510D01*
X640972D01*
X643427Y674168D01*
X645628Y675439D01*
X647425Y677236D01*
X648696Y679436D01*
X649353Y681891D01*
Y684433D01*
X648696Y686888D01*
X648241Y687675D01*
X676539Y715972D01*
X811168D01*
X811811Y715010D01*
X821409D01*
X822052Y715972D01*
X835300D01*
X835898Y715375D01*
X837392Y714756D01*
X839008D01*
X840502Y715375D01*
X841645Y716518D01*
X842264Y718012D01*
Y719628D01*
X841645Y721122D01*
X840502Y722265D01*
X839008Y722884D01*
X837392D01*
X835898Y722265D01*
X835300Y721668D01*
X804717D01*
X804012Y722724D01*
X804164Y723092D01*
Y724708D01*
X803995Y725117D01*
X804700Y726172D01*
X811170D01*
X811768Y725575D01*
X813262Y724956D01*
X814878D01*
X816372Y725575D01*
X817515Y726718D01*
X818134Y728212D01*
Y729828D01*
X817982Y730195D01*
X818688Y731251D01*
X820060D01*
X820658Y730654D01*
X822152Y730035D01*
X823768D01*
X825262Y730654D01*
X826405Y731797D01*
X827024Y733291D01*
Y734908D01*
X826405Y736401D01*
X825262Y737544D01*
X823768Y738163D01*
X822152D01*
X820658Y737544D01*
X820060Y736947D01*
X744161D01*
X743455Y738217D01*
X743838Y739140D01*
X734442D01*
X734825Y738217D01*
X734119Y736947D01*
X662810D01*
X649353Y750404D01*
Y769014D01*
D02*
G37*
G36*
X572770Y729106D02*
Y725678D01*
X576198D01*
X575591Y727142D01*
X574234Y728499D01*
X572770Y729106D01*
D02*
G37*
G36*
X570230D02*
X568766Y728499D01*
X567409Y727142D01*
X566802Y725678D01*
X570230D01*
Y729106D01*
D02*
G37*
G36*
X576198Y723138D02*
X572770D01*
Y719710D01*
X574234Y720317D01*
X575591Y721674D01*
X576198Y723138D01*
D02*
G37*
G36*
X570230D02*
X566802D01*
X567409Y721674D01*
X568766Y720317D01*
X570230Y719710D01*
Y723138D01*
D02*
G37*
G36*
X1420206Y742528D02*
X1416974D01*
X1413851Y741691D01*
X1411051Y740075D01*
X1408765Y737789D01*
X1407149Y734989D01*
X1406312Y731866D01*
Y728634D01*
X1407149Y725511D01*
X1408765Y722711D01*
X1411051Y720425D01*
X1413851Y718809D01*
X1416974Y717972D01*
X1420206D01*
X1423329Y718809D01*
X1426129Y720425D01*
X1428415Y722711D01*
X1430031Y725511D01*
X1430868Y728634D01*
Y731866D01*
X1430031Y734989D01*
X1428415Y737789D01*
X1426129Y740075D01*
X1423329Y741691D01*
X1420206Y742528D01*
D02*
G37*
G36*
X821308Y712470D02*
X817880D01*
Y709042D01*
X819344Y709649D01*
X820701Y711006D01*
X821308Y712470D01*
D02*
G37*
G36*
X815340D02*
X811912D01*
X812519Y711006D01*
X813876Y709649D01*
X815340Y709042D01*
Y712470D01*
D02*
G37*
G36*
X739140Y710819D02*
Y707391D01*
X742567D01*
X741961Y708855D01*
X740603Y710212D01*
X739140Y710819D01*
D02*
G37*
G36*
X736600D02*
X735136Y710212D01*
X733779Y708855D01*
X733172Y707391D01*
X736600D01*
Y710819D01*
D02*
G37*
G36*
X742567Y704851D02*
X739140D01*
Y701423D01*
X740603Y702030D01*
X741961Y703387D01*
X742567Y704851D01*
D02*
G37*
G36*
X736600D02*
X733172D01*
X733779Y703387D01*
X735136Y702030D01*
X736600Y701423D01*
Y704851D01*
D02*
G37*
G36*
X1305080Y704697D02*
Y701270D01*
X1308506D01*
X1307901Y702733D01*
X1306543Y704090D01*
X1305080Y704697D01*
D02*
G37*
G36*
X1302540D02*
X1301077Y704090D01*
X1299720Y702733D01*
X1299114Y701270D01*
X1302540D01*
Y704697D01*
D02*
G37*
G36*
X1205080D02*
Y701270D01*
X1208506D01*
X1207900Y702733D01*
X1206543Y704090D01*
X1205080Y704697D01*
D02*
G37*
G36*
X1202540D02*
X1201077Y704090D01*
X1199720Y702733D01*
X1199114Y701270D01*
X1202540D01*
Y704697D01*
D02*
G37*
G36*
X955080D02*
Y701270D01*
X958506D01*
X957900Y702733D01*
X956543Y704090D01*
X955080Y704697D01*
D02*
G37*
G36*
X952540D02*
X951077Y704090D01*
X949720Y702733D01*
X949113Y701270D01*
X952540D01*
Y704697D01*
D02*
G37*
G36*
X905080D02*
Y701270D01*
X908506D01*
X907900Y702733D01*
X906543Y704090D01*
X905080Y704697D01*
D02*
G37*
G36*
X902540D02*
X901077Y704090D01*
X899720Y702733D01*
X899113Y701270D01*
X902540D01*
Y704697D01*
D02*
G37*
G36*
X555080D02*
Y701270D01*
X558507D01*
X557901Y702733D01*
X556543Y704090D01*
X555080Y704697D01*
D02*
G37*
G36*
X552540D02*
X551077Y704090D01*
X549720Y702733D01*
X549114Y701270D01*
X552540D01*
Y704697D01*
D02*
G37*
G36*
X505080D02*
Y701270D01*
X508507D01*
X507901Y702733D01*
X506543Y704090D01*
X505080Y704697D01*
D02*
G37*
G36*
X502540D02*
X501077Y704090D01*
X499720Y702733D01*
X499114Y701270D01*
X502540D01*
Y704697D01*
D02*
G37*
G36*
X1029971Y721667D02*
X1029971Y721667D01*
X1020246D01*
X1019156Y721450D01*
X1018233Y720833D01*
X1018232Y720833D01*
X1009033Y711633D01*
X1008416Y710709D01*
X1008199Y709619D01*
X1008199Y709619D01*
Y503849D01*
X1006929Y503323D01*
X1006162Y504090D01*
X1004698Y504697D01*
Y500000D01*
Y495303D01*
X1006162Y495910D01*
X1006929Y496677D01*
X1008199Y496151D01*
Y472314D01*
X1008199Y472313D01*
X1008416Y471224D01*
X1009033Y470300D01*
X1025920Y453413D01*
X1025434Y452239D01*
X1025265D01*
X1023491Y451505D01*
X1022134Y450148D01*
X1021528Y448684D01*
X1026224D01*
Y447414D01*
X1027494D01*
Y442718D01*
X1028958Y443324D01*
X1030315Y444681D01*
X1031049Y446455D01*
Y446624D01*
X1032223Y447110D01*
X1113536Y365797D01*
Y364952D01*
X1114155Y363458D01*
X1115298Y362315D01*
X1116792Y361696D01*
X1118408D01*
X1119902Y362315D01*
X1121045Y363458D01*
X1121664Y364952D01*
Y366568D01*
X1121045Y368062D01*
X1119902Y369205D01*
X1118408Y369824D01*
X1117563D01*
X1013894Y473493D01*
Y481860D01*
X1015164Y482386D01*
X1132170Y365380D01*
Y364535D01*
X1132788Y363041D01*
X1133932Y361898D01*
X1135425Y361280D01*
X1137042D01*
X1138536Y361898D01*
X1139679Y363041D01*
X1140298Y364535D01*
Y366152D01*
X1139679Y367646D01*
X1138536Y368789D01*
X1137042Y369408D01*
X1136197D01*
X1018973Y486631D01*
Y703220D01*
X1019571Y703818D01*
X1020190Y705312D01*
Y706928D01*
X1019571Y708422D01*
X1018428Y709565D01*
X1017288Y710037D01*
X1016812Y711357D01*
X1019556Y714101D01*
X1020826Y713576D01*
Y712932D01*
X1021445Y711438D01*
X1022588Y710295D01*
X1024082Y709676D01*
X1024927D01*
X1030932Y703670D01*
Y653849D01*
X1029662Y653323D01*
X1028895Y654090D01*
X1027432Y654697D01*
Y650000D01*
Y645303D01*
X1028895Y645910D01*
X1029662Y646677D01*
X1030932Y646151D01*
Y553849D01*
X1029662Y553323D01*
X1028895Y554090D01*
X1027432Y554697D01*
Y550000D01*
Y545303D01*
X1028895Y545910D01*
X1029662Y546677D01*
X1030932Y546151D01*
Y494030D01*
X1030932Y494030D01*
X1031149Y492940D01*
X1031766Y492016D01*
X1153932Y369851D01*
Y368469D01*
X1153525Y368062D01*
X1152906Y366568D01*
Y364952D01*
X1153525Y363458D01*
X1154668Y362315D01*
X1156162Y361696D01*
X1157778D01*
X1159272Y362315D01*
X1160415Y363458D01*
X1161034Y364952D01*
Y366568D01*
X1160415Y368062D01*
X1159818Y368660D01*
Y370840D01*
X1159818Y370840D01*
X1159601Y371930D01*
X1158984Y372854D01*
X1158984Y372854D01*
X1036628Y495210D01*
Y704850D01*
X1036628Y704850D01*
X1036532Y705330D01*
X1037703Y705956D01*
X1041312Y702347D01*
Y701502D01*
X1041931Y700008D01*
X1043074Y698865D01*
X1044567Y698246D01*
X1046184D01*
X1047678Y698865D01*
X1048821Y700008D01*
X1049440Y701502D01*
Y703118D01*
X1048821Y704612D01*
X1047678Y705755D01*
X1046184Y706374D01*
X1045339D01*
X1040259Y711454D01*
X1040061Y712450D01*
X1039444Y713373D01*
X1031985Y720833D01*
X1031061Y721450D01*
X1029971Y721667D01*
D02*
G37*
G36*
X1308506Y698730D02*
X1305080D01*
Y695303D01*
X1306543Y695910D01*
X1307901Y697267D01*
X1308506Y698730D01*
D02*
G37*
G36*
X1302540D02*
X1299114D01*
X1299720Y697267D01*
X1301077Y695910D01*
X1302540Y695303D01*
Y698730D01*
D02*
G37*
G36*
X1208506D02*
X1205080D01*
Y695303D01*
X1206543Y695910D01*
X1207900Y697267D01*
X1208506Y698730D01*
D02*
G37*
G36*
X1202540D02*
X1199114D01*
X1199720Y697267D01*
X1201077Y695910D01*
X1202540Y695303D01*
Y698730D01*
D02*
G37*
G36*
X958506D02*
X955080D01*
Y695303D01*
X956543Y695910D01*
X957900Y697267D01*
X958506Y698730D01*
D02*
G37*
G36*
X952540D02*
X949113D01*
X949720Y697267D01*
X951077Y695910D01*
X952540Y695303D01*
Y698730D01*
D02*
G37*
G36*
X908506D02*
X905080D01*
Y695303D01*
X906543Y695910D01*
X907900Y697267D01*
X908506Y698730D01*
D02*
G37*
G36*
X902540D02*
X899113D01*
X899720Y697267D01*
X901077Y695910D01*
X902540Y695303D01*
Y698730D01*
D02*
G37*
G36*
X558507D02*
X555080D01*
Y695303D01*
X556543Y695910D01*
X557901Y697267D01*
X558507Y698730D01*
D02*
G37*
G36*
X552540D02*
X549114D01*
X549720Y697267D01*
X551077Y695910D01*
X552540Y695303D01*
Y698730D01*
D02*
G37*
G36*
X508507D02*
X505080D01*
Y695303D01*
X506543Y695910D01*
X507901Y697267D01*
X508507Y698730D01*
D02*
G37*
G36*
X502540D02*
X499114D01*
X499720Y697267D01*
X501077Y695910D01*
X502540Y695303D01*
Y698730D01*
D02*
G37*
G36*
X1344006Y717128D02*
X1340774D01*
X1337651Y716291D01*
X1334851Y714675D01*
X1332565Y712389D01*
X1330949Y709589D01*
X1330112Y706466D01*
Y703234D01*
X1330949Y700111D01*
X1332565Y697311D01*
X1334851Y695025D01*
X1337651Y693409D01*
X1340774Y692572D01*
X1344006D01*
X1347129Y693409D01*
X1349929Y695025D01*
X1352215Y697311D01*
X1353831Y700111D01*
X1354668Y703234D01*
Y706466D01*
X1353831Y709589D01*
X1352215Y712389D01*
X1349929Y714675D01*
X1347129Y716291D01*
X1344006Y717128D01*
D02*
G37*
G36*
X707580Y704205D02*
X699580D01*
X697550Y703938D01*
X695657Y703154D01*
X694033Y701907D01*
X692786Y700282D01*
X692002Y698390D01*
X691735Y696360D01*
X692002Y694329D01*
X692786Y692437D01*
X694033Y690813D01*
X695657Y689566D01*
X697550Y688782D01*
X699580Y688515D01*
X707580D01*
X709611Y688782D01*
X711503Y689566D01*
X713127Y690813D01*
X714374Y692437D01*
X715158Y694329D01*
X715425Y696360D01*
X715158Y698390D01*
X714374Y700282D01*
X713127Y701907D01*
X711503Y703154D01*
X709611Y703938D01*
X707580Y704205D01*
D02*
G37*
G36*
X1164590Y685418D02*
X1163126Y684811D01*
X1162050Y683735D01*
X1160974Y684811D01*
X1159510Y685418D01*
Y680720D01*
Y676022D01*
X1160974Y676629D01*
X1162050Y677705D01*
X1163126Y676629D01*
X1164590Y676022D01*
Y680720D01*
Y685418D01*
D02*
G37*
G36*
X1480398Y706638D02*
X1455842D01*
Y682082D01*
X1480398D01*
Y706638D01*
D02*
G37*
G36*
X1167130Y685418D02*
Y681990D01*
X1170558D01*
X1169951Y683454D01*
X1168594Y684811D01*
X1167130Y685418D01*
D02*
G37*
G36*
X1156970D02*
X1155506Y684811D01*
X1154149Y683454D01*
X1153542Y681990D01*
X1156970D01*
Y685418D01*
D02*
G37*
G36*
X824230Y681608D02*
Y678180D01*
X827658D01*
X827051Y679644D01*
X825694Y681001D01*
X824230Y681608D01*
D02*
G37*
G36*
X821690D02*
X820226Y681001D01*
X818869Y679644D01*
X818262Y678180D01*
X821690D01*
Y681608D01*
D02*
G37*
G36*
X1170558Y679450D02*
X1167130D01*
Y676022D01*
X1168594Y676629D01*
X1169951Y677986D01*
X1170558Y679450D01*
D02*
G37*
G36*
X1156970D02*
X1153542D01*
X1154149Y677986D01*
X1155506Y676629D01*
X1156970Y676022D01*
Y679450D01*
D02*
G37*
G36*
X827658Y675640D02*
X824230D01*
Y672212D01*
X825694Y672819D01*
X827051Y674176D01*
X827658Y675640D01*
D02*
G37*
G36*
X821690D02*
X818262D01*
X818869Y674176D01*
X820226Y672819D01*
X821690Y672212D01*
Y675640D01*
D02*
G37*
G36*
X572770Y660018D02*
Y656590D01*
X576198D01*
X575591Y658054D01*
X574234Y659411D01*
X572770Y660018D01*
D02*
G37*
G36*
X570230D02*
X568766Y659411D01*
X567409Y658054D01*
X566802Y656590D01*
X570230D01*
Y660018D01*
D02*
G37*
G36*
X1180080Y654697D02*
Y651270D01*
X1183506D01*
X1182900Y652733D01*
X1181543Y654090D01*
X1180080Y654697D01*
D02*
G37*
G36*
X1177540D02*
X1176077Y654090D01*
X1174720Y652733D01*
X1174114Y651270D01*
X1177540D01*
Y654697D01*
D02*
G37*
G36*
X1130080D02*
Y651270D01*
X1133506D01*
X1132900Y652733D01*
X1131543Y654090D01*
X1130080Y654697D01*
D02*
G37*
G36*
X1127540D02*
X1126077Y654090D01*
X1124720Y652733D01*
X1124114Y651270D01*
X1127540D01*
Y654697D01*
D02*
G37*
G36*
X1024892D02*
X1023429Y654090D01*
X1022072Y652733D01*
X1021466Y651270D01*
X1024892D01*
Y654697D01*
D02*
G37*
G36*
X780080D02*
Y651270D01*
X783506D01*
X782900Y652733D01*
X781543Y654090D01*
X780080Y654697D01*
D02*
G37*
G36*
X777540D02*
X776077Y654090D01*
X774720Y652733D01*
X774113Y651270D01*
X777540D01*
Y654697D01*
D02*
G37*
G36*
X730080D02*
Y651270D01*
X733506D01*
X732900Y652733D01*
X731543Y654090D01*
X730080Y654697D01*
D02*
G37*
G36*
X727540D02*
X726077Y654090D01*
X724720Y652733D01*
X724113Y651270D01*
X727540D01*
Y654697D01*
D02*
G37*
G36*
X680080D02*
Y651270D01*
X683506D01*
X682900Y652733D01*
X681543Y654090D01*
X680080Y654697D01*
D02*
G37*
G36*
X677540D02*
X676077Y654090D01*
X674720Y652733D01*
X674113Y651270D01*
X677540D01*
Y654697D01*
D02*
G37*
G36*
X576198Y654050D02*
X572770D01*
Y650622D01*
X574234Y651229D01*
X575591Y652586D01*
X576198Y654050D01*
D02*
G37*
G36*
X570230D02*
X566802D01*
X567409Y652586D01*
X568766Y651229D01*
X570230Y650622D01*
Y654050D01*
D02*
G37*
G36*
X1183506Y648730D02*
X1180080D01*
Y645303D01*
X1181543Y645910D01*
X1182900Y647267D01*
X1183506Y648730D01*
D02*
G37*
G36*
X1177540D02*
X1174114D01*
X1174720Y647267D01*
X1176077Y645910D01*
X1177540Y645303D01*
Y648730D01*
D02*
G37*
G36*
X1133506D02*
X1130080D01*
Y645303D01*
X1131543Y645910D01*
X1132900Y647267D01*
X1133506Y648730D01*
D02*
G37*
G36*
X1127540D02*
X1124114D01*
X1124720Y647267D01*
X1126077Y645910D01*
X1127540Y645303D01*
Y648730D01*
D02*
G37*
G36*
X1024892D02*
X1021466D01*
X1022072Y647267D01*
X1023429Y645910D01*
X1024892Y645303D01*
Y648730D01*
D02*
G37*
G36*
X783506D02*
X780080D01*
Y645303D01*
X781543Y645910D01*
X782900Y647267D01*
X783506Y648730D01*
D02*
G37*
G36*
X777540D02*
X774113D01*
X774720Y647267D01*
X776077Y645910D01*
X777540Y645303D01*
Y648730D01*
D02*
G37*
G36*
X733506D02*
X730080D01*
Y645303D01*
X731543Y645910D01*
X732900Y647267D01*
X733506Y648730D01*
D02*
G37*
G36*
X727540D02*
X724113D01*
X724720Y647267D01*
X726077Y645910D01*
X727540Y645303D01*
Y648730D01*
D02*
G37*
G36*
X683506D02*
X680080D01*
Y645303D01*
X681543Y645910D01*
X682900Y647267D01*
X683506Y648730D01*
D02*
G37*
G36*
X677540D02*
X674113D01*
X674720Y647267D01*
X676077Y645910D01*
X677540Y645303D01*
Y648730D01*
D02*
G37*
G36*
X883920Y647700D02*
X880492D01*
X881099Y646236D01*
X882456Y644879D01*
X883920Y644272D01*
Y647700D01*
D02*
G37*
G36*
X1420206Y666328D02*
X1416974D01*
X1413851Y665491D01*
X1411051Y663875D01*
X1408765Y661589D01*
X1407149Y658789D01*
X1406312Y655666D01*
Y652434D01*
X1407149Y649311D01*
X1408765Y646511D01*
X1411051Y644225D01*
X1413851Y642609D01*
X1416974Y641772D01*
X1420206D01*
X1423329Y642609D01*
X1426129Y644225D01*
X1428415Y646511D01*
X1430031Y649311D01*
X1430868Y652434D01*
Y655666D01*
X1430031Y658789D01*
X1428415Y661589D01*
X1426129Y663875D01*
X1423329Y665491D01*
X1420206Y666328D01*
D02*
G37*
G36*
X1469736Y656638D02*
X1466504D01*
X1463381Y655801D01*
X1460581Y654185D01*
X1458295Y651899D01*
X1456679Y649099D01*
X1455842Y645976D01*
Y642744D01*
X1456679Y639621D01*
X1458295Y636821D01*
X1460581Y634535D01*
X1463381Y632919D01*
X1466504Y632082D01*
X1469736D01*
X1472859Y632919D01*
X1475659Y634535D01*
X1477945Y636821D01*
X1479561Y639621D01*
X1480398Y642744D01*
Y645976D01*
X1479561Y649099D01*
X1477945Y651899D01*
X1475659Y654185D01*
X1472859Y655801D01*
X1469736Y656638D01*
D02*
G37*
G36*
X1192530Y628268D02*
Y624840D01*
X1195958D01*
X1195351Y626304D01*
X1193994Y627661D01*
X1192530Y628268D01*
D02*
G37*
G36*
X1189990D02*
X1188526Y627661D01*
X1187169Y626304D01*
X1186562Y624840D01*
X1189990D01*
Y628268D01*
D02*
G37*
G36*
X1209040Y626998D02*
Y623570D01*
X1212468D01*
X1211861Y625034D01*
X1210504Y626391D01*
X1209040Y626998D01*
D02*
G37*
G36*
X1206500D02*
X1205036Y626391D01*
X1203679Y625034D01*
X1203072Y623570D01*
X1206500D01*
Y626998D01*
D02*
G37*
G36*
X889000Y626868D02*
Y623440D01*
X892428D01*
X891821Y624904D01*
X890464Y626261D01*
X889000Y626868D01*
D02*
G37*
G36*
X886460D02*
X884996Y626261D01*
X883639Y624904D01*
X883032Y623440D01*
X886460D01*
Y626868D01*
D02*
G37*
G36*
X972820Y625728D02*
Y622300D01*
X976248D01*
X975641Y623764D01*
X974284Y625121D01*
X972820Y625728D01*
D02*
G37*
G36*
X1195958Y622300D02*
X1192530D01*
Y618872D01*
X1193994Y619479D01*
X1195351Y620836D01*
X1195958Y622300D01*
D02*
G37*
G36*
X1189990D02*
X1186562D01*
X1187169Y620836D01*
X1188526Y619479D01*
X1189990Y618872D01*
Y622300D01*
D02*
G37*
G36*
X1212468Y621030D02*
X1209040D01*
Y617602D01*
X1210504Y618209D01*
X1211861Y619566D01*
X1212468Y621030D01*
D02*
G37*
G36*
X1206500D02*
X1203072D01*
X1203679Y619566D01*
X1205036Y618209D01*
X1206500Y617602D01*
Y621030D01*
D02*
G37*
G36*
X886460Y620900D02*
X883032D01*
X883639Y619436D01*
X884996Y618079D01*
X886460Y617472D01*
Y620900D01*
D02*
G37*
G36*
X952500Y619760D02*
X949072D01*
X949679Y618296D01*
X951036Y616939D01*
X952500Y616332D01*
Y619760D01*
D02*
G37*
G36*
X1305080Y604697D02*
Y601270D01*
X1308506D01*
X1307901Y602733D01*
X1306543Y604090D01*
X1305080Y604697D01*
D02*
G37*
G36*
X1302540D02*
X1301077Y604090D01*
X1299720Y602733D01*
X1299114Y601270D01*
X1302540D01*
Y604697D01*
D02*
G37*
G36*
X1205080D02*
Y601270D01*
X1208506D01*
X1207900Y602733D01*
X1206543Y604090D01*
X1205080Y604697D01*
D02*
G37*
G36*
X1202540D02*
X1201077Y604090D01*
X1199720Y602733D01*
X1199114Y601270D01*
X1202540D01*
Y604697D01*
D02*
G37*
G36*
X1155080D02*
Y601270D01*
X1158506D01*
X1157900Y602733D01*
X1156543Y604090D01*
X1155080Y604697D01*
D02*
G37*
G36*
X1152540D02*
X1151077Y604090D01*
X1149720Y602733D01*
X1149114Y601270D01*
X1152540D01*
Y604697D01*
D02*
G37*
G36*
X1105080D02*
Y601270D01*
X1108506D01*
X1107900Y602733D01*
X1106543Y604090D01*
X1105080Y604697D01*
D02*
G37*
G36*
X1102540D02*
X1101077Y604090D01*
X1099720Y602733D01*
X1099113Y601270D01*
X1102540D01*
Y604697D01*
D02*
G37*
G36*
X1047752D02*
X1046289Y604090D01*
X1044932Y602733D01*
X1044325Y601270D01*
X1047752D01*
Y604697D01*
D02*
G37*
G36*
X505080D02*
Y601270D01*
X508507D01*
X507901Y602733D01*
X506543Y604090D01*
X505080Y604697D01*
D02*
G37*
G36*
X502540D02*
X501077Y604090D01*
X499720Y602733D01*
X499114Y601270D01*
X502540D01*
Y604697D01*
D02*
G37*
G36*
X1308506Y598730D02*
X1305080D01*
Y595303D01*
X1306543Y595910D01*
X1307901Y597267D01*
X1308506Y598730D01*
D02*
G37*
G36*
X1302540D02*
X1299114D01*
X1299720Y597267D01*
X1301077Y595910D01*
X1302540Y595303D01*
Y598730D01*
D02*
G37*
G36*
X1208506D02*
X1205080D01*
Y595303D01*
X1206543Y595910D01*
X1207900Y597267D01*
X1208506Y598730D01*
D02*
G37*
G36*
X1202540D02*
X1199114D01*
X1199720Y597267D01*
X1201077Y595910D01*
X1202540Y595303D01*
Y598730D01*
D02*
G37*
G36*
X1158506D02*
X1155080D01*
Y595303D01*
X1156543Y595910D01*
X1157900Y597267D01*
X1158506Y598730D01*
D02*
G37*
G36*
X1152540D02*
X1149114D01*
X1149720Y597267D01*
X1151077Y595910D01*
X1152540Y595303D01*
Y598730D01*
D02*
G37*
G36*
X1108506D02*
X1105080D01*
Y595303D01*
X1106543Y595910D01*
X1107900Y597267D01*
X1108506Y598730D01*
D02*
G37*
G36*
X1102540D02*
X1099113D01*
X1099720Y597267D01*
X1101077Y595910D01*
X1102540Y595303D01*
Y598730D01*
D02*
G37*
G36*
X1047752D02*
X1044325D01*
X1044932Y597267D01*
X1046289Y595910D01*
X1047752Y595303D01*
Y598730D01*
D02*
G37*
G36*
X508507D02*
X505080D01*
Y595303D01*
X506543Y595910D01*
X507901Y597267D01*
X508507Y598730D01*
D02*
G37*
G36*
X502540D02*
X499114D01*
X499720Y597267D01*
X501077Y595910D01*
X502540Y595303D01*
Y598730D01*
D02*
G37*
G36*
X1469736Y606638D02*
X1466504D01*
X1463381Y605801D01*
X1460581Y604185D01*
X1458295Y601899D01*
X1456679Y599099D01*
X1455842Y595976D01*
Y592744D01*
X1456679Y589621D01*
X1458295Y586821D01*
X1460581Y584535D01*
X1463381Y582919D01*
X1466504Y582082D01*
X1469736D01*
X1472859Y582919D01*
X1475659Y584535D01*
X1477945Y586821D01*
X1479561Y589621D01*
X1480398Y592744D01*
Y595976D01*
X1479561Y599099D01*
X1477945Y601899D01*
X1475659Y604185D01*
X1472859Y605801D01*
X1469736Y606638D01*
D02*
G37*
G36*
X916760Y581278D02*
Y577850D01*
X920188D01*
X919581Y579314D01*
X918224Y580671D01*
X916760Y581278D01*
D02*
G37*
G36*
X914220D02*
X912756Y580671D01*
X911399Y579314D01*
X910792Y577850D01*
X914220D01*
Y581278D01*
D02*
G37*
G36*
X920188Y575310D02*
X916760D01*
Y571882D01*
X918224Y572489D01*
X919581Y573846D01*
X920188Y575310D01*
D02*
G37*
G36*
X914220D02*
X910792D01*
X911399Y573846D01*
X912756Y572489D01*
X914220Y571882D01*
Y575310D01*
D02*
G37*
G36*
X826664Y576417D02*
X826316D01*
Y565397D01*
X837336D01*
Y565745D01*
X836498Y568871D01*
X834880Y571673D01*
X832592Y573961D01*
X829790Y575579D01*
X826664Y576417D01*
D02*
G37*
G36*
X823776D02*
X823428D01*
X820302Y575579D01*
X817500Y573961D01*
X815212Y571673D01*
X813594Y568871D01*
X812756Y565745D01*
Y565397D01*
X823776D01*
Y576417D01*
D02*
G37*
G36*
X916630Y566038D02*
Y562610D01*
X920058D01*
X919451Y564074D01*
X918094Y565431D01*
X916630Y566038D01*
D02*
G37*
G36*
X914090D02*
X912626Y565431D01*
X911269Y564074D01*
X910662Y562610D01*
X914090D01*
Y566038D01*
D02*
G37*
G36*
X920058Y560070D02*
X916630D01*
Y556642D01*
X918094Y557249D01*
X919451Y558606D01*
X920058Y560070D01*
D02*
G37*
G36*
X914090D02*
X910662D01*
X911269Y558606D01*
X912626Y557249D01*
X914090Y556642D01*
Y560070D01*
D02*
G37*
G36*
X1230080Y554697D02*
Y551270D01*
X1233506D01*
X1232900Y552733D01*
X1231543Y554090D01*
X1230080Y554697D01*
D02*
G37*
G36*
X1227540D02*
X1226077Y554090D01*
X1224720Y552733D01*
X1224114Y551270D01*
X1227540D01*
Y554697D01*
D02*
G37*
G36*
X1180080D02*
Y551270D01*
X1183506D01*
X1182900Y552733D01*
X1181543Y554090D01*
X1180080Y554697D01*
D02*
G37*
G36*
X1177540D02*
X1176077Y554090D01*
X1174720Y552733D01*
X1174114Y551270D01*
X1177540D01*
Y554697D01*
D02*
G37*
G36*
X1080080D02*
Y551270D01*
X1083506D01*
X1082900Y552733D01*
X1081543Y554090D01*
X1080080Y554697D01*
D02*
G37*
G36*
X1077540D02*
X1076077Y554090D01*
X1074720Y552733D01*
X1074113Y551270D01*
X1077540D01*
Y554697D01*
D02*
G37*
G36*
X1024892D02*
X1023429Y554090D01*
X1022072Y552733D01*
X1021466Y551270D01*
X1024892D01*
Y554697D01*
D02*
G37*
G36*
X980080D02*
Y551270D01*
X983506D01*
X982900Y552733D01*
X981543Y554090D01*
X980080Y554697D01*
D02*
G37*
G36*
X977540D02*
X976077Y554090D01*
X974720Y552733D01*
X974113Y551270D01*
X977540D01*
Y554697D01*
D02*
G37*
G36*
X577540D02*
X576077Y554090D01*
X574720Y552733D01*
X574114Y551270D01*
X577540D01*
Y554697D01*
D02*
G37*
G36*
X530080D02*
Y551270D01*
X533507D01*
X532901Y552733D01*
X531543Y554090D01*
X530080Y554697D01*
D02*
G37*
G36*
X527540D02*
X526077Y554090D01*
X524720Y552733D01*
X524114Y551270D01*
X527540D01*
Y554697D01*
D02*
G37*
G36*
X1233506Y548730D02*
X1230080D01*
Y545303D01*
X1231543Y545910D01*
X1232900Y547267D01*
X1233506Y548730D01*
D02*
G37*
G36*
X1227540D02*
X1224114D01*
X1224720Y547267D01*
X1226077Y545910D01*
X1227540Y545303D01*
Y548730D01*
D02*
G37*
G36*
X1183506D02*
X1180080D01*
Y545303D01*
X1181543Y545910D01*
X1182900Y547267D01*
X1183506Y548730D01*
D02*
G37*
G36*
X1177540D02*
X1174114D01*
X1174720Y547267D01*
X1176077Y545910D01*
X1177540Y545303D01*
Y548730D01*
D02*
G37*
G36*
X1083506D02*
X1080080D01*
Y545303D01*
X1081543Y545910D01*
X1082900Y547267D01*
X1083506Y548730D01*
D02*
G37*
G36*
X1077540D02*
X1074113D01*
X1074720Y547267D01*
X1076077Y545910D01*
X1077540Y545303D01*
Y548730D01*
D02*
G37*
G36*
X1024892D02*
X1021466D01*
X1022072Y547267D01*
X1023429Y545910D01*
X1024892Y545303D01*
Y548730D01*
D02*
G37*
G36*
X983506D02*
X980080D01*
Y545303D01*
X981543Y545910D01*
X982900Y547267D01*
X983506Y548730D01*
D02*
G37*
G36*
X977540D02*
X974113D01*
X974720Y547267D01*
X976077Y545910D01*
X977540Y545303D01*
Y548730D01*
D02*
G37*
G36*
X583507D02*
X580080D01*
Y545303D01*
X581543Y545910D01*
X582901Y547267D01*
X583507Y548730D01*
D02*
G37*
G36*
X577540D02*
X574114D01*
X574720Y547267D01*
X576077Y545910D01*
X577540Y545303D01*
Y548730D01*
D02*
G37*
G36*
X533507D02*
X530080D01*
Y545303D01*
X531543Y545910D01*
X532901Y547267D01*
X533507Y548730D01*
D02*
G37*
G36*
X527540D02*
X524114D01*
X524720Y547267D01*
X526077Y545910D01*
X527540Y545303D01*
Y548730D01*
D02*
G37*
G36*
X907740Y544448D02*
X906470Y543922D01*
X905200Y544448D01*
Y539750D01*
X903930D01*
Y538480D01*
X899232D01*
X899839Y537016D01*
X901196Y535659D01*
X901924Y535357D01*
Y533983D01*
X901196Y533681D01*
X899839Y532324D01*
X899232Y530860D01*
X903930D01*
Y529590D01*
X905200D01*
Y524892D01*
X906470Y525419D01*
X907740Y524892D01*
Y529590D01*
X909010D01*
Y530860D01*
X913708D01*
X913101Y532324D01*
X911744Y533681D01*
X911016Y533983D01*
Y535357D01*
X911744Y535659D01*
X913101Y537016D01*
X913708Y538480D01*
X909010D01*
Y539750D01*
X907740D01*
Y544448D01*
D02*
G37*
G36*
X910280D02*
Y541020D01*
X913708D01*
X913101Y542484D01*
X911744Y543841D01*
X910280Y544448D01*
D02*
G37*
G36*
X902660D02*
X901196Y543841D01*
X899839Y542484D01*
X899232Y541020D01*
X902660D01*
Y544448D01*
D02*
G37*
G36*
X1251758Y792734D02*
X1250142D01*
X1248648Y792115D01*
X1247505Y790972D01*
X1246886Y789478D01*
Y787862D01*
X1247098Y787350D01*
Y720090D01*
X1247098Y720090D01*
X1247391Y718616D01*
X1248226Y717366D01*
X1407608Y557985D01*
X1407149Y557189D01*
X1406312Y554066D01*
Y550834D01*
X1407149Y547711D01*
X1408765Y544911D01*
X1411051Y542625D01*
X1413851Y541009D01*
X1416974Y540172D01*
X1420206D01*
X1423329Y541009D01*
X1426129Y542625D01*
X1428415Y544911D01*
X1430031Y547711D01*
X1430868Y550834D01*
Y554066D01*
X1430031Y557189D01*
X1428415Y559989D01*
X1426129Y562275D01*
X1423329Y563891D01*
X1420206Y564728D01*
X1416974D01*
X1413851Y563891D01*
X1413056Y563432D01*
X1254802Y721686D01*
Y787350D01*
X1255014Y787862D01*
Y789478D01*
X1254395Y790972D01*
X1253252Y792115D01*
X1251758Y792734D01*
D02*
G37*
G36*
X1344006Y564728D02*
X1340774D01*
X1337651Y563891D01*
X1334851Y562275D01*
X1332565Y559989D01*
X1330949Y557189D01*
X1330112Y554066D01*
Y550834D01*
X1330949Y547711D01*
X1332565Y544911D01*
X1334851Y542625D01*
X1337651Y541009D01*
X1340774Y540172D01*
X1344006D01*
X1347129Y541009D01*
X1349929Y542625D01*
X1352215Y544911D01*
X1353831Y547711D01*
X1354668Y550834D01*
Y554066D01*
X1353831Y557189D01*
X1352215Y559989D01*
X1349929Y562275D01*
X1347129Y563891D01*
X1344006Y564728D01*
D02*
G37*
G36*
X922980Y539978D02*
Y536550D01*
X926408D01*
X925801Y538014D01*
X924444Y539371D01*
X922980Y539978D01*
D02*
G37*
G36*
X920440D02*
X918976Y539371D01*
X917619Y538014D01*
X917012Y536550D01*
X920440D01*
Y539978D01*
D02*
G37*
G36*
X935680Y539367D02*
Y535939D01*
X939108D01*
X938502Y537403D01*
X937144Y538760D01*
X935680Y539367D01*
D02*
G37*
G36*
X933140D02*
X931676Y538760D01*
X930319Y537403D01*
X929713Y535939D01*
X933140D01*
Y539367D01*
D02*
G37*
G36*
X926408Y534010D02*
X922980D01*
Y530583D01*
X924444Y531189D01*
X925801Y532546D01*
X926408Y534010D01*
D02*
G37*
G36*
X920440D02*
X917012D01*
X917619Y532546D01*
X918976Y531189D01*
X920440Y530583D01*
Y534010D01*
D02*
G37*
G36*
X939108Y533399D02*
X935680D01*
Y529971D01*
X937144Y530578D01*
X938502Y531935D01*
X939108Y533399D01*
D02*
G37*
G36*
X933140D02*
X929713D01*
X930319Y531935D01*
X931676Y530578D01*
X933140Y529971D01*
Y533399D01*
D02*
G37*
G36*
X1198880Y530478D02*
Y527050D01*
X1202308D01*
X1201701Y528514D01*
X1200344Y529871D01*
X1198880Y530478D01*
D02*
G37*
G36*
X1196340D02*
X1194876Y529871D01*
X1193519Y528514D01*
X1192912Y527050D01*
X1196340D01*
Y530478D01*
D02*
G37*
G36*
X1178560D02*
Y527050D01*
X1181988D01*
X1181381Y528514D01*
X1180024Y529871D01*
X1178560Y530478D01*
D02*
G37*
G36*
X1176020D02*
X1174556Y529871D01*
X1173199Y528514D01*
X1172592Y527050D01*
X1176020D01*
Y530478D01*
D02*
G37*
G36*
X913708Y528320D02*
X910280D01*
Y524892D01*
X911744Y525499D01*
X913101Y526856D01*
X913708Y528320D01*
D02*
G37*
G36*
X902660D02*
X899232D01*
X899839Y526856D01*
X901196Y525499D01*
X902660Y524892D01*
Y528320D01*
D02*
G37*
G36*
X1202308Y524510D02*
X1198880D01*
Y521082D01*
X1200344Y521689D01*
X1201701Y523046D01*
X1202308Y524510D01*
D02*
G37*
G36*
X1196340D02*
X1192912D01*
X1193519Y523046D01*
X1194876Y521689D01*
X1196340Y521082D01*
Y524510D01*
D02*
G37*
G36*
X1181988D02*
X1178560D01*
Y521082D01*
X1180024Y521689D01*
X1181381Y523046D01*
X1181988Y524510D01*
D02*
G37*
G36*
X1176020D02*
X1172592D01*
X1173199Y523046D01*
X1174556Y521689D01*
X1176020Y521082D01*
Y524510D01*
D02*
G37*
G36*
X1305080Y504697D02*
Y501270D01*
X1308506D01*
X1307901Y502733D01*
X1306543Y504090D01*
X1305080Y504697D01*
D02*
G37*
G36*
X1302540D02*
X1301077Y504090D01*
X1299720Y502733D01*
X1299114Y501270D01*
X1302540D01*
Y504697D01*
D02*
G37*
G36*
X1205080D02*
Y501270D01*
X1208506D01*
X1207900Y502733D01*
X1206543Y504090D01*
X1205080Y504697D01*
D02*
G37*
G36*
X1202540D02*
X1201077Y504090D01*
X1199720Y502733D01*
X1199114Y501270D01*
X1202540D01*
Y504697D01*
D02*
G37*
G36*
X1155080D02*
Y501270D01*
X1158506D01*
X1157900Y502733D01*
X1156543Y504090D01*
X1155080Y504697D01*
D02*
G37*
G36*
X1152540D02*
X1151077Y504090D01*
X1149720Y502733D01*
X1149114Y501270D01*
X1152540D01*
Y504697D01*
D02*
G37*
G36*
X1105080D02*
Y501270D01*
X1108506D01*
X1107900Y502733D01*
X1106543Y504090D01*
X1105080Y504697D01*
D02*
G37*
G36*
X1102540D02*
X1101077Y504090D01*
X1099720Y502733D01*
X1099113Y501270D01*
X1102540D01*
Y504697D01*
D02*
G37*
G36*
X1055080D02*
Y501270D01*
X1058506D01*
X1057900Y502733D01*
X1056543Y504090D01*
X1055080Y504697D01*
D02*
G37*
G36*
X1052540D02*
X1051077Y504090D01*
X1049720Y502733D01*
X1049113Y501270D01*
X1052540D01*
Y504697D01*
D02*
G37*
G36*
X1002159D02*
X1000695Y504090D01*
X999338Y502733D01*
X998732Y501270D01*
X1002159D01*
Y504697D01*
D02*
G37*
G36*
X855080D02*
Y501270D01*
X858506D01*
X857900Y502733D01*
X856543Y504090D01*
X855080Y504697D01*
D02*
G37*
G36*
X852540D02*
X851077Y504090D01*
X849720Y502733D01*
X849113Y501270D01*
X852540D01*
Y504697D01*
D02*
G37*
G36*
X805080D02*
Y501270D01*
X808506D01*
X807900Y502733D01*
X806543Y504090D01*
X805080Y504697D01*
D02*
G37*
G36*
X802540D02*
X801077Y504090D01*
X799720Y502733D01*
X799113Y501270D01*
X802540D01*
Y504697D01*
D02*
G37*
G36*
X755080D02*
Y501270D01*
X758506D01*
X757900Y502733D01*
X756543Y504090D01*
X755080Y504697D01*
D02*
G37*
G36*
X752540D02*
X751077Y504090D01*
X749720Y502733D01*
X749113Y501270D01*
X752540D01*
Y504697D01*
D02*
G37*
G36*
X705080D02*
Y501270D01*
X708506D01*
X707900Y502733D01*
X706543Y504090D01*
X705080Y504697D01*
D02*
G37*
G36*
X702540D02*
X701077Y504090D01*
X699720Y502733D01*
X699113Y501270D01*
X702540D01*
Y504697D01*
D02*
G37*
G36*
X655080D02*
Y501270D01*
X658506D01*
X657900Y502733D01*
X656543Y504090D01*
X655080Y504697D01*
D02*
G37*
G36*
X652540D02*
X651077Y504090D01*
X649720Y502733D01*
X649113Y501270D01*
X652540D01*
Y504697D01*
D02*
G37*
G36*
X605080D02*
Y501270D01*
X608507D01*
X607901Y502733D01*
X606543Y504090D01*
X605080Y504697D01*
D02*
G37*
G36*
X602540D02*
X601077Y504090D01*
X599720Y502733D01*
X599114Y501270D01*
X602540D01*
Y504697D01*
D02*
G37*
G36*
X555080D02*
Y501270D01*
X558507D01*
X557901Y502733D01*
X556543Y504090D01*
X555080Y504697D01*
D02*
G37*
G36*
X552540D02*
X551077Y504090D01*
X549720Y502733D01*
X549114Y501270D01*
X552540D01*
Y504697D01*
D02*
G37*
G36*
X505080D02*
Y501270D01*
X508507D01*
X507901Y502733D01*
X506543Y504090D01*
X505080Y504697D01*
D02*
G37*
G36*
X502540D02*
X501077Y504090D01*
X499720Y502733D01*
X499114Y501270D01*
X502540D01*
Y504697D01*
D02*
G37*
G36*
X916630Y503808D02*
Y500380D01*
X920058D01*
X919451Y501844D01*
X918094Y503201D01*
X916630Y503808D01*
D02*
G37*
G36*
X914090D02*
X912626Y503201D01*
X911269Y501844D01*
X910662Y500380D01*
X914090D01*
Y503808D01*
D02*
G37*
G36*
X1308506Y498730D02*
X1305080D01*
Y495303D01*
X1306543Y495910D01*
X1307901Y497267D01*
X1308506Y498730D01*
D02*
G37*
G36*
X1302540D02*
X1299114D01*
X1299720Y497267D01*
X1301077Y495910D01*
X1302540Y495303D01*
Y498730D01*
D02*
G37*
G36*
X1208506D02*
X1205080D01*
Y495303D01*
X1206543Y495910D01*
X1207900Y497267D01*
X1208506Y498730D01*
D02*
G37*
G36*
X1202540D02*
X1199114D01*
X1199720Y497267D01*
X1201077Y495910D01*
X1202540Y495303D01*
Y498730D01*
D02*
G37*
G36*
X1158506D02*
X1155080D01*
Y495303D01*
X1156543Y495910D01*
X1157900Y497267D01*
X1158506Y498730D01*
D02*
G37*
G36*
X1152540D02*
X1149114D01*
X1149720Y497267D01*
X1151077Y495910D01*
X1152540Y495303D01*
Y498730D01*
D02*
G37*
G36*
X1108506D02*
X1105080D01*
Y495303D01*
X1106543Y495910D01*
X1107900Y497267D01*
X1108506Y498730D01*
D02*
G37*
G36*
X1102540D02*
X1099113D01*
X1099720Y497267D01*
X1101077Y495910D01*
X1102540Y495303D01*
Y498730D01*
D02*
G37*
G36*
X1058506D02*
X1055080D01*
Y495303D01*
X1056543Y495910D01*
X1057900Y497267D01*
X1058506Y498730D01*
D02*
G37*
G36*
X1052540D02*
X1049113D01*
X1049720Y497267D01*
X1051077Y495910D01*
X1052540Y495303D01*
Y498730D01*
D02*
G37*
G36*
X1002159D02*
X998732D01*
X999338Y497267D01*
X1000695Y495910D01*
X1002159Y495303D01*
Y498730D01*
D02*
G37*
G36*
X858506D02*
X855080D01*
Y495303D01*
X856543Y495910D01*
X857900Y497267D01*
X858506Y498730D01*
D02*
G37*
G36*
X852540D02*
X849113D01*
X849720Y497267D01*
X851077Y495910D01*
X852540Y495303D01*
Y498730D01*
D02*
G37*
G36*
X808506D02*
X805080D01*
Y495303D01*
X806543Y495910D01*
X807900Y497267D01*
X808506Y498730D01*
D02*
G37*
G36*
X802540D02*
X799113D01*
X799720Y497267D01*
X801077Y495910D01*
X802540Y495303D01*
Y498730D01*
D02*
G37*
G36*
X758506D02*
X755080D01*
Y495303D01*
X756543Y495910D01*
X757900Y497267D01*
X758506Y498730D01*
D02*
G37*
G36*
X752540D02*
X749113D01*
X749720Y497267D01*
X751077Y495910D01*
X752540Y495303D01*
Y498730D01*
D02*
G37*
G36*
X708506D02*
X705080D01*
Y495303D01*
X706543Y495910D01*
X707900Y497267D01*
X708506Y498730D01*
D02*
G37*
G36*
X702540D02*
X699113D01*
X699720Y497267D01*
X701077Y495910D01*
X702540Y495303D01*
Y498730D01*
D02*
G37*
G36*
X658506D02*
X655080D01*
Y495303D01*
X656543Y495910D01*
X657900Y497267D01*
X658506Y498730D01*
D02*
G37*
G36*
X652540D02*
X649113D01*
X649720Y497267D01*
X651077Y495910D01*
X652540Y495303D01*
Y498730D01*
D02*
G37*
G36*
X608507D02*
X605080D01*
Y495303D01*
X606543Y495910D01*
X607901Y497267D01*
X608507Y498730D01*
D02*
G37*
G36*
X602540D02*
X599114D01*
X599720Y497267D01*
X601077Y495910D01*
X602540Y495303D01*
Y498730D01*
D02*
G37*
G36*
X558507D02*
X555080D01*
Y495303D01*
X556543Y495910D01*
X557901Y497267D01*
X558507Y498730D01*
D02*
G37*
G36*
X552540D02*
X549114D01*
X549720Y497267D01*
X551077Y495910D01*
X552540Y495303D01*
Y498730D01*
D02*
G37*
G36*
X508507D02*
X505080D01*
Y495303D01*
X506543Y495910D01*
X507901Y497267D01*
X508507Y498730D01*
D02*
G37*
G36*
X502540D02*
X499114D01*
X499720Y497267D01*
X501077Y495910D01*
X502540Y495303D01*
Y498730D01*
D02*
G37*
G36*
X920058Y497840D02*
X916630D01*
Y494412D01*
X918094Y495019D01*
X919451Y496376D01*
X920058Y497840D01*
D02*
G37*
G36*
X914090D02*
X910662D01*
X911269Y496376D01*
X912626Y495019D01*
X914090Y494412D01*
Y497840D01*
D02*
G37*
G36*
X926790Y482218D02*
Y478790D01*
X930218D01*
X929611Y480254D01*
X928254Y481611D01*
X926790Y482218D01*
D02*
G37*
G36*
X924250D02*
X922786Y481611D01*
X921429Y480254D01*
X920822Y478790D01*
X924250D01*
Y482218D01*
D02*
G37*
G36*
X411574Y501655D02*
X388518D01*
Y478599D01*
X411574D01*
Y501655D01*
D02*
G37*
G36*
X1417667Y498688D02*
X1414434D01*
X1411311Y497851D01*
X1408511Y496235D01*
X1406225Y493949D01*
X1404609Y491149D01*
X1403772Y488026D01*
Y484794D01*
X1404609Y481671D01*
X1406225Y478871D01*
X1408511Y476585D01*
X1411311Y474969D01*
X1414434Y474132D01*
X1417667D01*
X1420789Y474969D01*
X1423589Y476585D01*
X1425875Y478871D01*
X1427491Y481671D01*
X1428328Y484794D01*
Y488026D01*
X1427491Y491149D01*
X1425875Y493949D01*
X1423589Y496235D01*
X1420789Y497851D01*
X1417667Y498688D01*
D02*
G37*
G36*
X339014Y497542D02*
X335782D01*
X332659Y496705D01*
X329859Y495088D01*
X327573Y492802D01*
X325957Y490003D01*
X325120Y486880D01*
Y483647D01*
X325957Y480524D01*
X327573Y477725D01*
X329859Y475439D01*
X332659Y473822D01*
X335782Y472986D01*
X339014D01*
X342137Y473822D01*
X344937Y475439D01*
X347223Y477725D01*
X348839Y480524D01*
X349676Y483647D01*
Y486880D01*
X348839Y490003D01*
X347223Y492802D01*
X344937Y495088D01*
X342137Y496705D01*
X339014Y497542D01*
D02*
G37*
G36*
X930218Y476250D02*
X926790D01*
Y472822D01*
X928254Y473429D01*
X929611Y474786D01*
X930218Y476250D01*
D02*
G37*
G36*
X924250D02*
X920822D01*
X921429Y474786D01*
X922786Y473429D01*
X924250Y472822D01*
Y476250D01*
D02*
G37*
G36*
X1230080Y454697D02*
Y451270D01*
X1233506D01*
X1232900Y452733D01*
X1231543Y454090D01*
X1230080Y454697D01*
D02*
G37*
G36*
X1227540D02*
X1226077Y454090D01*
X1224720Y452733D01*
X1224114Y451270D01*
X1227540D01*
Y454697D01*
D02*
G37*
G36*
X1130080D02*
Y451270D01*
X1133506D01*
X1132900Y452733D01*
X1131543Y454090D01*
X1130080Y454697D01*
D02*
G37*
G36*
X1127540D02*
X1126077Y454090D01*
X1124720Y452733D01*
X1124114Y451270D01*
X1127540D01*
Y454697D01*
D02*
G37*
G36*
X980080D02*
Y451270D01*
X983506D01*
X982900Y452733D01*
X981543Y454090D01*
X980080Y454697D01*
D02*
G37*
G36*
X977540D02*
X976077Y454090D01*
X974720Y452733D01*
X974113Y451270D01*
X977540D01*
Y454697D01*
D02*
G37*
G36*
X930080D02*
Y451270D01*
X933506D01*
X932900Y452733D01*
X931543Y454090D01*
X930080Y454697D01*
D02*
G37*
G36*
X927540D02*
X926077Y454090D01*
X924720Y452733D01*
X924113Y451270D01*
X927540D01*
Y454697D01*
D02*
G37*
G36*
X830080D02*
Y451270D01*
X833506D01*
X832900Y452733D01*
X831543Y454090D01*
X830080Y454697D01*
D02*
G37*
G36*
X827540D02*
X826077Y454090D01*
X824720Y452733D01*
X824113Y451270D01*
X827540D01*
Y454697D01*
D02*
G37*
G36*
X780080D02*
Y451270D01*
X783506D01*
X782900Y452733D01*
X781543Y454090D01*
X780080Y454697D01*
D02*
G37*
G36*
X777540D02*
X776077Y454090D01*
X774720Y452733D01*
X774113Y451270D01*
X777540D01*
Y454697D01*
D02*
G37*
G36*
X730080D02*
Y451270D01*
X733506D01*
X732900Y452733D01*
X731543Y454090D01*
X730080Y454697D01*
D02*
G37*
G36*
X727540D02*
X726077Y454090D01*
X724720Y452733D01*
X724113Y451270D01*
X727540D01*
Y454697D01*
D02*
G37*
G36*
X680080D02*
Y451270D01*
X683506D01*
X682900Y452733D01*
X681543Y454090D01*
X680080Y454697D01*
D02*
G37*
G36*
X677540D02*
X676077Y454090D01*
X674720Y452733D01*
X674113Y451270D01*
X677540D01*
Y454697D01*
D02*
G37*
G36*
X630080D02*
Y451270D01*
X633507D01*
X632901Y452733D01*
X631543Y454090D01*
X630080Y454697D01*
D02*
G37*
G36*
X627540D02*
X626077Y454090D01*
X624720Y452733D01*
X624114Y451270D01*
X627540D01*
Y454697D01*
D02*
G37*
G36*
X580080D02*
Y451270D01*
X583507D01*
X582901Y452733D01*
X581543Y454090D01*
X580080Y454697D01*
D02*
G37*
G36*
X577540D02*
X576077Y454090D01*
X574720Y452733D01*
X574114Y451270D01*
X577540D01*
Y454697D01*
D02*
G37*
G36*
X530080D02*
Y451270D01*
X533507D01*
X532901Y452733D01*
X531543Y454090D01*
X530080Y454697D01*
D02*
G37*
G36*
X527540D02*
X526077Y454090D01*
X524720Y452733D01*
X524114Y451270D01*
X527540D01*
Y454697D01*
D02*
G37*
G36*
X1341467Y473288D02*
X1338234D01*
X1335111Y472451D01*
X1332311Y470835D01*
X1330025Y468549D01*
X1328409Y465749D01*
X1327572Y462626D01*
Y459394D01*
X1328409Y456271D01*
X1330025Y453471D01*
X1332311Y451185D01*
X1335111Y449569D01*
X1338234Y448732D01*
X1341467D01*
X1344589Y449569D01*
X1347389Y451185D01*
X1349675Y453471D01*
X1351291Y456271D01*
X1352128Y459394D01*
Y462626D01*
X1351291Y465749D01*
X1349675Y468549D01*
X1347389Y470835D01*
X1344589Y472451D01*
X1341467Y473288D01*
D02*
G37*
G36*
X1233506Y448730D02*
X1230080D01*
Y445303D01*
X1231543Y445910D01*
X1232900Y447267D01*
X1233506Y448730D01*
D02*
G37*
G36*
X1227540D02*
X1224114D01*
X1224720Y447267D01*
X1226077Y445910D01*
X1227540Y445303D01*
Y448730D01*
D02*
G37*
G36*
X1133506D02*
X1130080D01*
Y445303D01*
X1131543Y445910D01*
X1132900Y447267D01*
X1133506Y448730D01*
D02*
G37*
G36*
X1127540D02*
X1124114D01*
X1124720Y447267D01*
X1126077Y445910D01*
X1127540Y445303D01*
Y448730D01*
D02*
G37*
G36*
X983506D02*
X980080D01*
Y445303D01*
X981543Y445910D01*
X982900Y447267D01*
X983506Y448730D01*
D02*
G37*
G36*
X977540D02*
X974113D01*
X974720Y447267D01*
X976077Y445910D01*
X977540Y445303D01*
Y448730D01*
D02*
G37*
G36*
X933506D02*
X930080D01*
Y445303D01*
X931543Y445910D01*
X932900Y447267D01*
X933506Y448730D01*
D02*
G37*
G36*
X927540D02*
X924113D01*
X924720Y447267D01*
X926077Y445910D01*
X927540Y445303D01*
Y448730D01*
D02*
G37*
G36*
X833506D02*
X830080D01*
Y445303D01*
X831543Y445910D01*
X832900Y447267D01*
X833506Y448730D01*
D02*
G37*
G36*
X827540D02*
X824113D01*
X824720Y447267D01*
X826077Y445910D01*
X827540Y445303D01*
Y448730D01*
D02*
G37*
G36*
X783506D02*
X780080D01*
Y445303D01*
X781543Y445910D01*
X782900Y447267D01*
X783506Y448730D01*
D02*
G37*
G36*
X777540D02*
X774113D01*
X774720Y447267D01*
X776077Y445910D01*
X777540Y445303D01*
Y448730D01*
D02*
G37*
G36*
X733506D02*
X730080D01*
Y445303D01*
X731543Y445910D01*
X732900Y447267D01*
X733506Y448730D01*
D02*
G37*
G36*
X727540D02*
X724113D01*
X724720Y447267D01*
X726077Y445910D01*
X727540Y445303D01*
Y448730D01*
D02*
G37*
G36*
X683506D02*
X680080D01*
Y445303D01*
X681543Y445910D01*
X682900Y447267D01*
X683506Y448730D01*
D02*
G37*
G36*
X677540D02*
X674113D01*
X674720Y447267D01*
X676077Y445910D01*
X677540Y445303D01*
Y448730D01*
D02*
G37*
G36*
X633507D02*
X630080D01*
Y445303D01*
X631543Y445910D01*
X632901Y447267D01*
X633507Y448730D01*
D02*
G37*
G36*
X627540D02*
X624114D01*
X624720Y447267D01*
X626077Y445910D01*
X627540Y445303D01*
Y448730D01*
D02*
G37*
G36*
X583507D02*
X580080D01*
Y445303D01*
X581543Y445910D01*
X582901Y447267D01*
X583507Y448730D01*
D02*
G37*
G36*
X577540D02*
X574114D01*
X574720Y447267D01*
X576077Y445910D01*
X577540Y445303D01*
Y448730D01*
D02*
G37*
G36*
X533507D02*
X530080D01*
Y445303D01*
X531543Y445910D01*
X532901Y447267D01*
X533507Y448730D01*
D02*
G37*
G36*
X527540D02*
X524114D01*
X524720Y447267D01*
X526077Y445910D01*
X527540Y445303D01*
Y448730D01*
D02*
G37*
G36*
X1024954Y446144D02*
X1021528D01*
X1022134Y444681D01*
X1023491Y443324D01*
X1024954Y442718D01*
Y446144D01*
D02*
G37*
G36*
X339014Y447542D02*
X335782D01*
X332659Y446705D01*
X329859Y445088D01*
X327573Y442802D01*
X325957Y440003D01*
X325120Y436880D01*
Y433647D01*
X325957Y430524D01*
X327573Y427725D01*
X329859Y425439D01*
X332659Y423822D01*
X335782Y422986D01*
X339014D01*
X342137Y423822D01*
X344937Y425439D01*
X347223Y427725D01*
X348839Y430524D01*
X349676Y433647D01*
Y436880D01*
X348839Y440003D01*
X347223Y442802D01*
X344937Y445088D01*
X342137Y446705D01*
X339014Y447542D01*
D02*
G37*
G36*
X934170Y426338D02*
Y422910D01*
X937598D01*
X936992Y424374D01*
X935634Y425731D01*
X934170Y426338D01*
D02*
G37*
G36*
X931630D02*
X930166Y425731D01*
X928809Y424374D01*
X928203Y422910D01*
X931630D01*
Y426338D01*
D02*
G37*
G36*
X1489288Y444548D02*
X1464732D01*
Y419992D01*
X1489288D01*
Y444548D01*
D02*
G37*
G36*
X937598Y420370D02*
X934170D01*
Y416942D01*
X935634Y417549D01*
X936992Y418906D01*
X937598Y420370D01*
D02*
G37*
G36*
X931630D02*
X928203D01*
X928809Y418906D01*
X930166Y417549D01*
X931630Y416942D01*
Y420370D01*
D02*
G37*
G36*
X1305080Y404697D02*
Y401270D01*
X1308506D01*
X1307901Y402733D01*
X1306543Y404090D01*
X1305080Y404697D01*
D02*
G37*
G36*
X1302540D02*
X1301077Y404090D01*
X1299720Y402733D01*
X1299114Y401270D01*
X1302540D01*
Y404697D01*
D02*
G37*
G36*
X1255080D02*
Y401270D01*
X1258506D01*
X1257900Y402733D01*
X1256543Y404090D01*
X1255080Y404697D01*
D02*
G37*
G36*
X1252540D02*
X1251077Y404090D01*
X1249720Y402733D01*
X1249114Y401270D01*
X1252540D01*
Y404697D01*
D02*
G37*
G36*
X1205080D02*
Y401270D01*
X1208506D01*
X1207900Y402733D01*
X1206543Y404090D01*
X1205080Y404697D01*
D02*
G37*
G36*
X1202540D02*
X1201077Y404090D01*
X1199720Y402733D01*
X1199114Y401270D01*
X1202540D01*
Y404697D01*
D02*
G37*
G36*
X1155080D02*
Y401270D01*
X1158506D01*
X1157900Y402733D01*
X1156543Y404090D01*
X1155080Y404697D01*
D02*
G37*
G36*
X1152540D02*
X1151077Y404090D01*
X1149720Y402733D01*
X1149114Y401270D01*
X1152540D01*
Y404697D01*
D02*
G37*
G36*
X1055080D02*
Y401270D01*
X1058506D01*
X1057900Y402733D01*
X1056543Y404090D01*
X1055080Y404697D01*
D02*
G37*
G36*
X1052540D02*
X1051077Y404090D01*
X1049720Y402733D01*
X1049113Y401270D01*
X1052540D01*
Y404697D01*
D02*
G37*
G36*
X855080D02*
Y401270D01*
X858506D01*
X857900Y402733D01*
X856543Y404090D01*
X855080Y404697D01*
D02*
G37*
G36*
X852540D02*
X851077Y404090D01*
X849720Y402733D01*
X849113Y401270D01*
X852540D01*
Y404697D01*
D02*
G37*
G36*
X805080D02*
Y401270D01*
X808506D01*
X807900Y402733D01*
X806543Y404090D01*
X805080Y404697D01*
D02*
G37*
G36*
X802540D02*
X801077Y404090D01*
X799720Y402733D01*
X799113Y401270D01*
X802540D01*
Y404697D01*
D02*
G37*
G36*
X755080D02*
Y401270D01*
X758506D01*
X757900Y402733D01*
X756543Y404090D01*
X755080Y404697D01*
D02*
G37*
G36*
X752540D02*
X751077Y404090D01*
X749720Y402733D01*
X749113Y401270D01*
X752540D01*
Y404697D01*
D02*
G37*
G36*
X705080D02*
Y401270D01*
X708506D01*
X707900Y402733D01*
X706543Y404090D01*
X705080Y404697D01*
D02*
G37*
G36*
X702540D02*
X701077Y404090D01*
X699720Y402733D01*
X699113Y401270D01*
X702540D01*
Y404697D01*
D02*
G37*
G36*
X655080D02*
Y401270D01*
X658506D01*
X657900Y402733D01*
X656543Y404090D01*
X655080Y404697D01*
D02*
G37*
G36*
X652540D02*
X651077Y404090D01*
X649720Y402733D01*
X649113Y401270D01*
X652540D01*
Y404697D01*
D02*
G37*
G36*
X605080D02*
Y401270D01*
X608507D01*
X607901Y402733D01*
X606543Y404090D01*
X605080Y404697D01*
D02*
G37*
G36*
X602540D02*
X601077Y404090D01*
X599720Y402733D01*
X599114Y401270D01*
X602540D01*
Y404697D01*
D02*
G37*
G36*
X555080D02*
Y401270D01*
X558507D01*
X557901Y402733D01*
X556543Y404090D01*
X555080Y404697D01*
D02*
G37*
G36*
X552540D02*
X551077Y404090D01*
X549720Y402733D01*
X549114Y401270D01*
X552540D01*
Y404697D01*
D02*
G37*
G36*
X505080D02*
Y401270D01*
X508507D01*
X507901Y402733D01*
X506543Y404090D01*
X505080Y404697D01*
D02*
G37*
G36*
X502540D02*
X501077Y404090D01*
X499720Y402733D01*
X499114Y401270D01*
X502540D01*
Y404697D01*
D02*
G37*
G36*
X401564Y423655D02*
X398528D01*
X395596Y422869D01*
X392968Y421352D01*
X390821Y419205D01*
X389304Y416577D01*
X388518Y413645D01*
Y410609D01*
X389304Y407677D01*
X390821Y405049D01*
X392968Y402902D01*
X395596Y401385D01*
X398528Y400599D01*
X401564D01*
X404496Y401385D01*
X407124Y402902D01*
X409271Y405049D01*
X410788Y407677D01*
X411574Y410609D01*
Y413645D01*
X410788Y416577D01*
X409271Y419205D01*
X407124Y421352D01*
X404496Y422869D01*
X401564Y423655D01*
D02*
G37*
G36*
X1417667Y422488D02*
X1414434D01*
X1411311Y421651D01*
X1408511Y420035D01*
X1406225Y417749D01*
X1404609Y414949D01*
X1403772Y411826D01*
Y408594D01*
X1404609Y405471D01*
X1406225Y402671D01*
X1408511Y400385D01*
X1411311Y398769D01*
X1414434Y397932D01*
X1417667D01*
X1420789Y398769D01*
X1423589Y400385D01*
X1425875Y402671D01*
X1427491Y405471D01*
X1428328Y408594D01*
Y411826D01*
X1427491Y414949D01*
X1425875Y417749D01*
X1423589Y420035D01*
X1420789Y421651D01*
X1417667Y422488D01*
D02*
G37*
G36*
X1308506Y398730D02*
X1305080D01*
Y395303D01*
X1306543Y395910D01*
X1307901Y397267D01*
X1308506Y398730D01*
D02*
G37*
G36*
X1302540D02*
X1299114D01*
X1299720Y397267D01*
X1301077Y395910D01*
X1302540Y395303D01*
Y398730D01*
D02*
G37*
G36*
X1258506D02*
X1255080D01*
Y395303D01*
X1256543Y395910D01*
X1257900Y397267D01*
X1258506Y398730D01*
D02*
G37*
G36*
X1252540D02*
X1249114D01*
X1249720Y397267D01*
X1251077Y395910D01*
X1252540Y395303D01*
Y398730D01*
D02*
G37*
G36*
X1208506D02*
X1205080D01*
Y395303D01*
X1206543Y395910D01*
X1207900Y397267D01*
X1208506Y398730D01*
D02*
G37*
G36*
X1202540D02*
X1199114D01*
X1199720Y397267D01*
X1201077Y395910D01*
X1202540Y395303D01*
Y398730D01*
D02*
G37*
G36*
X1158506D02*
X1155080D01*
Y395303D01*
X1156543Y395910D01*
X1157900Y397267D01*
X1158506Y398730D01*
D02*
G37*
G36*
X1152540D02*
X1149114D01*
X1149720Y397267D01*
X1151077Y395910D01*
X1152540Y395303D01*
Y398730D01*
D02*
G37*
G36*
X1058506D02*
X1055080D01*
Y395303D01*
X1056543Y395910D01*
X1057900Y397267D01*
X1058506Y398730D01*
D02*
G37*
G36*
X1052540D02*
X1049113D01*
X1049720Y397267D01*
X1051077Y395910D01*
X1052540Y395303D01*
Y398730D01*
D02*
G37*
G36*
X858506D02*
X855080D01*
Y395303D01*
X856543Y395910D01*
X857900Y397267D01*
X858506Y398730D01*
D02*
G37*
G36*
X852540D02*
X849113D01*
X849720Y397267D01*
X851077Y395910D01*
X852540Y395303D01*
Y398730D01*
D02*
G37*
G36*
X808506D02*
X805080D01*
Y395303D01*
X806543Y395910D01*
X807900Y397267D01*
X808506Y398730D01*
D02*
G37*
G36*
X802540D02*
X799113D01*
X799720Y397267D01*
X801077Y395910D01*
X802540Y395303D01*
Y398730D01*
D02*
G37*
G36*
X758506D02*
X755080D01*
Y395303D01*
X756543Y395910D01*
X757900Y397267D01*
X758506Y398730D01*
D02*
G37*
G36*
X752540D02*
X749113D01*
X749720Y397267D01*
X751077Y395910D01*
X752540Y395303D01*
Y398730D01*
D02*
G37*
G36*
X708506D02*
X705080D01*
Y395303D01*
X706543Y395910D01*
X707900Y397267D01*
X708506Y398730D01*
D02*
G37*
G36*
X702540D02*
X699113D01*
X699720Y397267D01*
X701077Y395910D01*
X702540Y395303D01*
Y398730D01*
D02*
G37*
G36*
X658506D02*
X655080D01*
Y395303D01*
X656543Y395910D01*
X657900Y397267D01*
X658506Y398730D01*
D02*
G37*
G36*
X652540D02*
X649113D01*
X649720Y397267D01*
X651077Y395910D01*
X652540Y395303D01*
Y398730D01*
D02*
G37*
G36*
X608507D02*
X605080D01*
Y395303D01*
X606543Y395910D01*
X607901Y397267D01*
X608507Y398730D01*
D02*
G37*
G36*
X602540D02*
X599114D01*
X599720Y397267D01*
X601077Y395910D01*
X602540Y395303D01*
Y398730D01*
D02*
G37*
G36*
X558507D02*
X555080D01*
Y395303D01*
X556543Y395910D01*
X557901Y397267D01*
X558507Y398730D01*
D02*
G37*
G36*
X552540D02*
X549114D01*
X549720Y397267D01*
X551077Y395910D01*
X552540Y395303D01*
Y398730D01*
D02*
G37*
G36*
X508507D02*
X505080D01*
Y395303D01*
X506543Y395910D01*
X507901Y397267D01*
X508507Y398730D01*
D02*
G37*
G36*
X502540D02*
X499114D01*
X499720Y397267D01*
X501077Y395910D01*
X502540Y395303D01*
Y398730D01*
D02*
G37*
G36*
X879800Y390778D02*
X878336Y390171D01*
X876979Y388814D01*
X876372Y387350D01*
X879800D01*
Y390778D01*
D02*
G37*
G36*
X892500Y388238D02*
Y384810D01*
X895928D01*
X895321Y386274D01*
X893964Y387631D01*
X892500Y388238D01*
D02*
G37*
G36*
X879800Y384810D02*
X876372D01*
X876979Y383346D01*
X878336Y381989D01*
X879800Y381382D01*
Y384810D01*
D02*
G37*
G36*
X895928Y382270D02*
X892500D01*
Y378842D01*
X893964Y379449D01*
X895321Y380806D01*
X895928Y382270D01*
D02*
G37*
G36*
X882340Y390778D02*
Y386080D01*
Y381382D01*
X883804Y381989D01*
X885134Y383319D01*
X885286Y383314D01*
X886404Y383028D01*
Y382580D01*
X887139Y380806D01*
X888496Y379449D01*
X889960Y378842D01*
Y383540D01*
Y388238D01*
X888496Y387631D01*
X887166Y386301D01*
X887014Y386306D01*
X885896Y386592D01*
Y387040D01*
X885161Y388814D01*
X883804Y390171D01*
X882340Y390778D01*
D02*
G37*
G36*
X349676Y397542D02*
X325120D01*
Y372986D01*
X349676D01*
Y397542D01*
D02*
G37*
G36*
X1478626Y394548D02*
X1475394D01*
X1472271Y393711D01*
X1469471Y392095D01*
X1467185Y389809D01*
X1465569Y387009D01*
X1464732Y383886D01*
Y380654D01*
X1465569Y377531D01*
X1467185Y374731D01*
X1469471Y372445D01*
X1472271Y370829D01*
X1475394Y369992D01*
X1478626D01*
X1481749Y370829D01*
X1484549Y372445D01*
X1486835Y374731D01*
X1488451Y377531D01*
X1489288Y380654D01*
Y383886D01*
X1488451Y387009D01*
X1486835Y389809D01*
X1484549Y392095D01*
X1481749Y393711D01*
X1478626Y394548D01*
D02*
G37*
G36*
X1198880Y370458D02*
Y367030D01*
X1202308D01*
X1201701Y368494D01*
X1200344Y369851D01*
X1198880Y370458D01*
D02*
G37*
G36*
X1196340D02*
X1194876Y369851D01*
X1193519Y368494D01*
X1192912Y367030D01*
X1196340D01*
Y370458D01*
D02*
G37*
G36*
X1057910D02*
Y367030D01*
X1061338D01*
X1060731Y368494D01*
X1059374Y369851D01*
X1057910Y370458D01*
D02*
G37*
G36*
X1055370D02*
X1053906Y369851D01*
X1052549Y368494D01*
X1051942Y367030D01*
X1055370D01*
Y370458D01*
D02*
G37*
G36*
X1043478Y747014D02*
X1041862D01*
X1040368Y746395D01*
X1039225Y745252D01*
X1038606Y743758D01*
Y742142D01*
X1039225Y740648D01*
X1040368Y739505D01*
X1041862Y738886D01*
X1042707D01*
X1051252Y730340D01*
Y605442D01*
X1050292Y604800D01*
Y600000D01*
Y595200D01*
X1051252Y594558D01*
Y589440D01*
X1051252Y589440D01*
X1051469Y588350D01*
X1052086Y587426D01*
X1113536Y525977D01*
Y524972D01*
X1114155Y523478D01*
X1115298Y522335D01*
X1116792Y521716D01*
X1118408D01*
X1119902Y522335D01*
X1121045Y523478D01*
X1121664Y524972D01*
Y526588D01*
X1121045Y528082D01*
X1119902Y529225D01*
X1118408Y529844D01*
X1117723D01*
X1056948Y590620D01*
Y693543D01*
X1058218Y693795D01*
X1058275Y693658D01*
X1059418Y692515D01*
X1060912Y691896D01*
X1061757D01*
X1083002Y670650D01*
Y586740D01*
X1083002Y586740D01*
X1083219Y585650D01*
X1083836Y584726D01*
X1137545Y531017D01*
X1136978Y529789D01*
X1135618Y529225D01*
X1134475Y528082D01*
X1133856Y526588D01*
Y524972D01*
X1134475Y523478D01*
X1135618Y522335D01*
X1137112Y521716D01*
X1138728D01*
X1140222Y522335D01*
X1141365Y523478D01*
X1141929Y524838D01*
X1143157Y525405D01*
X1174442Y494120D01*
Y368660D01*
X1173845Y368062D01*
X1173226Y366568D01*
Y364952D01*
X1173845Y363458D01*
X1174988Y362315D01*
X1176482Y361696D01*
X1178098D01*
X1179592Y362315D01*
X1180735Y363458D01*
X1181354Y364952D01*
Y366568D01*
X1180735Y368062D01*
X1180138Y368660D01*
Y495300D01*
X1180138Y495300D01*
X1179921Y496390D01*
X1179304Y497314D01*
X1179304Y497314D01*
X1088698Y587920D01*
Y671830D01*
X1088698Y671830D01*
X1088481Y672920D01*
X1087864Y673844D01*
X1087864Y673844D01*
X1065784Y695923D01*
Y696768D01*
X1065165Y698262D01*
X1064022Y699405D01*
X1062528Y700024D01*
X1060912D01*
X1059418Y699405D01*
X1058275Y698262D01*
X1058218Y698124D01*
X1056948Y698377D01*
Y731520D01*
X1056948Y731520D01*
X1056731Y732610D01*
X1056114Y733534D01*
X1056114Y733534D01*
X1046734Y742913D01*
Y743758D01*
X1046115Y745252D01*
X1044972Y746395D01*
X1043478Y747014D01*
D02*
G37*
G36*
X1202308Y364490D02*
X1198880D01*
Y361062D01*
X1200344Y361669D01*
X1201701Y363026D01*
X1202308Y364490D01*
D02*
G37*
G36*
X1196340D02*
X1192912D01*
X1193519Y363026D01*
X1194876Y361669D01*
X1196340Y361062D01*
Y364490D01*
D02*
G37*
G36*
X1061338D02*
X1057910D01*
Y361062D01*
X1059374Y361669D01*
X1060731Y363026D01*
X1061338Y364490D01*
D02*
G37*
G36*
X1055370D02*
X1051942D01*
X1052549Y363026D01*
X1053906Y361669D01*
X1055370Y361062D01*
Y364490D01*
D02*
G37*
G36*
X1230080Y354697D02*
Y351270D01*
X1233506D01*
X1232900Y352733D01*
X1231543Y354090D01*
X1230080Y354697D01*
D02*
G37*
G36*
X1227540D02*
X1226077Y354090D01*
X1224720Y352733D01*
X1224114Y351270D01*
X1227540D01*
Y354697D01*
D02*
G37*
G36*
X1180080D02*
Y351270D01*
X1183506D01*
X1182900Y352733D01*
X1181543Y354090D01*
X1180080Y354697D01*
D02*
G37*
G36*
X1177540D02*
X1176077Y354090D01*
X1174720Y352733D01*
X1174114Y351270D01*
X1177540D01*
Y354697D01*
D02*
G37*
G36*
X1130080D02*
Y351270D01*
X1133506D01*
X1132900Y352733D01*
X1131543Y354090D01*
X1130080Y354697D01*
D02*
G37*
G36*
X1127540D02*
X1126077Y354090D01*
X1124720Y352733D01*
X1124114Y351270D01*
X1127540D01*
Y354697D01*
D02*
G37*
G36*
X1080080D02*
Y351270D01*
X1083506D01*
X1082900Y352733D01*
X1081543Y354090D01*
X1080080Y354697D01*
D02*
G37*
G36*
X1077540D02*
X1076077Y354090D01*
X1074720Y352733D01*
X1074113Y351270D01*
X1077540D01*
Y354697D01*
D02*
G37*
G36*
X1030080D02*
Y351270D01*
X1033506D01*
X1032900Y352733D01*
X1031543Y354090D01*
X1030080Y354697D01*
D02*
G37*
G36*
X1027540D02*
X1026077Y354090D01*
X1024720Y352733D01*
X1024113Y351270D01*
X1027540D01*
Y354697D01*
D02*
G37*
G36*
X780080D02*
Y351270D01*
X783506D01*
X782900Y352733D01*
X781543Y354090D01*
X780080Y354697D01*
D02*
G37*
G36*
X777540D02*
X776077Y354090D01*
X774720Y352733D01*
X774113Y351270D01*
X777540D01*
Y354697D01*
D02*
G37*
G36*
X730080D02*
Y351270D01*
X733506D01*
X732900Y352733D01*
X731543Y354090D01*
X730080Y354697D01*
D02*
G37*
G36*
X727540D02*
X726077Y354090D01*
X724720Y352733D01*
X724113Y351270D01*
X727540D01*
Y354697D01*
D02*
G37*
G36*
X680080D02*
Y351270D01*
X683506D01*
X682900Y352733D01*
X681543Y354090D01*
X680080Y354697D01*
D02*
G37*
G36*
X677540D02*
X676077Y354090D01*
X674720Y352733D01*
X674113Y351270D01*
X677540D01*
Y354697D01*
D02*
G37*
G36*
X630080D02*
Y351270D01*
X633507D01*
X632901Y352733D01*
X631543Y354090D01*
X630080Y354697D01*
D02*
G37*
G36*
X627540D02*
X626077Y354090D01*
X624720Y352733D01*
X624114Y351270D01*
X627540D01*
Y354697D01*
D02*
G37*
G36*
X580080D02*
Y351270D01*
X583507D01*
X582901Y352733D01*
X581543Y354090D01*
X580080Y354697D01*
D02*
G37*
G36*
X577540D02*
X576077Y354090D01*
X574720Y352733D01*
X574114Y351270D01*
X577540D01*
Y354697D01*
D02*
G37*
G36*
X530080D02*
Y351270D01*
X533507D01*
X532901Y352733D01*
X531543Y354090D01*
X530080Y354697D01*
D02*
G37*
G36*
X527540D02*
X526077Y354090D01*
X524720Y352733D01*
X524114Y351270D01*
X527540D01*
Y354697D01*
D02*
G37*
G36*
X1233506Y348730D02*
X1230080D01*
Y345303D01*
X1231543Y345910D01*
X1232900Y347267D01*
X1233506Y348730D01*
D02*
G37*
G36*
X1227540D02*
X1224114D01*
X1224720Y347267D01*
X1226077Y345910D01*
X1227540Y345303D01*
Y348730D01*
D02*
G37*
G36*
X1183506D02*
X1180080D01*
Y345303D01*
X1181543Y345910D01*
X1182900Y347267D01*
X1183506Y348730D01*
D02*
G37*
G36*
X1177540D02*
X1174114D01*
X1174720Y347267D01*
X1176077Y345910D01*
X1177540Y345303D01*
Y348730D01*
D02*
G37*
G36*
X1133506D02*
X1130080D01*
Y345303D01*
X1131543Y345910D01*
X1132900Y347267D01*
X1133506Y348730D01*
D02*
G37*
G36*
X1127540D02*
X1124114D01*
X1124720Y347267D01*
X1126077Y345910D01*
X1127540Y345303D01*
Y348730D01*
D02*
G37*
G36*
X1083506D02*
X1080080D01*
Y345303D01*
X1081543Y345910D01*
X1082900Y347267D01*
X1083506Y348730D01*
D02*
G37*
G36*
X1077540D02*
X1074113D01*
X1074720Y347267D01*
X1076077Y345910D01*
X1077540Y345303D01*
Y348730D01*
D02*
G37*
G36*
X1033506D02*
X1030080D01*
Y345303D01*
X1031543Y345910D01*
X1032900Y347267D01*
X1033506Y348730D01*
D02*
G37*
G36*
X1027540D02*
X1024113D01*
X1024720Y347267D01*
X1026077Y345910D01*
X1027540Y345303D01*
Y348730D01*
D02*
G37*
G36*
X783506D02*
X780080D01*
Y345303D01*
X781543Y345910D01*
X782900Y347267D01*
X783506Y348730D01*
D02*
G37*
G36*
X777540D02*
X774113D01*
X774720Y347267D01*
X776077Y345910D01*
X777540Y345303D01*
Y348730D01*
D02*
G37*
G36*
X733506D02*
X730080D01*
Y345303D01*
X731543Y345910D01*
X732900Y347267D01*
X733506Y348730D01*
D02*
G37*
G36*
X727540D02*
X724113D01*
X724720Y347267D01*
X726077Y345910D01*
X727540Y345303D01*
Y348730D01*
D02*
G37*
G36*
X683506D02*
X680080D01*
Y345303D01*
X681543Y345910D01*
X682900Y347267D01*
X683506Y348730D01*
D02*
G37*
G36*
X677540D02*
X674113D01*
X674720Y347267D01*
X676077Y345910D01*
X677540Y345303D01*
Y348730D01*
D02*
G37*
G36*
X633507D02*
X630080D01*
Y345303D01*
X631543Y345910D01*
X632901Y347267D01*
X633507Y348730D01*
D02*
G37*
G36*
X627540D02*
X624114D01*
X624720Y347267D01*
X626077Y345910D01*
X627540Y345303D01*
Y348730D01*
D02*
G37*
G36*
X583507D02*
X580080D01*
Y345303D01*
X581543Y345910D01*
X582901Y347267D01*
X583507Y348730D01*
D02*
G37*
G36*
X577540D02*
X574114D01*
X574720Y347267D01*
X576077Y345910D01*
X577540Y345303D01*
Y348730D01*
D02*
G37*
G36*
X533507D02*
X530080D01*
Y345303D01*
X531543Y345910D01*
X532901Y347267D01*
X533507Y348730D01*
D02*
G37*
G36*
X527540D02*
X524114D01*
X524720Y347267D01*
X526077Y345910D01*
X527540Y345303D01*
Y348730D01*
D02*
G37*
G36*
X826564Y349655D02*
X823528D01*
X820596Y348869D01*
X817968Y347352D01*
X815821Y345205D01*
X814304Y342577D01*
X813518Y339645D01*
Y336609D01*
X814304Y333677D01*
X815821Y331049D01*
X817968Y328902D01*
X820596Y327385D01*
X823528Y326599D01*
X826564D01*
X829496Y327385D01*
X832124Y328902D01*
X834271Y331049D01*
X835788Y333677D01*
X836574Y336609D01*
Y339645D01*
X835788Y342577D01*
X834271Y345205D01*
X832124Y347352D01*
X829496Y348869D01*
X826564Y349655D01*
D02*
G37*
G36*
X1478626Y344548D02*
X1475394D01*
X1472271Y343711D01*
X1469471Y342095D01*
X1467185Y339809D01*
X1465569Y337009D01*
X1464732Y333886D01*
Y330654D01*
X1465569Y327531D01*
X1467185Y324731D01*
X1469471Y322445D01*
X1472271Y320829D01*
X1475394Y319992D01*
X1478626D01*
X1481749Y320829D01*
X1484549Y322445D01*
X1486835Y324731D01*
X1488451Y327531D01*
X1489288Y330654D01*
Y333886D01*
X1488451Y337009D01*
X1486835Y339809D01*
X1484549Y342095D01*
X1481749Y343711D01*
X1478626Y344548D01*
D02*
G37*
G36*
X907740Y310768D02*
Y307340D01*
X911168D01*
X910561Y308804D01*
X909204Y310161D01*
X907740Y310768D01*
D02*
G37*
G36*
X905200D02*
X903736Y310161D01*
X902379Y308804D01*
X901772Y307340D01*
X905200D01*
Y310768D01*
D02*
G37*
G36*
X911168Y304800D02*
X907740D01*
Y301372D01*
X909204Y301979D01*
X910561Y303336D01*
X911168Y304800D01*
D02*
G37*
G36*
X905200D02*
X901772D01*
X902379Y303336D01*
X903736Y301979D01*
X905200Y301372D01*
Y304800D01*
D02*
G37*
G36*
X1005080Y304697D02*
Y301270D01*
X1008506D01*
X1007900Y302733D01*
X1006543Y304090D01*
X1005080Y304697D01*
D02*
G37*
G36*
X1002540D02*
X1001077Y304090D01*
X999720Y302733D01*
X999113Y301270D01*
X1002540D01*
Y304697D01*
D02*
G37*
G36*
X955080D02*
Y301270D01*
X958506D01*
X957900Y302733D01*
X956543Y304090D01*
X955080Y304697D01*
D02*
G37*
G36*
X952540D02*
X951077Y304090D01*
X949720Y302733D01*
X949113Y301270D01*
X952540D01*
Y304697D01*
D02*
G37*
G36*
X855080D02*
Y301270D01*
X858506D01*
X857900Y302733D01*
X856543Y304090D01*
X855080Y304697D01*
D02*
G37*
G36*
X852540D02*
X851077Y304090D01*
X849720Y302733D01*
X849113Y301270D01*
X852540D01*
Y304697D01*
D02*
G37*
G36*
X805080D02*
Y301270D01*
X808506D01*
X807900Y302733D01*
X806543Y304090D01*
X805080Y304697D01*
D02*
G37*
G36*
X802540D02*
X801077Y304090D01*
X799720Y302733D01*
X799113Y301270D01*
X802540D01*
Y304697D01*
D02*
G37*
G36*
X755080D02*
Y301270D01*
X758506D01*
X757900Y302733D01*
X756543Y304090D01*
X755080Y304697D01*
D02*
G37*
G36*
X752540D02*
X751077Y304090D01*
X749720Y302733D01*
X749113Y301270D01*
X752540D01*
Y304697D01*
D02*
G37*
G36*
X705080D02*
Y301270D01*
X708506D01*
X707900Y302733D01*
X706543Y304090D01*
X705080Y304697D01*
D02*
G37*
G36*
X702540D02*
X701077Y304090D01*
X699720Y302733D01*
X699113Y301270D01*
X702540D01*
Y304697D01*
D02*
G37*
G36*
X655080D02*
Y301270D01*
X658506D01*
X657900Y302733D01*
X656543Y304090D01*
X655080Y304697D01*
D02*
G37*
G36*
X652540D02*
X651077Y304090D01*
X649720Y302733D01*
X649113Y301270D01*
X652540D01*
Y304697D01*
D02*
G37*
G36*
X605080D02*
Y301270D01*
X608507D01*
X607901Y302733D01*
X606543Y304090D01*
X605080Y304697D01*
D02*
G37*
G36*
X602540D02*
X601077Y304090D01*
X599720Y302733D01*
X599114Y301270D01*
X602540D01*
Y304697D01*
D02*
G37*
G36*
X555080D02*
Y301270D01*
X558507D01*
X557901Y302733D01*
X556543Y304090D01*
X555080Y304697D01*
D02*
G37*
G36*
X552540D02*
X551077Y304090D01*
X549720Y302733D01*
X549114Y301270D01*
X552540D01*
Y304697D01*
D02*
G37*
G36*
X505080D02*
Y301270D01*
X508507D01*
X507901Y302733D01*
X506543Y304090D01*
X505080Y304697D01*
D02*
G37*
G36*
X502540D02*
X501077Y304090D01*
X499720Y302733D01*
X499114Y301270D01*
X502540D01*
Y304697D01*
D02*
G37*
G36*
X1250488Y626364D02*
X1248872D01*
X1247378Y625745D01*
X1246235Y624602D01*
X1245616Y623108D01*
Y621492D01*
X1245828Y620980D01*
Y474980D01*
X1245828Y474980D01*
X1246121Y473506D01*
X1246956Y472256D01*
X1405068Y314144D01*
X1404609Y313349D01*
X1403772Y310226D01*
Y306994D01*
X1404609Y303871D01*
X1406225Y301071D01*
X1408511Y298785D01*
X1411311Y297169D01*
X1414434Y296332D01*
X1417667D01*
X1420789Y297169D01*
X1423589Y298785D01*
X1425875Y301071D01*
X1427491Y303871D01*
X1428328Y306994D01*
Y310226D01*
X1427491Y313349D01*
X1425875Y316149D01*
X1423589Y318435D01*
X1420789Y320051D01*
X1417667Y320888D01*
X1414434D01*
X1411311Y320051D01*
X1410516Y319592D01*
X1253532Y476576D01*
Y620980D01*
X1253744Y621492D01*
Y623108D01*
X1253125Y624602D01*
X1251982Y625745D01*
X1250488Y626364D01*
D02*
G37*
G36*
X1341467Y320888D02*
X1338234D01*
X1335111Y320051D01*
X1332311Y318435D01*
X1330025Y316149D01*
X1328409Y313349D01*
X1327572Y310226D01*
Y306994D01*
X1328409Y303871D01*
X1330025Y301071D01*
X1332311Y298785D01*
X1335111Y297169D01*
X1338234Y296332D01*
X1341467D01*
X1344589Y297169D01*
X1347389Y298785D01*
X1349675Y301071D01*
X1351291Y303871D01*
X1352128Y306994D01*
Y310226D01*
X1351291Y313349D01*
X1349675Y316149D01*
X1347389Y318435D01*
X1344589Y320051D01*
X1341467Y320888D01*
D02*
G37*
G36*
X1008506Y298730D02*
X1005080D01*
Y295303D01*
X1006543Y295910D01*
X1007900Y297267D01*
X1008506Y298730D01*
D02*
G37*
G36*
X1002540D02*
X999113D01*
X999720Y297267D01*
X1001077Y295910D01*
X1002540Y295303D01*
Y298730D01*
D02*
G37*
G36*
X958506D02*
X955080D01*
Y295303D01*
X956543Y295910D01*
X957900Y297267D01*
X958506Y298730D01*
D02*
G37*
G36*
X952540D02*
X949113D01*
X949720Y297267D01*
X951077Y295910D01*
X952540Y295303D01*
Y298730D01*
D02*
G37*
G36*
X858506D02*
X855080D01*
Y295303D01*
X856543Y295910D01*
X857900Y297267D01*
X858506Y298730D01*
D02*
G37*
G36*
X852540D02*
X849113D01*
X849720Y297267D01*
X851077Y295910D01*
X852540Y295303D01*
Y298730D01*
D02*
G37*
G36*
X808506D02*
X805080D01*
Y295303D01*
X806543Y295910D01*
X807900Y297267D01*
X808506Y298730D01*
D02*
G37*
G36*
X802540D02*
X799113D01*
X799720Y297267D01*
X801077Y295910D01*
X802540Y295303D01*
Y298730D01*
D02*
G37*
G36*
X758506D02*
X755080D01*
Y295303D01*
X756543Y295910D01*
X757900Y297267D01*
X758506Y298730D01*
D02*
G37*
G36*
X752540D02*
X749113D01*
X749720Y297267D01*
X751077Y295910D01*
X752540Y295303D01*
Y298730D01*
D02*
G37*
G36*
X708506D02*
X705080D01*
Y295303D01*
X706543Y295910D01*
X707900Y297267D01*
X708506Y298730D01*
D02*
G37*
G36*
X702540D02*
X699113D01*
X699720Y297267D01*
X701077Y295910D01*
X702540Y295303D01*
Y298730D01*
D02*
G37*
G36*
X658506D02*
X655080D01*
Y295303D01*
X656543Y295910D01*
X657900Y297267D01*
X658506Y298730D01*
D02*
G37*
G36*
X652540D02*
X649113D01*
X649720Y297267D01*
X651077Y295910D01*
X652540Y295303D01*
Y298730D01*
D02*
G37*
G36*
X608507D02*
X605080D01*
Y295303D01*
X606543Y295910D01*
X607901Y297267D01*
X608507Y298730D01*
D02*
G37*
G36*
X602540D02*
X599114D01*
X599720Y297267D01*
X601077Y295910D01*
X602540Y295303D01*
Y298730D01*
D02*
G37*
G36*
X558507D02*
X555080D01*
Y295303D01*
X556543Y295910D01*
X557901Y297267D01*
X558507Y298730D01*
D02*
G37*
G36*
X552540D02*
X549114D01*
X549720Y297267D01*
X551077Y295910D01*
X552540Y295303D01*
Y298730D01*
D02*
G37*
G36*
X508507D02*
X505080D01*
Y295303D01*
X506543Y295910D01*
X507901Y297267D01*
X508507Y298730D01*
D02*
G37*
G36*
X502540D02*
X499114D01*
X499720Y297267D01*
X501077Y295910D01*
X502540Y295303D01*
Y298730D01*
D02*
G37*
G36*
X1507117Y306940D02*
X1506220D01*
Y280670D01*
X1532490D01*
Y281567D01*
X1531812Y285849D01*
X1530472Y289972D01*
X1528504Y293834D01*
X1525956Y297341D01*
X1522891Y300406D01*
X1519384Y302954D01*
X1515522Y304922D01*
X1511399Y306262D01*
X1507117Y306940D01*
D02*
G37*
G36*
X1503680D02*
X1502782D01*
X1498501Y306262D01*
X1494378Y304922D01*
X1490516Y302954D01*
X1487009Y300406D01*
X1483944Y297341D01*
X1481396Y293834D01*
X1479428Y289972D01*
X1478088Y285849D01*
X1477410Y281567D01*
Y280670D01*
X1503680D01*
Y306940D01*
D02*
G37*
G36*
X347607Y301860D02*
X346710D01*
Y275590D01*
X372980D01*
Y276488D01*
X372302Y280769D01*
X370962Y284892D01*
X368994Y288754D01*
X366446Y292261D01*
X363381Y295326D01*
X359874Y297874D01*
X356012Y299842D01*
X351889Y301182D01*
X347607Y301860D01*
D02*
G37*
G36*
X344170D02*
X343273D01*
X338991Y301182D01*
X334868Y299842D01*
X331006Y297874D01*
X327499Y295326D01*
X324434Y292261D01*
X321886Y288754D01*
X319918Y284892D01*
X318578Y280769D01*
X317900Y276488D01*
Y275590D01*
X344170D01*
Y301860D01*
D02*
G37*
G36*
X1532490Y278130D02*
X1506220D01*
Y251860D01*
X1507117D01*
X1511399Y252538D01*
X1515522Y253878D01*
X1519384Y255846D01*
X1522891Y258394D01*
X1525956Y261459D01*
X1528504Y264966D01*
X1530472Y268828D01*
X1531812Y272951D01*
X1532490Y277232D01*
Y278130D01*
D02*
G37*
G36*
X1503680D02*
X1477410D01*
Y277232D01*
X1478088Y272951D01*
X1479428Y268828D01*
X1481396Y264966D01*
X1483944Y261459D01*
X1487009Y258394D01*
X1490516Y255846D01*
X1494378Y253878D01*
X1498501Y252538D01*
X1502782Y251860D01*
X1503680D01*
Y278130D01*
D02*
G37*
G36*
X372980Y273050D02*
X346710D01*
Y246780D01*
X347607D01*
X351889Y247458D01*
X356012Y248798D01*
X359874Y250766D01*
X363381Y253314D01*
X366446Y256379D01*
X368994Y259886D01*
X370962Y263748D01*
X372302Y267871D01*
X372980Y272153D01*
Y273050D01*
D02*
G37*
G36*
X344170D02*
X317900D01*
Y272153D01*
X318578Y267871D01*
X319918Y263748D01*
X321886Y259886D01*
X324434Y256379D01*
X327499Y253314D01*
X331006Y250766D01*
X334868Y248798D01*
X338991Y247458D01*
X343273Y246780D01*
X344170D01*
Y273050D01*
D02*
G37*
%LPD*%
G36*
X1065488Y1086986D02*
Y1081712D01*
X1065276Y1081200D01*
Y1079584D01*
X1065895Y1078090D01*
X1067038Y1076947D01*
X1067815Y1076625D01*
X1067644Y1075321D01*
X1067571Y1075312D01*
X1065922Y1074629D01*
X1064506Y1073542D01*
X1063419Y1072126D01*
X1062737Y1070478D01*
X1062504Y1068708D01*
Y1004619D01*
X1061234Y1004208D01*
X1059797Y1005644D01*
X1057681Y1006866D01*
X1055322Y1007498D01*
X1052878D01*
X1050519Y1006866D01*
X1048403Y1005644D01*
X1046676Y1003917D01*
X1045454Y1001801D01*
X1044822Y999443D01*
X1043774Y999234D01*
X1042850Y998617D01*
X1042850Y998617D01*
X1038583Y994351D01*
X1037445Y995008D01*
X1037978Y996999D01*
Y999442D01*
X1037346Y1001801D01*
X1036124Y1003917D01*
X1034397Y1005644D01*
X1032552Y1006709D01*
Y1023620D01*
X1032552Y1023620D01*
X1032259Y1025094D01*
X1031424Y1026344D01*
X1031669Y1027491D01*
X1046400Y1042222D01*
X1046400Y1042222D01*
X1047235Y1043472D01*
X1047528Y1044946D01*
Y1070822D01*
X1064218Y1087512D01*
X1065488Y1086986D01*
D02*
G37*
D11*
X988060Y535940D02*
Y593902D01*
X949960Y632002D02*
X988060Y593902D01*
X949960Y632002D02*
Y648970D01*
X982980Y530860D02*
X988060Y535940D01*
D80*
X1042670Y742950D02*
X1054100Y731520D01*
Y589440D02*
X1117760Y525780D01*
X1054100Y589440D02*
Y731520D01*
X890270Y1224280D02*
X941070D01*
X944880Y1201420D02*
X948690Y1197610D01*
X944880Y1201420D02*
Y1220470D01*
X941070Y1224280D02*
X944880Y1220470D01*
X868680Y1209040D02*
X878097Y1199623D01*
X868680Y1209040D02*
Y1224280D01*
X878097Y1199623D02*
X921277D01*
X923290Y1197610D01*
X929679Y867410D02*
Y910551D01*
X843280Y996950D02*
X929679Y910551D01*
X1029971Y718819D02*
X1037430Y711360D01*
Y710256D02*
Y711360D01*
Y710256D02*
X1045376Y702310D01*
X1033780Y494030D02*
X1156970Y370840D01*
X1024890Y713740D02*
X1033780Y704850D01*
Y494030D02*
Y704850D01*
X1011047Y709619D02*
X1020246Y718819D01*
X1016125Y485452D02*
X1136234Y365344D01*
X1011047Y472313D02*
X1117600Y365760D01*
X1011047Y472313D02*
Y709619D01*
X1016125Y485452D02*
Y706120D01*
X1020246Y718819D02*
X1029971D01*
X639701Y708562D02*
X655039Y723900D01*
X800100D01*
X954563Y821335D02*
X957094D01*
X957580Y820848D01*
X638305Y681766D02*
X675359Y718820D01*
X838200D01*
X935990Y861060D02*
Y887730D01*
X819150Y963930D02*
Y991870D01*
X935990Y887730D02*
X1044864Y996604D01*
X793750Y991870D02*
X794572Y991048D01*
X1156970Y365760D02*
Y370840D01*
X1085850Y586740D02*
X1177290Y495300D01*
X1061720Y695960D02*
X1085850Y671830D01*
X794572Y981325D02*
Y991048D01*
Y981325D02*
X954563Y821335D01*
X819150Y963930D02*
X953770Y829310D01*
X640080Y755650D02*
X661631Y734099D01*
X822960D01*
X640080Y755650D02*
Y763270D01*
X641350Y730250D02*
X665480D01*
X664250Y729020D02*
X665480Y730250D01*
X664250Y729020D02*
X814070D01*
X1085850Y586740D02*
Y671830D01*
X1052484Y996604D02*
X1054100Y998220D01*
X1177290Y365760D02*
Y495300D01*
X1044864Y996604D02*
X1052484D01*
D82*
X1021080Y1031240D02*
X1025525Y1026795D01*
X1017796Y1072418D02*
X1042250D01*
X1043676D01*
Y1044946D02*
Y1072418D01*
X1025525Y1026795D02*
X1043676Y1044946D01*
X1025525Y1026795D02*
X1028700Y1023620D01*
X716280Y900430D02*
X718820Y897890D01*
X716280Y1014730D02*
X732790Y1031240D01*
X716280Y900430D02*
Y1014730D01*
X831850Y739099D02*
X840740Y747989D01*
X829310Y897890D02*
X840740Y886460D01*
Y747989D02*
Y886460D01*
X1028700Y998220D02*
Y1023620D01*
X1069076Y1092519D02*
X1069340Y1092783D01*
Y1080392D02*
Y1092628D01*
X1306830Y1130300D02*
X1418590Y1018540D01*
X1247140Y1130300D02*
X1306830D01*
X1248519Y958741D02*
X1418590Y788670D01*
X1242169Y958741D02*
X1248519D01*
X1242060Y958850D02*
X1242169Y958741D01*
X1250950Y720090D02*
X1418590Y552450D01*
X1250950Y720090D02*
Y788670D01*
X1249680Y474980D02*
X1416050Y308610D01*
X1249680Y474980D02*
Y622300D01*
X1063777Y1092519D02*
X1069076D01*
X732790Y1031240D02*
X1021080D01*
X1015833Y1074380D02*
X1017796Y1072418D01*
X1043676D02*
X1063777Y1092519D01*
X989798Y1074380D02*
X1015833D01*
X718820Y897890D02*
X829310D01*
D83*
X1087169Y797608D02*
X1147784Y858224D01*
X1269026D01*
X1339850Y787400D01*
D84*
X496570Y651510D02*
Y656590D01*
X497840Y657860D01*
X802640Y677800D02*
X822406Y658034D01*
X880240Y807720D02*
X898020Y789940D01*
X977900D01*
X888950Y544780D02*
X900120Y555950D01*
Y562610D01*
X897890Y578680D02*
X899990Y576580D01*
X897890Y658034D02*
X961882D01*
X967740Y663892D01*
Y779780D01*
X977900Y789940D01*
X1014600D01*
X1069340Y844680D01*
Y1068708D01*
X897890Y642750D02*
Y658034D01*
Y578680D02*
Y614432D01*
X967740Y640080D02*
X971550Y636270D01*
X892810Y637670D02*
X901874Y628606D01*
X967740Y640080D02*
Y663892D01*
X601526Y544780D02*
X888950D01*
X901874Y618416D02*
Y628606D01*
X892810Y637670D02*
X897890Y642750D01*
X822406Y658034D02*
X897890D01*
Y614432D02*
X901874Y618416D01*
X496570Y649736D02*
X601526Y544780D01*
X496570Y649736D02*
Y651510D01*
X491486Y655320D02*
X495300D01*
X491236Y655070D02*
X491486Y655320D01*
X899990Y562740D02*
Y576580D01*
D87*
X1469390Y1183310D02*
D03*
X337398Y385264D02*
D03*
X1468120Y928840D02*
D03*
X1477010Y432270D02*
D03*
X1468120Y694360D02*
D03*
D88*
X1469390Y1133310D02*
D03*
Y1083310D02*
D03*
X337398Y485264D02*
D03*
Y435264D02*
D03*
X1416050Y410210D02*
D03*
Y486410D02*
D03*
X1339850Y461010D02*
D03*
X1416050Y308610D02*
D03*
X1339850D02*
D03*
X1468120Y878840D02*
D03*
Y828840D02*
D03*
X1418590Y890270D02*
D03*
X1342390Y941070D02*
D03*
X1418590Y966470D02*
D03*
X1342390Y1018540D02*
D03*
Y788670D02*
D03*
Y552450D02*
D03*
X1477010Y332270D02*
D03*
Y382270D02*
D03*
X1418590Y788670D02*
D03*
X1468120Y594360D02*
D03*
Y644360D02*
D03*
X1342390Y1170940D02*
D03*
X1418590Y1196340D02*
D03*
Y1120140D02*
D03*
Y1018540D02*
D03*
X1342390Y704850D02*
D03*
X1418590Y730250D02*
D03*
Y654050D02*
D03*
Y552450D02*
D03*
D89*
X825046Y564127D02*
D03*
Y338127D02*
D03*
X400046Y412127D02*
D03*
D90*
X721360Y1197610D02*
D03*
X767080Y996950D02*
D03*
X803910Y1197610D02*
D03*
X952500Y998220D02*
D03*
X1003300D02*
D03*
X977900D02*
D03*
X843280Y996950D02*
D03*
X1028700Y998220D02*
D03*
X1054100D02*
D03*
X792480Y996950D02*
D03*
X817880D02*
D03*
X868680D02*
D03*
X923290Y1197610D02*
D03*
D91*
X1085626Y824630D02*
D03*
X552450Y932180D02*
D03*
X577850D02*
D03*
X527050D02*
D03*
X1085626Y773830D02*
D03*
X639701Y708562D02*
D03*
X1085626Y799230D02*
D03*
X639701Y683162D02*
D03*
Y733962D02*
D03*
D92*
X501650Y932180D02*
D03*
D93*
X400046Y490127D02*
D03*
D94*
X927100Y998220D02*
D03*
X829310Y1197610D02*
D03*
X741680Y996950D02*
D03*
X948690Y1197610D02*
D03*
X746760D02*
D03*
D95*
X1085626Y748430D02*
D03*
X639701Y759362D02*
D03*
D97*
X343264Y1069066D02*
D03*
Y1034067D02*
D03*
Y999067D02*
D03*
Y964066D02*
D03*
D98*
X554879Y898932D02*
D03*
X1049022Y600000D02*
D03*
X1053810Y400000D02*
D03*
X978810Y850000D02*
D03*
X553810Y1200000D02*
D03*
X978810Y1050000D02*
D03*
X728810D02*
D03*
X878810Y850000D02*
D03*
X903810Y1000000D02*
D03*
X528810Y450000D02*
D03*
X678810Y650000D02*
D03*
X1128810Y450000D02*
D03*
X753810Y300000D02*
D03*
X703810Y400000D02*
D03*
X653810D02*
D03*
X578810Y750000D02*
D03*
X1026224Y447414D02*
D03*
X1028810Y850000D02*
D03*
X978810Y450000D02*
D03*
X703810Y1100000D02*
D03*
X1128810Y1050000D02*
D03*
X1053810Y1200000D02*
D03*
X778810Y650000D02*
D03*
X553810Y1100000D02*
D03*
Y800000D02*
D03*
X503810Y300000D02*
D03*
X653810Y1100000D02*
D03*
X1003810Y900000D02*
D03*
X778810Y450000D02*
D03*
X703810Y300000D02*
D03*
Y900000D02*
D03*
X728810Y450000D02*
D03*
X503810Y1200000D02*
D03*
X1203810Y400000D02*
D03*
X828810Y450000D02*
D03*
X678810Y950000D02*
D03*
X1228810D02*
D03*
X1178810Y1050000D02*
D03*
X553810Y400000D02*
D03*
X503810Y800000D02*
D03*
X753810D02*
D03*
X553810Y700000D02*
D03*
X603810Y300000D02*
D03*
X1153810Y500000D02*
D03*
X603810Y1000000D02*
D03*
X1203810D02*
D03*
X1278810Y750000D02*
D03*
X1178810Y350000D02*
D03*
X678810Y1150000D02*
D03*
X503810Y400000D02*
D03*
X1026162Y550000D02*
D03*
X1078810Y350000D02*
D03*
X1228810Y450000D02*
D03*
X578810D02*
D03*
X1028810Y1150000D02*
D03*
X928810Y950000D02*
D03*
X628810Y450000D02*
D03*
X1028810Y350000D02*
D03*
X1153810Y800000D02*
D03*
Y600000D02*
D03*
X778810Y1150000D02*
D03*
X1303810Y1000000D02*
D03*
X778810Y1050000D02*
D03*
X1128810Y1150000D02*
D03*
X1253810Y1100000D02*
D03*
X878810Y1150000D02*
D03*
X1303810Y800000D02*
D03*
X1228810Y750000D02*
D03*
X1253810Y800000D02*
D03*
X853810Y500000D02*
D03*
X528810Y550000D02*
D03*
X503810Y500000D02*
D03*
X1303810Y600000D02*
D03*
Y400000D02*
D03*
X778810Y850000D02*
D03*
X1203810Y500000D02*
D03*
X1128810Y950000D02*
D03*
X1278810D02*
D03*
X853810Y900000D02*
D03*
X1003810Y1200000D02*
D03*
X1028810Y1050000D02*
D03*
X803810Y400000D02*
D03*
X1078810Y1150000D02*
D03*
X653810Y500000D02*
D03*
X678810Y350000D02*
D03*
X1303810Y500000D02*
D03*
X1128810Y350000D02*
D03*
X628810D02*
D03*
X553810Y500000D02*
D03*
X928810Y750000D02*
D03*
X753810Y400000D02*
D03*
X578810Y1050000D02*
D03*
X1153810Y900000D02*
D03*
X953810Y300000D02*
D03*
X678810Y750000D02*
D03*
X803810Y500000D02*
D03*
X828810Y850000D02*
D03*
X778810Y350000D02*
D03*
X653810Y900000D02*
D03*
X678810Y850000D02*
D03*
X603810Y1100000D02*
D03*
X1078810Y550000D02*
D03*
X1003428Y500000D02*
D03*
X578810Y350000D02*
D03*
X703810Y500000D02*
D03*
X878810Y950000D02*
D03*
X1026162Y650000D02*
D03*
X853810Y300000D02*
D03*
X1103810Y1200000D02*
D03*
X1053810Y500000D02*
D03*
X1028810Y950000D02*
D03*
X853810Y1200000D02*
D03*
X803810Y300000D02*
D03*
X628810Y1150000D02*
D03*
X980438Y950000D02*
D03*
X853810Y400000D02*
D03*
X953810Y700000D02*
D03*
X978810Y550000D02*
D03*
X678810Y450000D02*
D03*
X603810Y400000D02*
D03*
X653810Y800000D02*
D03*
X1178810Y1150000D02*
D03*
X902281Y898471D02*
D03*
X1103810Y600000D02*
D03*
X703810Y1000000D02*
D03*
X1228810Y1150000D02*
D03*
Y550000D02*
D03*
X1303810Y700000D02*
D03*
X1003810Y300000D02*
D03*
X1128810Y650000D02*
D03*
X1103810Y500000D02*
D03*
X1203810Y1100000D02*
D03*
X903810D02*
D03*
Y700000D02*
D03*
X828810Y1150000D02*
D03*
X753810Y500000D02*
D03*
X1203810Y1200000D02*
D03*
X728810Y950000D02*
D03*
X578810Y1150000D02*
D03*
Y550000D02*
D03*
X978810Y1150000D02*
D03*
X528810D02*
D03*
X1003810Y800000D02*
D03*
X728810Y650000D02*
D03*
X553810Y300000D02*
D03*
X1203810Y700000D02*
D03*
Y900000D02*
D03*
X1228810Y350000D02*
D03*
X1178810Y550000D02*
D03*
X607058Y900000D02*
D03*
X928810Y450000D02*
D03*
X1153810Y400000D02*
D03*
X1303810Y1200000D02*
D03*
X503810Y700000D02*
D03*
Y600000D02*
D03*
X1278810Y1150000D02*
D03*
X953810Y1100000D02*
D03*
X778810Y950000D02*
D03*
X653810Y300000D02*
D03*
X628810Y1050000D02*
D03*
X603810Y500000D02*
D03*
X1178810Y650000D02*
D03*
X1253810Y400000D02*
D03*
Y900000D02*
D03*
X503810Y895633D02*
D03*
X1203810Y600000D02*
D03*
X728810Y350000D02*
D03*
X528810D02*
D03*
X1178810Y750000D02*
D03*
X1153810Y1100000D02*
D03*
X1069340Y1068708D02*
D03*
X1014600Y789940D02*
D03*
X880240Y807720D02*
D03*
X971550Y636270D02*
D03*
X887730Y637670D02*
D03*
X900120Y562610D02*
D03*
X899990Y576580D02*
D03*
X802640Y677800D02*
D03*
D99*
X345440Y274320D02*
D03*
X1504950Y279400D02*
D03*
X1501140Y1240790D02*
D03*
X349250Y635000D02*
D03*
X336550Y1240790D02*
D03*
D100*
X571500Y655320D02*
D03*
X737870Y706121D02*
D03*
X822960Y676910D02*
D03*
X571500Y724408D02*
D03*
X816610Y713740D02*
D03*
X739140Y740410D02*
D03*
X891230Y383540D02*
D03*
X881070Y386080D02*
D03*
X906470Y306070D02*
D03*
X903930Y539750D02*
D03*
Y529590D02*
D03*
X885190Y648970D02*
D03*
X887730Y622170D02*
D03*
X513080Y994410D02*
D03*
X571500Y791718D02*
D03*
Y859028D02*
D03*
X505460Y994410D02*
D03*
X504190Y1060450D02*
D03*
X513080D02*
D03*
X646430Y1207770D02*
D03*
X676910Y1244600D02*
D03*
X849630Y792352D02*
D03*
X726440Y806450D02*
D03*
X895709Y805070D02*
D03*
X726440Y843280D02*
D03*
X864870Y807720D02*
D03*
X833120Y1085850D02*
D03*
X909010Y529590D02*
D03*
X915360Y499110D02*
D03*
X932900Y421640D02*
D03*
X925520Y477520D02*
D03*
X934410Y534669D02*
D03*
X909010Y539750D02*
D03*
X915360Y561340D02*
D03*
X921710Y535280D02*
D03*
X915490Y576580D02*
D03*
X1056640Y365760D02*
D03*
X1177290Y525780D02*
D03*
X1197610D02*
D03*
Y365760D02*
D03*
X971550Y621030D02*
D03*
X1207770Y622300D02*
D03*
X1191260Y623570D02*
D03*
X1029970Y789940D02*
D03*
X1042670Y763270D02*
D03*
X1158240Y680720D02*
D03*
X1160960Y844160D02*
D03*
X1155700D02*
D03*
X1042670Y1104900D02*
D03*
X1151890Y1014730D02*
D03*
X1160780D02*
D03*
X1069340Y1107700D02*
D03*
X1156970Y1186180D02*
D03*
X1165860Y680720D02*
D03*
X1184910Y957580D02*
D03*
X1207770Y787400D02*
D03*
X1195070Y791210D02*
D03*
X1201420Y953770D02*
D03*
X1165860Y1186180D02*
D03*
X1205230Y1127760D02*
D03*
X1188720Y1130300D02*
D03*
X989750Y1104390D02*
D03*
X953770Y621030D02*
D03*
X890270Y1224280D02*
D03*
X868680D02*
D03*
X1045376Y702310D02*
D03*
X1016125Y706120D02*
D03*
X496570Y651510D02*
D03*
X497840Y657860D02*
D03*
X1042250Y1072390D02*
D03*
X989798Y1074380D02*
D03*
X1069340Y1080392D02*
D03*
X949960Y648970D02*
D03*
X891540Y544830D02*
D03*
X491236Y655070D02*
D03*
X1024890Y713740D02*
D03*
X1156970Y365760D02*
D03*
X1117600D02*
D03*
X1042670Y742950D02*
D03*
X1117600Y525780D02*
D03*
X1061720Y695960D02*
D03*
X1177290Y365760D02*
D03*
X982980Y530860D02*
D03*
X1137920Y525780D02*
D03*
X1136234Y365344D02*
D03*
X929679Y867410D02*
D03*
X800100Y723900D02*
D03*
X1069340Y1092628D02*
D03*
X831850Y739099D02*
D03*
X935990Y861060D02*
D03*
X957580Y820848D02*
D03*
X953770Y829310D02*
D03*
X1250950Y788670D02*
D03*
X1242060Y958850D02*
D03*
X1247140Y1130300D02*
D03*
X1249680Y622300D02*
D03*
X838200Y718820D02*
D03*
X814070Y729020D02*
D03*
X822960Y734099D02*
D03*
D101*
X703580Y696360D02*
D03*
Y746360D02*
D03*
M02*
