G04*
G04 #@! TF.GenerationSoftware,Altium Limited,Altium Designer,25.8.1 (18)*
G04*
G04 Layer_Color=255*
%FSLAX44Y44*%
%MOMM*%
G71*
G04*
G04 #@! TF.SameCoordinates,110BE5AE-6940-414C-97C9-718F002BE886*
G04*
G04*
G04 #@! TF.FilePolarity,Positive*
G04*
G01*
G75*
%ADD19R,0.5500X0.5500*%
%ADD20R,0.8500X0.8500*%
%ADD21R,3.0000X1.6000*%
%ADD22R,1.2700X1.2700*%
%ADD23R,1.6256X2.3876*%
%ADD24R,1.4750X0.3000*%
%ADD25R,0.3000X1.4750*%
%ADD26R,2.1000X1.5500*%
%ADD27R,0.8500X0.8500*%
%ADD28R,1.4500X1.6000*%
%ADD29R,0.8000X0.4000*%
%ADD30R,0.9906X0.9906*%
%ADD31R,0.9400X0.7500*%
%ADD32R,1.1000X0.6000*%
%ADD33R,0.7500X0.9400*%
%ADD34R,1.5500X1.0000*%
%ADD35R,1.0000X0.9500*%
%ADD36R,6.7000X6.7000*%
%ADD37R,0.5500X0.5500*%
%ADD38R,1.8200X1.1600*%
%ADD39R,1.3000X1.9000*%
%ADD40R,1.1300X0.9200*%
%ADD41R,0.8500X1.0000*%
%ADD42R,1.6000X1.4500*%
%ADD81C,1.0000*%
%ADD87R,2.1000X2.1000*%
%ADD88C,2.1000*%
%ADD89C,1.9500*%
%ADD90C,1.5000*%
%ADD91C,1.5748*%
%ADD92R,1.5748X1.5748*%
%ADD93R,1.9500X1.9500*%
%ADD94R,1.5000X1.5000*%
%ADD95R,1.5748X1.5748*%
%ADD96C,1.2000*%
%ADD97C,1.6500*%
D19*
X571500Y655320D02*
D03*
Y724408D02*
D03*
Y791718D02*
D03*
X726440Y805942D02*
D03*
Y843534D02*
D03*
X833120Y1085088D02*
D03*
X1191260Y623688D02*
D03*
X1195070Y790058D02*
D03*
X1184910Y957698D02*
D03*
X1188720Y1130808D02*
D03*
X571500Y859028D02*
D03*
Y870712D02*
D03*
X1069340Y1068708D02*
D03*
X833120Y1096772D02*
D03*
X1069340Y1080392D02*
D03*
X571500Y803402D02*
D03*
Y736092D02*
D03*
Y667004D02*
D03*
X741680Y831088D02*
D03*
Y842772D02*
D03*
X726440Y831850D02*
D03*
X741680Y794258D02*
D03*
Y805942D02*
D03*
X1184910Y969382D02*
D03*
X1188720Y1142492D02*
D03*
X1191260Y635372D02*
D03*
X1195070Y801742D02*
D03*
X726440Y794258D02*
D03*
D20*
X739140Y706250D02*
D03*
X822960Y678050D02*
D03*
X739140Y737740D02*
D03*
X887730Y622170D02*
D03*
X850900Y792480D02*
D03*
X935680Y534800D02*
D03*
X971550Y620770D02*
D03*
X1069340Y1107700D02*
D03*
X971550Y636270D02*
D03*
X887730Y637670D02*
D03*
X850900Y776980D02*
D03*
X1069340Y1092200D02*
D03*
X935680Y519300D02*
D03*
X739140Y753240D02*
D03*
Y690750D02*
D03*
X822960Y693550D02*
D03*
D21*
X887270Y383680D02*
D03*
Y337680D02*
D03*
D22*
X906470Y306070D02*
D03*
X925520Y477520D02*
D03*
X875990Y306070D02*
D03*
X895040Y477520D02*
D03*
D23*
X906710Y535280D02*
D03*
D24*
X869720Y714020D02*
D03*
X984480Y769020D02*
D03*
X869720D02*
D03*
X984480Y709020D02*
D03*
Y699020D02*
D03*
Y744020D02*
D03*
Y694020D02*
D03*
Y704020D02*
D03*
X869720Y764020D02*
D03*
Y759020D02*
D03*
Y754020D02*
D03*
Y749020D02*
D03*
Y744020D02*
D03*
Y739020D02*
D03*
Y734020D02*
D03*
Y729020D02*
D03*
Y724020D02*
D03*
Y719020D02*
D03*
Y709020D02*
D03*
Y704020D02*
D03*
Y699020D02*
D03*
Y694020D02*
D03*
X984480Y714020D02*
D03*
Y719020D02*
D03*
Y724020D02*
D03*
Y729020D02*
D03*
Y734020D02*
D03*
Y749020D02*
D03*
Y754020D02*
D03*
Y759020D02*
D03*
Y764020D02*
D03*
Y739020D02*
D03*
D25*
X894600Y674140D02*
D03*
Y788900D02*
D03*
X889600D02*
D03*
X964600Y674140D02*
D03*
X899600D02*
D03*
X944600D02*
D03*
X889600D02*
D03*
X904600D02*
D03*
X909600D02*
D03*
X914600D02*
D03*
X919600D02*
D03*
X924600D02*
D03*
X929600D02*
D03*
X934600D02*
D03*
X939600D02*
D03*
X949600D02*
D03*
X959600D02*
D03*
X964600Y788900D02*
D03*
X959600D02*
D03*
X949600D02*
D03*
X944600D02*
D03*
X939600D02*
D03*
X934600D02*
D03*
X924600D02*
D03*
X919600D02*
D03*
X914600D02*
D03*
X909600D02*
D03*
X904600D02*
D03*
X899600D02*
D03*
X954600Y674140D02*
D03*
Y788900D02*
D03*
X929600D02*
D03*
D26*
X509410Y994330D02*
D03*
X509090Y1060450D02*
D03*
X1162230Y680330D02*
D03*
X1160960Y844160D02*
D03*
X1155880Y1014340D02*
D03*
X1160960Y1186180D02*
D03*
X1246960Y1211580D02*
D03*
X1241880Y1039740D02*
D03*
X1246960Y869560D02*
D03*
X1248230Y705730D02*
D03*
X509410Y1019730D02*
D03*
X423410Y994330D02*
D03*
Y1019730D02*
D03*
X509090Y1085850D02*
D03*
X423090Y1060450D02*
D03*
Y1085850D02*
D03*
X1246960Y1186180D02*
D03*
X1160960Y1211580D02*
D03*
X1248230Y680330D02*
D03*
X1162230Y705730D02*
D03*
X1246960Y844160D02*
D03*
X1160960Y869560D02*
D03*
X1241880Y1014340D02*
D03*
X1155880Y1039740D02*
D03*
D27*
X864740Y807720D02*
D03*
X914220Y499110D02*
D03*
X915620Y562610D02*
D03*
X915490Y576580D02*
D03*
X1030100Y789940D02*
D03*
X1014600D02*
D03*
X880240Y807720D02*
D03*
X900120Y562610D02*
D03*
X899990Y576580D02*
D03*
X898720Y499110D02*
D03*
D28*
X932650Y421640D02*
D03*
X903150D02*
D03*
D29*
X921710Y535280D02*
D03*
X891710Y544780D02*
D03*
X921710D02*
D03*
X891710Y535280D02*
D03*
Y525780D02*
D03*
X921710D02*
D03*
D30*
X1057760Y365760D02*
D03*
X1177760Y525780D02*
D03*
X1197760Y365760D02*
D03*
X1197760Y525780D02*
D03*
X1177760Y365760D02*
D03*
X1157760D02*
D03*
X1137760D02*
D03*
X1117760D02*
D03*
X1097760D02*
D03*
X1077760D02*
D03*
X1057760Y525780D02*
D03*
X1077760D02*
D03*
X1097760D02*
D03*
X1117760D02*
D03*
X1137760D02*
D03*
X1157760D02*
D03*
D31*
X953770Y621650D02*
D03*
Y635650D02*
D03*
D32*
X1207770Y621910D02*
D03*
X1210740Y787670D02*
D03*
X1200580Y954040D02*
D03*
X1205660Y1128420D02*
D03*
X1229770Y631410D02*
D03*
X1222580Y963540D02*
D03*
X1200580Y973040D02*
D03*
X1227660Y1137920D02*
D03*
X1205660Y1147420D02*
D03*
X1207770Y640910D02*
D03*
X1232740Y797170D02*
D03*
X1210740Y806670D02*
D03*
D33*
X1042050Y764540D02*
D03*
X1028050D02*
D03*
D34*
X989750Y1104390D02*
D03*
X1042250D02*
D03*
X989750Y1072390D02*
D03*
X1042250D02*
D03*
X807300Y1066040D02*
D03*
X754800D02*
D03*
X544410Y850140D02*
D03*
X491910D02*
D03*
X544410Y785370D02*
D03*
X543990Y720090D02*
D03*
X543736Y655070D02*
D03*
X491910Y785370D02*
D03*
X491490Y720090D02*
D03*
X491236Y655070D02*
D03*
X754800Y1098040D02*
D03*
X807300D02*
D03*
X544410Y817370D02*
D03*
X491910D02*
D03*
Y882140D02*
D03*
X544410D02*
D03*
X491490Y752090D02*
D03*
X543990D02*
D03*
X491236Y687070D02*
D03*
X543736D02*
D03*
D35*
X802640Y677800D02*
D03*
Y693800D02*
D03*
D36*
X953770Y360680D02*
D03*
D37*
X867608Y415290D02*
D03*
X879292D02*
D03*
X580042Y1019810D02*
D03*
X579882Y991870D02*
D03*
Y1087120D02*
D03*
Y1059180D02*
D03*
X568358Y1019810D02*
D03*
X568198Y991870D02*
D03*
Y1087120D02*
D03*
Y1059180D02*
D03*
X1222502Y990210D02*
D03*
X1210818D02*
D03*
X1226312Y1163320D02*
D03*
X1214628D02*
D03*
X1219200Y656200D02*
D03*
X1230884D02*
D03*
X1233170Y822570D02*
D03*
X1221486D02*
D03*
X1129538Y1200150D02*
D03*
X1141222D02*
D03*
X1124458Y1027040D02*
D03*
X1136142D02*
D03*
X1128268Y866140D02*
D03*
X1139952D02*
D03*
X1129538Y702310D02*
D03*
X1141222D02*
D03*
D38*
X344170Y349250D02*
D03*
Y319750D02*
D03*
D39*
X693420Y798580D02*
D03*
X638420D02*
D03*
Y830580D02*
D03*
X693420D02*
D03*
D40*
X1249680Y622190D02*
D03*
Y657190D02*
D03*
X1247140Y1165580D02*
D03*
X1250950Y823560D02*
D03*
X1242060Y993740D02*
D03*
X1247140Y1130580D02*
D03*
X1250950Y788560D02*
D03*
X1242060Y958740D02*
D03*
D41*
X402470Y1022350D02*
D03*
Y1085850D02*
D03*
X387470D02*
D03*
Y1022350D02*
D03*
D42*
X542610Y1020510D02*
D03*
X542450Y1084580D02*
D03*
Y1055080D02*
D03*
X542610Y991010D02*
D03*
D81*
X646430Y1207770D02*
D03*
X676910Y1244600D02*
D03*
X868680Y1224280D02*
D03*
X890270D02*
D03*
X675640Y1207770D02*
D03*
X645160Y1244600D02*
D03*
D87*
X1469390Y1183310D02*
D03*
X337398Y385264D02*
D03*
X1468120Y928840D02*
D03*
X1477010Y432270D02*
D03*
X1468120Y694360D02*
D03*
D88*
X1469390Y1133310D02*
D03*
Y1083310D02*
D03*
X337398Y485264D02*
D03*
Y435264D02*
D03*
X1416050Y410210D02*
D03*
Y486410D02*
D03*
X1339850Y461010D02*
D03*
X1416050Y308610D02*
D03*
X1339850D02*
D03*
X1468120Y878840D02*
D03*
Y828840D02*
D03*
X1418590Y890270D02*
D03*
X1342390Y941070D02*
D03*
X1418590Y966470D02*
D03*
X1342390Y1018540D02*
D03*
Y788670D02*
D03*
Y552450D02*
D03*
X1477010Y332270D02*
D03*
Y382270D02*
D03*
X1418590Y788670D02*
D03*
X1468120Y594360D02*
D03*
Y644360D02*
D03*
X1342390Y1170940D02*
D03*
X1418590Y1196340D02*
D03*
Y1120140D02*
D03*
Y1018540D02*
D03*
X1342390Y704850D02*
D03*
X1418590Y730250D02*
D03*
Y654050D02*
D03*
Y552450D02*
D03*
D89*
X825046Y564127D02*
D03*
Y338127D02*
D03*
X400046Y412127D02*
D03*
D90*
X721360Y1197610D02*
D03*
X767080Y996950D02*
D03*
X803910Y1197610D02*
D03*
X952500Y998220D02*
D03*
X1003300D02*
D03*
X977900D02*
D03*
X843280Y996950D02*
D03*
X1028700Y998220D02*
D03*
X1054100D02*
D03*
X792480Y996950D02*
D03*
X817880D02*
D03*
X868680D02*
D03*
X923290Y1197610D02*
D03*
D91*
X1085626Y824630D02*
D03*
X552450Y932180D02*
D03*
X577850D02*
D03*
X527050D02*
D03*
X1085626Y773830D02*
D03*
X639701Y708562D02*
D03*
X1085626Y799230D02*
D03*
X639701Y683162D02*
D03*
Y733962D02*
D03*
D92*
X501650Y932180D02*
D03*
D93*
X400046Y490127D02*
D03*
D94*
X927100Y998220D02*
D03*
X829310Y1197610D02*
D03*
X741680Y996950D02*
D03*
X948690Y1197610D02*
D03*
X746760D02*
D03*
D95*
X1085626Y748430D02*
D03*
X639701Y759362D02*
D03*
D96*
X703580Y696360D02*
D03*
Y746360D02*
D03*
D97*
X343264Y1069066D02*
D03*
Y1034067D02*
D03*
Y999067D02*
D03*
Y964066D02*
D03*
M02*
