G04*
G04 #@! TF.GenerationSoftware,Altium Limited,Altium Designer,25.8.1 (18)*
G04*
G04 Layer_Color=255*
%FSLAX44Y44*%
%MOMM*%
G71*
G04*
G04 #@! TF.SameCoordinates,110BE5AE-6940-414C-97C9-718F002BE886*
G04*
G04*
G04 #@! TF.FilePolarity,Positive*
G04*
G01*
G75*
%ADD87R,2.1000X2.1000*%
%ADD88C,2.1000*%
%ADD89C,1.9500*%
%ADD90C,1.5000*%
%ADD91C,1.5748*%
%ADD92R,1.5748X1.5748*%
%ADD93R,1.9500X1.9500*%
%ADD94R,1.5000X1.5000*%
%ADD95R,1.5748X1.5748*%
%ADD97C,1.6500*%
%ADD101O,2.0000X1.2000*%
D87*
X1469390Y1183310D02*
D03*
X337398Y385264D02*
D03*
X1468120Y928840D02*
D03*
X1477010Y432270D02*
D03*
X1468120Y694360D02*
D03*
D88*
X1469390Y1133310D02*
D03*
Y1083310D02*
D03*
X337398Y485264D02*
D03*
Y435264D02*
D03*
X1416050Y410210D02*
D03*
Y486410D02*
D03*
X1339850Y461010D02*
D03*
X1416050Y308610D02*
D03*
X1339850D02*
D03*
X1468120Y878840D02*
D03*
Y828840D02*
D03*
X1418590Y890270D02*
D03*
X1342390Y941070D02*
D03*
X1418590Y966470D02*
D03*
X1342390Y1018540D02*
D03*
Y788670D02*
D03*
Y552450D02*
D03*
X1477010Y332270D02*
D03*
Y382270D02*
D03*
X1418590Y788670D02*
D03*
X1468120Y594360D02*
D03*
Y644360D02*
D03*
X1342390Y1170940D02*
D03*
X1418590Y1196340D02*
D03*
Y1120140D02*
D03*
Y1018540D02*
D03*
X1342390Y704850D02*
D03*
X1418590Y730250D02*
D03*
Y654050D02*
D03*
Y552450D02*
D03*
D89*
X825046Y564127D02*
D03*
Y338127D02*
D03*
X400046Y412127D02*
D03*
D90*
X721360Y1197610D02*
D03*
X767080Y996950D02*
D03*
X803910Y1197610D02*
D03*
X952500Y998220D02*
D03*
X1003300D02*
D03*
X977900D02*
D03*
X843280Y996950D02*
D03*
X1028700Y998220D02*
D03*
X1054100D02*
D03*
X792480Y996950D02*
D03*
X817880D02*
D03*
X868680D02*
D03*
X923290Y1197610D02*
D03*
D91*
X1085626Y824630D02*
D03*
X552450Y932180D02*
D03*
X577850D02*
D03*
X527050D02*
D03*
X1085626Y773830D02*
D03*
X639701Y708562D02*
D03*
X1085626Y799230D02*
D03*
X639701Y683162D02*
D03*
Y733962D02*
D03*
D92*
X501650Y932180D02*
D03*
D93*
X400046Y490127D02*
D03*
D94*
X927100Y998220D02*
D03*
X829310Y1197610D02*
D03*
X741680Y996950D02*
D03*
X948690Y1197610D02*
D03*
X746760D02*
D03*
D95*
X1085626Y748430D02*
D03*
X639701Y759362D02*
D03*
D97*
X343264Y1069066D02*
D03*
Y1034067D02*
D03*
Y999067D02*
D03*
Y964066D02*
D03*
D101*
X703580Y696360D02*
D03*
Y746360D02*
D03*
M02*
