G04*
G04 #@! TF.GenerationSoftware,Altium Limited,Altium Designer,25.8.1 (18)*
G04*
G04 Layer_Physical_Order=1*
G04 Layer_Color=255*
%FSLAX44Y44*%
%MOMM*%
G71*
G04*
G04 #@! TF.SameCoordinates,AA280DD8-45CF-45BC-BA98-0C41F0D0A2F3*
G04*
G04*
G04 #@! TF.FilePolarity,Positive*
G04*
G01*
G75*
%ADD11C,0.2000*%
%ADD16C,0.3000*%
%ADD19R,0.9906X0.9906*%
%ADD20R,0.3000X1.4750*%
%ADD21R,1.4750X0.3000*%
%ADD22R,0.8500X0.8500*%
%ADD23R,0.5500X0.5500*%
%ADD24R,0.8500X0.8500*%
%ADD25R,0.9400X0.7500*%
%ADD26R,0.7500X0.9400*%
%ADD27R,1.5500X1.0000*%
%ADD28O,3.0000X1.5000*%
%ADD29R,0.4500X1.4250*%
%ADD30R,0.5500X0.5500*%
%ADD31R,0.6000X1.2000*%
%ADD32R,0.4500X1.4750*%
%ADD33R,0.6500X1.2000*%
%ADD34R,1.6000X1.4500*%
%ADD35R,1.5500X2.2000*%
%ADD36R,1.9000X1.6500*%
%ADD37R,1.0000X0.9500*%
%ADD38R,1.3000X1.9000*%
%ADD70C,0.2030*%
%ADD71C,1.0000*%
%ADD72C,1.0000*%
%ADD73C,0.5000*%
%ADD74C,0.8000*%
%ADD75C,1.5000*%
%ADD76C,0.4000*%
%ADD77C,1.5000*%
%ADD78C,1.5748*%
%ADD79R,1.5748X1.5748*%
%ADD80C,1.9800*%
%ADD81C,3.5500*%
%ADD82C,2.3900*%
%ADD83R,1.5000X1.5000*%
%ADD84R,1.5748X1.5748*%
%ADD85C,1.2000*%
%ADD86C,0.4572*%
%ADD87C,0.4570*%
%ADD88C,5.0000*%
G36*
X1523469Y1285073D02*
X1524258Y1284747D01*
X1524968Y1284272D01*
X1525270Y1283970D01*
X1541145Y1273175D01*
X1545771Y1268549D01*
X1545771Y1268549D01*
X1547539Y1266780D01*
X1550319Y1262620D01*
X1552234Y1257998D01*
X1553210Y1253091D01*
Y1250589D01*
Y398344D01*
Y396636D01*
X1552543Y393285D01*
X1551236Y390129D01*
X1549338Y387288D01*
X1548130Y386080D01*
X1540329Y378279D01*
X1540329D01*
X1538560Y376511D01*
X1534400Y373731D01*
X1529778Y371816D01*
X1524871Y370840D01*
X501947D01*
X499434Y371340D01*
X497066Y372321D01*
X494936Y373744D01*
X494030Y374650D01*
X478610Y390070D01*
X476841Y391839D01*
X474061Y396000D01*
X472146Y400622D01*
X471170Y405529D01*
Y408031D01*
Y1251859D01*
Y1254361D01*
X472146Y1259268D01*
X474061Y1263890D01*
X476841Y1268051D01*
X486590Y1277801D01*
X486590Y1277801D01*
Y1277801D01*
X488359Y1279569D01*
X492520Y1282349D01*
X497142Y1284264D01*
X502049Y1285240D01*
X1522631D01*
X1523469Y1285073D01*
D02*
G37*
%LPC*%
G36*
X1508387Y1278490D02*
X1507490D01*
Y1252220D01*
X1533760D01*
Y1253118D01*
X1533082Y1257399D01*
X1531742Y1261522D01*
X1529774Y1265384D01*
X1527226Y1268891D01*
X1524161Y1271956D01*
X1520654Y1274504D01*
X1516792Y1276472D01*
X1512669Y1277812D01*
X1508387Y1278490D01*
D02*
G37*
G36*
X1504950D02*
X1504052D01*
X1499771Y1277812D01*
X1495648Y1276472D01*
X1491786Y1274504D01*
X1488279Y1271956D01*
X1485214Y1268891D01*
X1482666Y1265384D01*
X1480698Y1261522D01*
X1479358Y1257399D01*
X1478680Y1253118D01*
Y1252220D01*
X1504950D01*
Y1278490D01*
D02*
G37*
G36*
X987682Y1261538D02*
X985898D01*
X984174Y1261076D01*
X982628Y1260184D01*
X981366Y1258922D01*
X980474Y1257376D01*
X980012Y1255652D01*
Y1253868D01*
X980474Y1252144D01*
X981366Y1250598D01*
X982628Y1249336D01*
X984174Y1248444D01*
X985898Y1247982D01*
X987682D01*
X989406Y1248444D01*
X990952Y1249336D01*
X992214Y1250598D01*
X993106Y1252144D01*
X993568Y1253868D01*
Y1255652D01*
X993106Y1257376D01*
X992214Y1258922D01*
X990952Y1260184D01*
X989406Y1261076D01*
X987682Y1261538D01*
D02*
G37*
G36*
X958472D02*
X956688D01*
X954964Y1261076D01*
X953418Y1260184D01*
X952156Y1258922D01*
X951264Y1257376D01*
X950802Y1255652D01*
Y1253868D01*
X951264Y1252144D01*
X952156Y1250598D01*
X953418Y1249336D01*
X954964Y1248444D01*
X956688Y1247982D01*
X958472D01*
X960196Y1248444D01*
X961742Y1249336D01*
X963004Y1250598D01*
X963896Y1252144D01*
X964358Y1253868D01*
Y1255652D01*
X963896Y1257376D01*
X963004Y1258922D01*
X961742Y1260184D01*
X960196Y1261076D01*
X958472Y1261538D01*
D02*
G37*
G36*
X678180Y1252066D02*
Y1245870D01*
X684376D01*
X683936Y1247510D01*
X682943Y1249230D01*
X681540Y1250633D01*
X679820Y1251626D01*
X678180Y1252066D01*
D02*
G37*
G36*
X675640D02*
X674000Y1251626D01*
X672280Y1250633D01*
X670876Y1249230D01*
X669884Y1247510D01*
X669444Y1245870D01*
X675640D01*
Y1252066D01*
D02*
G37*
G36*
X684376Y1243330D02*
X678180D01*
Y1237134D01*
X679820Y1237574D01*
X681540Y1238567D01*
X682943Y1239970D01*
X683936Y1241690D01*
X684376Y1243330D01*
D02*
G37*
G36*
X675640D02*
X669444D01*
X669884Y1241690D01*
X670876Y1239970D01*
X672280Y1238567D01*
X674000Y1237574D01*
X675640Y1237134D01*
Y1243330D01*
D02*
G37*
G36*
X1533760Y1249680D02*
X1507490D01*
Y1223410D01*
X1508387D01*
X1512669Y1224088D01*
X1516792Y1225428D01*
X1520654Y1227396D01*
X1524161Y1229944D01*
X1527226Y1233009D01*
X1529774Y1236516D01*
X1531742Y1240378D01*
X1533082Y1244501D01*
X1533760Y1248783D01*
Y1249680D01*
D02*
G37*
G36*
X1504950D02*
X1478680D01*
Y1248783D01*
X1479358Y1244501D01*
X1480698Y1240378D01*
X1482666Y1236516D01*
X1485214Y1233009D01*
X1488279Y1229944D01*
X1491786Y1227396D01*
X1495648Y1225428D01*
X1499771Y1224088D01*
X1504052Y1223410D01*
X1504950D01*
Y1249680D01*
D02*
G37*
G36*
X518997Y1268838D02*
X514782D01*
X510620Y1268179D01*
X506611Y1266876D01*
X502855Y1264963D01*
X499445Y1262485D01*
X496465Y1259505D01*
X493987Y1256095D01*
X492074Y1252339D01*
X490771Y1248331D01*
X490112Y1244167D01*
Y1239952D01*
X490771Y1235789D01*
X492074Y1231781D01*
X493987Y1228025D01*
X496465Y1224615D01*
X499445Y1221635D01*
X502855Y1219157D01*
X506611Y1217244D01*
X510620Y1215941D01*
X514782Y1215282D01*
X518997D01*
X523161Y1215941D01*
X527169Y1217244D01*
X530925Y1219157D01*
X534335Y1221635D01*
X537315Y1224615D01*
X539793Y1228025D01*
X541706Y1231781D01*
X543009Y1235789D01*
X543668Y1239952D01*
Y1244167D01*
X543009Y1248331D01*
X541706Y1252339D01*
X539793Y1256095D01*
X537315Y1259505D01*
X534335Y1262485D01*
X530925Y1264963D01*
X527169Y1266876D01*
X523161Y1268179D01*
X518997Y1268838D01*
D02*
G37*
G36*
X647700Y1215236D02*
Y1209040D01*
X653896D01*
X653456Y1210680D01*
X652464Y1212400D01*
X651060Y1213803D01*
X649340Y1214796D01*
X647700Y1215236D01*
D02*
G37*
G36*
X645160D02*
X643520Y1214796D01*
X641800Y1213803D01*
X640396Y1212400D01*
X639404Y1210680D01*
X638964Y1209040D01*
X645160D01*
Y1215236D01*
D02*
G37*
G36*
X653896Y1206500D02*
X647700D01*
Y1200304D01*
X649340Y1200744D01*
X651060Y1201737D01*
X652464Y1203140D01*
X653456Y1204860D01*
X653896Y1206500D01*
D02*
G37*
G36*
X645160D02*
X638964D01*
X639404Y1204860D01*
X640396Y1203140D01*
X641800Y1201737D01*
X643520Y1200744D01*
X645160Y1200304D01*
Y1206500D01*
D02*
G37*
G36*
X722682Y1207650D02*
X722630D01*
Y1198880D01*
X731400D01*
Y1198932D01*
X730716Y1201485D01*
X729394Y1203775D01*
X727525Y1205644D01*
X725235Y1206966D01*
X722682Y1207650D01*
D02*
G37*
G36*
X720090D02*
X720038D01*
X717485Y1206966D01*
X715195Y1205644D01*
X713326Y1203775D01*
X712004Y1201485D01*
X711320Y1198932D01*
Y1198880D01*
X720090D01*
Y1207650D01*
D02*
G37*
G36*
X645160Y1251436D02*
X644716Y1251378D01*
X644268D01*
X643835Y1251262D01*
X643391Y1251204D01*
X642977Y1251032D01*
X642544Y1250916D01*
X642156Y1250692D01*
X641742Y1250521D01*
X641386Y1250248D01*
X640998Y1250024D01*
X640681Y1249707D01*
X640326Y1249434D01*
X594606Y1203714D01*
X593519Y1202298D01*
X593119Y1201332D01*
X592836Y1200649D01*
X592603Y1198880D01*
Y1135866D01*
X524435D01*
X522665Y1135633D01*
X521016Y1134951D01*
X519600Y1133864D01*
X504436Y1118699D01*
X503349Y1117284D01*
X502949Y1116318D01*
X502667Y1115635D01*
X502434Y1113865D01*
Y536330D01*
X502667Y534561D01*
X502949Y533878D01*
X503349Y532912D01*
X504436Y531496D01*
X510294Y525638D01*
X511710Y524552D01*
X513358Y523869D01*
X515128Y523636D01*
X865753D01*
X867522Y523869D01*
X869171Y524552D01*
X870587Y525638D01*
X882942Y537994D01*
X889435D01*
X890406Y537592D01*
X892175Y537359D01*
X893944Y537592D01*
X895593Y538274D01*
X897009Y539361D01*
X904824Y547176D01*
X905910Y548592D01*
X906593Y550241D01*
X906826Y552010D01*
Y562610D01*
Y573748D01*
X939087Y606008D01*
X941707D01*
X942808Y604908D01*
X944224Y603821D01*
X944964Y603515D01*
X945797Y602826D01*
X945585Y601950D01*
X945303Y601270D01*
X954697D01*
X954545Y601636D01*
X955394Y602906D01*
X978607D01*
X980377Y603138D01*
X982026Y603821D01*
X983442Y604908D01*
X987412Y608878D01*
X988499Y610294D01*
X989182Y611943D01*
X989414Y613712D01*
Y626894D01*
X1027817D01*
X1031863Y622847D01*
X1033279Y621760D01*
X1034928Y621077D01*
X1036697Y620844D01*
X1129455D01*
X1130072Y620063D01*
X1129546Y618871D01*
X1117539D01*
Y605409D01*
X1124003D01*
Y522194D01*
X1122690Y520881D01*
X989803D01*
X985812Y524872D01*
Y527945D01*
X986425Y528558D01*
X987044Y530052D01*
Y531668D01*
X986425Y533162D01*
X985282Y534305D01*
X983788Y534924D01*
X982172D01*
X980678Y534305D01*
X979535Y533162D01*
X978916Y531668D01*
Y530052D01*
X979535Y528558D01*
X980148Y527945D01*
Y523699D01*
X980147Y523698D01*
X980363Y522615D01*
X980977Y521696D01*
X986627Y516046D01*
X987545Y515432D01*
X988629Y515216D01*
X988630Y515217D01*
X1123864D01*
X1123864Y515216D01*
X1124948Y515432D01*
X1125866Y516046D01*
X1128838Y519018D01*
X1128838Y519018D01*
X1129452Y519937D01*
X1129668Y521021D01*
X1129668Y521021D01*
Y605409D01*
X1131001D01*
Y617755D01*
X1132271Y618281D01*
X1137539Y613013D01*
Y605409D01*
X1151001D01*
Y615553D01*
X1155808Y620360D01*
X1156777Y619533D01*
Y613410D01*
X1164270D01*
X1171763D01*
Y619575D01*
X1171763Y619633D01*
X1171904Y620844D01*
X1176636D01*
X1176777Y619633D01*
X1176777Y619575D01*
Y613410D01*
X1184270D01*
X1191763D01*
Y619575D01*
X1191763Y619633D01*
X1191904Y620844D01*
X1198287D01*
X1210384Y608748D01*
X1211800Y607662D01*
X1213448Y606979D01*
X1215218Y606746D01*
X1223502D01*
X1225272Y606979D01*
X1226920Y607662D01*
X1228336Y608748D01*
X1234194Y614606D01*
X1235281Y616022D01*
X1235681Y616988D01*
X1235964Y617671D01*
X1236197Y619440D01*
Y645160D01*
X1235964Y646929D01*
X1235281Y648578D01*
X1234194Y649994D01*
X1233062Y650863D01*
Y654092D01*
X1233478D01*
Y669648D01*
X1234599Y670008D01*
X1245745D01*
X1246203Y669819D01*
Y674516D01*
Y679214D01*
X1245039Y678732D01*
X1234599D01*
X1233478Y679092D01*
Y694648D01*
X1233062D01*
Y696512D01*
X1235920D01*
Y700841D01*
X1240613Y705535D01*
X1241338Y706619D01*
X1241592Y707898D01*
Y773982D01*
X1244556D01*
Y783038D01*
X1235500D01*
Y781852D01*
X1231708D01*
Y787943D01*
X1231022D01*
Y797350D01*
X1235158D01*
Y806406D01*
X1232158D01*
X1231438Y806704D01*
X1229822D01*
X1229102Y806406D01*
X1226102D01*
Y806317D01*
X1224998Y805916D01*
Y805916D01*
X1215942D01*
Y800854D01*
X1214769Y800368D01*
X1213568Y801569D01*
Y805898D01*
X1212831D01*
X1212491Y807042D01*
X1212503Y807168D01*
X1213874Y808220D01*
X1214672Y809260D01*
X1215942Y808829D01*
Y808544D01*
X1224998D01*
Y808633D01*
X1226102Y809034D01*
X1226268Y809034D01*
X1235158D01*
Y810220D01*
X1237532D01*
Y809034D01*
X1246588D01*
Y810220D01*
X1266584D01*
X1273008Y803796D01*
Y777240D01*
X1273262Y775961D01*
X1273987Y774877D01*
X1275071Y774152D01*
X1276350Y773898D01*
X1290320D01*
X1290381Y773847D01*
Y771323D01*
X1284162D01*
Y753017D01*
X1288938D01*
X1289617Y751747D01*
X1289408Y751434D01*
X1274598D01*
X1274368Y751389D01*
X1273098Y752431D01*
Y763228D01*
X1260263D01*
Y765950D01*
X1260009Y767229D01*
X1259284Y768313D01*
X1255054Y772543D01*
Y773982D01*
X1256240D01*
Y783038D01*
X1255054D01*
Y792226D01*
X1254800Y793505D01*
X1254075Y794589D01*
X1246588Y802077D01*
Y806406D01*
X1237532D01*
Y797350D01*
X1241861D01*
X1248370Y790842D01*
Y783038D01*
X1247184D01*
Y773982D01*
X1248370D01*
Y771159D01*
X1248624Y769880D01*
X1249349Y768796D01*
X1253579Y764566D01*
Y763228D01*
X1244042D01*
Y747672D01*
X1248783D01*
X1248954Y746813D01*
X1249679Y745729D01*
X1251599Y743809D01*
X1251741Y743714D01*
Y742186D01*
X1251599Y742091D01*
X1249679Y740171D01*
X1248954Y739087D01*
X1248783Y738228D01*
X1244042D01*
Y722672D01*
X1255850D01*
Y716490D01*
X1254042D01*
Y707434D01*
X1263098D01*
Y716490D01*
X1262534D01*
Y722672D01*
X1269497D01*
X1269820Y722608D01*
X1271186D01*
X1274797Y718997D01*
X1275881Y718272D01*
X1277160Y718018D01*
X1304176D01*
X1304348Y717846D01*
Y713325D01*
X1302460D01*
Y703410D01*
Y693495D01*
X1305980D01*
Y694257D01*
X1311718D01*
Y712563D01*
X1311032D01*
Y719230D01*
X1310778Y720509D01*
X1310053Y721593D01*
X1307923Y723723D01*
X1306839Y724448D01*
X1305560Y724702D01*
X1278544D01*
X1274933Y728313D01*
X1273849Y729038D01*
X1273098Y729187D01*
Y733469D01*
X1274368Y734511D01*
X1274598Y734466D01*
X1291089D01*
X1292368Y734720D01*
X1293452Y735444D01*
X1309303Y751296D01*
X1310028Y752380D01*
X1310155Y753017D01*
X1311718D01*
Y771323D01*
X1304055D01*
Y784338D01*
X1309170Y789454D01*
X1337018D01*
X1432074Y694398D01*
Y476478D01*
X1431740Y476285D01*
X1429565Y474110D01*
X1428028Y471447D01*
X1427232Y468477D01*
Y465403D01*
X1428028Y462433D01*
X1429565Y459770D01*
X1431740Y457595D01*
X1433979Y456302D01*
X1434076Y456176D01*
X1435492Y455089D01*
X1437141Y454407D01*
X1438910Y454174D01*
X1440679Y454407D01*
X1442328Y455089D01*
X1443744Y456176D01*
X1443841Y456302D01*
X1446080Y457595D01*
X1448255Y459770D01*
X1449792Y462433D01*
X1450588Y465403D01*
Y468477D01*
X1449792Y471447D01*
X1448255Y474110D01*
X1446080Y476285D01*
X1445746Y476478D01*
Y697230D01*
X1445513Y698999D01*
X1444831Y700648D01*
X1443744Y702064D01*
X1344684Y801124D01*
X1343268Y802211D01*
X1342302Y802611D01*
X1341619Y802894D01*
X1339850Y803127D01*
X1306338D01*
X1304568Y802894D01*
X1302920Y802211D01*
X1301504Y801124D01*
X1292384Y792004D01*
X1291297Y790588D01*
X1290614Y788940D01*
X1290381Y787170D01*
Y780610D01*
X1290347D01*
X1290210Y780582D01*
X1279692D01*
Y805180D01*
X1279438Y806459D01*
X1278713Y807543D01*
X1270331Y815925D01*
X1269247Y816650D01*
X1267968Y816904D01*
X1246588D01*
Y818090D01*
X1237532D01*
Y816904D01*
X1235158D01*
Y818090D01*
X1226102D01*
Y818090D01*
X1224998Y817600D01*
X1223812Y818204D01*
Y826136D01*
X1225579Y827902D01*
X1240408D01*
Y845958D01*
X1220852D01*
Y832629D01*
X1218107Y829883D01*
X1217382Y828799D01*
X1217128Y827520D01*
Y818498D01*
X1216892Y818262D01*
X1215421Y818258D01*
X1215067Y818600D01*
Y834680D01*
X1215008Y835124D01*
Y845958D01*
X1195452D01*
Y827902D01*
X1201394D01*
Y814680D01*
X1201627Y812911D01*
X1201909Y812228D01*
X1202309Y811262D01*
X1202606Y810875D01*
X1203119Y809636D01*
X1204206Y808220D01*
X1205577Y807168D01*
X1205589Y807042D01*
X1205249Y805898D01*
X1204512D01*
Y796842D01*
X1208841D01*
X1211338Y794346D01*
Y787943D01*
X1208879D01*
X1198266Y798556D01*
X1197181Y799280D01*
X1196713Y799373D01*
X1186982Y809104D01*
Y843456D01*
X1200929Y857402D01*
X1215008D01*
Y860539D01*
X1220852D01*
Y857402D01*
X1240408D01*
Y875458D01*
X1220852D01*
Y872321D01*
X1215008D01*
Y875458D01*
X1211121D01*
Y883202D01*
X1211536D01*
Y883970D01*
X1212132Y884552D01*
X1213402Y884064D01*
Y882440D01*
X1216209D01*
X1216438Y882287D01*
X1218692Y881839D01*
X1236104D01*
X1238358Y882287D01*
X1240269Y883564D01*
X1244956Y888251D01*
X1246233Y890162D01*
X1246681Y892416D01*
Y894836D01*
X1247951Y895626D01*
X1248730Y895303D01*
Y900000D01*
Y904697D01*
X1247951Y904374D01*
X1246681Y905164D01*
Y994836D01*
X1247951Y995626D01*
X1248730Y995303D01*
Y1000000D01*
Y1004697D01*
X1247951Y1004374D01*
X1246681Y1005164D01*
Y1094836D01*
X1247951Y1095626D01*
X1248730Y1095303D01*
Y1100000D01*
Y1104697D01*
X1247951Y1104374D01*
X1246681Y1105164D01*
Y1179258D01*
X1246955Y1179416D01*
X1248824Y1181285D01*
X1250146Y1183575D01*
X1250830Y1186128D01*
Y1186180D01*
X1230750D01*
Y1186128D01*
X1231434Y1183575D01*
X1232756Y1181285D01*
X1234625Y1179416D01*
X1234899Y1179258D01*
Y894856D01*
X1233663Y893621D01*
X1218692D01*
X1216438Y893173D01*
X1216209Y893020D01*
X1213402D01*
X1212899Y894082D01*
Y895062D01*
X1213422Y895845D01*
X1213871Y898100D01*
Y901442D01*
X1221108D01*
Y926998D01*
X1202052D01*
Y901442D01*
X1202088D01*
Y900166D01*
X1201565Y899382D01*
X1201117Y897128D01*
Y890170D01*
X1201064Y890118D01*
X1199787Y888206D01*
X1199339Y885952D01*
Y875458D01*
X1195452D01*
Y861379D01*
X1181277Y847203D01*
X1180552Y846119D01*
X1180298Y844840D01*
Y807720D01*
X1180552Y806441D01*
X1181277Y805357D01*
X1192804Y793829D01*
X1193888Y793105D01*
X1194357Y793011D01*
X1204152Y783216D01*
Y770729D01*
X1186357Y752933D01*
X1185632Y751849D01*
X1185378Y750570D01*
Y690880D01*
X1185632Y689601D01*
X1186357Y688517D01*
X1190167Y684707D01*
X1191251Y683982D01*
X1192530Y683728D01*
X1204922D01*
Y679092D01*
X1213660D01*
Y678330D01*
X1214838D01*
Y670769D01*
X1214478Y669648D01*
X1204922D01*
Y654092D01*
X1213314D01*
Y650450D01*
X1212386D01*
Y646430D01*
X1217676D01*
Y645160D01*
X1218946D01*
Y639870D01*
X1222523D01*
Y622272D01*
X1220670Y620419D01*
X1218050D01*
X1205953Y632515D01*
X1204537Y633602D01*
X1202888Y634285D01*
X1201119Y634518D01*
X1153461D01*
X1151692Y634285D01*
X1150043Y633602D01*
X1148627Y632515D01*
X1143000Y626888D01*
X1137373Y632515D01*
X1135957Y633602D01*
X1134308Y634285D01*
X1132539Y634518D01*
X1039529D01*
X1035483Y638564D01*
X1034067Y639651D01*
X1033101Y640051D01*
X1032418Y640333D01*
X1030648Y640566D01*
X978607D01*
X978533Y640557D01*
X977578Y641394D01*
Y642298D01*
X974398D01*
Y661315D01*
X974398Y661315D01*
X974181Y662405D01*
X973564Y663328D01*
X973564Y663329D01*
X967933Y668959D01*
Y673655D01*
X967933Y673655D01*
X967878Y673930D01*
Y683293D01*
X898640D01*
Y684055D01*
X895870D01*
Y674140D01*
X893330D01*
Y684055D01*
X890560D01*
Y683293D01*
X886322D01*
Y668992D01*
X841192Y623862D01*
X660775D01*
X660162Y624475D01*
X658668Y625094D01*
X657052D01*
X655558Y624475D01*
X654415Y623332D01*
X653796Y621838D01*
Y620222D01*
X654415Y618728D01*
X655558Y617585D01*
X657052Y616966D01*
X658668D01*
X660162Y617585D01*
X660775Y618198D01*
X842365D01*
X842365Y618198D01*
X843449Y618413D01*
X844368Y619027D01*
X889371Y664030D01*
X890482Y664212D01*
X890683Y664205D01*
X891752Y664037D01*
Y659560D01*
X886460Y654267D01*
Y648970D01*
X885190D01*
Y647700D01*
X880492D01*
X881099Y646236D01*
X882367Y644968D01*
X882325Y644548D01*
X881988Y643698D01*
X881702D01*
Y631642D01*
X893758D01*
Y642233D01*
X900482Y648957D01*
X901752Y648431D01*
Y618760D01*
X894170Y611178D01*
X647610D01*
X606098Y652690D01*
Y758190D01*
X606098Y758190D01*
X605881Y759280D01*
X605264Y760204D01*
X595505Y769963D01*
Y795876D01*
X596775Y796402D01*
X597267Y795910D01*
X598730Y795303D01*
Y800000D01*
Y804697D01*
X598455Y804583D01*
X597185Y805431D01*
Y812219D01*
X595505D01*
Y832831D01*
X597185D01*
Y841887D01*
X588129D01*
Y832831D01*
X589809D01*
Y812219D01*
X588129D01*
Y803163D01*
X589809D01*
Y768783D01*
X589809Y768783D01*
X590026Y767693D01*
X590643Y766769D01*
X600402Y757010D01*
Y705442D01*
X599442Y704800D01*
Y700000D01*
Y695200D01*
X600402Y694558D01*
Y651510D01*
X600402Y651510D01*
X600619Y650420D01*
X601236Y649496D01*
X644416Y606316D01*
X645340Y605699D01*
X646430Y605482D01*
X646430Y605482D01*
X895350D01*
X895350Y605482D01*
X896440Y605699D01*
X897364Y606316D01*
X906614Y615566D01*
X906614Y615566D01*
X907231Y616490D01*
X907448Y617580D01*
Y664987D01*
X931752D01*
Y636060D01*
X896708Y601016D01*
X645070D01*
X594171Y651915D01*
Y686324D01*
X595851D01*
Y694364D01*
X596902Y695067D01*
Y700000D01*
Y704697D01*
X595439Y704090D01*
X595344Y703996D01*
X594171Y704482D01*
Y714264D01*
X595851D01*
Y723320D01*
X586795D01*
Y714264D01*
X588475D01*
Y695380D01*
X586795D01*
Y686324D01*
X588475D01*
Y650735D01*
X588475Y650735D01*
X588692Y649645D01*
X589309Y648721D01*
X641876Y596154D01*
X641876Y596154D01*
X642800Y595537D01*
X643890Y595320D01*
X643890Y595320D01*
X897888D01*
X897888Y595320D01*
X898978Y595537D01*
X899902Y596154D01*
X935482Y631735D01*
X936752Y631209D01*
Y628390D01*
X900489Y592128D01*
X599350D01*
X596534Y594943D01*
X597267Y595910D01*
X598730Y595303D01*
Y600000D01*
Y604697D01*
X597267Y604090D01*
X596775Y603598D01*
X595505Y604124D01*
Y611423D01*
X597185D01*
Y620479D01*
X588129D01*
Y611423D01*
X589809D01*
Y594793D01*
X589809Y594793D01*
X589809Y594793D01*
Y592499D01*
X588129D01*
Y583443D01*
X597185D01*
Y585627D01*
X598167Y586433D01*
X598170Y586432D01*
X598170Y586432D01*
X898515D01*
X899001Y585259D01*
X895156Y581414D01*
X894069Y579998D01*
X893386Y578349D01*
X893154Y576580D01*
Y562610D01*
Y554842D01*
X889978Y551666D01*
X880110D01*
X878341Y551433D01*
X876692Y550751D01*
X875276Y549664D01*
X862921Y537309D01*
X517960D01*
X516106Y539162D01*
Y1111034D01*
X527266Y1122194D01*
X683260D01*
X685029Y1122427D01*
X685712Y1122709D01*
X686678Y1123109D01*
X688094Y1124196D01*
X749094Y1185196D01*
X750181Y1186612D01*
X750863Y1188261D01*
X750873Y1188332D01*
X754779D01*
X755874Y1188332D01*
X756656Y1187318D01*
X676643Y1107305D01*
X675156Y1105367D01*
X674221Y1103110D01*
X673902Y1100688D01*
Y1066800D01*
Y975257D01*
X674221Y972835D01*
X675156Y970578D01*
X676643Y968640D01*
X684088Y961195D01*
X684381Y958968D01*
X685316Y956711D01*
X686803Y954773D01*
X754639Y886936D01*
X746660Y878958D01*
X732310D01*
X732075Y879836D01*
X730804Y882036D01*
X729007Y883833D01*
X726806Y885104D01*
X724352Y885762D01*
X721810D01*
X719355Y885104D01*
X717154Y883833D01*
X715357Y882036D01*
X714087Y879836D01*
X713429Y877381D01*
Y874839D01*
X714087Y872384D01*
X715357Y870183D01*
X717154Y868386D01*
X719355Y867116D01*
X721810Y866458D01*
X724352D01*
X726806Y867116D01*
X729007Y868386D01*
X730804Y870183D01*
X732075Y872384D01*
X732310Y873262D01*
X747840D01*
X747840Y873262D01*
X748930Y873479D01*
X749854Y874096D01*
X758667Y882909D01*
X828014Y813562D01*
Y787140D01*
X828333Y784718D01*
X829268Y782461D01*
X830755Y780523D01*
X832693Y779036D01*
X834950Y778101D01*
X837372Y777782D01*
X839794Y778101D01*
X842051Y779036D01*
X843616Y780237D01*
X844872Y778981D01*
Y770952D01*
X856928D01*
Y772424D01*
X858198Y772950D01*
X860512Y770635D01*
Y769505D01*
X860512Y769505D01*
X860567Y769230D01*
Y761868D01*
X846443D01*
X763525Y844786D01*
X762601Y845403D01*
X761512Y845620D01*
X761511Y845620D01*
X746208D01*
Y847300D01*
X737152D01*
Y838244D01*
X746208D01*
Y839924D01*
X760332D01*
X842119Y758138D01*
X841593Y756868D01*
X830528D01*
X779440Y807956D01*
X778516Y808573D01*
X777426Y808790D01*
X777426Y808790D01*
X746208D01*
Y810470D01*
X737152D01*
Y801414D01*
X744872D01*
X745175Y800960D01*
Y799040D01*
X745005Y798786D01*
X737152D01*
Y797090D01*
X730968D01*
Y798786D01*
X721912D01*
Y797090D01*
X701698D01*
Y809858D01*
X685142D01*
Y787302D01*
X701698D01*
Y791426D01*
X721912D01*
Y789730D01*
X730968D01*
Y791426D01*
X737152D01*
Y789730D01*
X746208D01*
Y795309D01*
X747478Y795822D01*
X748730Y795303D01*
Y800000D01*
X750000D01*
Y801270D01*
X754697D01*
X754467Y801824D01*
X755315Y803094D01*
X776247D01*
X826203Y753138D01*
X825677Y751868D01*
X806157D01*
X802771Y755254D01*
X801847Y755871D01*
X800758Y756088D01*
X800757Y756088D01*
X745168D01*
Y759268D01*
X733112D01*
Y757092D01*
X724758D01*
X724757Y757092D01*
X723283Y756799D01*
X722033Y755964D01*
X722033Y755964D01*
X716282Y750212D01*
X710337D01*
X709804Y751136D01*
X708356Y752584D01*
X706582Y753608D01*
X704604Y754138D01*
X702556D01*
X700578Y753608D01*
X698804Y752584D01*
X697356Y751136D01*
X696332Y749362D01*
X695802Y747384D01*
Y745336D01*
X696332Y743358D01*
X697356Y741584D01*
X698804Y740136D01*
X700578Y739112D01*
X702556Y738582D01*
X704604D01*
X706582Y739112D01*
X708356Y740136D01*
X709804Y741584D01*
X710337Y742508D01*
X717877D01*
X717878Y742508D01*
X719352Y742801D01*
X720601Y743636D01*
X726353Y749388D01*
X733112D01*
Y747212D01*
X745168D01*
Y750392D01*
X799578D01*
X801771Y748199D01*
X801285Y747026D01*
X800058D01*
X798968Y746809D01*
X798044Y746191D01*
X798044Y746191D01*
X746438Y694585D01*
X745168Y695111D01*
Y696778D01*
X738560D01*
X737148Y698190D01*
X737674Y699460D01*
X737870D01*
Y704980D01*
X732350D01*
Y700212D01*
X710337D01*
X709804Y701136D01*
X708356Y702584D01*
X706582Y703608D01*
X704604Y704138D01*
X702556D01*
X700578Y703608D01*
X698804Y702584D01*
X697356Y701136D01*
X696332Y699362D01*
X695802Y697384D01*
Y695336D01*
X696332Y693358D01*
X697356Y691584D01*
X698804Y690136D01*
X700578Y689112D01*
X702556Y688582D01*
X704604D01*
X706582Y689112D01*
X708356Y690136D01*
X709804Y691584D01*
X710337Y692508D01*
X731935D01*
X733112Y691330D01*
Y684722D01*
X745168D01*
Y687902D01*
X746630D01*
X746630Y687902D01*
X747720Y688119D01*
X748644Y688736D01*
X801237Y741330D01*
X827232D01*
X827938Y740274D01*
X827786Y739907D01*
Y738290D01*
X828405Y736797D01*
X829548Y735654D01*
X831042Y735035D01*
X832658D01*
X834152Y735654D01*
X834710Y736212D01*
X860567D01*
Y730742D01*
Y718060D01*
X859805D01*
Y716868D01*
X840712D01*
X840712Y716868D01*
X839622Y716651D01*
X839528Y716588D01*
X820587D01*
X819344Y717831D01*
X817880Y718438D01*
Y713740D01*
Y709042D01*
X819344Y709649D01*
X820587Y710892D01*
X827321D01*
X827807Y709719D01*
X820946Y702859D01*
X820329Y701935D01*
X820112Y700845D01*
X820112Y700845D01*
Y699578D01*
X816932D01*
Y697527D01*
X809418D01*
Y700328D01*
X795862D01*
Y687272D01*
X809418D01*
Y689823D01*
X816932D01*
Y687522D01*
X828988D01*
Y699578D01*
X827516D01*
X826990Y700848D01*
X832315Y706172D01*
X837509D01*
X838035Y704902D01*
X831358Y698226D01*
X830741Y697302D01*
X830524Y696212D01*
X830525Y696212D01*
Y685789D01*
X829750Y684840D01*
X824230D01*
Y678050D01*
Y671260D01*
X826863D01*
X827349Y670087D01*
X824320Y667058D01*
X706030D01*
X663248Y709840D01*
Y869912D01*
X664518Y870252D01*
X664557Y870183D01*
X666354Y868386D01*
X668555Y867116D01*
X671010Y866458D01*
X673551D01*
X676006Y867116D01*
X678207Y868386D01*
X680004Y870183D01*
X681275Y872384D01*
X681933Y874839D01*
Y877381D01*
X681275Y879836D01*
X680004Y882036D01*
X678207Y883833D01*
X676006Y885104D01*
X673551Y885762D01*
X671010D01*
X668555Y885104D01*
X666354Y883833D01*
X664557Y882036D01*
X664518Y881968D01*
X663248Y882308D01*
Y1028700D01*
X663248Y1028700D01*
X663031Y1029790D01*
X662414Y1030714D01*
X623044Y1070084D01*
X622120Y1070701D01*
X621030Y1070918D01*
X621030Y1070918D01*
X553868D01*
X553760Y1071734D01*
X552825Y1073991D01*
X551338Y1075929D01*
X549400Y1077416D01*
X547143Y1078351D01*
X544721Y1078670D01*
X529721D01*
X527299Y1078351D01*
X525042Y1077416D01*
X523104Y1075929D01*
X521617Y1073991D01*
X520682Y1071734D01*
X520363Y1069312D01*
X520682Y1066890D01*
X521617Y1064633D01*
X523104Y1062695D01*
X525042Y1061208D01*
X527299Y1060273D01*
X529721Y1059954D01*
X544721D01*
X547143Y1060273D01*
X549400Y1061208D01*
X551338Y1062695D01*
X552825Y1064633D01*
X553069Y1065222D01*
X619850D01*
X657552Y1027520D01*
Y886367D01*
X656533Y885762D01*
X656282Y885762D01*
X637229D01*
Y866458D01*
X656282D01*
X656533Y866458D01*
X657552Y865853D01*
Y708660D01*
X657552Y708660D01*
X657769Y707570D01*
X658386Y706646D01*
X702836Y662196D01*
X703760Y661579D01*
X704850Y661362D01*
X704850Y661362D01*
X825500D01*
X825500Y661362D01*
X826590Y661579D01*
X827514Y662196D01*
X835386Y670069D01*
X836003Y670992D01*
X836220Y672082D01*
X836220Y672082D01*
Y695033D01*
X841874Y700687D01*
X844861D01*
X845347Y699514D01*
X839996Y694164D01*
X839379Y693240D01*
X839162Y692150D01*
X839162Y692150D01*
Y670470D01*
X811616Y642924D01*
X642534D01*
X626412Y659046D01*
Y891021D01*
X626412Y891021D01*
X626195Y892111D01*
X625578Y893035D01*
X625578Y893035D01*
X598391Y920221D01*
Y925250D01*
X593362D01*
X570477Y948136D01*
X569553Y948753D01*
X568463Y948970D01*
X568463Y948970D01*
X555014D01*
X554255Y950801D01*
X552768Y952739D01*
X550830Y954226D01*
X548573Y955161D01*
X546151Y955480D01*
X531151D01*
X528729Y955161D01*
X526472Y954226D01*
X524534Y952739D01*
X523047Y950801D01*
X522112Y948544D01*
X521793Y946122D01*
X522112Y943700D01*
X523047Y941443D01*
X524534Y939505D01*
X526472Y938018D01*
X528729Y937083D01*
X531151Y936764D01*
X546151D01*
X548573Y937083D01*
X550830Y938018D01*
X552768Y939505D01*
X554255Y941443D01*
X555014Y943274D01*
X567283D01*
X584134Y926423D01*
X583648Y925250D01*
X577651D01*
Y924064D01*
X574809D01*
X574255Y925401D01*
X572768Y927339D01*
X570830Y928826D01*
X568573Y929761D01*
X566151Y930080D01*
X551151D01*
X548729Y929761D01*
X546472Y928826D01*
X544534Y927339D01*
X543047Y925401D01*
X542112Y923144D01*
X541793Y920722D01*
X542112Y918300D01*
X543047Y916043D01*
X544534Y914105D01*
X546472Y912618D01*
X548729Y911683D01*
X551151Y911364D01*
X566151D01*
X568573Y911683D01*
X570830Y912618D01*
X572768Y914105D01*
X574255Y916043D01*
X574809Y917380D01*
X577651D01*
Y916194D01*
X586707D01*
Y922191D01*
X587880Y922677D01*
X589335Y921223D01*
Y916194D01*
X594364D01*
X620716Y889842D01*
Y657866D01*
X620716Y657866D01*
X620933Y656776D01*
X621550Y655852D01*
X639340Y638062D01*
X639340Y638062D01*
X640264Y637445D01*
X641354Y637228D01*
X641354Y637228D01*
X812796D01*
X812796Y637228D01*
X813886Y637445D01*
X814810Y638062D01*
X844024Y667276D01*
X844641Y668200D01*
X844858Y669290D01*
X844858Y669290D01*
Y690970D01*
X850060Y696172D01*
X860567D01*
Y694748D01*
X851437Y685618D01*
X850823Y684699D01*
X850608Y683615D01*
X850608Y683615D01*
Y659033D01*
X825597Y634022D01*
X642995D01*
X642382Y634635D01*
X640888Y635254D01*
X639272D01*
X637778Y634635D01*
X636635Y633492D01*
X636016Y631998D01*
Y630382D01*
X636635Y628888D01*
X637778Y627745D01*
X639272Y627126D01*
X640888D01*
X642382Y627745D01*
X642995Y628358D01*
X826770D01*
X826770Y628358D01*
X827854Y628573D01*
X828773Y629187D01*
X855443Y655857D01*
X855443Y655857D01*
X856057Y656776D01*
X856272Y657860D01*
Y682442D01*
X864573Y690742D01*
X878873D01*
Y700742D01*
Y709980D01*
X879635D01*
Y712750D01*
X869720D01*
Y715290D01*
X879635D01*
Y718060D01*
X878873D01*
Y730742D01*
Y740742D01*
Y750742D01*
Y760742D01*
Y772298D01*
X866112D01*
X865991Y772905D01*
X865374Y773829D01*
X860209Y778994D01*
X859285Y779611D01*
X858195Y779828D01*
X858195Y779828D01*
X856928D01*
Y783008D01*
X848899D01*
X847487Y784420D01*
X848013Y785690D01*
X849630D01*
Y792480D01*
Y799270D01*
X846730D01*
Y808080D01*
X852837D01*
X855259Y808399D01*
X856680Y808988D01*
X857950Y808139D01*
Y800930D01*
X863470D01*
Y807720D01*
X866010D01*
Y800930D01*
X871530D01*
Y801407D01*
X872800Y801926D01*
X873623Y801103D01*
X875561Y799616D01*
X877818Y798681D01*
X878068Y798648D01*
X878226Y798411D01*
X880520Y796117D01*
X880520Y796117D01*
X881444Y795500D01*
X882534Y795283D01*
X882534Y795283D01*
X885064D01*
X886322Y794026D01*
Y779747D01*
X890560D01*
Y778985D01*
X893330D01*
Y788900D01*
X895870D01*
Y778985D01*
X898640D01*
Y779747D01*
X967878D01*
Y798053D01*
X967448D01*
Y983740D01*
X973661Y989954D01*
X974319Y989574D01*
X976678Y988942D01*
X979121D01*
X981481Y989574D01*
X983597Y990796D01*
X985324Y992523D01*
X986546Y994639D01*
X987178Y996999D01*
Y999442D01*
X986546Y1001801D01*
X985324Y1003917D01*
X983597Y1005644D01*
X981481Y1006866D01*
X979121Y1007498D01*
X976678D01*
X974319Y1006866D01*
X972203Y1005644D01*
X970476Y1003917D01*
X969254Y1001801D01*
X968622Y999442D01*
Y996999D01*
X969254Y994639D01*
X969634Y993981D01*
X962586Y986934D01*
X961969Y986010D01*
X961752Y984920D01*
X961752Y984920D01*
Y824219D01*
X960482Y823693D01*
X959882Y824294D01*
X958388Y824912D01*
X956839D01*
X956684Y825127D01*
X956293Y826086D01*
X957215Y827008D01*
X957834Y828502D01*
Y830118D01*
X957215Y831612D01*
X956072Y832755D01*
X954578Y833374D01*
X952962D01*
X951468Y832755D01*
X950325Y831612D01*
X949706Y830118D01*
Y829273D01*
X948718Y828285D01*
X948565Y828348D01*
X947508Y829049D01*
X947725Y830139D01*
X947725Y830139D01*
Y988076D01*
X948995Y988765D01*
X951178Y988180D01*
X951230D01*
Y998220D01*
Y1008260D01*
X951178D01*
X948625Y1007576D01*
X946335Y1006254D01*
X946228Y1006147D01*
X945055Y1006633D01*
Y1096326D01*
X946325Y1096852D01*
X947267Y1095910D01*
X948730Y1095303D01*
Y1100000D01*
Y1104697D01*
X947267Y1104090D01*
X946325Y1103148D01*
X945055Y1103674D01*
Y1167087D01*
X950704Y1172736D01*
X950704Y1172736D01*
X951321Y1173660D01*
X951538Y1174750D01*
Y1188332D01*
X957968D01*
Y1206888D01*
X939412D01*
Y1188332D01*
X945842D01*
Y1175930D01*
X940193Y1170281D01*
X939576Y1169357D01*
X939359Y1168267D01*
X939359Y1168267D01*
Y1010597D01*
X938186Y1010111D01*
X928678Y1019620D01*
Y1190007D01*
X928987Y1190186D01*
X930714Y1191913D01*
X931936Y1194029D01*
X932568Y1196388D01*
Y1198831D01*
X931936Y1201191D01*
X930714Y1203307D01*
X928987Y1205034D01*
X926871Y1206256D01*
X924511Y1206888D01*
X922068D01*
X919709Y1206256D01*
X917593Y1205034D01*
X915866Y1203307D01*
X914644Y1201191D01*
X914012Y1198831D01*
Y1196388D01*
X914644Y1194029D01*
X915866Y1191913D01*
X917593Y1190186D01*
X919709Y1188964D01*
X922068Y1188332D01*
X922982D01*
Y1018440D01*
X922982Y1018440D01*
X923199Y1017350D01*
X923599Y1016751D01*
X922613Y1015941D01*
X910155Y1028399D01*
Y1060817D01*
X909837Y1063240D01*
X908902Y1065497D01*
X907415Y1067435D01*
X905477Y1068922D01*
X903220Y1069857D01*
X900798Y1070175D01*
X859753D01*
X856448Y1073481D01*
Y1153160D01*
X856129Y1155582D01*
X855194Y1157839D01*
X853707Y1159777D01*
X853339Y1160145D01*
X910656Y1217462D01*
X991804D01*
X1010653Y1198613D01*
X1011184Y1198205D01*
X1011664Y1197737D01*
X1012150Y1197465D01*
X1012591Y1197126D01*
X1013210Y1196869D01*
X1013794Y1196541D01*
X1014843Y1196122D01*
X1015382Y1195984D01*
X1015896Y1195771D01*
X1016561Y1195684D01*
X1017210Y1195518D01*
X1017766Y1195525D01*
X1018318Y1195453D01*
X1025589D01*
X1026626Y1195589D01*
X1027667Y1195686D01*
X1029508Y1196106D01*
X1031799Y1196954D01*
X1033792Y1198367D01*
X1035351Y1200247D01*
X1036371Y1202467D01*
X1036781Y1204875D01*
X1036554Y1207308D01*
X1035706Y1209599D01*
X1034293Y1211592D01*
X1032413Y1213151D01*
X1030193Y1214171D01*
X1027784Y1214581D01*
X1025352Y1214354D01*
X1024537Y1214169D01*
X1021565D01*
X1002297Y1233437D01*
X1000359Y1234924D01*
X998102Y1235859D01*
X995680Y1236178D01*
X906780D01*
X904358Y1235859D01*
X902101Y1234924D01*
X900163Y1233437D01*
X844973Y1178247D01*
X843800Y1178733D01*
Y1197662D01*
X843481Y1200084D01*
X842546Y1202341D01*
X841059Y1204279D01*
X838588Y1206749D01*
Y1206888D01*
X838449D01*
X806820Y1238517D01*
X804882Y1240004D01*
X802625Y1240939D01*
X800203Y1241258D01*
X699770D01*
X697348Y1240939D01*
X695091Y1240004D01*
X693153Y1238517D01*
X669023Y1214387D01*
X667536Y1212449D01*
X666601Y1210192D01*
X666282Y1207770D01*
X666601Y1205348D01*
X667536Y1203091D01*
X669023Y1201153D01*
X670961Y1199666D01*
X673218Y1198731D01*
X675640Y1198412D01*
X678062Y1198731D01*
X680319Y1199666D01*
X682257Y1201153D01*
X703646Y1222542D01*
X790260D01*
X790691Y1221272D01*
X790343Y1221005D01*
X757052Y1187714D01*
X756038Y1188496D01*
X756038Y1189534D01*
Y1206888D01*
X737482D01*
Y1195554D01*
X737423Y1195110D01*
Y1192862D01*
X680428Y1135866D01*
X606277D01*
Y1196048D01*
X649994Y1239766D01*
X650267Y1240121D01*
X650584Y1240438D01*
X650808Y1240826D01*
X651081Y1241182D01*
X651252Y1241596D01*
X651476Y1241984D01*
X651592Y1242417D01*
X651764Y1242831D01*
X651822Y1243275D01*
X651938Y1243708D01*
Y1244156D01*
X651997Y1244600D01*
X651938Y1245044D01*
Y1245492D01*
X651822Y1245925D01*
X651764Y1246369D01*
X651592Y1246783D01*
X651476Y1247216D01*
X651252Y1247604D01*
X651081Y1248018D01*
X650808Y1248374D01*
X650584Y1248762D01*
X650267Y1249079D01*
X649994Y1249434D01*
X649639Y1249707D01*
X649322Y1250024D01*
X648934Y1250248D01*
X648578Y1250521D01*
X648164Y1250692D01*
X647776Y1250916D01*
X647343Y1251032D01*
X646929Y1251204D01*
X646485Y1251262D01*
X646052Y1251378D01*
X645604D01*
X645160Y1251436D01*
D02*
G37*
G36*
X1242112Y1197490D02*
X1242060D01*
Y1188720D01*
X1250830D01*
Y1188772D01*
X1250146Y1191325D01*
X1248824Y1193615D01*
X1246955Y1195484D01*
X1244665Y1196806D01*
X1242112Y1197490D01*
D02*
G37*
G36*
X1239520D02*
X1239468D01*
X1236915Y1196806D01*
X1234625Y1195484D01*
X1232756Y1193615D01*
X1231434Y1191325D01*
X1230750Y1188772D01*
Y1188720D01*
X1239520D01*
Y1197490D01*
D02*
G37*
G36*
X731400Y1196340D02*
X722630D01*
Y1187570D01*
X722682D01*
X725235Y1188254D01*
X727525Y1189576D01*
X729394Y1191445D01*
X730716Y1193735D01*
X731400Y1196288D01*
Y1196340D01*
D02*
G37*
G36*
X720090D02*
X711320D01*
Y1196288D01*
X712004Y1193735D01*
X713326Y1191445D01*
X715195Y1189576D01*
X717485Y1188254D01*
X720038Y1187570D01*
X720090D01*
Y1196340D01*
D02*
G37*
G36*
X1440447Y1200818D02*
X1437373D01*
X1434402Y1200022D01*
X1431740Y1198485D01*
X1429565Y1196311D01*
X1428028Y1193648D01*
X1427232Y1190677D01*
Y1187603D01*
X1428028Y1184632D01*
X1429565Y1181970D01*
X1431740Y1179795D01*
X1434402Y1178258D01*
X1437373Y1177462D01*
X1440447D01*
X1443418Y1178258D01*
X1446080Y1179795D01*
X1448255Y1181970D01*
X1449792Y1184632D01*
X1450588Y1187603D01*
Y1190677D01*
X1449792Y1193648D01*
X1448255Y1196311D01*
X1446080Y1198485D01*
X1443418Y1200022D01*
X1440447Y1200818D01*
D02*
G37*
G36*
X1519417Y1202868D02*
X1515803D01*
X1512311Y1201932D01*
X1509181Y1200125D01*
X1506625Y1197569D01*
X1504818Y1194439D01*
X1503882Y1190947D01*
Y1187333D01*
X1504818Y1183841D01*
X1506625Y1180711D01*
X1509181Y1178155D01*
X1512311Y1176348D01*
X1515803Y1175412D01*
X1519417D01*
X1522909Y1176348D01*
X1526039Y1178155D01*
X1528595Y1180711D01*
X1530403Y1183841D01*
X1531338Y1187333D01*
Y1190947D01*
X1530403Y1194439D01*
X1528595Y1197569D01*
X1526039Y1200125D01*
X1522909Y1201932D01*
X1519417Y1202868D01*
D02*
G37*
G36*
X1276270Y1154697D02*
Y1151270D01*
X1279697D01*
X1279090Y1152733D01*
X1277733Y1154090D01*
X1276270Y1154697D01*
D02*
G37*
G36*
X1273730D02*
X1272267Y1154090D01*
X1270910Y1152733D01*
X1270304Y1151270D01*
X1273730D01*
Y1154697D01*
D02*
G37*
G36*
X1226270D02*
Y1151270D01*
X1229697D01*
X1229090Y1152733D01*
X1227733Y1154090D01*
X1226270Y1154697D01*
D02*
G37*
G36*
X1176270D02*
Y1151270D01*
X1179697D01*
X1179090Y1152733D01*
X1177733Y1154090D01*
X1176270Y1154697D01*
D02*
G37*
G36*
X1173730D02*
X1172267Y1154090D01*
X1170910Y1152733D01*
X1170304Y1151270D01*
X1173730D01*
Y1154697D01*
D02*
G37*
G36*
X1126270D02*
Y1151270D01*
X1129697D01*
X1129090Y1152733D01*
X1127733Y1154090D01*
X1126270Y1154697D01*
D02*
G37*
G36*
X1123730D02*
X1122267Y1154090D01*
X1120910Y1152733D01*
X1120304Y1151270D01*
X1123730D01*
Y1154697D01*
D02*
G37*
G36*
X1076270D02*
Y1151270D01*
X1079697D01*
X1079090Y1152733D01*
X1077733Y1154090D01*
X1076270Y1154697D01*
D02*
G37*
G36*
X1073730D02*
X1072267Y1154090D01*
X1070910Y1152733D01*
X1070303Y1151270D01*
X1073730D01*
Y1154697D01*
D02*
G37*
G36*
X1026270D02*
Y1151270D01*
X1029697D01*
X1029090Y1152733D01*
X1027733Y1154090D01*
X1026270Y1154697D01*
D02*
G37*
G36*
X1023730D02*
X1022267Y1154090D01*
X1020910Y1152733D01*
X1020303Y1151270D01*
X1023730D01*
Y1154697D01*
D02*
G37*
G36*
X976270D02*
Y1151270D01*
X979697D01*
X979090Y1152733D01*
X977733Y1154090D01*
X976270Y1154697D01*
D02*
G37*
G36*
X973730D02*
X972267Y1154090D01*
X970910Y1152733D01*
X970303Y1151270D01*
X973730D01*
Y1154697D01*
D02*
G37*
G36*
X876270D02*
Y1151270D01*
X879697D01*
X879090Y1152733D01*
X877733Y1154090D01*
X876270Y1154697D01*
D02*
G37*
G36*
X873730D02*
X872267Y1154090D01*
X870910Y1152733D01*
X870303Y1151270D01*
X873730D01*
Y1154697D01*
D02*
G37*
G36*
X676270D02*
Y1151270D01*
X679697D01*
X679090Y1152733D01*
X677733Y1154090D01*
X676270Y1154697D01*
D02*
G37*
G36*
X673730D02*
X672267Y1154090D01*
X670910Y1152733D01*
X670303Y1151270D01*
X673730D01*
Y1154697D01*
D02*
G37*
G36*
X626270D02*
Y1151270D01*
X629697D01*
X629090Y1152733D01*
X627733Y1154090D01*
X626270Y1154697D01*
D02*
G37*
G36*
X623730D02*
X622267Y1154090D01*
X620910Y1152733D01*
X620303Y1151270D01*
X623730D01*
Y1154697D01*
D02*
G37*
G36*
X1279697Y1148730D02*
X1276270D01*
Y1145304D01*
X1277733Y1145910D01*
X1279090Y1147267D01*
X1279697Y1148730D01*
D02*
G37*
G36*
X1273730D02*
X1270304D01*
X1270910Y1147267D01*
X1272267Y1145910D01*
X1273730Y1145304D01*
Y1148730D01*
D02*
G37*
G36*
X1229697D02*
X1226270D01*
Y1145304D01*
X1227733Y1145910D01*
X1229090Y1147267D01*
X1229697Y1148730D01*
D02*
G37*
G36*
X1179697D02*
X1176270D01*
Y1145304D01*
X1177733Y1145910D01*
X1179090Y1147267D01*
X1179697Y1148730D01*
D02*
G37*
G36*
X1173730D02*
X1170304D01*
X1170910Y1147267D01*
X1172267Y1145910D01*
X1173730Y1145304D01*
Y1148730D01*
D02*
G37*
G36*
X1129697D02*
X1126270D01*
Y1145304D01*
X1127733Y1145910D01*
X1129090Y1147267D01*
X1129697Y1148730D01*
D02*
G37*
G36*
X1123730D02*
X1120304D01*
X1120910Y1147267D01*
X1122267Y1145910D01*
X1123730Y1145304D01*
Y1148730D01*
D02*
G37*
G36*
X1079697D02*
X1076270D01*
Y1145304D01*
X1077733Y1145910D01*
X1079090Y1147267D01*
X1079697Y1148730D01*
D02*
G37*
G36*
X1073730D02*
X1070303D01*
X1070910Y1147267D01*
X1072267Y1145910D01*
X1073730Y1145304D01*
Y1148730D01*
D02*
G37*
G36*
X1029697D02*
X1026270D01*
Y1145304D01*
X1027733Y1145910D01*
X1029090Y1147267D01*
X1029697Y1148730D01*
D02*
G37*
G36*
X1023730D02*
X1020303D01*
X1020910Y1147267D01*
X1022267Y1145910D01*
X1023730Y1145304D01*
Y1148730D01*
D02*
G37*
G36*
X979697D02*
X976270D01*
Y1145304D01*
X977733Y1145910D01*
X979090Y1147267D01*
X979697Y1148730D01*
D02*
G37*
G36*
X973730D02*
X970303D01*
X970910Y1147267D01*
X972267Y1145910D01*
X973730Y1145304D01*
Y1148730D01*
D02*
G37*
G36*
X879697D02*
X876270D01*
Y1145304D01*
X877733Y1145910D01*
X879090Y1147267D01*
X879697Y1148730D01*
D02*
G37*
G36*
X873730D02*
X870303D01*
X870910Y1147267D01*
X872267Y1145910D01*
X873730Y1145304D01*
Y1148730D01*
D02*
G37*
G36*
X679697D02*
X676270D01*
Y1145304D01*
X677733Y1145910D01*
X679090Y1147267D01*
X679697Y1148730D01*
D02*
G37*
G36*
X673730D02*
X670303D01*
X670910Y1147267D01*
X672267Y1145910D01*
X673730Y1145304D01*
Y1148730D01*
D02*
G37*
G36*
X629697D02*
X626270D01*
Y1145304D01*
X627733Y1145910D01*
X629090Y1147267D01*
X629697Y1148730D01*
D02*
G37*
G36*
X623730D02*
X620303D01*
X620910Y1147267D01*
X622267Y1145910D01*
X623730Y1145304D01*
Y1148730D01*
D02*
G37*
G36*
X1224668Y1196728D02*
X1206112D01*
Y1178172D01*
X1208553D01*
Y1130212D01*
X1206746Y1128404D01*
X1205659Y1126988D01*
X1204977Y1125339D01*
X1204743Y1123570D01*
Y1103876D01*
X1203474Y1103350D01*
X1202733Y1104090D01*
X1201270Y1104697D01*
Y1100000D01*
Y1095303D01*
X1202733Y1095910D01*
X1203474Y1096650D01*
X1204743Y1096124D01*
Y1003876D01*
X1203474Y1003350D01*
X1202733Y1004090D01*
X1201270Y1004697D01*
Y1000000D01*
Y995303D01*
X1202733Y995910D01*
X1203474Y996650D01*
X1204743Y996124D01*
Y967998D01*
X1202052D01*
Y942442D01*
X1221108D01*
Y945409D01*
X1222378Y945864D01*
X1223730Y945303D01*
Y950000D01*
Y954697D01*
X1222378Y954137D01*
X1221108Y954591D01*
Y967998D01*
X1218417D01*
Y1120738D01*
X1220224Y1122546D01*
X1221311Y1123962D01*
X1221993Y1125611D01*
X1222226Y1127380D01*
Y1144552D01*
X1223496Y1145400D01*
X1223730Y1145304D01*
Y1150000D01*
Y1154697D01*
X1223496Y1154600D01*
X1222226Y1155448D01*
Y1178172D01*
X1224668D01*
Y1196728D01*
D02*
G37*
G36*
X1076130Y1114490D02*
X1070610D01*
Y1108970D01*
X1076130D01*
Y1114490D01*
D02*
G37*
G36*
X1068070D02*
X1062550D01*
Y1108970D01*
X1068070D01*
Y1114490D01*
D02*
G37*
G36*
X1052540Y1111930D02*
X1043520D01*
Y1105660D01*
X1052540D01*
Y1111930D01*
D02*
G37*
G36*
X1040980D02*
X1031960D01*
Y1105660D01*
X1040980D01*
Y1111930D01*
D02*
G37*
G36*
X1000040D02*
X991020D01*
Y1105660D01*
X1000040D01*
Y1111930D01*
D02*
G37*
G36*
X988480D02*
X979460D01*
Y1105660D01*
X988480D01*
Y1111930D01*
D02*
G37*
G36*
X1251270Y1104697D02*
Y1101270D01*
X1254697D01*
X1254090Y1102733D01*
X1252733Y1104090D01*
X1251270Y1104697D01*
D02*
G37*
G36*
X1198730D02*
X1197267Y1104090D01*
X1195910Y1102733D01*
X1195304Y1101270D01*
X1198730D01*
Y1104697D01*
D02*
G37*
G36*
X1151270D02*
Y1101270D01*
X1154697D01*
X1154090Y1102733D01*
X1152733Y1104090D01*
X1151270Y1104697D01*
D02*
G37*
G36*
X1148730D02*
X1147267Y1104090D01*
X1145910Y1102733D01*
X1145304Y1101270D01*
X1148730D01*
Y1104697D01*
D02*
G37*
G36*
X1101270D02*
Y1101270D01*
X1104697D01*
X1104090Y1102733D01*
X1102733Y1104090D01*
X1101270Y1104697D01*
D02*
G37*
G36*
X1098730D02*
X1097267Y1104090D01*
X1095910Y1102733D01*
X1095303Y1101270D01*
X1098730D01*
Y1104697D01*
D02*
G37*
G36*
X951270D02*
Y1101270D01*
X954697D01*
X954090Y1102733D01*
X952733Y1104090D01*
X951270Y1104697D01*
D02*
G37*
G36*
X901270D02*
Y1101270D01*
X904697D01*
X904090Y1102733D01*
X902733Y1104090D01*
X901270Y1104697D01*
D02*
G37*
G36*
X898730D02*
X897267Y1104090D01*
X895910Y1102733D01*
X895303Y1101270D01*
X898730D01*
Y1104697D01*
D02*
G37*
G36*
X651270D02*
Y1101270D01*
X654697D01*
X654090Y1102733D01*
X652733Y1104090D01*
X651270Y1104697D01*
D02*
G37*
G36*
X648730D02*
X647267Y1104090D01*
X645910Y1102733D01*
X645303Y1101270D01*
X648730D01*
Y1104697D01*
D02*
G37*
G36*
X601270D02*
Y1101270D01*
X604697D01*
X604090Y1102733D01*
X602733Y1104090D01*
X601270Y1104697D01*
D02*
G37*
G36*
X598730D02*
X597267Y1104090D01*
X595910Y1102733D01*
X595303Y1101270D01*
X598730D01*
Y1104697D01*
D02*
G37*
G36*
X1076130Y1106430D02*
X1070610D01*
Y1100910D01*
X1076130D01*
Y1106430D01*
D02*
G37*
G36*
X1068070D02*
X1062550D01*
Y1100910D01*
X1068070D01*
Y1106430D01*
D02*
G37*
G36*
X1052540Y1103120D02*
X1043520D01*
Y1096850D01*
X1052540D01*
Y1103120D01*
D02*
G37*
G36*
X1040980D02*
X1031960D01*
Y1096850D01*
X1040980D01*
Y1103120D01*
D02*
G37*
G36*
X1000040D02*
X991020D01*
Y1096850D01*
X1000040D01*
Y1103120D01*
D02*
G37*
G36*
X988480D02*
X979460D01*
Y1096850D01*
X988480D01*
Y1103120D01*
D02*
G37*
G36*
X1254697Y1098730D02*
X1251270D01*
Y1095303D01*
X1252733Y1095910D01*
X1254090Y1097267D01*
X1254697Y1098730D01*
D02*
G37*
G36*
X1198730D02*
X1195304D01*
X1195910Y1097267D01*
X1197267Y1095910D01*
X1198730Y1095303D01*
Y1098730D01*
D02*
G37*
G36*
X1154697D02*
X1151270D01*
Y1095303D01*
X1152733Y1095910D01*
X1154090Y1097267D01*
X1154697Y1098730D01*
D02*
G37*
G36*
X1148730D02*
X1145304D01*
X1145910Y1097267D01*
X1147267Y1095910D01*
X1148730Y1095303D01*
Y1098730D01*
D02*
G37*
G36*
X1104697D02*
X1101270D01*
Y1095303D01*
X1102733Y1095910D01*
X1104090Y1097267D01*
X1104697Y1098730D01*
D02*
G37*
G36*
X1098730D02*
X1095303D01*
X1095910Y1097267D01*
X1097267Y1095910D01*
X1098730Y1095303D01*
Y1098730D01*
D02*
G37*
G36*
X954697D02*
X951270D01*
Y1095303D01*
X952733Y1095910D01*
X954090Y1097267D01*
X954697Y1098730D01*
D02*
G37*
G36*
X904697D02*
X901270D01*
Y1095303D01*
X902733Y1095910D01*
X904090Y1097267D01*
X904697Y1098730D01*
D02*
G37*
G36*
X898730D02*
X895303D01*
X895910Y1097267D01*
X897267Y1095910D01*
X898730Y1095303D01*
Y1098730D01*
D02*
G37*
G36*
X654697D02*
X651270D01*
Y1095303D01*
X652733Y1095910D01*
X654090Y1097267D01*
X654697Y1098730D01*
D02*
G37*
G36*
X648730D02*
X645303D01*
X645910Y1097267D01*
X647267Y1095910D01*
X648730Y1095303D01*
Y1098730D01*
D02*
G37*
G36*
X604697D02*
X601270D01*
Y1095303D01*
X602733Y1095910D01*
X604090Y1097267D01*
X604697Y1098730D01*
D02*
G37*
G36*
X598730D02*
X595303D01*
X595910Y1097267D01*
X597267Y1095910D01*
X598730Y1095303D01*
Y1098730D01*
D02*
G37*
G36*
X1362133Y1126668D02*
X1358287D01*
X1354514Y1125918D01*
X1350960Y1124445D01*
X1347762Y1122308D01*
X1345042Y1119588D01*
X1342905Y1116390D01*
X1341432Y1112836D01*
X1340682Y1109063D01*
Y1105217D01*
X1341432Y1101444D01*
X1342905Y1097890D01*
X1345042Y1094692D01*
X1347762Y1091972D01*
X1350960Y1089835D01*
X1354514Y1088362D01*
X1358287Y1087612D01*
X1362133D01*
X1365906Y1088362D01*
X1369460Y1089835D01*
X1372658Y1091972D01*
X1375378Y1094692D01*
X1377516Y1097890D01*
X1378988Y1101444D01*
X1379738Y1105217D01*
Y1109063D01*
X1378988Y1112836D01*
X1377516Y1116390D01*
X1375378Y1119588D01*
X1372658Y1122308D01*
X1369460Y1124445D01*
X1365906Y1125918D01*
X1362133Y1126668D01*
D02*
G37*
G36*
X1075368Y1098228D02*
X1063312D01*
Y1086172D01*
X1064769D01*
X1064812Y1084920D01*
X1064812Y1084902D01*
Y1075864D01*
X1073868D01*
Y1084902D01*
X1073868Y1084920D01*
X1073912Y1086172D01*
X1075368D01*
Y1098228D01*
D02*
G37*
G36*
X1051778Y1079168D02*
X1032722D01*
Y1065612D01*
X1051778D01*
Y1079168D01*
D02*
G37*
G36*
X999278D02*
X980222D01*
Y1065612D01*
X999278D01*
Y1079168D01*
D02*
G37*
G36*
X1073868Y1073236D02*
X1064812D01*
Y1064180D01*
X1073868D01*
Y1073236D01*
D02*
G37*
G36*
X1276270Y1054697D02*
Y1051270D01*
X1279697D01*
X1279090Y1052733D01*
X1277733Y1054090D01*
X1276270Y1054697D01*
D02*
G37*
G36*
X1273730D02*
X1272267Y1054090D01*
X1270910Y1052733D01*
X1270304Y1051270D01*
X1273730D01*
Y1054697D01*
D02*
G37*
G36*
X1226270D02*
Y1051270D01*
X1229697D01*
X1229090Y1052733D01*
X1227733Y1054090D01*
X1226270Y1054697D01*
D02*
G37*
G36*
X1223730D02*
X1222267Y1054090D01*
X1220910Y1052733D01*
X1220304Y1051270D01*
X1223730D01*
Y1054697D01*
D02*
G37*
G36*
X1176270D02*
Y1051270D01*
X1179697D01*
X1179090Y1052733D01*
X1177733Y1054090D01*
X1176270Y1054697D01*
D02*
G37*
G36*
X1173730D02*
X1172267Y1054090D01*
X1170910Y1052733D01*
X1170304Y1051270D01*
X1173730D01*
Y1054697D01*
D02*
G37*
G36*
X1126270D02*
Y1051270D01*
X1129697D01*
X1129090Y1052733D01*
X1127733Y1054090D01*
X1126270Y1054697D01*
D02*
G37*
G36*
X1123730D02*
X1122267Y1054090D01*
X1120910Y1052733D01*
X1120304Y1051270D01*
X1123730D01*
Y1054697D01*
D02*
G37*
G36*
X1026270D02*
Y1051270D01*
X1029697D01*
X1029090Y1052733D01*
X1027733Y1054090D01*
X1026270Y1054697D01*
D02*
G37*
G36*
X1023730D02*
X1022267Y1054090D01*
X1020910Y1052733D01*
X1020303Y1051270D01*
X1023730D01*
Y1054697D01*
D02*
G37*
G36*
X976270D02*
Y1051270D01*
X979697D01*
X979090Y1052733D01*
X977733Y1054090D01*
X976270Y1054697D01*
D02*
G37*
G36*
X973730D02*
X972267Y1054090D01*
X970910Y1052733D01*
X970303Y1051270D01*
X973730D01*
Y1054697D01*
D02*
G37*
G36*
X626270D02*
Y1051270D01*
X629697D01*
X629090Y1052733D01*
X627733Y1054090D01*
X626270Y1054697D01*
D02*
G37*
G36*
X623730D02*
X622267Y1054090D01*
X620910Y1052733D01*
X620303Y1051270D01*
X623730D01*
Y1054697D01*
D02*
G37*
G36*
X1279697Y1048730D02*
X1276270D01*
Y1045303D01*
X1277733Y1045910D01*
X1279090Y1047267D01*
X1279697Y1048730D01*
D02*
G37*
G36*
X1273730D02*
X1270304D01*
X1270910Y1047267D01*
X1272267Y1045910D01*
X1273730Y1045303D01*
Y1048730D01*
D02*
G37*
G36*
X1229697D02*
X1226270D01*
Y1045303D01*
X1227733Y1045910D01*
X1229090Y1047267D01*
X1229697Y1048730D01*
D02*
G37*
G36*
X1223730D02*
X1220304D01*
X1220910Y1047267D01*
X1222267Y1045910D01*
X1223730Y1045303D01*
Y1048730D01*
D02*
G37*
G36*
X1179697D02*
X1176270D01*
Y1045303D01*
X1177733Y1045910D01*
X1179090Y1047267D01*
X1179697Y1048730D01*
D02*
G37*
G36*
X1173730D02*
X1170304D01*
X1170910Y1047267D01*
X1172267Y1045910D01*
X1173730Y1045303D01*
Y1048730D01*
D02*
G37*
G36*
X1129697D02*
X1126270D01*
Y1045303D01*
X1127733Y1045910D01*
X1129090Y1047267D01*
X1129697Y1048730D01*
D02*
G37*
G36*
X1123730D02*
X1120304D01*
X1120910Y1047267D01*
X1122267Y1045910D01*
X1123730Y1045303D01*
Y1048730D01*
D02*
G37*
G36*
X1029697D02*
X1026270D01*
Y1045303D01*
X1027733Y1045910D01*
X1029090Y1047267D01*
X1029697Y1048730D01*
D02*
G37*
G36*
X1023730D02*
X1020303D01*
X1020910Y1047267D01*
X1022267Y1045910D01*
X1023730Y1045303D01*
Y1048730D01*
D02*
G37*
G36*
X979697D02*
X976270D01*
Y1045303D01*
X977733Y1045910D01*
X979090Y1047267D01*
X979697Y1048730D01*
D02*
G37*
G36*
X973730D02*
X970303D01*
X970910Y1047267D01*
X972267Y1045910D01*
X973730Y1045303D01*
Y1048730D01*
D02*
G37*
G36*
X629697D02*
X626270D01*
Y1045303D01*
X627733Y1045910D01*
X629090Y1047267D01*
X629697Y1048730D01*
D02*
G37*
G36*
X623730D02*
X620303D01*
X620910Y1047267D01*
X622267Y1045910D01*
X623730Y1045303D01*
Y1048730D01*
D02*
G37*
G36*
X564721Y1053270D02*
X549721D01*
X547299Y1052951D01*
X545042Y1052016D01*
X543104Y1050529D01*
X541617Y1048591D01*
X540682Y1046334D01*
X540363Y1043912D01*
X540682Y1041490D01*
X541617Y1039233D01*
X543104Y1037295D01*
X545042Y1035808D01*
X547299Y1034873D01*
X549721Y1034554D01*
X564721D01*
X567143Y1034873D01*
X569400Y1035808D01*
X571338Y1037295D01*
X572825Y1039233D01*
X573760Y1041490D01*
X574079Y1043912D01*
X573760Y1046334D01*
X572825Y1048591D01*
X571338Y1050529D01*
X569400Y1052016D01*
X567143Y1052951D01*
X564721Y1053270D01*
D02*
G37*
G36*
X544721Y1028639D02*
X538491D01*
Y1019782D01*
X554680D01*
X554503Y1021133D01*
X553491Y1023575D01*
X551882Y1025673D01*
X549784Y1027282D01*
X547342Y1028294D01*
X544721Y1028639D01*
D02*
G37*
G36*
X535951D02*
X529721D01*
X527100Y1028294D01*
X524658Y1027282D01*
X522560Y1025673D01*
X520951Y1023575D01*
X519939Y1021133D01*
X519762Y1019782D01*
X535951D01*
Y1028639D01*
D02*
G37*
G36*
X554680Y1017242D02*
X538491D01*
Y1008385D01*
X544721D01*
X547342Y1008730D01*
X549784Y1009742D01*
X551882Y1011351D01*
X553491Y1013449D01*
X554503Y1015891D01*
X554680Y1017242D01*
D02*
G37*
G36*
X535951D02*
X519762D01*
X519939Y1015891D01*
X520951Y1013449D01*
X522560Y1011351D01*
X524658Y1009742D01*
X527100Y1008730D01*
X529721Y1008385D01*
X535951D01*
Y1017242D01*
D02*
G37*
G36*
X1251270Y1004697D02*
Y1001270D01*
X1254697D01*
X1254090Y1002733D01*
X1252733Y1004090D01*
X1251270Y1004697D01*
D02*
G37*
G36*
X1198730D02*
X1197267Y1004090D01*
X1195910Y1002733D01*
X1195304Y1001270D01*
X1198730D01*
Y1004697D01*
D02*
G37*
G36*
X1151270D02*
Y1001270D01*
X1154697D01*
X1154090Y1002733D01*
X1152733Y1004090D01*
X1151270Y1004697D01*
D02*
G37*
G36*
X1148730D02*
X1147267Y1004090D01*
X1145910Y1002733D01*
X1145304Y1001270D01*
X1148730D01*
Y1004697D01*
D02*
G37*
G36*
X1101270D02*
Y1001270D01*
X1104697D01*
X1104090Y1002733D01*
X1102733Y1004090D01*
X1101270Y1004697D01*
D02*
G37*
G36*
X1098730D02*
X1097267Y1004090D01*
X1095910Y1002733D01*
X1095303Y1001270D01*
X1098730D01*
Y1004697D01*
D02*
G37*
G36*
X651270D02*
Y1001270D01*
X654697D01*
X654090Y1002733D01*
X652733Y1004090D01*
X651270Y1004697D01*
D02*
G37*
G36*
X648730D02*
X647267Y1004090D01*
X645910Y1002733D01*
X645303Y1001270D01*
X648730D01*
Y1004697D01*
D02*
G37*
G36*
X601270D02*
Y1001270D01*
X604697D01*
X604090Y1002733D01*
X602733Y1004090D01*
X601270Y1004697D01*
D02*
G37*
G36*
X598730D02*
X597267Y1004090D01*
X595910Y1002733D01*
X595303Y1001270D01*
X598730D01*
Y1004697D01*
D02*
G37*
G36*
X953822Y1008260D02*
X953770D01*
Y999490D01*
X962540D01*
Y999542D01*
X961856Y1002095D01*
X960534Y1004385D01*
X958665Y1006254D01*
X956375Y1007576D01*
X953822Y1008260D01*
D02*
G37*
G36*
X1254697Y998730D02*
X1251270D01*
Y995303D01*
X1252733Y995910D01*
X1254090Y997267D01*
X1254697Y998730D01*
D02*
G37*
G36*
X1198730D02*
X1195304D01*
X1195910Y997267D01*
X1197267Y995910D01*
X1198730Y995303D01*
Y998730D01*
D02*
G37*
G36*
X1154697D02*
X1151270D01*
Y995303D01*
X1152733Y995910D01*
X1154090Y997267D01*
X1154697Y998730D01*
D02*
G37*
G36*
X1148730D02*
X1145304D01*
X1145910Y997267D01*
X1147267Y995910D01*
X1148730Y995303D01*
Y998730D01*
D02*
G37*
G36*
X1104697D02*
X1101270D01*
Y995303D01*
X1102733Y995910D01*
X1104090Y997267D01*
X1104697Y998730D01*
D02*
G37*
G36*
X1098730D02*
X1095303D01*
X1095910Y997267D01*
X1097267Y995910D01*
X1098730Y995303D01*
Y998730D01*
D02*
G37*
G36*
X654697D02*
X651270D01*
Y995303D01*
X652733Y995910D01*
X654090Y997267D01*
X654697Y998730D01*
D02*
G37*
G36*
X648730D02*
X645303D01*
X645910Y997267D01*
X647267Y995910D01*
X648730Y995303D01*
Y998730D01*
D02*
G37*
G36*
X604697D02*
X601270D01*
Y995303D01*
X602733Y995910D01*
X604090Y997267D01*
X604697Y998730D01*
D02*
G37*
G36*
X598730D02*
X595303D01*
X595910Y997267D01*
X597267Y995910D01*
X598730Y995303D01*
Y998730D01*
D02*
G37*
G36*
X1055322Y1007498D02*
X1052878D01*
X1050519Y1006866D01*
X1048403Y1005644D01*
X1046676Y1003917D01*
X1045454Y1001801D01*
X1044822Y999442D01*
Y996999D01*
X1045454Y994639D01*
X1046676Y992523D01*
X1048403Y990796D01*
X1050519Y989574D01*
X1052878Y988942D01*
X1055322D01*
X1057681Y989574D01*
X1059797Y990796D01*
X1061524Y992523D01*
X1062746Y994639D01*
X1063378Y996999D01*
Y999442D01*
X1062746Y1001801D01*
X1061524Y1003917D01*
X1059797Y1005644D01*
X1057681Y1006866D01*
X1055322Y1007498D01*
D02*
G37*
G36*
X1029921D02*
X1027478D01*
X1025119Y1006866D01*
X1023003Y1005644D01*
X1021276Y1003917D01*
X1020054Y1001801D01*
X1019422Y999442D01*
Y996999D01*
X1020054Y994639D01*
X1021276Y992523D01*
X1023003Y990796D01*
X1025119Y989574D01*
X1027478Y988942D01*
X1029921D01*
X1032281Y989574D01*
X1034397Y990796D01*
X1036124Y992523D01*
X1037346Y994639D01*
X1037978Y996999D01*
Y999442D01*
X1037346Y1001801D01*
X1036124Y1003917D01*
X1034397Y1005644D01*
X1032281Y1006866D01*
X1029921Y1007498D01*
D02*
G37*
G36*
X962540Y996950D02*
X953770D01*
Y988180D01*
X953822D01*
X956375Y988864D01*
X958665Y990186D01*
X960534Y992055D01*
X961856Y994345D01*
X962540Y996898D01*
Y996950D01*
D02*
G37*
G36*
X1276270Y954697D02*
Y951270D01*
X1279697D01*
X1279090Y952733D01*
X1277733Y954090D01*
X1276270Y954697D01*
D02*
G37*
G36*
X1273730D02*
X1272267Y954090D01*
X1270910Y952733D01*
X1270304Y951270D01*
X1273730D01*
Y954697D01*
D02*
G37*
G36*
X1226270D02*
Y951270D01*
X1229697D01*
X1229090Y952733D01*
X1227733Y954090D01*
X1226270Y954697D01*
D02*
G37*
G36*
X1176270D02*
Y951270D01*
X1179697D01*
X1179090Y952733D01*
X1177733Y954090D01*
X1176270Y954697D01*
D02*
G37*
G36*
X1173730D02*
X1172267Y954090D01*
X1170910Y952733D01*
X1170304Y951270D01*
X1173730D01*
Y954697D01*
D02*
G37*
G36*
X1126270D02*
Y951270D01*
X1129697D01*
X1129090Y952733D01*
X1127733Y954090D01*
X1126270Y954697D01*
D02*
G37*
G36*
X1123730D02*
X1122267Y954090D01*
X1120910Y952733D01*
X1120304Y951270D01*
X1123730D01*
Y954697D01*
D02*
G37*
G36*
X1026270D02*
Y951270D01*
X1029697D01*
X1029090Y952733D01*
X1027733Y954090D01*
X1026270Y954697D01*
D02*
G37*
G36*
X1023730D02*
X1022267Y954090D01*
X1020910Y952733D01*
X1020303Y951270D01*
X1023730D01*
Y954697D01*
D02*
G37*
G36*
X976270D02*
Y951270D01*
X979697D01*
X979090Y952733D01*
X977733Y954090D01*
X976270Y954697D01*
D02*
G37*
G36*
X973730D02*
X972267Y954090D01*
X970910Y952733D01*
X970303Y951270D01*
X973730D01*
Y954697D01*
D02*
G37*
G36*
X676270D02*
Y951270D01*
X679697D01*
X679090Y952733D01*
X677733Y954090D01*
X676270Y954697D01*
D02*
G37*
G36*
X673730D02*
X672267Y954090D01*
X670910Y952733D01*
X670303Y951270D01*
X673730D01*
Y954697D01*
D02*
G37*
G36*
X626270D02*
Y951270D01*
X629697D01*
X629090Y952733D01*
X627733Y954090D01*
X626270Y954697D01*
D02*
G37*
G36*
X623730D02*
X622267Y954090D01*
X620910Y952733D01*
X620303Y951270D01*
X623730D01*
Y954697D01*
D02*
G37*
G36*
X1279697Y948730D02*
X1276270D01*
Y945303D01*
X1277733Y945910D01*
X1279090Y947267D01*
X1279697Y948730D01*
D02*
G37*
G36*
X1273730D02*
X1270304D01*
X1270910Y947267D01*
X1272267Y945910D01*
X1273730Y945303D01*
Y948730D01*
D02*
G37*
G36*
X1229697D02*
X1226270D01*
Y945303D01*
X1227733Y945910D01*
X1229090Y947267D01*
X1229697Y948730D01*
D02*
G37*
G36*
X1179697D02*
X1176270D01*
Y945303D01*
X1177733Y945910D01*
X1179090Y947267D01*
X1179697Y948730D01*
D02*
G37*
G36*
X1173730D02*
X1170304D01*
X1170910Y947267D01*
X1172267Y945910D01*
X1173730Y945303D01*
Y948730D01*
D02*
G37*
G36*
X1129697D02*
X1126270D01*
Y945303D01*
X1127733Y945910D01*
X1129090Y947267D01*
X1129697Y948730D01*
D02*
G37*
G36*
X1123730D02*
X1120304D01*
X1120910Y947267D01*
X1122267Y945910D01*
X1123730Y945303D01*
Y948730D01*
D02*
G37*
G36*
X1029697D02*
X1026270D01*
Y945303D01*
X1027733Y945910D01*
X1029090Y947267D01*
X1029697Y948730D01*
D02*
G37*
G36*
X1023730D02*
X1020303D01*
X1020910Y947267D01*
X1022267Y945910D01*
X1023730Y945303D01*
Y948730D01*
D02*
G37*
G36*
X979697D02*
X976270D01*
Y945303D01*
X977733Y945910D01*
X979090Y947267D01*
X979697Y948730D01*
D02*
G37*
G36*
X973730D02*
X970303D01*
X970910Y947267D01*
X972267Y945910D01*
X973730Y945303D01*
Y948730D01*
D02*
G37*
G36*
X679697D02*
X676270D01*
Y945303D01*
X677733Y945910D01*
X679090Y947267D01*
X679697Y948730D01*
D02*
G37*
G36*
X673730D02*
X670303D01*
X670910Y947267D01*
X672267Y945910D01*
X673730Y945303D01*
Y948730D01*
D02*
G37*
G36*
X629697D02*
X626270D01*
Y945303D01*
X627733Y945910D01*
X629090Y947267D01*
X629697Y948730D01*
D02*
G37*
G36*
X623730D02*
X620303D01*
X620910Y947267D01*
X622267Y945910D01*
X623730Y945303D01*
Y948730D01*
D02*
G37*
G36*
X1251270Y904697D02*
Y901270D01*
X1254697D01*
X1254090Y902733D01*
X1252733Y904090D01*
X1251270Y904697D01*
D02*
G37*
G36*
X1151270D02*
Y901270D01*
X1154697D01*
X1154090Y902733D01*
X1152733Y904090D01*
X1151270Y904697D01*
D02*
G37*
G36*
X1148730D02*
X1147267Y904090D01*
X1145910Y902733D01*
X1145304Y901270D01*
X1148730D01*
Y904697D01*
D02*
G37*
G36*
X1101270D02*
Y901270D01*
X1104697D01*
X1104090Y902733D01*
X1102733Y904090D01*
X1101270Y904697D01*
D02*
G37*
G36*
X1098730D02*
X1097267Y904090D01*
X1095910Y902733D01*
X1095303Y901270D01*
X1098730D01*
Y904697D01*
D02*
G37*
G36*
X1001270D02*
Y901270D01*
X1004697D01*
X1004090Y902733D01*
X1002733Y904090D01*
X1001270Y904697D01*
D02*
G37*
G36*
X998730D02*
X997267Y904090D01*
X995910Y902733D01*
X995303Y901270D01*
X998730D01*
Y904697D01*
D02*
G37*
G36*
X701270D02*
Y901270D01*
X704697D01*
X704090Y902733D01*
X702733Y904090D01*
X701270Y904697D01*
D02*
G37*
G36*
X698730D02*
X697267Y904090D01*
X695910Y902733D01*
X695303Y901270D01*
X698730D01*
Y904697D01*
D02*
G37*
G36*
X651270D02*
Y901270D01*
X654697D01*
X654090Y902733D01*
X652733Y904090D01*
X651270Y904697D01*
D02*
G37*
G36*
X648730D02*
X647267Y904090D01*
X645910Y902733D01*
X645303Y901270D01*
X648730D01*
Y904697D01*
D02*
G37*
G36*
X601270D02*
Y901270D01*
X604697D01*
X604090Y902733D01*
X602733Y904090D01*
X601270Y904697D01*
D02*
G37*
G36*
X598730D02*
X597267Y904090D01*
X595910Y902733D01*
X595303Y901270D01*
X598730D01*
Y904697D01*
D02*
G37*
G36*
X546151Y905449D02*
X539921D01*
Y896592D01*
X556110D01*
X555933Y897943D01*
X554921Y900385D01*
X553312Y902483D01*
X551214Y904092D01*
X548772Y905104D01*
X546151Y905449D01*
D02*
G37*
G36*
X537381D02*
X531151D01*
X528530Y905104D01*
X526088Y904092D01*
X523990Y902483D01*
X522381Y900385D01*
X521369Y897943D01*
X521191Y896592D01*
X537381D01*
Y905449D01*
D02*
G37*
G36*
X1254697Y898730D02*
X1251270D01*
Y895303D01*
X1252733Y895910D01*
X1254090Y897267D01*
X1254697Y898730D01*
D02*
G37*
G36*
X1154697D02*
X1151270D01*
Y895303D01*
X1152733Y895910D01*
X1154090Y897267D01*
X1154697Y898730D01*
D02*
G37*
G36*
X1148730D02*
X1145304D01*
X1145910Y897267D01*
X1147267Y895910D01*
X1148730Y895303D01*
Y898730D01*
D02*
G37*
G36*
X1104697D02*
X1101270D01*
Y895303D01*
X1102733Y895910D01*
X1104090Y897267D01*
X1104697Y898730D01*
D02*
G37*
G36*
X1098730D02*
X1095303D01*
X1095910Y897267D01*
X1097267Y895910D01*
X1098730Y895303D01*
Y898730D01*
D02*
G37*
G36*
X1004697D02*
X1001270D01*
Y895303D01*
X1002733Y895910D01*
X1004090Y897267D01*
X1004697Y898730D01*
D02*
G37*
G36*
X998730D02*
X995303D01*
X995910Y897267D01*
X997267Y895910D01*
X998730Y895303D01*
Y898730D01*
D02*
G37*
G36*
X704697D02*
X701270D01*
Y895303D01*
X702733Y895910D01*
X704090Y897267D01*
X704697Y898730D01*
D02*
G37*
G36*
X698730D02*
X695303D01*
X695910Y897267D01*
X697267Y895910D01*
X698730Y895303D01*
Y898730D01*
D02*
G37*
G36*
X654697D02*
X651270D01*
Y895303D01*
X652733Y895910D01*
X654090Y897267D01*
X654697Y898730D01*
D02*
G37*
G36*
X648730D02*
X645303D01*
X645910Y897267D01*
X647267Y895910D01*
X648730Y895303D01*
Y898730D01*
D02*
G37*
G36*
X604697D02*
X601270D01*
Y895303D01*
X602733Y895910D01*
X604090Y897267D01*
X604697Y898730D01*
D02*
G37*
G36*
X598730D02*
X595303D01*
X595910Y897267D01*
X597267Y895910D01*
X598730Y895303D01*
Y898730D01*
D02*
G37*
G36*
X556110Y894052D02*
X539921D01*
Y885195D01*
X546151D01*
X548772Y885540D01*
X551214Y886552D01*
X553312Y888161D01*
X554921Y890259D01*
X555933Y892701D01*
X556110Y894052D01*
D02*
G37*
G36*
X537381D02*
X521192D01*
X521369Y892701D01*
X522381Y890259D01*
X523990Y888161D01*
X526088Y886552D01*
X528530Y885540D01*
X531151Y885195D01*
X537381D01*
Y894052D01*
D02*
G37*
G36*
X699052Y886524D02*
X698951D01*
Y877380D01*
X708095D01*
Y877481D01*
X707385Y880130D01*
X706014Y882504D01*
X704075Y884443D01*
X701701Y885814D01*
X699052Y886524D01*
D02*
G37*
G36*
X696411D02*
X696310D01*
X693661Y885814D01*
X691286Y884443D01*
X689348Y882504D01*
X687977Y880130D01*
X687267Y877481D01*
Y877380D01*
X696411D01*
Y886524D01*
D02*
G37*
G36*
X708095Y874840D02*
X698951D01*
Y865696D01*
X699052D01*
X701701Y866406D01*
X704075Y867777D01*
X706014Y869716D01*
X707385Y872090D01*
X708095Y874739D01*
Y874840D01*
D02*
G37*
G36*
X696411D02*
X687267D01*
Y874739D01*
X687977Y872090D01*
X689348Y869716D01*
X691286Y867777D01*
X693661Y866406D01*
X696310Y865696D01*
X696411D01*
Y874840D01*
D02*
G37*
G36*
X1126270Y854697D02*
Y851270D01*
X1129697D01*
X1129090Y852733D01*
X1127733Y854090D01*
X1126270Y854697D01*
D02*
G37*
G36*
X1123730D02*
X1122267Y854090D01*
X1120910Y852733D01*
X1120304Y851270D01*
X1123730D01*
Y854697D01*
D02*
G37*
G36*
X1026270D02*
Y851270D01*
X1029697D01*
X1029090Y852733D01*
X1027733Y854090D01*
X1026270Y854697D01*
D02*
G37*
G36*
X1023730D02*
X1022267Y854090D01*
X1020910Y852733D01*
X1020303Y851270D01*
X1023730D01*
Y854697D01*
D02*
G37*
G36*
X976270D02*
Y851270D01*
X979697D01*
X979090Y852733D01*
X977733Y854090D01*
X976270Y854697D01*
D02*
G37*
G36*
X973730D02*
X972267Y854090D01*
X970910Y852733D01*
X970303Y851270D01*
X973730D01*
Y854697D01*
D02*
G37*
G36*
X776270D02*
Y851270D01*
X779697D01*
X779090Y852733D01*
X777733Y854090D01*
X776270Y854697D01*
D02*
G37*
G36*
X773730D02*
X772267Y854090D01*
X770910Y852733D01*
X770303Y851270D01*
X773730D01*
Y854697D01*
D02*
G37*
G36*
X676270D02*
Y851270D01*
X679697D01*
X679090Y852733D01*
X677733Y854090D01*
X676270Y854697D01*
D02*
G37*
G36*
X673730D02*
X672267Y854090D01*
X670910Y852733D01*
X670303Y851270D01*
X673730D01*
Y854697D01*
D02*
G37*
G36*
X779697Y848730D02*
X776270D01*
Y845303D01*
X777733Y845910D01*
X779090Y847267D01*
X779697Y848730D01*
D02*
G37*
G36*
X773730D02*
X770303D01*
X770910Y847267D01*
X772267Y845910D01*
X773730Y845303D01*
Y848730D01*
D02*
G37*
G36*
X679697D02*
X676270D01*
Y845303D01*
X677733Y845910D01*
X679090Y847267D01*
X679697Y848730D01*
D02*
G37*
G36*
X673730D02*
X670303D01*
X670910Y847267D01*
X672267Y845910D01*
X673730Y845303D01*
Y848730D01*
D02*
G37*
G36*
X1129697D02*
X1126270D01*
Y845303D01*
X1127733Y845910D01*
X1129090Y847267D01*
X1129697Y848730D01*
D02*
G37*
G36*
X1123730D02*
X1120304D01*
X1120910Y847267D01*
X1122267Y845910D01*
X1123730Y845303D01*
Y848730D01*
D02*
G37*
G36*
X1029697D02*
X1026270D01*
Y845303D01*
X1027733Y845910D01*
X1029090Y847267D01*
X1029697Y848730D01*
D02*
G37*
G36*
X1023730D02*
X1020303D01*
X1020910Y847267D01*
X1022267Y845910D01*
X1023730Y845303D01*
Y848730D01*
D02*
G37*
G36*
X979697D02*
X976270D01*
Y845303D01*
X977733Y845910D01*
X979090Y847267D01*
X979697Y848730D01*
D02*
G37*
G36*
X973730D02*
X970303D01*
X970910Y847267D01*
X972267Y845910D01*
X973730Y845303D01*
Y848730D01*
D02*
G37*
G36*
X731730Y848824D02*
X727710D01*
Y844804D01*
X731730D01*
Y848824D01*
D02*
G37*
G36*
X725170D02*
X721150D01*
Y844804D01*
X725170D01*
Y848824D01*
D02*
G37*
G36*
X731730Y842264D02*
X727710D01*
Y838244D01*
X731730D01*
Y842264D01*
D02*
G37*
G36*
X725170D02*
X721150D01*
Y838244D01*
X725170D01*
Y842264D01*
D02*
G37*
G36*
X546151Y844990D02*
X531151D01*
X528729Y844671D01*
X526472Y843736D01*
X524534Y842249D01*
X523047Y840311D01*
X522112Y838054D01*
X521793Y835632D01*
X522112Y833210D01*
X523047Y830953D01*
X524534Y829015D01*
X526472Y827528D01*
X528729Y826593D01*
X531151Y826274D01*
X546151D01*
X548573Y826593D01*
X550830Y827528D01*
X552768Y829015D01*
X554255Y830953D01*
X555190Y833210D01*
X555248Y833648D01*
X576445D01*
Y832831D01*
X585501D01*
Y841887D01*
X576445D01*
Y839343D01*
X554656D01*
X554255Y840311D01*
X552768Y842249D01*
X550830Y843736D01*
X548573Y844671D01*
X546151Y844990D01*
D02*
G37*
G36*
X701698Y841858D02*
X685142D01*
Y819302D01*
X701698D01*
Y827998D01*
X721912D01*
Y827322D01*
X730968D01*
Y827998D01*
X737152D01*
Y826560D01*
X746208D01*
Y835616D01*
X741351D01*
X740918Y835702D01*
X740918Y835702D01*
X730968D01*
Y836378D01*
X721912D01*
Y835702D01*
X701698D01*
Y841858D01*
D02*
G37*
G36*
X1086997Y835044D02*
X1086896D01*
Y825900D01*
X1096040D01*
Y826001D01*
X1095331Y828650D01*
X1093960Y831024D01*
X1092020Y832963D01*
X1089646Y834334D01*
X1086997Y835044D01*
D02*
G37*
G36*
X646698Y841858D02*
X630142D01*
Y819302D01*
X646698D01*
Y841858D01*
D02*
G37*
G36*
X557381Y820359D02*
X551151D01*
X548530Y820014D01*
X546088Y819002D01*
X543990Y817393D01*
X542381Y815295D01*
X541369Y812853D01*
X541192Y811502D01*
X557381D01*
Y820359D01*
D02*
G37*
G36*
X731730Y811232D02*
X727710D01*
Y807212D01*
X731730D01*
Y811232D01*
D02*
G37*
G36*
X725170D02*
X721150D01*
Y807212D01*
X725170D01*
Y811232D01*
D02*
G37*
G36*
X1004521Y1007498D02*
X1002078D01*
X999719Y1006866D01*
X997603Y1005644D01*
X995876Y1003917D01*
X994654Y1001801D01*
X994022Y999442D01*
Y996999D01*
X994654Y994639D01*
X995876Y992523D01*
X997603Y990796D01*
X999719Y989574D01*
X1002078Y988942D01*
X1004521D01*
X1006881Y989574D01*
X1007539Y989954D01*
X1042362Y955130D01*
Y861972D01*
X1042362Y861971D01*
X1042579Y860882D01*
X1043196Y859958D01*
X1065295Y837859D01*
Y827028D01*
X1065295Y827028D01*
X1065512Y825938D01*
X1066129Y825014D01*
X1079194Y811949D01*
X1080118Y811332D01*
X1081208Y811115D01*
X1081208Y811115D01*
X1084799D01*
X1085762Y810152D01*
X1085236Y808882D01*
X1084355D01*
X1081901Y808224D01*
X1079700Y806953D01*
X1077903Y805156D01*
X1076632Y802955D01*
X1076397Y802078D01*
X1023890D01*
X1023890Y802078D01*
X1022800Y801861D01*
X1021876Y801244D01*
X1021876Y801243D01*
X1016601Y795968D01*
X1008572D01*
Y792788D01*
X1007305D01*
X1007305Y792788D01*
X1006215Y792571D01*
X1005291Y791954D01*
X1005291Y791954D01*
X997059Y783721D01*
X996442Y782797D01*
X996225Y781708D01*
X996225Y781707D01*
Y778917D01*
X989661Y772353D01*
X984965D01*
X984965Y772353D01*
X984690Y772298D01*
X975327D01*
Y760742D01*
Y750742D01*
Y740742D01*
Y730742D01*
Y720742D01*
Y710742D01*
Y700742D01*
Y690742D01*
X993633D01*
Y691172D01*
X1081112D01*
X1081135Y691118D01*
X1082278Y689975D01*
X1083772Y689356D01*
X1085388D01*
X1086882Y689975D01*
X1088025Y691118D01*
X1088644Y692612D01*
Y694228D01*
X1088025Y695722D01*
X1086882Y696865D01*
X1085388Y697484D01*
X1083772D01*
X1082284Y696868D01*
X1038284D01*
X1037503Y698138D01*
X1037844Y698962D01*
Y700578D01*
X1037947Y700732D01*
X1053740D01*
X1054338Y700135D01*
X1055832Y699516D01*
X1057448D01*
X1058942Y700135D01*
X1060085Y701278D01*
X1060704Y702772D01*
Y704388D01*
X1060085Y705882D01*
X1058942Y707025D01*
X1058804Y707082D01*
X1059057Y708352D01*
X1071520D01*
X1072118Y707755D01*
X1073612Y707136D01*
X1075228D01*
X1076722Y707755D01*
X1077865Y708898D01*
X1078484Y710392D01*
Y712008D01*
X1077865Y713502D01*
X1076722Y714645D01*
X1075228Y715264D01*
X1073612D01*
X1072118Y714645D01*
X1071520Y714048D01*
X1043971D01*
X1043447Y714721D01*
X1044010Y715972D01*
X1052830D01*
X1052830Y715972D01*
X1053920Y716189D01*
X1054844Y716806D01*
X1076815Y738778D01*
X1095278D01*
Y758082D01*
X1075974D01*
Y744861D01*
X1074946Y744657D01*
X1074022Y744040D01*
X1051650Y721668D01*
X993633D01*
Y726132D01*
X1038860D01*
X1038860Y726132D01*
X1039950Y726349D01*
X1040874Y726966D01*
X1079899Y765992D01*
X1081901Y764836D01*
X1084355Y764178D01*
X1086897D01*
X1089352Y764836D01*
X1091553Y766106D01*
X1093350Y767903D01*
X1094620Y770104D01*
X1095278Y772559D01*
Y775101D01*
X1094620Y777555D01*
X1093350Y779756D01*
X1091553Y781553D01*
X1089845Y782540D01*
X1089497Y783988D01*
X1098307Y792798D01*
X1098307Y792798D01*
X1098924Y793722D01*
X1099141Y794811D01*
Y803648D01*
X1098924Y804738D01*
X1098307Y805662D01*
X1098307Y805662D01*
X1090159Y813810D01*
X1090402Y815362D01*
X1092020Y816297D01*
X1093960Y818235D01*
X1095331Y820610D01*
X1096040Y823259D01*
Y823360D01*
X1085626D01*
Y824630D01*
X1084356D01*
Y835044D01*
X1084255D01*
X1081607Y834334D01*
X1079232Y832963D01*
X1077293Y831024D01*
X1075922Y828650D01*
X1075212Y826001D01*
Y825645D01*
X1074039Y825159D01*
X1070991Y828207D01*
Y839038D01*
X1070991Y839038D01*
X1070774Y840128D01*
X1070156Y841052D01*
X1048058Y863151D01*
Y956310D01*
X1047841Y957400D01*
X1047224Y958324D01*
X1047224Y958324D01*
X1011566Y993981D01*
X1011946Y994639D01*
X1012578Y996999D01*
Y999442D01*
X1011946Y1001801D01*
X1010724Y1003917D01*
X1008997Y1005644D01*
X1006881Y1006866D01*
X1004521Y1007498D01*
D02*
G37*
G36*
X566151Y820359D02*
X559921D01*
Y810232D01*
Y800105D01*
X566151D01*
X568772Y800450D01*
X571214Y801462D01*
X573220Y803001D01*
X575683D01*
Y802401D01*
X578490D01*
X578718Y802248D01*
X580973Y801799D01*
X583228Y802248D01*
X583456Y802401D01*
X586263D01*
Y805208D01*
X586416Y805436D01*
X586864Y807691D01*
X586416Y809945D01*
X586263Y810174D01*
Y812981D01*
X584014D01*
X583937Y813058D01*
X582025Y814335D01*
X579771Y814784D01*
X575133D01*
X574921Y815295D01*
X573312Y817393D01*
X571214Y819002D01*
X568772Y820014D01*
X566151Y820359D01*
D02*
G37*
G36*
X1151270Y804697D02*
Y801270D01*
X1154697D01*
X1154090Y802733D01*
X1152733Y804090D01*
X1151270Y804697D01*
D02*
G37*
G36*
X1148730D02*
X1147267Y804090D01*
X1145910Y802733D01*
X1145304Y801270D01*
X1148730D01*
Y804697D01*
D02*
G37*
G36*
X1001270D02*
Y801270D01*
X1004697D01*
X1004090Y802733D01*
X1002733Y804090D01*
X1001270Y804697D01*
D02*
G37*
G36*
X998730D02*
X997267Y804090D01*
X995910Y802733D01*
X995303Y801270D01*
X998730D01*
Y804697D01*
D02*
G37*
G36*
X651270D02*
Y801270D01*
X654697D01*
X654090Y802733D01*
X652733Y804090D01*
X651270Y804697D01*
D02*
G37*
G36*
X601270D02*
Y801270D01*
X604697D01*
X604090Y802733D01*
X602733Y804090D01*
X601270Y804697D01*
D02*
G37*
G36*
X731730Y804672D02*
X727710D01*
Y800652D01*
X731730D01*
Y804672D01*
D02*
G37*
G36*
X725170D02*
X721150D01*
Y800652D01*
X725170D01*
Y804672D01*
D02*
G37*
G36*
X557381Y808962D02*
X541192D01*
X541369Y807611D01*
X542381Y805169D01*
X543990Y803071D01*
X546088Y801462D01*
X548530Y800450D01*
X551151Y800105D01*
X557381D01*
Y808962D01*
D02*
G37*
G36*
X1154697Y798730D02*
X1151270D01*
Y795303D01*
X1152733Y795910D01*
X1154090Y797267D01*
X1154697Y798730D01*
D02*
G37*
G36*
X1148730D02*
X1145304D01*
X1145910Y797267D01*
X1147267Y795910D01*
X1148730Y795303D01*
Y798730D01*
D02*
G37*
G36*
X1004697D02*
X1001270D01*
Y795303D01*
X1002733Y795910D01*
X1004090Y797267D01*
X1004697Y798730D01*
D02*
G37*
G36*
X998730D02*
X995303D01*
X995910Y797267D01*
X997267Y795910D01*
X998730Y795303D01*
Y798730D01*
D02*
G37*
G36*
X754697D02*
X751270D01*
Y795303D01*
X752733Y795910D01*
X754090Y797267D01*
X754697Y798730D01*
D02*
G37*
G36*
X654697D02*
X651270D01*
Y795303D01*
X652733Y795910D01*
X654090Y797267D01*
X654697Y798730D01*
D02*
G37*
G36*
X646698Y809858D02*
X630142D01*
Y787302D01*
X646698D01*
Y794819D01*
X647968Y795619D01*
X648730Y795303D01*
Y800000D01*
Y804697D01*
X647968Y804381D01*
X646698Y805181D01*
Y809858D01*
D02*
G37*
G36*
X604697Y798730D02*
X601270D01*
Y795303D01*
X602733Y795910D01*
X604090Y797267D01*
X604697Y798730D01*
D02*
G37*
G36*
X857690Y799270D02*
X852170D01*
Y793750D01*
X857690D01*
Y799270D01*
D02*
G37*
G36*
Y791210D02*
X852170D01*
Y785690D01*
X857690D01*
Y791210D01*
D02*
G37*
G36*
X546151Y794190D02*
X531151D01*
X528729Y793871D01*
X526472Y792936D01*
X524534Y791449D01*
X523047Y789511D01*
X522112Y787254D01*
X521793Y784832D01*
X522112Y782410D01*
X523047Y780153D01*
X524534Y778215D01*
X526472Y776728D01*
X528729Y775793D01*
X531151Y775474D01*
X546151D01*
X548573Y775793D01*
X550830Y776728D01*
X552768Y778215D01*
X554255Y780153D01*
X555190Y782410D01*
X555509Y784832D01*
X555190Y787254D01*
X554255Y789511D01*
X552768Y791449D01*
X550830Y792936D01*
X548573Y793871D01*
X546151Y794190D01*
D02*
G37*
G36*
X1126270Y754697D02*
Y751270D01*
X1129697D01*
X1129090Y752733D01*
X1127733Y754090D01*
X1126270Y754697D01*
D02*
G37*
G36*
X1123730D02*
X1122267Y754090D01*
X1120910Y752733D01*
X1120304Y751270D01*
X1123730D01*
Y754697D01*
D02*
G37*
G36*
X926270D02*
Y751270D01*
X929697D01*
X929090Y752733D01*
X927733Y754090D01*
X926270Y754697D01*
D02*
G37*
G36*
X923730D02*
X922267Y754090D01*
X920910Y752733D01*
X920303Y751270D01*
X923730D01*
Y754697D01*
D02*
G37*
G36*
X676270D02*
Y751270D01*
X679697D01*
X679090Y752733D01*
X677733Y754090D01*
X676270Y754697D01*
D02*
G37*
G36*
X673730D02*
X672267Y754090D01*
X670910Y752733D01*
X670303Y751270D01*
X673730D01*
Y754697D01*
D02*
G37*
G36*
X679697Y748730D02*
X676270D01*
Y745303D01*
X677733Y745910D01*
X679090Y747267D01*
X679697Y748730D01*
D02*
G37*
G36*
X673730D02*
X670303D01*
X670910Y747267D01*
X672267Y745910D01*
X673730Y745303D01*
Y748730D01*
D02*
G37*
G36*
X1129697D02*
X1126270D01*
Y745303D01*
X1127733Y745910D01*
X1129090Y747267D01*
X1129697Y748730D01*
D02*
G37*
G36*
X1123730D02*
X1120304D01*
X1120910Y747267D01*
X1122267Y745910D01*
X1123730Y745303D01*
Y748730D01*
D02*
G37*
G36*
X929697D02*
X926270D01*
Y745303D01*
X927733Y745910D01*
X929090Y747267D01*
X929697Y748730D01*
D02*
G37*
G36*
X923730D02*
X920303D01*
X920910Y747267D01*
X922267Y745910D01*
X923730Y745303D01*
Y748730D01*
D02*
G37*
G36*
X740410Y745108D02*
Y740410D01*
X737870D01*
Y745108D01*
X736476Y744530D01*
X732350D01*
Y739010D01*
X739140D01*
X745930D01*
Y744530D01*
X741805D01*
X740410Y745108D01*
D02*
G37*
G36*
X745930Y736470D02*
X740410D01*
Y730950D01*
X745930D01*
Y736470D01*
D02*
G37*
G36*
X737870D02*
X732350D01*
Y730950D01*
X737870D01*
Y736470D01*
D02*
G37*
G36*
X815340Y718438D02*
X813876Y717831D01*
X812519Y716474D01*
X811912Y715010D01*
X815340D01*
Y718438D01*
D02*
G37*
G36*
X544721Y735770D02*
X529721D01*
X527299Y735451D01*
X525042Y734516D01*
X523104Y733029D01*
X521617Y731091D01*
X520682Y728834D01*
X520363Y726412D01*
X520682Y723990D01*
X521617Y721733D01*
X523104Y719795D01*
X525042Y718308D01*
X527299Y717373D01*
X529721Y717054D01*
X544721D01*
X547143Y717373D01*
X548974Y718131D01*
X550327Y716778D01*
X551251Y716161D01*
X552341Y715944D01*
X552341Y715944D01*
X575111D01*
Y714264D01*
X584167D01*
Y723320D01*
X575111D01*
Y721640D01*
X554142D01*
X553270Y722806D01*
X553760Y723990D01*
X554079Y726412D01*
X553760Y728834D01*
X552825Y731091D01*
X551338Y733029D01*
X549400Y734516D01*
X547143Y735451D01*
X544721Y735770D01*
D02*
G37*
G36*
X815340Y712470D02*
X811912D01*
X812519Y711006D01*
X813876Y709649D01*
X815340Y709042D01*
Y712470D01*
D02*
G37*
G36*
X745930Y713040D02*
X740410D01*
Y707520D01*
X745930D01*
Y713040D01*
D02*
G37*
G36*
X737870D02*
X732350D01*
Y707520D01*
X737870D01*
Y713040D01*
D02*
G37*
G36*
X1100462Y707447D02*
Y704021D01*
X1103888D01*
X1103282Y705484D01*
X1101925Y706841D01*
X1100462Y707447D01*
D02*
G37*
G36*
X1097922D02*
X1096459Y706841D01*
X1095102Y705484D01*
X1094495Y704021D01*
X1097922D01*
Y707447D01*
D02*
G37*
G36*
X1299920Y713325D02*
X1295960D01*
Y703410D01*
X1293420D01*
Y713325D01*
X1289900D01*
Y712563D01*
X1284162D01*
Y696119D01*
X1276955D01*
X1276864Y696180D01*
X1275194Y696512D01*
X1263860D01*
Y699008D01*
X1258570D01*
Y700278D01*
X1257300D01*
Y705568D01*
X1253280D01*
Y705203D01*
X1252010Y704390D01*
X1251270Y704697D01*
Y700000D01*
Y695303D01*
X1252010Y695610D01*
X1253280Y694988D01*
Y694988D01*
X1254208Y694163D01*
Y679106D01*
X1253834Y678732D01*
X1249906D01*
X1248743Y679214D01*
Y674516D01*
Y669819D01*
X1249200Y670008D01*
X1255641D01*
X1257310Y670340D01*
X1258725Y671286D01*
X1261654Y674215D01*
X1262600Y675630D01*
X1262932Y677299D01*
Y687788D01*
X1273827D01*
X1273918Y687727D01*
X1275587Y687395D01*
X1292212D01*
X1293881Y687727D01*
X1295296Y688673D01*
X1297802Y691179D01*
X1298748Y692594D01*
X1298883Y693275D01*
X1299104Y693495D01*
X1299920D01*
Y703410D01*
Y713325D01*
D02*
G37*
G36*
X555951Y711139D02*
X549721D01*
X547100Y710794D01*
X544658Y709782D01*
X542560Y708173D01*
X540951Y706075D01*
X539939Y703633D01*
X539762Y702282D01*
X555951D01*
Y711139D01*
D02*
G37*
G36*
X1263860Y705568D02*
X1259840D01*
Y701548D01*
X1263860D01*
Y705568D01*
D02*
G37*
G36*
X1248730Y704697D02*
X1247267Y704090D01*
X1245910Y702733D01*
X1245304Y701270D01*
X1248730D01*
Y704697D01*
D02*
G37*
G36*
X1151270D02*
Y701270D01*
X1154697D01*
X1154090Y702733D01*
X1152733Y704090D01*
X1151270Y704697D01*
D02*
G37*
G36*
X1148730D02*
X1147267Y704090D01*
X1145910Y702733D01*
X1145304Y701270D01*
X1148730D01*
Y704697D01*
D02*
G37*
G36*
X951270D02*
Y701270D01*
X954697D01*
X954090Y702733D01*
X952733Y704090D01*
X951270Y704697D01*
D02*
G37*
G36*
X948730D02*
X947267Y704090D01*
X945910Y702733D01*
X945303Y701270D01*
X948730D01*
Y704697D01*
D02*
G37*
G36*
X901270D02*
Y701270D01*
X904697D01*
X904090Y702733D01*
X902733Y704090D01*
X901270Y704697D01*
D02*
G37*
G36*
X898730D02*
X897267Y704090D01*
X895910Y702733D01*
X895303Y701270D01*
X898730D01*
Y704697D01*
D02*
G37*
G36*
X651270D02*
Y701270D01*
X654697D01*
X654090Y702733D01*
X652733Y704090D01*
X651270Y704697D01*
D02*
G37*
G36*
X648730D02*
X647267Y704090D01*
X645910Y702733D01*
X645303Y701270D01*
X648730D01*
Y704697D01*
D02*
G37*
G36*
X745930Y704980D02*
X740410D01*
Y699460D01*
X745930D01*
Y704980D01*
D02*
G37*
G36*
X1103888Y701481D02*
X1100462D01*
Y698054D01*
X1101925Y698660D01*
X1103282Y700017D01*
X1103888Y701481D01*
D02*
G37*
G36*
X1097922D02*
X1094495D01*
X1095102Y700017D01*
X1096459Y698660D01*
X1097922Y698054D01*
Y701481D01*
D02*
G37*
G36*
X1248730Y698730D02*
X1245304D01*
X1245910Y697267D01*
X1247267Y695910D01*
X1248730Y695303D01*
Y698730D01*
D02*
G37*
G36*
X1154697D02*
X1151270D01*
Y695303D01*
X1152733Y695910D01*
X1154090Y697267D01*
X1154697Y698730D01*
D02*
G37*
G36*
X1148730D02*
X1145304D01*
X1145910Y697267D01*
X1147267Y695910D01*
X1148730Y695303D01*
Y698730D01*
D02*
G37*
G36*
X954697D02*
X951270D01*
Y695303D01*
X952733Y695910D01*
X954090Y697267D01*
X954697Y698730D01*
D02*
G37*
G36*
X948730D02*
X945303D01*
X945910Y697267D01*
X947267Y695910D01*
X948730Y695303D01*
Y698730D01*
D02*
G37*
G36*
X904697D02*
X901270D01*
Y695303D01*
X902733Y695910D01*
X904090Y697267D01*
X904697Y698730D01*
D02*
G37*
G36*
X898730D02*
X895303D01*
X895910Y697267D01*
X897267Y695910D01*
X898730Y695303D01*
Y698730D01*
D02*
G37*
G36*
X654697D02*
X651270D01*
Y695303D01*
X652733Y695910D01*
X654090Y697267D01*
X654697Y698730D01*
D02*
G37*
G36*
X648730D02*
X645303D01*
X645910Y697267D01*
X647267Y695910D01*
X648730Y695303D01*
Y698730D01*
D02*
G37*
G36*
X555951Y699742D02*
X539762D01*
X539939Y698391D01*
X540951Y695949D01*
X542560Y693851D01*
X544658Y692242D01*
X547100Y691230D01*
X549721Y690885D01*
X555951D01*
Y699742D01*
D02*
G37*
G36*
X564721Y711139D02*
X558491D01*
Y701012D01*
Y690885D01*
X564721D01*
X567342Y691230D01*
X567854Y691442D01*
X572609Y686686D01*
X574521Y685409D01*
X576775Y684961D01*
X579639D01*
X581894Y685409D01*
X582122Y685562D01*
X584929D01*
Y688369D01*
X585082Y688598D01*
X585530Y690852D01*
X585082Y693107D01*
X584929Y693335D01*
Y696142D01*
X582122D01*
X581894Y696295D01*
X579639Y696743D01*
X579215D01*
X574833Y701126D01*
X574503Y703633D01*
X573491Y706075D01*
X571882Y708173D01*
X569784Y709782D01*
X567342Y710794D01*
X564721Y711139D01*
D02*
G37*
G36*
X821690Y684840D02*
X816170D01*
Y679320D01*
X821690D01*
Y684840D01*
D02*
G37*
G36*
X809418Y684328D02*
X795862D01*
Y671272D01*
X809418D01*
Y684328D01*
D02*
G37*
G36*
X821690Y676780D02*
X816170D01*
Y671260D01*
X821690D01*
Y676780D01*
D02*
G37*
G36*
X544721Y684970D02*
X529721D01*
X527299Y684651D01*
X525042Y683716D01*
X523104Y682229D01*
X521617Y680291D01*
X520682Y678034D01*
X520363Y675612D01*
X520682Y673190D01*
X521617Y670933D01*
X523104Y668995D01*
X525042Y667508D01*
X527299Y666573D01*
X529721Y666254D01*
X544721D01*
X547143Y666573D01*
X549400Y667508D01*
X551338Y668995D01*
X552825Y670933D01*
X553760Y673190D01*
X554079Y675612D01*
X553760Y678034D01*
X552825Y680291D01*
X551338Y682229D01*
X549400Y683716D01*
X547143Y684651D01*
X544721Y684970D01*
D02*
G37*
G36*
X1276270Y654697D02*
Y651270D01*
X1279697D01*
X1279090Y652733D01*
X1277733Y654090D01*
X1276270Y654697D01*
D02*
G37*
G36*
X1273730D02*
X1272267Y654090D01*
X1270910Y652733D01*
X1270304Y651270D01*
X1273730D01*
Y654697D01*
D02*
G37*
G36*
X1176270D02*
Y651270D01*
X1179697D01*
X1179090Y652733D01*
X1177733Y654090D01*
X1176270Y654697D01*
D02*
G37*
G36*
X1173730D02*
X1172267Y654090D01*
X1170910Y652733D01*
X1170304Y651270D01*
X1173730D01*
Y654697D01*
D02*
G37*
G36*
X1126270D02*
Y651270D01*
X1129697D01*
X1129090Y652733D01*
X1127733Y654090D01*
X1126270Y654697D01*
D02*
G37*
G36*
X1123730D02*
X1122267Y654090D01*
X1120910Y652733D01*
X1120304Y651270D01*
X1123730D01*
Y654697D01*
D02*
G37*
G36*
X1076270D02*
Y651270D01*
X1079697D01*
X1079090Y652733D01*
X1077733Y654090D01*
X1076270Y654697D01*
D02*
G37*
G36*
X1073730D02*
X1072267Y654090D01*
X1070910Y652733D01*
X1070303Y651270D01*
X1073730D01*
Y654697D01*
D02*
G37*
G36*
X1026270D02*
Y651270D01*
X1029697D01*
X1029090Y652733D01*
X1027733Y654090D01*
X1026270Y654697D01*
D02*
G37*
G36*
X1023730D02*
X1022267Y654090D01*
X1020910Y652733D01*
X1020303Y651270D01*
X1023730D01*
Y654697D01*
D02*
G37*
G36*
X776270D02*
Y651270D01*
X779697D01*
X779090Y652733D01*
X777733Y654090D01*
X776270Y654697D01*
D02*
G37*
G36*
X773730D02*
X772267Y654090D01*
X770910Y652733D01*
X770303Y651270D01*
X773730D01*
Y654697D01*
D02*
G37*
G36*
X726270D02*
Y651270D01*
X729697D01*
X729090Y652733D01*
X727733Y654090D01*
X726270Y654697D01*
D02*
G37*
G36*
X723730D02*
X722267Y654090D01*
X720910Y652733D01*
X720303Y651270D01*
X723730D01*
Y654697D01*
D02*
G37*
G36*
X676270D02*
Y651270D01*
X679697D01*
X679090Y652733D01*
X677733Y654090D01*
X676270Y654697D01*
D02*
G37*
G36*
X673730D02*
X672267Y654090D01*
X670910Y652733D01*
X670303Y651270D01*
X673730D01*
Y654697D01*
D02*
G37*
G36*
X883920Y653668D02*
X882456Y653061D01*
X881099Y651704D01*
X880492Y650240D01*
X883920D01*
Y653668D01*
D02*
G37*
G36*
X1279697Y648730D02*
X1276270D01*
Y645303D01*
X1277733Y645910D01*
X1279090Y647267D01*
X1279697Y648730D01*
D02*
G37*
G36*
X1273730D02*
X1270304D01*
X1270910Y647267D01*
X1272267Y645910D01*
X1273730Y645303D01*
Y648730D01*
D02*
G37*
G36*
X1179697D02*
X1176270D01*
Y645303D01*
X1177733Y645910D01*
X1179090Y647267D01*
X1179697Y648730D01*
D02*
G37*
G36*
X1173730D02*
X1170304D01*
X1170910Y647267D01*
X1172267Y645910D01*
X1173730Y645303D01*
Y648730D01*
D02*
G37*
G36*
X1129697D02*
X1126270D01*
Y645303D01*
X1127733Y645910D01*
X1129090Y647267D01*
X1129697Y648730D01*
D02*
G37*
G36*
X1123730D02*
X1120304D01*
X1120910Y647267D01*
X1122267Y645910D01*
X1123730Y645303D01*
Y648730D01*
D02*
G37*
G36*
X1079697D02*
X1076270D01*
Y645303D01*
X1077733Y645910D01*
X1079090Y647267D01*
X1079697Y648730D01*
D02*
G37*
G36*
X1073730D02*
X1070303D01*
X1070910Y647267D01*
X1072267Y645910D01*
X1073730Y645303D01*
Y648730D01*
D02*
G37*
G36*
X1029697D02*
X1026270D01*
Y645303D01*
X1027733Y645910D01*
X1029090Y647267D01*
X1029697Y648730D01*
D02*
G37*
G36*
X1023730D02*
X1020303D01*
X1020910Y647267D01*
X1022267Y645910D01*
X1023730Y645303D01*
Y648730D01*
D02*
G37*
G36*
X779697D02*
X776270D01*
Y645303D01*
X777733Y645910D01*
X779090Y647267D01*
X779697Y648730D01*
D02*
G37*
G36*
X773730D02*
X770303D01*
X770910Y647267D01*
X772267Y645910D01*
X773730Y645303D01*
Y648730D01*
D02*
G37*
G36*
X729697D02*
X726270D01*
Y645303D01*
X727733Y645910D01*
X729090Y647267D01*
X729697Y648730D01*
D02*
G37*
G36*
X723730D02*
X720303D01*
X720910Y647267D01*
X722267Y645910D01*
X723730Y645303D01*
Y648730D01*
D02*
G37*
G36*
X679697D02*
X676270D01*
Y645303D01*
X677733Y645910D01*
X679090Y647267D01*
X679697Y648730D01*
D02*
G37*
G36*
X673730D02*
X670303D01*
X670910Y647267D01*
X672267Y645910D01*
X673730Y645303D01*
Y648730D01*
D02*
G37*
G36*
X1216406Y643890D02*
X1212386D01*
Y639870D01*
X1216406D01*
Y643890D01*
D02*
G37*
G36*
X894520Y628960D02*
X889000D01*
Y623440D01*
X894520D01*
Y628960D01*
D02*
G37*
G36*
X886460D02*
X880940D01*
Y623440D01*
X886460D01*
Y628960D01*
D02*
G37*
G36*
X894520Y620900D02*
X889000D01*
Y615380D01*
X894520D01*
Y620900D01*
D02*
G37*
G36*
X886460D02*
X880940D01*
Y615380D01*
X886460D01*
Y620900D01*
D02*
G37*
G36*
X546151Y627640D02*
X531151D01*
X528729Y627321D01*
X526472Y626386D01*
X524534Y624899D01*
X523047Y622961D01*
X522112Y620704D01*
X521793Y618282D01*
X522112Y615860D01*
X523047Y613603D01*
X524534Y611665D01*
X526472Y610178D01*
X528729Y609243D01*
X531151Y608924D01*
X546151D01*
X548573Y609243D01*
X550830Y610178D01*
X552768Y611665D01*
X554255Y613603D01*
X554531Y614269D01*
X576445D01*
Y611423D01*
X585501D01*
Y620479D01*
X576445D01*
Y619964D01*
X555288D01*
X555190Y620704D01*
X554255Y622961D01*
X552768Y624899D01*
X550830Y626386D01*
X548573Y627321D01*
X546151Y627640D01*
D02*
G37*
G36*
X1091001Y618871D02*
X1077539D01*
Y605409D01*
X1091001D01*
Y618871D01*
D02*
G37*
G36*
X1071001D02*
X1057539D01*
Y605409D01*
X1071001D01*
Y618871D01*
D02*
G37*
G36*
X1191763Y610870D02*
X1185540D01*
Y604647D01*
X1191763D01*
Y610870D01*
D02*
G37*
G36*
X1183000D02*
X1176777D01*
Y604647D01*
X1183000D01*
Y610870D01*
D02*
G37*
G36*
X1171763Y610870D02*
X1165540D01*
Y604647D01*
X1171763D01*
Y610870D01*
D02*
G37*
G36*
X1163000D02*
X1156777D01*
Y604647D01*
X1163000D01*
Y610870D01*
D02*
G37*
G36*
X1111001Y618871D02*
X1097539D01*
X1097539Y605528D01*
X1097526Y605310D01*
X1097381Y604204D01*
X1096108Y602932D01*
X1095502Y601468D01*
X1104895D01*
X1104289Y602932D01*
X1103081Y604139D01*
X1103199Y604844D01*
X1103471Y605409D01*
X1111001D01*
Y618871D01*
D02*
G37*
G36*
X1251270Y604697D02*
Y601270D01*
X1254697D01*
X1254090Y602733D01*
X1252733Y604090D01*
X1251270Y604697D01*
D02*
G37*
G36*
X1248730D02*
X1247267Y604090D01*
X1245910Y602733D01*
X1245304Y601270D01*
X1248730D01*
Y604697D01*
D02*
G37*
G36*
X1201270D02*
Y601270D01*
X1204697D01*
X1204090Y602733D01*
X1202733Y604090D01*
X1201270Y604697D01*
D02*
G37*
G36*
X1198730D02*
X1197267Y604090D01*
X1195910Y602733D01*
X1195304Y601270D01*
X1198730D01*
Y604697D01*
D02*
G37*
G36*
X1051001Y618871D02*
X1037539D01*
Y605409D01*
X1047132D01*
X1047384Y604139D01*
X1047267Y604090D01*
X1045910Y602733D01*
X1045303Y601270D01*
X1054697D01*
X1054090Y602733D01*
X1052733Y604090D01*
X1051808Y604473D01*
X1051001Y605409D01*
X1051001Y606078D01*
Y618871D01*
D02*
G37*
G36*
X1001270Y604697D02*
Y601270D01*
X1004697D01*
X1004090Y602733D01*
X1002733Y604090D01*
X1001270Y604697D01*
D02*
G37*
G36*
X998730D02*
X997267Y604090D01*
X995910Y602733D01*
X995303Y601270D01*
X998730D01*
Y604697D01*
D02*
G37*
G36*
X601270D02*
Y601270D01*
X604697D01*
X604090Y602733D01*
X602733Y604090D01*
X601270Y604697D01*
D02*
G37*
G36*
X1146161Y599588D02*
Y596161D01*
X1149588D01*
X1148982Y597625D01*
X1147625Y598982D01*
X1146161Y599588D01*
D02*
G37*
G36*
X1143622D02*
X1142158Y598982D01*
X1140801Y597625D01*
X1140195Y596161D01*
X1143622D01*
Y599588D01*
D02*
G37*
G36*
X1104895Y598928D02*
X1101468D01*
Y595502D01*
X1102932Y596108D01*
X1104289Y597465D01*
X1104895Y598928D01*
D02*
G37*
G36*
X1098928D02*
X1095502D01*
X1096108Y597465D01*
X1097465Y596108D01*
X1098928Y595502D01*
Y598928D01*
D02*
G37*
G36*
X1254697Y598730D02*
X1251270D01*
Y595303D01*
X1252733Y595910D01*
X1254090Y597267D01*
X1254697Y598730D01*
D02*
G37*
G36*
X1248730D02*
X1245304D01*
X1245910Y597267D01*
X1247267Y595910D01*
X1248730Y595303D01*
Y598730D01*
D02*
G37*
G36*
X1204697D02*
X1201270D01*
Y595303D01*
X1202733Y595910D01*
X1204090Y597267D01*
X1204697Y598730D01*
D02*
G37*
G36*
X1198730D02*
X1195304D01*
X1195910Y597267D01*
X1197267Y595910D01*
X1198730Y595303D01*
Y598730D01*
D02*
G37*
G36*
X1054697D02*
X1051270D01*
Y595303D01*
X1052733Y595910D01*
X1054090Y597267D01*
X1054697Y598730D01*
D02*
G37*
G36*
X1048730D02*
X1045303D01*
X1045910Y597267D01*
X1047267Y595910D01*
X1048730Y595303D01*
Y598730D01*
D02*
G37*
G36*
X1004697D02*
X1001270D01*
Y595303D01*
X1002733Y595910D01*
X1004090Y597267D01*
X1004697Y598730D01*
D02*
G37*
G36*
X998730D02*
X995303D01*
X995910Y597267D01*
X997267Y595910D01*
X998730Y595303D01*
Y598730D01*
D02*
G37*
G36*
X954697D02*
X951270D01*
Y595303D01*
X952733Y595910D01*
X954090Y597267D01*
X954697Y598730D01*
D02*
G37*
G36*
X948730D02*
X945303D01*
X945910Y597267D01*
X947267Y595910D01*
X948730Y595303D01*
Y598730D01*
D02*
G37*
G36*
X604697D02*
X601270D01*
Y595303D01*
X602733Y595910D01*
X604090Y597267D01*
X604697Y598730D01*
D02*
G37*
G36*
X557381Y603009D02*
X551151D01*
X548530Y602664D01*
X546088Y601652D01*
X543990Y600043D01*
X542381Y597945D01*
X541369Y595503D01*
X541192Y594152D01*
X557381D01*
Y603009D01*
D02*
G37*
G36*
X1149588Y593621D02*
X1146161D01*
Y590195D01*
X1147625Y590801D01*
X1148982Y592158D01*
X1149588Y593621D01*
D02*
G37*
G36*
X1143622D02*
X1140195D01*
X1140801Y592158D01*
X1142158Y590801D01*
X1143622Y590195D01*
Y593621D01*
D02*
G37*
G36*
X557381Y591612D02*
X541192D01*
X541369Y590261D01*
X542381Y587819D01*
X543990Y585721D01*
X546088Y584112D01*
X548530Y583100D01*
X551151Y582755D01*
X557381D01*
Y591612D01*
D02*
G37*
G36*
X566151Y603009D02*
X559921D01*
Y592882D01*
Y582755D01*
X566151D01*
X568772Y583100D01*
X571214Y584112D01*
X573220Y585651D01*
X574962D01*
X575683Y584930D01*
Y582681D01*
X578490D01*
X578718Y582529D01*
X580973Y582080D01*
X583228Y582529D01*
X583456Y582681D01*
X586263D01*
Y585488D01*
X586416Y585717D01*
X586864Y587971D01*
X586416Y590226D01*
X586263Y590454D01*
Y593261D01*
X584014D01*
X581567Y595708D01*
X579656Y596985D01*
X577402Y597434D01*
X575133D01*
X574921Y597945D01*
X573312Y600043D01*
X571214Y601652D01*
X568772Y602664D01*
X566151Y603009D01*
D02*
G37*
G36*
X546151Y576840D02*
X531151D01*
X528729Y576521D01*
X526472Y575586D01*
X524534Y574099D01*
X523047Y572161D01*
X522112Y569904D01*
X521793Y567482D01*
X522112Y565060D01*
X523047Y562803D01*
X524534Y560865D01*
X526472Y559378D01*
X528729Y558443D01*
X531151Y558124D01*
X546151D01*
X548573Y558443D01*
X550830Y559378D01*
X552768Y560865D01*
X554255Y562803D01*
X555190Y565060D01*
X555509Y567482D01*
X555190Y569904D01*
X554255Y572161D01*
X552768Y574099D01*
X550830Y575586D01*
X548573Y576521D01*
X546151Y576840D01*
D02*
G37*
G36*
X1519533Y574668D02*
X1515687D01*
X1511914Y573918D01*
X1508360Y572445D01*
X1505162Y570308D01*
X1502442Y567588D01*
X1500305Y564390D01*
X1498832Y560836D01*
X1498082Y557063D01*
Y553217D01*
X1498832Y549444D01*
X1500305Y545890D01*
X1502442Y542692D01*
X1505162Y539972D01*
X1508360Y537835D01*
X1511914Y536362D01*
X1515687Y535612D01*
X1519533D01*
X1523306Y536362D01*
X1526860Y537835D01*
X1530058Y539972D01*
X1532778Y542692D01*
X1534915Y545890D01*
X1536388Y549444D01*
X1537138Y553217D01*
Y557063D01*
X1536388Y560836D01*
X1534915Y564390D01*
X1532778Y567588D01*
X1530058Y570308D01*
X1526860Y572445D01*
X1523306Y573918D01*
X1519533Y574668D01*
D02*
G37*
G36*
X1051763Y459613D02*
X1045540D01*
Y453390D01*
X1051763D01*
Y459613D01*
D02*
G37*
G36*
X1043000D02*
X1036777D01*
Y453390D01*
X1043000D01*
Y459613D01*
D02*
G37*
G36*
X1191763D02*
X1185540D01*
Y453390D01*
X1191763D01*
Y459613D01*
D02*
G37*
G36*
X1183000D02*
X1176777D01*
Y453390D01*
X1183000D01*
Y459613D01*
D02*
G37*
G36*
X1171001Y458851D02*
X1157539D01*
Y445389D01*
X1171001D01*
Y458851D01*
D02*
G37*
G36*
X1151001D02*
X1137539D01*
Y445389D01*
X1151001D01*
Y458851D01*
D02*
G37*
G36*
X1131001D02*
X1117539D01*
Y445389D01*
X1131001D01*
Y458851D01*
D02*
G37*
G36*
X1111001D02*
X1097539D01*
Y445389D01*
X1111001D01*
Y458851D01*
D02*
G37*
G36*
X1091001D02*
X1077539D01*
Y445389D01*
X1091001D01*
Y458851D01*
D02*
G37*
G36*
X1071001D02*
X1057539D01*
Y445389D01*
X1071001D01*
Y458851D01*
D02*
G37*
G36*
X1191763Y450850D02*
X1185540D01*
Y444627D01*
X1191763D01*
Y450850D01*
D02*
G37*
G36*
X1183000D02*
X1176777D01*
Y444627D01*
X1183000D01*
Y450850D01*
D02*
G37*
G36*
X1051763Y450850D02*
X1045540D01*
Y444627D01*
X1051763D01*
Y450850D01*
D02*
G37*
G36*
X1043000D02*
X1036777D01*
Y444627D01*
X1043000D01*
Y450850D01*
D02*
G37*
G36*
X1510927Y433940D02*
X1510030D01*
Y407670D01*
X1536300D01*
Y408568D01*
X1535622Y412849D01*
X1534282Y416972D01*
X1532314Y420834D01*
X1529766Y424341D01*
X1526701Y427406D01*
X1523194Y429954D01*
X1519332Y431922D01*
X1515209Y433262D01*
X1510927Y433940D01*
D02*
G37*
G36*
X1507490D02*
X1506593D01*
X1502311Y433262D01*
X1498188Y431922D01*
X1494326Y429954D01*
X1490819Y427406D01*
X1487754Y424341D01*
X1485206Y420834D01*
X1483238Y416972D01*
X1481898Y412849D01*
X1481220Y408568D01*
Y407670D01*
X1507490D01*
Y433940D01*
D02*
G37*
G36*
X521538Y443338D02*
X517323D01*
X513159Y442679D01*
X509151Y441376D01*
X505395Y439463D01*
X501985Y436985D01*
X499005Y434005D01*
X496527Y430595D01*
X494614Y426839D01*
X493311Y422831D01*
X492652Y418667D01*
Y414453D01*
X493311Y410289D01*
X494614Y406281D01*
X496527Y402525D01*
X499005Y399115D01*
X501985Y396135D01*
X505395Y393657D01*
X509151Y391744D01*
X513159Y390441D01*
X517323Y389782D01*
X521538D01*
X525700Y390441D01*
X529709Y391744D01*
X533465Y393657D01*
X536875Y396135D01*
X539855Y399115D01*
X542333Y402525D01*
X544246Y406281D01*
X545549Y410289D01*
X546208Y414453D01*
Y418667D01*
X545549Y422831D01*
X544246Y426839D01*
X542333Y430595D01*
X539855Y434005D01*
X536875Y436985D01*
X533465Y439463D01*
X529709Y441376D01*
X525700Y442679D01*
X521538Y443338D01*
D02*
G37*
G36*
X1536300Y405130D02*
X1510030D01*
Y378860D01*
X1510927D01*
X1515209Y379538D01*
X1519332Y380878D01*
X1523194Y382846D01*
X1526701Y385394D01*
X1529766Y388459D01*
X1532314Y391966D01*
X1534282Y395828D01*
X1535622Y399951D01*
X1536300Y404232D01*
Y405130D01*
D02*
G37*
G36*
X1507490D02*
X1481220D01*
Y404232D01*
X1481898Y399951D01*
X1483238Y395828D01*
X1485206Y391966D01*
X1487754Y388459D01*
X1490819Y385394D01*
X1494326Y382846D01*
X1498188Y380878D01*
X1502311Y379538D01*
X1506593Y378860D01*
X1507490D01*
Y405130D01*
D02*
G37*
%LPD*%
G36*
X805180Y1187570D02*
X805232D01*
X807785Y1188254D01*
X810075Y1189576D01*
X811944Y1191445D01*
X813266Y1193735D01*
X813950Y1196288D01*
Y1196404D01*
X815123Y1196890D01*
X820032Y1191981D01*
Y1188332D01*
X825083D01*
Y1165808D01*
X825402Y1163386D01*
X826337Y1161129D01*
X827824Y1159191D01*
X833488Y1153528D01*
X835426Y1152041D01*
X836147Y1151742D01*
X836446Y1151021D01*
X837732Y1149345D01*
Y1102535D01*
X837648Y1101300D01*
X828592D01*
Y1099620D01*
X816828D01*
Y1104818D01*
X797772D01*
Y1100888D01*
X764328D01*
Y1104818D01*
X745272D01*
Y1091262D01*
X764328D01*
Y1095192D01*
X797772D01*
Y1091262D01*
X816828D01*
Y1093924D01*
X826742D01*
X826844Y1093792D01*
X827209Y1092654D01*
X825563Y1091009D01*
X824946Y1090085D01*
X824729Y1088995D01*
X824729Y1088995D01*
Y1027464D01*
X824729Y1026623D01*
X824729Y1026623D01*
X824946Y1025533D01*
X825563Y1024609D01*
X826753Y1023420D01*
X826769Y1023409D01*
X826780Y1023393D01*
X843212Y1007405D01*
X842734Y1006228D01*
X842058D01*
X839699Y1005596D01*
X837583Y1004374D01*
X835856Y1002647D01*
X834634Y1000531D01*
X834002Y998171D01*
Y995729D01*
X834634Y993369D01*
X835856Y991253D01*
X837583Y989526D01*
X839699Y988304D01*
X842058Y987672D01*
X844501D01*
X846861Y988304D01*
X848977Y989526D01*
X850704Y991253D01*
X851282Y992253D01*
X852971Y992695D01*
X853132Y992600D01*
Y954494D01*
X853132Y954493D01*
X853349Y953404D01*
X853966Y952480D01*
X900351Y906095D01*
X899825Y904825D01*
X899040D01*
X897267Y904090D01*
X895910Y902733D01*
X895303Y901270D01*
X900000D01*
Y900000D01*
X901270D01*
Y895303D01*
X902733Y895910D01*
X904090Y897267D01*
X904825Y899040D01*
Y899317D01*
X906073Y899878D01*
X906752Y899349D01*
Y798053D01*
X898640D01*
Y798815D01*
X897448D01*
Y800566D01*
X898442Y800978D01*
X899800Y802336D01*
X900406Y803800D01*
X891011D01*
X891617Y802336D01*
X891752Y802201D01*
Y799003D01*
X890675Y798833D01*
X890482Y798829D01*
X889377Y799025D01*
X888258Y800145D01*
X887904Y800381D01*
X887520Y801814D01*
X887555Y802013D01*
X888344Y803041D01*
X889279Y805298D01*
X889598Y807720D01*
X889279Y810142D01*
X888344Y812399D01*
X888263Y812505D01*
X888090Y813821D01*
X887626Y814941D01*
Y815813D01*
X887307Y818235D01*
X886372Y820492D01*
X884885Y822430D01*
X879450Y827865D01*
X877512Y829352D01*
X875255Y830287D01*
X872833Y830606D01*
X856647D01*
X854225Y830287D01*
X851968Y829352D01*
X850030Y827865D01*
X848961Y826796D01*
X841248D01*
X824139Y843905D01*
X824665Y845175D01*
X825960D01*
X827733Y845910D01*
X829090Y847267D01*
X829697Y848730D01*
X825000D01*
Y850000D01*
X823730D01*
Y854697D01*
X822267Y854090D01*
X820910Y852733D01*
X820175Y850960D01*
Y849665D01*
X818905Y849139D01*
X769887Y898157D01*
X724139Y943905D01*
X724665Y945175D01*
X725960D01*
X727733Y945910D01*
X729090Y947267D01*
X729697Y948730D01*
X725000D01*
Y950000D01*
X723730D01*
Y954697D01*
X722267Y954090D01*
X720910Y952733D01*
X720175Y950960D01*
Y949665D01*
X718905Y949139D01*
X712106Y955939D01*
X712592Y957112D01*
X717550D01*
X719972Y957431D01*
X722229Y958366D01*
X724167Y959853D01*
X749567Y985253D01*
X751054Y987191D01*
X751989Y989448D01*
X752308Y991870D01*
X751989Y994292D01*
X751054Y996549D01*
X750958Y996675D01*
Y1006228D01*
X732402D01*
Y995790D01*
X731036Y994009D01*
X730457Y992611D01*
X713674Y975828D01*
X695923D01*
X692618Y979133D01*
Y1059203D01*
X807300D01*
X807744Y1059262D01*
X816828D01*
Y1072818D01*
X807744D01*
X807300Y1072877D01*
X692618D01*
Y1096811D01*
X694107Y1098300D01*
X695605Y1098002D01*
X695910Y1097267D01*
X697267Y1095910D01*
X698730Y1095303D01*
Y1100000D01*
X700000D01*
Y1101270D01*
X704697D01*
X704090Y1102733D01*
X702733Y1104090D01*
X701998Y1104395D01*
X701700Y1105893D01*
X792697Y1196890D01*
X793870Y1196404D01*
Y1196288D01*
X794554Y1193735D01*
X795876Y1191445D01*
X797745Y1189576D01*
X800035Y1188254D01*
X802588Y1187570D01*
X802640D01*
Y1197610D01*
X805180D01*
Y1187570D01*
D02*
G37*
G36*
X834390Y1079798D02*
X837732D01*
Y1069604D01*
X838051Y1067182D01*
X838986Y1064925D01*
X840473Y1062987D01*
X849260Y1054200D01*
X851198Y1052713D01*
X853455Y1051778D01*
X855877Y1051459D01*
X891439D01*
Y1024522D01*
X891758Y1022101D01*
X892693Y1019844D01*
X894180Y1017905D01*
X917822Y994264D01*
Y988942D01*
X926492D01*
X927100Y988862D01*
X927708Y988942D01*
X935551D01*
Y898491D01*
X935551Y898491D01*
X935768Y897401D01*
X936385Y896477D01*
X938221Y894641D01*
Y865678D01*
X937165Y864972D01*
X936798Y865124D01*
X935182D01*
X934366Y864786D01*
X933394Y865758D01*
X933743Y866602D01*
Y868218D01*
X933124Y869712D01*
X931981Y870855D01*
X930488Y871474D01*
X928871D01*
X928504Y871322D01*
X927448Y872028D01*
Y937220D01*
X927448Y937220D01*
X927231Y938310D01*
X926614Y939233D01*
X926614Y939234D01*
X875349Y990498D01*
X876104Y991253D01*
X877326Y993369D01*
X877958Y995729D01*
Y998171D01*
X877326Y1000531D01*
X876104Y1002647D01*
X874377Y1004374D01*
X872261Y1005596D01*
X869902Y1006228D01*
X867458D01*
X865099Y1005596D01*
X862983Y1004374D01*
X861256Y1002647D01*
X860034Y1000531D01*
X859604Y998925D01*
X859346Y998812D01*
X858475Y998732D01*
X858245Y998762D01*
X855083Y1003096D01*
X855074Y1003104D01*
X855069Y1003115D01*
X853832Y1004782D01*
X853613Y1004980D01*
X852613Y1006283D01*
X852469Y1006394D01*
X851544Y1007243D01*
X830767Y1027460D01*
X830425Y1027803D01*
Y1079798D01*
X831850D01*
Y1085088D01*
X834390D01*
Y1079798D01*
D02*
G37*
G36*
X860678Y992253D02*
X861256Y991253D01*
X862983Y989526D01*
X865099Y988304D01*
X867458Y987672D01*
X869902D01*
X870074Y987718D01*
X921752Y936040D01*
Y798053D01*
X912448D01*
Y900873D01*
X912448Y900873D01*
X912231Y901963D01*
X911613Y902887D01*
X911613Y902887D01*
X858828Y955673D01*
Y992600D01*
X858988Y992695D01*
X860678Y992253D01*
D02*
G37*
G36*
X1234908Y709282D02*
X1231193Y705568D01*
X1226864D01*
Y703148D01*
X1226268Y702692D01*
X1224998Y703320D01*
Y706330D01*
X1223050D01*
Y712987D01*
X1223543Y713480D01*
X1224268Y714565D01*
X1224522Y715844D01*
Y718654D01*
X1225788Y719185D01*
X1227282Y718566D01*
X1228898D01*
X1230392Y719185D01*
X1231535Y720328D01*
X1232154Y721822D01*
Y723438D01*
X1231662Y724627D01*
X1231708Y725897D01*
X1231708Y725897D01*
X1231708Y725897D01*
Y743703D01*
X1225970D01*
Y744465D01*
X1222450D01*
Y734800D01*
X1219910D01*
Y744465D01*
X1216390D01*
Y743703D01*
X1212970D01*
Y744465D01*
X1209450D01*
Y734800D01*
X1208180D01*
Y733530D01*
X1203390D01*
Y725135D01*
X1208213D01*
X1208699Y723962D01*
X1207273Y722535D01*
X1206548Y721451D01*
X1206294Y720172D01*
Y717450D01*
X1205108D01*
Y708394D01*
X1214164D01*
Y717450D01*
X1212978D01*
Y718788D01*
X1216293Y722103D01*
X1216568Y722513D01*
X1217838Y722128D01*
Y717228D01*
X1217345Y716735D01*
X1216620Y715650D01*
X1216366Y714371D01*
Y706330D01*
X1214926D01*
Y706528D01*
X1210906D01*
Y701238D01*
Y695948D01*
X1211372D01*
X1212371Y694678D01*
X1212364Y694648D01*
X1204922D01*
Y690412D01*
X1193914D01*
X1192062Y692264D01*
Y749186D01*
X1205479Y762602D01*
X1206652Y762116D01*
Y746892D01*
X1229208D01*
Y766948D01*
X1229208D01*
X1228803Y767926D01*
X1229293Y768416D01*
X1230018Y769500D01*
X1230145Y770137D01*
X1231708D01*
Y775168D01*
X1234908D01*
Y709282D01*
D02*
G37*
G36*
X968702Y660135D02*
Y642298D01*
X965522D01*
Y636889D01*
X964947Y635499D01*
X964714Y633730D01*
Y631798D01*
X964947Y630028D01*
X965443Y628830D01*
X964790Y627560D01*
X964760D01*
Y622040D01*
X971550D01*
Y619500D01*
X964760D01*
Y616578D01*
X961010D01*
Y620380D01*
X953770D01*
X946185D01*
X945260Y619587D01*
X944539Y619682D01*
X937894D01*
X937368Y620951D01*
X941613Y625197D01*
X942231Y626121D01*
X942448Y627211D01*
X942448Y627211D01*
Y650659D01*
X943717Y651185D01*
X945896Y649007D01*
Y648162D01*
X946515Y646668D01*
X947658Y645525D01*
X949152Y644906D01*
X950768D01*
X952262Y645525D01*
X953405Y646668D01*
X954024Y648162D01*
Y649778D01*
X953405Y651272D01*
X952262Y652415D01*
X950768Y653034D01*
X949923D01*
X947448Y655509D01*
Y664987D01*
X956752D01*
Y645602D01*
X954420Y643270D01*
X953802Y642346D01*
X953586Y641256D01*
X952374Y641178D01*
X947292D01*
Y630122D01*
X960248D01*
Y641043D01*
X961613Y642409D01*
X961613Y642409D01*
X962231Y643333D01*
X962448Y644423D01*
X962448Y644423D01*
Y664987D01*
X963851D01*
X968702Y660135D01*
D02*
G37*
%LPC*%
G36*
X826270Y1154697D02*
Y1151270D01*
X829697D01*
X829090Y1152733D01*
X827733Y1154090D01*
X826270Y1154697D01*
D02*
G37*
G36*
X823730D02*
X822267Y1154090D01*
X820910Y1152733D01*
X820303Y1151270D01*
X823730D01*
Y1154697D01*
D02*
G37*
G36*
X776270D02*
Y1151270D01*
X779697D01*
X779090Y1152733D01*
X777733Y1154090D01*
X776270Y1154697D01*
D02*
G37*
G36*
X773730D02*
X772267Y1154090D01*
X770910Y1152733D01*
X770303Y1151270D01*
X773730D01*
Y1154697D01*
D02*
G37*
G36*
X829697Y1148730D02*
X826270D01*
Y1145304D01*
X827733Y1145910D01*
X829090Y1147267D01*
X829697Y1148730D01*
D02*
G37*
G36*
X823730D02*
X820303D01*
X820910Y1147267D01*
X822267Y1145910D01*
X823730Y1145304D01*
Y1148730D01*
D02*
G37*
G36*
X779697D02*
X776270D01*
Y1145304D01*
X777733Y1145910D01*
X779090Y1147267D01*
X779697Y1148730D01*
D02*
G37*
G36*
X773730D02*
X770303D01*
X770910Y1147267D01*
X772267Y1145910D01*
X773730Y1145304D01*
Y1148730D01*
D02*
G37*
G36*
X704697Y1098730D02*
X701270D01*
Y1095303D01*
X702733Y1095910D01*
X704090Y1097267D01*
X704697Y1098730D01*
D02*
G37*
G36*
X776270Y1054697D02*
Y1051270D01*
X779697D01*
X779090Y1052733D01*
X777733Y1054090D01*
X776270Y1054697D01*
D02*
G37*
G36*
X773730D02*
X772267Y1054090D01*
X770910Y1052733D01*
X770303Y1051270D01*
X773730D01*
Y1054697D01*
D02*
G37*
G36*
X726270D02*
Y1051270D01*
X729697D01*
X729090Y1052733D01*
X727733Y1054090D01*
X726270Y1054697D01*
D02*
G37*
G36*
X723730D02*
X722267Y1054090D01*
X720910Y1052733D01*
X720303Y1051270D01*
X723730D01*
Y1054697D01*
D02*
G37*
G36*
X779697Y1048730D02*
X776270D01*
Y1045303D01*
X777733Y1045910D01*
X779090Y1047267D01*
X779697Y1048730D01*
D02*
G37*
G36*
X773730D02*
X770303D01*
X770910Y1047267D01*
X772267Y1045910D01*
X773730Y1045303D01*
Y1048730D01*
D02*
G37*
G36*
X729697D02*
X726270D01*
Y1045303D01*
X727733Y1045910D01*
X729090Y1047267D01*
X729697Y1048730D01*
D02*
G37*
G36*
X723730D02*
X720303D01*
X720910Y1047267D01*
X722267Y1045910D01*
X723730Y1045303D01*
Y1048730D01*
D02*
G37*
G36*
X701270Y1004697D02*
Y1001270D01*
X704697D01*
X704090Y1002733D01*
X702733Y1004090D01*
X701270Y1004697D01*
D02*
G37*
G36*
X698730D02*
X697267Y1004090D01*
X695910Y1002733D01*
X695303Y1001270D01*
X698730D01*
Y1004697D01*
D02*
G37*
G36*
X768402Y1006990D02*
X768350D01*
Y998220D01*
X777120D01*
Y998272D01*
X776436Y1000825D01*
X775114Y1003115D01*
X773245Y1004984D01*
X770955Y1006306D01*
X768402Y1006990D01*
D02*
G37*
G36*
X765810D02*
X765758D01*
X763205Y1006306D01*
X760915Y1004984D01*
X759046Y1003115D01*
X757724Y1000825D01*
X757040Y998272D01*
Y998220D01*
X765810D01*
Y1006990D01*
D02*
G37*
G36*
X704697Y998730D02*
X701270D01*
Y995303D01*
X702733Y995910D01*
X704090Y997267D01*
X704697Y998730D01*
D02*
G37*
G36*
X698730D02*
X695303D01*
X695910Y997267D01*
X697267Y995910D01*
X698730Y995303D01*
Y998730D01*
D02*
G37*
G36*
X819101Y1006228D02*
X816658D01*
X814299Y1005596D01*
X812183Y1004374D01*
X810456Y1002647D01*
X809234Y1000531D01*
X808602Y998171D01*
Y995729D01*
X809234Y993369D01*
X810456Y991253D01*
X812183Y989526D01*
X814299Y988304D01*
X816658Y987672D01*
X819101D01*
X821461Y988304D01*
X823577Y989526D01*
X825304Y991253D01*
X826526Y993369D01*
X827158Y995729D01*
Y998171D01*
X826526Y1000531D01*
X825304Y1002647D01*
X823577Y1004374D01*
X821461Y1005596D01*
X819101Y1006228D01*
D02*
G37*
G36*
X793701D02*
X791258D01*
X788899Y1005596D01*
X786783Y1004374D01*
X785056Y1002647D01*
X783834Y1000531D01*
X783202Y998171D01*
Y995729D01*
X783834Y993369D01*
X785056Y991253D01*
X786783Y989526D01*
X788899Y988304D01*
X791258Y987672D01*
X793701D01*
X796061Y988304D01*
X798177Y989526D01*
X799904Y991253D01*
X801126Y993369D01*
X801758Y995729D01*
Y998171D01*
X801126Y1000531D01*
X799904Y1002647D01*
X798177Y1004374D01*
X796061Y1005596D01*
X793701Y1006228D01*
D02*
G37*
G36*
X777120Y995680D02*
X768350D01*
Y986910D01*
X768402D01*
X770955Y987594D01*
X773245Y988916D01*
X775114Y990785D01*
X776436Y993075D01*
X777120Y995628D01*
Y995680D01*
D02*
G37*
G36*
X765810D02*
X757040D01*
Y995628D01*
X757724Y993075D01*
X759046Y990785D01*
X760915Y988916D01*
X763205Y987594D01*
X765758Y986910D01*
X765810D01*
Y995680D01*
D02*
G37*
G36*
X776270Y954697D02*
Y951270D01*
X779697D01*
X779090Y952733D01*
X777733Y954090D01*
X776270Y954697D01*
D02*
G37*
G36*
X773730D02*
X772267Y954090D01*
X770910Y952733D01*
X770303Y951270D01*
X773730D01*
Y954697D01*
D02*
G37*
G36*
X726270D02*
Y951270D01*
X729697D01*
X729090Y952733D01*
X727733Y954090D01*
X726270Y954697D01*
D02*
G37*
G36*
X779697Y948730D02*
X776270D01*
Y945303D01*
X777733Y945910D01*
X779090Y947267D01*
X779697Y948730D01*
D02*
G37*
G36*
X773730D02*
X770303D01*
X770910Y947267D01*
X772267Y945910D01*
X773730Y945303D01*
Y948730D01*
D02*
G37*
G36*
X851270Y904697D02*
Y901270D01*
X854697D01*
X854090Y902733D01*
X852733Y904090D01*
X851270Y904697D01*
D02*
G37*
G36*
X848730D02*
X847267Y904090D01*
X845910Y902733D01*
X845303Y901270D01*
X848730D01*
Y904697D01*
D02*
G37*
G36*
X898730Y898730D02*
X895303D01*
X895910Y897267D01*
X897267Y895910D01*
X898730Y895303D01*
Y898730D01*
D02*
G37*
G36*
X854697D02*
X851270D01*
Y895303D01*
X852733Y895910D01*
X854090Y897267D01*
X854697Y898730D01*
D02*
G37*
G36*
X848730D02*
X845303D01*
X845910Y897267D01*
X847267Y895910D01*
X848730Y895303D01*
Y898730D01*
D02*
G37*
G36*
X876270Y854697D02*
Y851270D01*
X879697D01*
X879090Y852733D01*
X877733Y854090D01*
X876270Y854697D01*
D02*
G37*
G36*
X873730D02*
X872267Y854090D01*
X870910Y852733D01*
X870303Y851270D01*
X873730D01*
Y854697D01*
D02*
G37*
G36*
X826270D02*
Y851270D01*
X829697D01*
X829090Y852733D01*
X827733Y854090D01*
X826270Y854697D01*
D02*
G37*
G36*
X879697Y848730D02*
X876270D01*
Y845303D01*
X877733Y845910D01*
X879090Y847267D01*
X879697Y848730D01*
D02*
G37*
G36*
X873730D02*
X870303D01*
X870910Y847267D01*
X872267Y845910D01*
X873730Y845303D01*
Y848730D01*
D02*
G37*
G36*
X896979Y809767D02*
Y806340D01*
X900406D01*
X899800Y807803D01*
X898442Y809161D01*
X896979Y809767D01*
D02*
G37*
G36*
X894439D02*
X892975Y809161D01*
X891617Y807803D01*
X891011Y806340D01*
X894439D01*
Y809767D01*
D02*
G37*
G36*
X901270Y1004697D02*
Y1001270D01*
X904697D01*
X904090Y1002733D01*
X902733Y1004090D01*
X901270Y1004697D01*
D02*
G37*
G36*
X898730D02*
X897267Y1004090D01*
X895910Y1002733D01*
X895303Y1001270D01*
X898730D01*
Y1004697D01*
D02*
G37*
G36*
X904697Y998730D02*
X901270D01*
Y995303D01*
X902733Y995910D01*
X904090Y997267D01*
X904697Y998730D01*
D02*
G37*
G36*
X898730D02*
X895303D01*
X895910Y997267D01*
X897267Y995910D01*
X898730Y995303D01*
Y998730D01*
D02*
G37*
G36*
X926270Y954697D02*
Y951270D01*
X929697D01*
X929090Y952733D01*
X927733Y954090D01*
X926270Y954697D01*
D02*
G37*
G36*
X923730D02*
X922267Y954090D01*
X920910Y952733D01*
X920303Y951270D01*
X923730D01*
Y954697D01*
D02*
G37*
G36*
X929697Y948730D02*
X926270D01*
Y945303D01*
X927733Y945910D01*
X929090Y947267D01*
X929697Y948730D01*
D02*
G37*
G36*
X923730D02*
X920303D01*
X920910Y947267D01*
X922267Y945910D01*
X923730Y945303D01*
Y948730D01*
D02*
G37*
G36*
X876270Y954697D02*
Y951270D01*
X879697D01*
X879090Y952733D01*
X877733Y954090D01*
X876270Y954697D01*
D02*
G37*
G36*
X873730D02*
X872267Y954090D01*
X870910Y952733D01*
X870303Y951270D01*
X873730D01*
Y954697D01*
D02*
G37*
G36*
X879697Y948730D02*
X876270D01*
Y945303D01*
X877733Y945910D01*
X879090Y947267D01*
X879697Y948730D01*
D02*
G37*
G36*
X873730D02*
X870303D01*
X870910Y947267D01*
X872267Y945910D01*
X873730Y945303D01*
Y948730D01*
D02*
G37*
G36*
X1206910Y744465D02*
X1203390D01*
Y736070D01*
X1206910D01*
Y744465D01*
D02*
G37*
G36*
X1208366Y706528D02*
X1204346D01*
Y704274D01*
X1203076Y703748D01*
X1202733Y704090D01*
X1201270Y704697D01*
Y700000D01*
Y695303D01*
X1202733Y695910D01*
X1203076Y696253D01*
X1204346Y695948D01*
Y695948D01*
X1204346Y695948D01*
X1208366D01*
Y701238D01*
Y706528D01*
D02*
G37*
G36*
X1198730Y704697D02*
X1197267Y704090D01*
X1195910Y702733D01*
X1195304Y701270D01*
X1198730D01*
Y704697D01*
D02*
G37*
G36*
Y698730D02*
X1195304D01*
X1195910Y697267D01*
X1197267Y695910D01*
X1198730Y695303D01*
Y698730D01*
D02*
G37*
G36*
X961010Y627940D02*
X955040D01*
Y622920D01*
X961010D01*
Y627940D01*
D02*
G37*
G36*
X952500D02*
X946530D01*
Y622920D01*
X952500D01*
Y627940D01*
D02*
G37*
%LPD*%
G36*
X1076632Y795504D02*
X1077903Y793303D01*
X1079700Y791506D01*
X1081901Y790236D01*
X1084355Y789578D01*
X1085236D01*
X1085762Y788308D01*
X1084799Y787345D01*
X1077867D01*
X1076777Y787128D01*
X1075853Y786510D01*
X1075853Y786510D01*
X1049514Y760171D01*
X1048340Y760657D01*
Y763270D01*
X1043320D01*
Y757300D01*
X1043534D01*
X1044213Y756030D01*
X1044165Y755958D01*
X1025002D01*
X1024071Y756889D01*
X1024557Y758062D01*
X1033578D01*
Y771018D01*
X1022522D01*
Y766868D01*
X993633D01*
Y768271D01*
X1001086Y775724D01*
X1001086Y775724D01*
X1001703Y776648D01*
X1001920Y777738D01*
X1001920Y777738D01*
Y780528D01*
X1007302Y785910D01*
X1008572Y785384D01*
Y783912D01*
X1020628D01*
Y791941D01*
X1022137Y793449D01*
X1023310Y792963D01*
Y791210D01*
X1036890D01*
Y796382D01*
X1076397D01*
X1076632Y795504D01*
D02*
G37*
G36*
X1075356Y777699D02*
X1076278Y776234D01*
X1075974Y775101D01*
Y772559D01*
X1076489Y770637D01*
X1048004Y742151D01*
X1046734Y742677D01*
Y743758D01*
X1046115Y745252D01*
X1044972Y746395D01*
X1043478Y747014D01*
X1041862D01*
X1041315Y746787D01*
X1040912Y746868D01*
X1040912Y746868D01*
X993633D01*
Y756172D01*
X1016732D01*
X1021808Y751096D01*
X1021808Y751096D01*
X1022732Y750479D01*
X1023822Y750262D01*
X1046480D01*
X1046480Y750262D01*
X1047570Y750479D01*
X1048494Y751096D01*
X1075137Y777740D01*
X1075356Y777699D01*
D02*
G37*
G36*
X1039225Y740648D02*
X1040368Y739505D01*
X1041862Y738886D01*
X1042943D01*
X1043469Y737616D01*
X1037680Y731828D01*
X993633D01*
Y741172D01*
X1039007D01*
X1039225Y740648D01*
D02*
G37*
%LPC*%
G36*
X1036890Y788670D02*
X1031370D01*
Y783150D01*
X1036890D01*
Y788670D01*
D02*
G37*
G36*
X1028830D02*
X1023310D01*
Y783150D01*
X1028830D01*
Y788670D01*
D02*
G37*
G36*
X1048340Y771780D02*
X1043320D01*
Y765810D01*
X1048340D01*
Y771780D01*
D02*
G37*
G36*
X1040780D02*
X1035760D01*
Y765810D01*
X1040780D01*
Y771780D01*
D02*
G37*
G36*
Y763270D02*
X1035760D01*
Y757300D01*
X1040780D01*
Y763270D01*
D02*
G37*
%LPD*%
D11*
X1126835Y521021D02*
Y609575D01*
X1124270Y612140D02*
X1126835Y609575D01*
X1123864Y518049D02*
X1126835Y521021D01*
X982980Y523698D02*
Y530860D01*
Y523698D02*
X988629Y518049D01*
X1123864D01*
X640080Y631190D02*
X826770D01*
X657860Y621030D02*
X842365D01*
X889600Y668265D01*
Y674140D01*
X826770Y631190D02*
X853440Y657860D01*
Y683615D02*
X863845Y694020D01*
X853440Y657860D02*
Y683615D01*
X863845Y694020D02*
X869720D01*
X1227885Y722835D02*
X1228090Y722630D01*
X1227680Y734800D02*
X1227885Y734595D01*
Y722835D02*
Y734595D01*
X693420Y798580D02*
X697742Y794258D01*
X741680D01*
D16*
X1294690Y703410D02*
X1301190D01*
X1219708Y701040D02*
Y714371D01*
X1221180Y715844D01*
Y734800D01*
X1253962Y746172D02*
X1272678D01*
X1252042Y748092D02*
Y749728D01*
X1272678Y746172D02*
X1274598Y748092D01*
X1252042Y748092D02*
X1253962Y746172D01*
X1291089Y737808D02*
X1306940Y753659D01*
X1252042Y737808D02*
X1253962Y739728D01*
X1272678Y739728D02*
X1274598Y737808D01*
X1253962Y739728D02*
X1263178D01*
X1263178Y739728D01*
X1272678D01*
X1274598Y737808D02*
X1291089D01*
X1258570Y730450D02*
X1259192Y729828D01*
X1258570Y711962D02*
X1259192Y712584D01*
Y729828D01*
X1274598Y748092D02*
X1291725D01*
X1294690Y751057D01*
X1252042Y736172D02*
Y737808D01*
X1188720Y690880D02*
Y750570D01*
X1206598Y768448D02*
X1224599D01*
X1188720Y750570D02*
X1206598Y768448D01*
X1228210Y778510D02*
X1240028D01*
X1208180Y779040D02*
Y783915D01*
X1195902Y796192D02*
X1208180Y783915D01*
X1224599Y768448D02*
X1226930Y770779D01*
Y778290D01*
X1251712Y778510D02*
Y792226D01*
X1242060Y801878D02*
X1251712Y792226D01*
X1242060Y813562D02*
X1267968D01*
X1276350Y777240D02*
Y805180D01*
X1267968Y813562D02*
X1276350Y805180D01*
X1307690Y703410D02*
Y719230D01*
X1277160Y721360D02*
X1305560D01*
X1307690Y719230D01*
X1209636Y720172D02*
X1213930Y724466D01*
X1238250Y707898D02*
Y775503D01*
X1213930Y724466D02*
Y734050D01*
X1238778Y777260D02*
X1240028Y778510D01*
X1238250Y775503D02*
X1238778Y776031D01*
Y777260D01*
X1249070Y752700D02*
X1252042Y749728D01*
X1209636Y712922D02*
Y720172D01*
X1213930Y734050D02*
X1214680Y734800D01*
X1220470Y813072D02*
Y827520D01*
X1229880Y836930D01*
X1209500Y687070D02*
X1209700Y686870D01*
X1192530Y687070D02*
X1209500D01*
X1188720Y690880D02*
X1192530Y687070D01*
X1226930Y778290D02*
X1227680Y779040D01*
X1231392Y701040D02*
X1238250Y707898D01*
X1195167Y796192D02*
X1195902D01*
X1183640Y807720D02*
X1195167Y796192D01*
X1183640Y807720D02*
Y844840D01*
X1198730Y859930D01*
Y860680D01*
X1204480Y866430D01*
X1205230D01*
X1294690Y751057D02*
Y762170D01*
X1306940Y753659D02*
Y761420D01*
X558651Y920722D02*
X582179D01*
X1306940Y761420D02*
X1307690Y762170D01*
X1249070Y752700D02*
Y755450D01*
X1230630Y813562D02*
X1242060D01*
X1229880Y836930D02*
X1230630D01*
X1209040Y801370D02*
X1214680Y795730D01*
Y779040D02*
Y795730D01*
X1220825Y779395D02*
X1221180Y779040D01*
X1220825Y779395D02*
Y801033D01*
X1220470Y801388D02*
X1220825Y801033D01*
X1227680Y798928D02*
X1230630Y801878D01*
X1227680Y779040D02*
Y798928D01*
X1251712Y771159D02*
X1256921Y765950D01*
X1251712Y771159D02*
Y778510D01*
X1256921Y757099D02*
Y765950D01*
Y757099D02*
X1258570Y755450D01*
X1227680Y779040D02*
X1228210Y778510D01*
X1268070Y727700D02*
Y730450D01*
Y727700D02*
X1269820Y725950D01*
X1272570D01*
X1277160Y721360D01*
X1276350Y777240D02*
X1290320D01*
X1290347Y777267D01*
X1292833D01*
X1294690Y762170D02*
Y769620D01*
Y762170D02*
X1301190D01*
X1249070Y730450D02*
Y733200D01*
X1252042Y736172D01*
D19*
X1144270Y612140D02*
D03*
X1124270D02*
D03*
X1104270D02*
D03*
X1084270D02*
D03*
X1064270D02*
D03*
X1044270D02*
D03*
X1064270Y452120D02*
D03*
X1084270D02*
D03*
X1104270D02*
D03*
X1124270D02*
D03*
X1144270D02*
D03*
X1164270D02*
D03*
X1044270D02*
D03*
X1164270Y612140D02*
D03*
X1184270Y452120D02*
D03*
X1184270Y612140D02*
D03*
D20*
X944600Y674140D02*
D03*
X894600D02*
D03*
Y788900D02*
D03*
X889600D02*
D03*
X964600Y674140D02*
D03*
X899600D02*
D03*
X889600D02*
D03*
X904600D02*
D03*
X909600D02*
D03*
X914600D02*
D03*
X919600D02*
D03*
X924600D02*
D03*
X929600D02*
D03*
X934600D02*
D03*
X939600D02*
D03*
X949600D02*
D03*
X959600D02*
D03*
X964600Y788900D02*
D03*
X959600D02*
D03*
X949600D02*
D03*
X944600D02*
D03*
X939600D02*
D03*
X934600D02*
D03*
X924600D02*
D03*
X919600D02*
D03*
X914600D02*
D03*
X909600D02*
D03*
X904600D02*
D03*
X899600D02*
D03*
X954600Y674140D02*
D03*
Y788900D02*
D03*
X929600D02*
D03*
D21*
X984480Y704020D02*
D03*
X869720Y714020D02*
D03*
X984480Y709020D02*
D03*
Y699020D02*
D03*
Y694020D02*
D03*
Y744020D02*
D03*
Y769020D02*
D03*
X869720D02*
D03*
Y764020D02*
D03*
Y759020D02*
D03*
Y754020D02*
D03*
Y749020D02*
D03*
Y744020D02*
D03*
Y739020D02*
D03*
Y734020D02*
D03*
Y729020D02*
D03*
Y724020D02*
D03*
Y719020D02*
D03*
Y709020D02*
D03*
Y704020D02*
D03*
Y699020D02*
D03*
Y694020D02*
D03*
X984480Y714020D02*
D03*
Y719020D02*
D03*
Y724020D02*
D03*
Y729020D02*
D03*
Y734020D02*
D03*
Y749020D02*
D03*
Y754020D02*
D03*
Y759020D02*
D03*
Y764020D02*
D03*
Y739020D02*
D03*
D22*
X739140Y706250D02*
D03*
X822960Y678050D02*
D03*
X739140Y737740D02*
D03*
X887730Y622170D02*
D03*
X850900Y792480D02*
D03*
X971550Y620770D02*
D03*
X1069340Y1107700D02*
D03*
X971550Y636270D02*
D03*
X887730Y637670D02*
D03*
X850900Y776980D02*
D03*
X1069340Y1092200D02*
D03*
X739140Y753240D02*
D03*
Y690750D02*
D03*
X822960Y693550D02*
D03*
D23*
X726440Y805942D02*
D03*
Y843534D02*
D03*
X833120Y1085088D02*
D03*
X1258570Y700278D02*
D03*
X1209636Y701238D02*
D03*
Y712922D02*
D03*
X1242060Y813562D02*
D03*
Y801878D02*
D03*
X1230630Y813562D02*
D03*
Y801878D02*
D03*
X1209040Y801370D02*
D03*
Y813054D02*
D03*
X1220470Y801388D02*
D03*
Y813072D02*
D03*
X1258570Y711962D02*
D03*
X1069340Y1068708D02*
D03*
X833120Y1096772D02*
D03*
X1069340Y1080392D02*
D03*
X741680Y831088D02*
D03*
Y842772D02*
D03*
X726440Y831850D02*
D03*
X741680Y794258D02*
D03*
Y805942D02*
D03*
X726440Y794258D02*
D03*
D24*
X864740Y807720D02*
D03*
X1030100Y789940D02*
D03*
X1014600D02*
D03*
X880240Y807720D02*
D03*
D25*
X953770Y621650D02*
D03*
Y635650D02*
D03*
D26*
X1042050Y764540D02*
D03*
X1028050D02*
D03*
D27*
X989750Y1104390D02*
D03*
X1042250D02*
D03*
X989750Y1072390D02*
D03*
X1042250D02*
D03*
X807300Y1066040D02*
D03*
X754800D02*
D03*
Y1098040D02*
D03*
X807300D02*
D03*
D28*
X537221Y1018512D02*
D03*
X538651Y895322D02*
D03*
X558651Y810232D02*
D03*
X557221Y701012D02*
D03*
X558651Y592882D02*
D03*
X538651Y618282D02*
D03*
Y567482D02*
D03*
X537221Y726412D02*
D03*
Y675612D02*
D03*
X538651Y835632D02*
D03*
Y784832D02*
D03*
Y946122D02*
D03*
X558651Y920722D02*
D03*
X537221Y1069312D02*
D03*
X557221Y1043912D02*
D03*
D29*
X1221180Y734800D02*
D03*
X1208180D02*
D03*
X1214680D02*
D03*
X1227680D02*
D03*
Y779040D02*
D03*
X1221180D02*
D03*
X1214680D02*
D03*
X1208180D02*
D03*
D30*
X1218692Y887730D02*
D03*
X1217676Y645160D02*
D03*
X1219708Y701040D02*
D03*
X580973Y587971D02*
D03*
X579639Y690852D02*
D03*
X580973Y807691D02*
D03*
X593863Y920722D02*
D03*
X582179D02*
D03*
X580973Y837359D02*
D03*
X592657D02*
D03*
Y807691D02*
D03*
X579639Y718792D02*
D03*
X591323D02*
D03*
Y690852D02*
D03*
X580973Y615951D02*
D03*
X592657D02*
D03*
Y587971D02*
D03*
X1231392Y701040D02*
D03*
X1229360Y645160D02*
D03*
X1207008Y887730D02*
D03*
X1251712Y778510D02*
D03*
X1240028D02*
D03*
D31*
X1219200Y686870D02*
D03*
X1228700D02*
D03*
X1209700D02*
D03*
Y661870D02*
D03*
X1228700D02*
D03*
D32*
X1301190Y703410D02*
D03*
X1294690D02*
D03*
X1288190D02*
D03*
X1307690D02*
D03*
Y762170D02*
D03*
X1301190D02*
D03*
X1294690D02*
D03*
X1288190D02*
D03*
D33*
X1249070Y730450D02*
D03*
X1258570D02*
D03*
X1268070D02*
D03*
Y755450D02*
D03*
X1258570D02*
D03*
X1249070D02*
D03*
D34*
X1230630Y836930D02*
D03*
Y866430D02*
D03*
X1205230Y836930D02*
D03*
Y866430D02*
D03*
D35*
X1211580Y914220D02*
D03*
Y955220D02*
D03*
D36*
X1217930Y756920D02*
D03*
D37*
X802640Y677800D02*
D03*
Y693800D02*
D03*
D38*
X693420Y798580D02*
D03*
X638420D02*
D03*
Y830580D02*
D03*
X693420D02*
D03*
D70*
X851545Y1003084D02*
G03*
X850458Y1004327I-8265J-6134D01*
G01*
X1034613Y706120D02*
X1037153Y703580D01*
X1056640D01*
X1014042Y706120D02*
X1034613D01*
X984480Y704020D02*
X1011942D01*
X1014042Y706120D01*
X984855Y699395D02*
X1033405D01*
X1033780Y699770D01*
X984480Y699020D02*
X984855Y699395D01*
X1042442Y711200D02*
X1074420D01*
X1039902Y713740D02*
X1042442Y711200D01*
X1006071Y713740D02*
X1039902D01*
X1052830Y718820D02*
X1076036Y742026D01*
X1001351Y709020D02*
X1006071Y713740D01*
X987452Y718820D02*
X1052830D01*
X944600Y654330D02*
X949960Y648970D01*
X944600Y654330D02*
Y674140D01*
X895709Y804382D02*
Y805070D01*
X894600Y803273D02*
X895709Y804382D01*
X894600Y788900D02*
Y803273D01*
X885190Y648970D02*
X894600Y658380D01*
Y674140D01*
X816610Y713740D02*
X840432D01*
X840712Y714020D01*
X869720D01*
X984480Y709020D02*
X1001351D01*
X1083292Y694020D02*
X1083892Y693420D01*
X984480Y694020D02*
X1083292D01*
X1083892Y693420D02*
X1084580D01*
X1041982Y742950D02*
X1042670D01*
X1040912Y744020D02*
X1041982Y742950D01*
X984480Y744020D02*
X1040912D01*
X598170Y589280D02*
X901669D01*
X939600Y627211D02*
Y674140D01*
X901669Y589280D02*
X939600Y627211D01*
X971550Y636270D02*
Y661315D01*
X592657Y594793D02*
X598170Y589280D01*
X747840Y876110D02*
X763270Y891540D01*
X723081Y876110D02*
X747840D01*
X621030Y1068070D02*
X660400Y1028700D01*
Y708660D02*
X704850Y664210D01*
X660400Y708660D02*
Y1028700D01*
X603250Y651510D02*
Y758190D01*
Y651510D02*
X646430Y608330D01*
X841193D01*
X592657Y768783D02*
X603250Y758190D01*
X841365Y608330D02*
X895350D01*
X841193D02*
X841365D01*
X880240Y807720D02*
Y807720D01*
Y800425D02*
Y807720D01*
X887730Y638813D02*
X888730D01*
X1023890Y799230D02*
X1085626D01*
X1014600Y789940D02*
X1023890Y799230D01*
X1045210Y861971D02*
X1068143Y839038D01*
Y827028D02*
X1081208Y813963D01*
X1068143Y827028D02*
Y839038D01*
X1085979Y784497D02*
X1096293Y794811D01*
X1081208Y813963D02*
X1085979D01*
X1096293Y794811D02*
Y803648D01*
X1046480Y753110D02*
X1077867Y784497D01*
X1085979Y813963D02*
X1096293Y803648D01*
X1077867Y784497D02*
X1085979D01*
X895350Y608330D02*
X904600Y617580D01*
Y674140D01*
X643890Y598168D02*
X897888D01*
X934600Y634880D02*
Y674140D01*
X897888Y598168D02*
X934600Y634880D01*
X899600Y652102D02*
Y674140D01*
X890822Y643324D02*
X899600Y652102D01*
X623564Y657866D02*
X641354Y640076D01*
X812796D01*
X623564Y657866D02*
Y891021D01*
X592657Y768783D02*
Y807691D01*
X591323Y690852D02*
Y718792D01*
Y650735D02*
Y690852D01*
Y650735D02*
X643890Y598168D01*
X592657Y587971D02*
Y594793D01*
Y615951D01*
X538651Y618282D02*
X539817Y617116D01*
X579807D01*
X580973Y615951D01*
X537221Y726412D02*
X544721D01*
X552341Y718792D01*
X579639D01*
X592657Y807691D02*
Y837359D01*
X538651Y835632D02*
X539514Y836495D01*
X580110D01*
X580973Y837359D01*
X538651Y946122D02*
X568463D01*
X593863Y920722D01*
X541020Y1068070D02*
X621030D01*
X593863Y920722D02*
X623564Y891021D01*
X964600Y674140D02*
X965085Y673655D01*
Y667780D02*
Y673655D01*
Y667780D02*
X971550Y661315D01*
X984480Y769020D02*
X984965Y769505D01*
X990840D01*
X999073Y777738D01*
Y781708D01*
X1007305Y789940D01*
X1014600D01*
X840740Y787140D02*
X850900Y776980D01*
X837372Y787140D02*
X840740D01*
X850900Y776980D02*
X858195D01*
X863360Y771815D01*
Y769505D02*
Y771815D01*
Y769505D02*
X863845Y769020D01*
X869720D01*
X880240Y800425D02*
X882534Y798131D01*
X886244D01*
X754800Y1098040D02*
X807300D01*
X808568Y1096772D01*
X833120D01*
Y1092118D02*
Y1096772D01*
X831931Y1090929D02*
X833120Y1092118D01*
X829511Y1090929D02*
X831931D01*
X827577Y1088995D02*
X829511Y1090929D01*
X741680Y842772D02*
X761512D01*
X845263Y759020D01*
X869720D01*
X964600Y788900D02*
Y984920D01*
X977900Y998220D01*
X942207Y993957D02*
X944877Y991286D01*
X984480Y764020D02*
X1025315D01*
X1028050Y766755D01*
X934600Y788900D02*
Y858982D01*
X935990Y860372D01*
Y861060D01*
X954600Y788900D02*
Y818710D01*
X956310Y820420D01*
X949600Y788900D02*
Y825140D01*
X953770Y829310D01*
X739140Y753240D02*
X800758D01*
X804977Y749020D01*
X869720D01*
X822960Y693550D02*
Y700845D01*
X831135Y709020D01*
X869720D01*
X741680Y805942D02*
X777426D01*
X829349Y754020D01*
X869720D01*
X831850Y739099D02*
X831889Y739060D01*
X929581Y807185D02*
Y867312D01*
X938399Y898491D02*
Y1005871D01*
X842010Y669290D02*
Y692150D01*
X827577Y1027464D02*
X827577Y1026623D01*
X944600Y788900D02*
Y829862D01*
X855980Y954493D02*
Y997036D01*
X944877Y830139D02*
Y991286D01*
X869950Y991870D02*
X924600Y937220D01*
X831889Y739060D02*
X869680D01*
X929581Y807185D02*
X929600Y807166D01*
X833372Y696212D02*
X840695Y703535D01*
X925830Y1018440D02*
X938399Y1005871D01*
X827577Y1026623D02*
X828766Y1025434D01*
X855980Y954493D02*
X909600Y900873D01*
X942207Y1168267D02*
X948690Y1174750D01*
X827577Y1027464D02*
Y1088995D01*
X869680Y739060D02*
X869720Y739020D01*
X929581Y867312D02*
X929679Y867410D01*
X938399Y898491D02*
X941069Y895821D01*
X948690Y1174750D02*
Y1197610D01*
X909600Y788900D02*
Y900873D01*
X939600Y830247D02*
X941069Y831716D01*
X959600Y644423D02*
Y674140D01*
X944600Y829862D02*
X944877Y830139D01*
X842010Y692150D02*
X848880Y699020D01*
X942207Y993957D02*
Y1168267D01*
X848880Y699020D02*
X869720D01*
X925830Y1018440D02*
Y1197610D01*
X812796Y640076D02*
X842010Y669290D01*
X953770Y635650D02*
X956433Y638314D01*
Y641256D02*
X959600Y644423D01*
X956433Y638314D02*
Y641256D01*
X840695Y703535D02*
X869235D01*
X873288Y816354D02*
X875508Y818574D01*
X834112Y744020D02*
X869720D01*
X746630Y690750D02*
X800058Y744178D01*
X833954D01*
X739140Y690750D02*
X746630D01*
X833954Y744178D02*
X834112Y744020D01*
X873288Y814672D02*
Y816354D01*
X886244Y798131D02*
X889600Y794775D01*
X939600Y788900D02*
Y830247D01*
X941069Y831716D02*
Y895821D01*
X924600Y788900D02*
Y937220D01*
X1017912Y759020D02*
X1023822Y753110D01*
X982149Y728980D02*
X1038860D01*
X873288Y814672D02*
X878905Y809055D01*
X889600Y788900D02*
Y794775D01*
X704850Y664210D02*
X825500D01*
X1084684Y742026D02*
X1086879Y744220D01*
X825500Y664210D02*
X833372Y672082D01*
X1076036Y742026D02*
X1084684D01*
X833372Y672082D02*
Y696212D01*
X984480Y759020D02*
X1017912D01*
X1023822Y753110D02*
X1046480D01*
X1038860Y728980D02*
X1082494Y772614D01*
X890822Y640905D02*
Y643324D01*
X869235Y703535D02*
X869720Y704020D01*
X878905Y809055D02*
X880240Y807720D01*
X1045210Y861971D02*
Y956310D01*
X888730Y638813D02*
X890822Y640905D01*
X929600Y788900D02*
Y807166D01*
X1003300Y998220D02*
X1045210Y956310D01*
X852783Y1001417D02*
X855980Y997036D01*
X828766Y1025434D02*
X850458Y1004327D01*
X851545Y1003084D02*
X852783Y1001417D01*
D71*
X646430Y1207770D02*
D03*
X676910Y1244600D02*
D03*
X675640Y1207770D02*
D03*
X986790Y1254760D02*
D03*
X957580D02*
D03*
X645160Y1244600D02*
D03*
D72*
X509270Y1113865D02*
X524435Y1129030D01*
X509270Y536330D02*
X515128Y530473D01*
X509270Y536330D02*
Y1113865D01*
X515128Y530473D02*
X865753D01*
X1132539Y627681D02*
X1143000Y617220D01*
X1036697Y627681D02*
X1132539D01*
X1143000Y617220D02*
X1153461Y627681D01*
X1030648Y633730D02*
X1036697Y627681D01*
X1229360Y619440D02*
Y645160D01*
X1215218Y613582D02*
X1223502D01*
X1229360Y619440D01*
X1201119Y627681D02*
X1215218Y613582D01*
X1153461Y627681D02*
X1201119D01*
X978607Y633730D02*
X1030648D01*
X971550Y631798D02*
X978607D01*
X971550D02*
Y633730D01*
X936255Y612845D02*
X944539D01*
X982578Y613712D02*
Y627827D01*
X978607Y609742D02*
X982578Y613712D01*
X944539Y612845D02*
X947642Y609742D01*
X899990Y576580D02*
X936255Y612845D01*
X978607Y631798D02*
X982578Y627827D01*
X947642Y609742D02*
X978607D01*
X899990Y562610D02*
Y576580D01*
Y552010D02*
Y562610D01*
X886460Y544830D02*
X891540D01*
X1438910Y461010D02*
Y697230D01*
X1297218Y769620D02*
Y787170D01*
X1339850Y796290D02*
X1438910Y697230D01*
X1306338Y796290D02*
X1339850D01*
X1297218Y787170D02*
X1306338Y796290D01*
X892175Y544195D02*
X899990Y552010D01*
X865753Y530473D02*
X880110Y544830D01*
X886460D01*
X1211580Y955220D02*
Y1123570D01*
X1215390Y1127380D01*
X1205230Y836930D02*
X1205980D01*
X1208230Y834680D01*
Y814680D02*
Y834680D01*
Y814680D02*
X1209040Y813870D01*
Y813054D02*
Y813870D01*
X1215390Y1127380D02*
Y1187450D01*
X599440Y1198880D02*
X645160Y1244600D01*
X599440Y1129030D02*
Y1198880D01*
X683260Y1129030D02*
X744260Y1190030D01*
Y1195110D01*
X746490Y1197340D01*
X599440Y1129030D02*
X683260D01*
X683260Y1066800D02*
X684020Y1066040D01*
X754800D02*
X807300D01*
X684020D02*
X754800D01*
X702310Y953770D02*
X703070Y953010D01*
X524435Y1129030D02*
X599440D01*
D73*
X1217676Y645160D02*
Y663503D01*
X1219200Y665027D01*
Y675948D01*
Y686870D02*
Y700532D01*
X1219609Y701139D02*
X1219708Y701040D01*
X1209735Y701139D02*
X1219609D01*
X1209636Y701238D02*
X1209735Y701139D01*
X1219200Y675948D02*
Y686870D01*
X1258570Y677299D02*
Y692150D01*
X1255641Y674370D02*
X1258570Y677299D01*
X1220779Y674370D02*
X1255641D01*
X1219200Y675948D02*
X1220779Y674370D01*
X1258570Y692150D02*
Y700278D01*
Y692150D02*
X1275194D01*
X1275587Y691757D01*
X1219200Y700532D02*
X1219708Y701040D01*
X1294718Y695278D02*
X1297940Y698500D01*
X1275587Y691757D02*
X1292212D01*
X1294718Y694263D01*
Y695278D01*
X1228700Y698348D02*
X1231392Y701040D01*
X1228700Y686870D02*
Y698348D01*
Y645820D02*
X1229360Y645160D01*
X1228700Y645820D02*
Y661870D01*
D74*
X579771Y808893D02*
X580973Y807691D01*
X559990Y808893D02*
X579771D01*
X558651Y810232D02*
X559990Y808893D01*
X576775Y690852D02*
X579639D01*
X566615Y701012D02*
X576775Y690852D01*
X557221Y701012D02*
X566615D01*
X577402Y591543D02*
X580973Y587971D01*
X559990Y591543D02*
X577402D01*
X558651Y592882D02*
X559990Y591543D01*
X1240790Y892416D02*
Y1187450D01*
X1236104Y887730D02*
X1240790Y892416D01*
X1218692Y887730D02*
X1236104D01*
X1205230Y866430D02*
X1230630D01*
X1207980Y910620D02*
X1211580Y914220D01*
X1207008Y897128D02*
X1207980Y898100D01*
Y910620D01*
X1207008Y887730D02*
Y897128D01*
X1205230Y885952D02*
X1207008Y887730D01*
X1205230Y866430D02*
Y885952D01*
X1230630Y866430D02*
X1230630Y866430D01*
X1205230Y866430D02*
X1205230Y866430D01*
D75*
X763270Y891540D02*
X837372Y817438D01*
X800203Y1231900D02*
X834442Y1197662D01*
Y1165808D02*
Y1197662D01*
X683260Y975257D02*
X692047Y966470D01*
X683260Y975257D02*
Y1066800D01*
Y1100688D01*
X796960Y1214388D01*
X837372Y817438D02*
X852837D01*
X856647Y821248D01*
X872833D01*
X693420Y961390D02*
X763270Y891540D01*
X879051Y808910D02*
Y811399D01*
X855877Y1060817D02*
X900798D01*
X739140Y989330D02*
X739775Y988695D01*
X675640Y1207770D02*
X699770Y1231900D01*
X900798Y1024522D02*
X927100Y998220D01*
X699770Y1231900D02*
X800203D01*
X692047Y966470D02*
X717550D01*
X879051Y808910D02*
X880240Y807720D01*
X900798Y1024522D02*
Y1060817D01*
X1018318Y1204811D02*
X1025589D01*
X875508Y818574D02*
X878268Y815813D01*
X840105Y1160145D02*
X906780Y1226820D01*
X878268Y812182D02*
X879051Y811399D01*
X906780Y1226820D02*
X995680D01*
X810860Y1214388D02*
X827638Y1197610D01*
X834442Y1165808D02*
X840105Y1160145D01*
X995680Y1226820D02*
X1017270Y1205230D01*
X796960Y1214388D02*
X810860D01*
X844550Y1155700D02*
X847090Y1153160D01*
Y1069604D02*
X855877Y1060817D01*
X847090Y1069604D02*
Y1153160D01*
X717550Y966470D02*
X742950Y991870D01*
X827638Y1197610D02*
X829310D01*
X878268Y812182D02*
Y815813D01*
X1025589Y1204811D02*
X1027430Y1205230D01*
X1017270D02*
X1018318Y1204811D01*
X872833Y821248D02*
X875508Y818574D01*
X837372Y787140D02*
Y817438D01*
D76*
X703580Y696360D02*
X733530D01*
X739140Y690750D01*
X693420Y830580D02*
X694690Y831850D01*
X740918D02*
X741680Y831088D01*
X703580Y746360D02*
X717878D01*
X724757Y753240D01*
X739140D01*
X802640Y693800D02*
X802765Y693675D01*
X822835D01*
X822960Y693550D01*
X694690Y831850D02*
X740918D01*
D77*
X721360Y1197610D02*
D03*
X767080Y996950D02*
D03*
X803910Y1197610D02*
D03*
X952500Y998220D02*
D03*
X1240790Y1187450D02*
D03*
X1003300Y998220D02*
D03*
X977900D02*
D03*
X843280Y996950D02*
D03*
X1028700Y998220D02*
D03*
X1054100D02*
D03*
X792480Y996950D02*
D03*
X817880D02*
D03*
X868680D02*
D03*
X923290Y1197610D02*
D03*
D78*
X1085626Y824630D02*
D03*
X697681Y876110D02*
D03*
X723081D02*
D03*
X672281D02*
D03*
X1085626Y773830D02*
D03*
Y799230D02*
D03*
D79*
X646881Y876110D02*
D03*
D80*
X1438910Y1189140D02*
D03*
Y466940D02*
D03*
D81*
X1360210Y1107140D02*
D03*
X1517610Y555140D02*
D03*
D82*
Y1189140D02*
D03*
D83*
X1215390Y1187450D02*
D03*
X927100Y998220D02*
D03*
X829310Y1197610D02*
D03*
X741680Y996950D02*
D03*
X948690Y1197610D02*
D03*
X746760D02*
D03*
D84*
X1085626Y748430D02*
D03*
D85*
X703580Y696360D02*
D03*
Y746360D02*
D03*
D86*
X1056640Y703580D02*
D03*
X1033780Y699770D02*
D03*
X1074420Y711200D02*
D03*
X1124270Y612140D02*
D03*
X982980Y530860D02*
D03*
X949960Y648970D02*
D03*
X1124270Y452120D02*
D03*
X737870Y706121D02*
D03*
X822960Y676910D02*
D03*
X816610Y713740D02*
D03*
X739140Y740410D02*
D03*
X885190Y648970D02*
D03*
X887730Y622170D02*
D03*
X646430Y1207770D02*
D03*
X676910Y1244600D02*
D03*
X849630Y792352D02*
D03*
X726440Y806450D02*
D03*
X895709Y805070D02*
D03*
X726440Y843280D02*
D03*
X864870Y807720D02*
D03*
X833120Y1085850D02*
D03*
X1044270Y452120D02*
D03*
X1184270Y612140D02*
D03*
X1164270D02*
D03*
X1184270Y452120D02*
D03*
X953770Y621030D02*
D03*
X971550D02*
D03*
X1029970Y789940D02*
D03*
X1042670Y763270D02*
D03*
Y1104900D02*
D03*
X1069340Y1107700D02*
D03*
X989750Y1104390D02*
D03*
X1247473Y674516D02*
D03*
X1233503Y887876D02*
D03*
X1144270Y452120D02*
D03*
X1104270D02*
D03*
X1084580Y693420D02*
D03*
X1164270Y452120D02*
D03*
X1104270Y612140D02*
D03*
X1042670Y742950D02*
D03*
X640080Y631190D02*
D03*
X657860Y621030D02*
D03*
X1228090Y722630D02*
D03*
X1219533Y867556D02*
D03*
X1230630Y802640D02*
D03*
X534670Y570230D02*
D03*
Y674370D02*
D03*
X538480Y784860D02*
D03*
X551180Y916940D02*
D03*
X886460Y544830D02*
D03*
X558651Y920722D02*
D03*
X557530Y1043603D02*
D03*
X896620Y552450D02*
D03*
X1042250Y1072390D02*
D03*
X989798Y1074380D02*
D03*
X1069340Y1080392D02*
D03*
X891540Y544830D02*
D03*
X929679Y867410D02*
D03*
X986790Y1252220D02*
D03*
X1069340Y1092628D02*
D03*
X831850Y739099D02*
D03*
X935990Y861060D02*
D03*
X957580Y820848D02*
D03*
X953770Y829310D02*
D03*
X957580Y1254760D02*
D03*
D87*
X1100198Y600198D02*
D03*
X1099192Y702751D02*
D03*
X1075000Y650000D02*
D03*
X1050000Y600000D02*
D03*
X1200000D02*
D03*
X1144892Y594892D02*
D03*
X1025000Y650000D02*
D03*
X950000Y600000D02*
D03*
X1000000D02*
D03*
X600000D02*
D03*
Y800000D02*
D03*
Y900000D02*
D03*
X625000Y950000D02*
D03*
X600000Y1000000D02*
D03*
X625000Y1050000D02*
D03*
X600000Y1100000D02*
D03*
X625000Y1150000D02*
D03*
X675000Y650000D02*
D03*
X650000Y700000D02*
D03*
X675000Y750000D02*
D03*
X650000Y800000D02*
D03*
X675000Y850000D02*
D03*
X650000Y900000D02*
D03*
X675000Y950000D02*
D03*
X650000Y1000000D02*
D03*
Y1100000D02*
D03*
X675000Y1150000D02*
D03*
X725000Y650000D02*
D03*
X700000Y900000D02*
D03*
X725000Y950000D02*
D03*
X700000Y1000000D02*
D03*
X725000Y1050000D02*
D03*
X700000Y1100000D02*
D03*
X775000Y650000D02*
D03*
X750000Y800000D02*
D03*
X775000Y850000D02*
D03*
Y950000D02*
D03*
Y1050000D02*
D03*
Y1150000D02*
D03*
X825000Y850000D02*
D03*
Y1150000D02*
D03*
X875000Y850000D02*
D03*
X850000Y900000D02*
D03*
X875000Y950000D02*
D03*
Y1150000D02*
D03*
X900000Y700000D02*
D03*
X925000Y750000D02*
D03*
X900000Y900000D02*
D03*
X925000Y950000D02*
D03*
X900000Y1000000D02*
D03*
Y1100000D02*
D03*
X950000Y700000D02*
D03*
X975000Y850000D02*
D03*
Y950000D02*
D03*
Y1050000D02*
D03*
X950000Y1100000D02*
D03*
X975000Y1150000D02*
D03*
X1000000Y800000D02*
D03*
X1025000Y850000D02*
D03*
X1000000Y900000D02*
D03*
X1025000Y950000D02*
D03*
Y1050000D02*
D03*
Y1150000D02*
D03*
X1075000D02*
D03*
X1125000Y650000D02*
D03*
Y750000D02*
D03*
Y850000D02*
D03*
X1100000Y900000D02*
D03*
X1125000Y950000D02*
D03*
X1100000Y1000000D02*
D03*
X1125000Y1050000D02*
D03*
X1100000Y1100000D02*
D03*
X1125000Y1150000D02*
D03*
X1175000Y650000D02*
D03*
X1150000Y700000D02*
D03*
Y800000D02*
D03*
Y900000D02*
D03*
X1175000Y950000D02*
D03*
X1150000Y1000000D02*
D03*
X1175000Y1050000D02*
D03*
X1150000Y1100000D02*
D03*
X1175000Y1150000D02*
D03*
X1200000Y700000D02*
D03*
X1225000Y950000D02*
D03*
X1200000Y1000000D02*
D03*
X1225000Y1050000D02*
D03*
X1200000Y1100000D02*
D03*
X1225000Y1150000D02*
D03*
X1250000Y600000D02*
D03*
X1275000Y650000D02*
D03*
X1250000Y700000D02*
D03*
Y900000D02*
D03*
X1275000Y950000D02*
D03*
X1250000Y1000000D02*
D03*
X1275000Y1050000D02*
D03*
X1250000Y1100000D02*
D03*
X1275000Y1150000D02*
D03*
X598172Y700000D02*
D03*
X1069340Y1068708D02*
D03*
X1014600Y789940D02*
D03*
X880240Y807720D02*
D03*
X971550Y636270D02*
D03*
X887730Y637670D02*
D03*
X900120Y562610D02*
D03*
X899990Y576580D02*
D03*
X802640Y677800D02*
D03*
D88*
X1508760Y406400D02*
D03*
X1506220Y1250950D02*
D03*
X519430Y416560D02*
D03*
X516890Y1242060D02*
D03*
M02*
