G04*
G04 #@! TF.GenerationSoftware,Altium Limited,Altium Designer,25.8.1 (18)*
G04*
G04 Layer_Color=16711935*
%FSLAX44Y44*%
%MOMM*%
G71*
G04*
G04 #@! TF.SameCoordinates,AA280DD8-45CF-45BC-BA98-0C41F0D0A2F3*
G04*
G04*
G04 #@! TF.FilePolarity,Positive*
G04*
G01*
G75*
%ADD11C,0.2000*%
%ADD12C,0.1000*%
%ADD15C,0.1270*%
%ADD18C,0.0762*%
%ADD92C,0.0254*%
D11*
X1220630Y836680D02*
X1240630D01*
X1220630D02*
Y866680D01*
X1240630D01*
Y836680D02*
Y866680D01*
X1195230Y836680D02*
X1215230D01*
X1195230D02*
Y866680D01*
X1215230D01*
Y836680D02*
Y866680D01*
D12*
X1312590Y710790D02*
Y754790D01*
X1283290Y710790D02*
Y754790D01*
X1312590D01*
X1283290Y710790D02*
X1312590D01*
X1283290Y717290D02*
X1289790Y710790D01*
X1244320Y734950D02*
Y750950D01*
X1272820D01*
Y734950D02*
Y750950D01*
X1244320Y734950D02*
X1272820D01*
X1244320Y744450D02*
X1253820Y734950D01*
X1234000Y666370D02*
Y682370D01*
X1204400Y666370D02*
X1234000D01*
X1204400D02*
Y682370D01*
X1234000D01*
X1224500D02*
X1234000Y672870D01*
X1198260Y909200D02*
Y960240D01*
X1224900D01*
Y909200D02*
Y960240D01*
X1198260Y909200D02*
X1224900D01*
X1198260Y916940D02*
X1206000Y909200D01*
X1202930Y741920D02*
Y771920D01*
X1232930D01*
Y741920D02*
Y771920D01*
X1202930Y741920D02*
X1232930D01*
X1202930Y748420D02*
X1209430Y741920D01*
X993500Y1065890D02*
X1038500D01*
Y1110890D01*
X993500D02*
X1038500D01*
X993500Y1065890D02*
Y1110890D01*
X877100Y781520D02*
X977100D01*
Y681520D02*
Y781520D01*
X877100Y681520D02*
X977100D01*
X877100D02*
Y781520D01*
Y776520D02*
X882100Y781520D01*
X758550Y1059540D02*
X803550D01*
Y1104540D01*
X758550D02*
X803550D01*
X758550Y1059540D02*
Y1104540D01*
X1043050Y760540D02*
Y768540D01*
X1027050D02*
X1043050D01*
X1027050Y760540D02*
Y768540D01*
Y760540D02*
X1043050D01*
X707920Y795580D02*
Y833580D01*
X623920D02*
X707920D01*
X623920Y795580D02*
Y833580D01*
Y795580D02*
X707920D01*
X949770Y620650D02*
X957770D01*
Y636650D01*
X949770D02*
X957770D01*
X949770Y620650D02*
Y636650D01*
X798640Y677800D02*
X806640D01*
Y693800D01*
X798640D02*
X806640D01*
X798640Y677800D02*
Y693800D01*
D15*
X1438910Y1223040D02*
Y1238040D01*
X1431410Y1230540D02*
X1446410D01*
X1335660Y442790D02*
X1542160D01*
Y1213290D01*
X1335660D02*
X1542160D01*
X1335660Y442790D02*
Y1213290D01*
X1438910Y418040D02*
Y433040D01*
D18*
X1120616Y567055D02*
X1110036D01*
X1107920Y564939D01*
Y560707D01*
X1110036Y558591D01*
X1120616D01*
X1107920Y554359D02*
Y550127D01*
Y552243D01*
X1120616D01*
X1118500Y554359D01*
D92*
X1185032Y607187D02*
G03*
X1185032Y607187I-762J0D01*
G01*
X1199233Y535178D02*
G03*
X1199233Y529082I0J-3048D01*
G01*
X1029307Y452120D02*
Y612140D01*
Y452120D02*
X1199233D01*
Y612140D01*
X1029307D02*
X1199233D01*
M02*
