G04*
G04 #@! TF.GenerationSoftware,Altium Limited,Altium Designer,25.8.1 (18)*
G04*
G04 Layer_Color=32768*
%FSLAX44Y44*%
%MOMM*%
G71*
G04*
G04 #@! TF.SameCoordinates,AA280DD8-45CF-45BC-BA98-0C41F0D0A2F3*
G04*
G04*
G04 #@! TF.FilePolarity,Positive*
G04*
G01*
G75*
%ADD10C,0.1524*%
%ADD12C,0.1000*%
%ADD91C,0.0500*%
G36*
X1036777Y614680D02*
Y619633D01*
X1191763D01*
Y614680D01*
X1201773D01*
Y449580D01*
X1191763D01*
Y444627D01*
X1036777D01*
Y449580D01*
X1026767D01*
Y614680D01*
X1036777D01*
D02*
G37*
D10*
Y619633D02*
X1191763D01*
Y614680D02*
Y619633D01*
Y444627D02*
Y449580D01*
X1036777Y444627D02*
X1191763D01*
X1036777D02*
Y449580D01*
Y614680D02*
Y619633D01*
X1026767Y614680D02*
X1036777D01*
X1191763D02*
X1201773D01*
Y449580D02*
Y614680D01*
X1191763Y449580D02*
X1201773D01*
X1026767D02*
X1036777D01*
X1026767D02*
Y614680D01*
D12*
X1210630Y819680D02*
X1250630D01*
X1210630D02*
Y883680D01*
X1250630D01*
Y819680D02*
Y883680D01*
X1185230Y819680D02*
X1225230D01*
X1185230D02*
Y883680D01*
X1225230D01*
Y819680D02*
Y883680D01*
X972000Y1120890D02*
X1060000D01*
Y1055890D02*
Y1120890D01*
X972000Y1055890D02*
X1060000D01*
X972000D02*
Y1120890D01*
X737050Y1114540D02*
X825050D01*
Y1049540D02*
Y1114540D01*
X737050Y1049540D02*
X825050D01*
X737050D02*
Y1114540D01*
X717920Y779080D02*
Y850080D01*
X613920D02*
X717920D01*
X613920Y779080D02*
Y850080D01*
Y779080D02*
X717920D01*
D91*
X1280290Y693540D02*
Y772040D01*
X1315590D01*
Y693540D02*
Y772040D01*
X1280290Y693540D02*
X1315590D01*
X1241070Y721950D02*
Y763950D01*
X1276070D01*
Y721950D02*
Y763950D01*
X1241070Y721950D02*
X1276070D01*
X1237200Y653370D02*
Y695370D01*
X1201200Y653370D02*
X1237200D01*
X1201200D02*
Y695370D01*
X1237200D01*
X1195130Y900720D02*
Y968720D01*
X1228030D01*
Y900720D02*
Y968720D01*
X1195130Y900720D02*
X1228030D01*
X1199930Y725170D02*
Y788670D01*
X1235930D01*
Y725170D02*
Y788670D01*
X1199930Y725170D02*
X1235930D01*
X1333160Y440290D02*
X1544660D01*
Y1215790D01*
X1333160D02*
X1544660D01*
X1333160Y440290D02*
Y1215790D01*
X859850Y798770D02*
X994350D01*
Y664270D02*
Y798770D01*
X859850Y664270D02*
X994350D01*
X859850D02*
Y798770D01*
X1047300Y758340D02*
Y770740D01*
X1022800D02*
X1047300D01*
X1022800Y758340D02*
Y770740D01*
Y758340D02*
X1047300D01*
X947570Y616400D02*
X959970D01*
Y640900D01*
X947570D02*
X959970D01*
X947570Y616400D02*
Y640900D01*
X795140Y670550D02*
X810140D01*
Y701050D01*
X795140D02*
X810140D01*
X795140Y670550D02*
Y701050D01*
M02*
