G04*
G04 #@! TF.GenerationSoftware,Altium Limited,Altium Designer,25.8.1 (18)*
G04*
G04 Layer_Color=16711935*
%FSLAX44Y44*%
%MOMM*%
G71*
G04*
G04 #@! TF.SameCoordinates,AA280DD8-45CF-45BC-BA98-0C41F0D0A2F3*
G04*
G04*
G04 #@! TF.FilePolarity,Negative*
G04*
G01*
G75*
%ADD59C,1.7032*%
%ADD60C,1.7780*%
%ADD61R,1.7780X1.7780*%
%ADD62C,2.1832*%
%ADD63C,3.7532*%
%ADD64C,2.5932*%
%ADD65R,1.7032X1.7032*%
%ADD66R,1.7780X1.7780*%
%ADD68C,0.6602*%
%ADD69C,5.2032*%
%ADD90O,2.2032X1.4032*%
D59*
X721360Y1197610D02*
D03*
X767080Y996950D02*
D03*
X803910Y1197610D02*
D03*
X952500Y998220D02*
D03*
X1240790Y1187450D02*
D03*
X1003300Y998220D02*
D03*
X977900D02*
D03*
X843280Y996950D02*
D03*
X1028700Y998220D02*
D03*
X1054100D02*
D03*
X792480Y996950D02*
D03*
X817880D02*
D03*
X868680D02*
D03*
X923290Y1197610D02*
D03*
D60*
X1085626Y824630D02*
D03*
X697681Y876110D02*
D03*
X723081D02*
D03*
X672281D02*
D03*
X1085626Y773830D02*
D03*
Y799230D02*
D03*
D61*
X646881Y876110D02*
D03*
D62*
X1438910Y1189140D02*
D03*
Y466940D02*
D03*
D63*
X1360210Y1107140D02*
D03*
X1517610Y555140D02*
D03*
D64*
Y1189140D02*
D03*
D65*
X1215390Y1187450D02*
D03*
X927100Y998220D02*
D03*
X829310Y1197610D02*
D03*
X741680Y996950D02*
D03*
X948690Y1197610D02*
D03*
X746760D02*
D03*
D66*
X1085626Y748430D02*
D03*
D68*
X1100198Y600198D02*
D03*
X1099192Y702751D02*
D03*
X1075000Y650000D02*
D03*
X1050000Y600000D02*
D03*
X1200000D02*
D03*
X1144892Y594892D02*
D03*
X1025000Y650000D02*
D03*
X950000Y600000D02*
D03*
X1000000D02*
D03*
X600000D02*
D03*
Y800000D02*
D03*
Y900000D02*
D03*
X625000Y950000D02*
D03*
X600000Y1000000D02*
D03*
X625000Y1050000D02*
D03*
X600000Y1100000D02*
D03*
X625000Y1150000D02*
D03*
X675000Y650000D02*
D03*
X650000Y700000D02*
D03*
X675000Y750000D02*
D03*
X650000Y800000D02*
D03*
X675000Y850000D02*
D03*
X650000Y900000D02*
D03*
X675000Y950000D02*
D03*
X650000Y1000000D02*
D03*
Y1100000D02*
D03*
X675000Y1150000D02*
D03*
X725000Y650000D02*
D03*
X700000Y900000D02*
D03*
X725000Y950000D02*
D03*
X700000Y1000000D02*
D03*
X725000Y1050000D02*
D03*
X700000Y1100000D02*
D03*
X775000Y650000D02*
D03*
X750000Y800000D02*
D03*
X775000Y850000D02*
D03*
Y950000D02*
D03*
Y1050000D02*
D03*
Y1150000D02*
D03*
X825000Y850000D02*
D03*
Y1150000D02*
D03*
X875000Y850000D02*
D03*
X850000Y900000D02*
D03*
X875000Y950000D02*
D03*
Y1150000D02*
D03*
X900000Y700000D02*
D03*
X925000Y750000D02*
D03*
X900000Y900000D02*
D03*
X925000Y950000D02*
D03*
X900000Y1000000D02*
D03*
Y1100000D02*
D03*
X950000Y700000D02*
D03*
X975000Y850000D02*
D03*
Y950000D02*
D03*
Y1050000D02*
D03*
X950000Y1100000D02*
D03*
X975000Y1150000D02*
D03*
X1000000Y800000D02*
D03*
X1025000Y850000D02*
D03*
X1000000Y900000D02*
D03*
X1025000Y950000D02*
D03*
Y1050000D02*
D03*
Y1150000D02*
D03*
X1075000D02*
D03*
X1125000Y650000D02*
D03*
Y750000D02*
D03*
Y850000D02*
D03*
X1100000Y900000D02*
D03*
X1125000Y950000D02*
D03*
X1100000Y1000000D02*
D03*
X1125000Y1050000D02*
D03*
X1100000Y1100000D02*
D03*
X1125000Y1150000D02*
D03*
X1175000Y650000D02*
D03*
X1150000Y700000D02*
D03*
Y800000D02*
D03*
Y900000D02*
D03*
X1175000Y950000D02*
D03*
X1150000Y1000000D02*
D03*
X1175000Y1050000D02*
D03*
X1150000Y1100000D02*
D03*
X1175000Y1150000D02*
D03*
X1200000Y700000D02*
D03*
X1225000Y950000D02*
D03*
X1200000Y1000000D02*
D03*
X1225000Y1050000D02*
D03*
X1200000Y1100000D02*
D03*
X1225000Y1150000D02*
D03*
X1250000Y600000D02*
D03*
X1275000Y650000D02*
D03*
X1250000Y700000D02*
D03*
Y900000D02*
D03*
X1275000Y950000D02*
D03*
X1250000Y1000000D02*
D03*
X1275000Y1050000D02*
D03*
X1250000Y1100000D02*
D03*
X1275000Y1150000D02*
D03*
X598172Y700000D02*
D03*
X1069340Y1068708D02*
D03*
X1014600Y789940D02*
D03*
X880240Y807720D02*
D03*
X971550Y636270D02*
D03*
X887730Y637670D02*
D03*
X900120Y562610D02*
D03*
X899990Y576580D02*
D03*
X802640Y677800D02*
D03*
D69*
X1508760Y406400D02*
D03*
X1506220Y1250950D02*
D03*
X519430Y416560D02*
D03*
X516890Y1242060D02*
D03*
D90*
X703580Y696360D02*
D03*
Y746360D02*
D03*
M02*
