G04*
G04 #@! TF.GenerationSoftware,Altium Limited,Altium Designer,25.8.1 (18)*
G04*
G04 Layer_Physical_Order=2*
G04 Layer_Color=16711680*
%FSLAX44Y44*%
%MOMM*%
G71*
G04*
G04 #@! TF.SameCoordinates,AA280DD8-45CF-45BC-BA98-0C41F0D0A2F3*
G04*
G04*
G04 #@! TF.FilePolarity,Positive*
G04*
G01*
G75*
%ADD11C,0.2000*%
%ADD70C,0.2030*%
%ADD72C,1.0000*%
%ADD73C,0.5000*%
%ADD76C,0.4000*%
%ADD77C,1.5000*%
%ADD78C,1.5748*%
%ADD79R,1.5748X1.5748*%
%ADD80C,1.9800*%
%ADD81C,3.5500*%
%ADD82C,2.3900*%
%ADD83R,1.5000X1.5000*%
%ADD84R,1.5748X1.5748*%
%ADD86C,0.4572*%
%ADD87C,0.4570*%
%ADD88C,5.0000*%
%ADD89O,2.0000X1.2000*%
G36*
X1549246Y1263804D02*
X1549246Y1263804D01*
X1549886Y1263164D01*
X1550893Y1261657D01*
X1551586Y1259983D01*
X1551940Y1258206D01*
X1551940Y1257300D01*
X1552242Y1256998D01*
X1552717Y1256288D01*
X1553043Y1255499D01*
X1553210Y1254661D01*
X1553210Y1254234D01*
X1553210Y396022D01*
X1553210Y396022D01*
X1553210Y395168D01*
X1552877Y393493D01*
X1552223Y391914D01*
X1551274Y390494D01*
X1539059Y378279D01*
X1537290Y376511D01*
X1534125Y374395D01*
X1534037Y374337D01*
X1521099Y370840D01*
X505859D01*
X500952Y371816D01*
X496330Y373731D01*
X492169Y376511D01*
X490401Y378279D01*
X478610Y390070D01*
X478610D01*
X476841Y391839D01*
X474061Y396000D01*
X472146Y400622D01*
X471170Y405529D01*
X471170Y408031D01*
Y1250589D01*
X471170Y1253091D01*
X472146Y1257998D01*
X474061Y1262620D01*
X476841Y1266780D01*
X478610Y1268549D01*
X488285Y1278225D01*
X489131Y1279070D01*
X489131Y1279071D01*
X489131Y1279071D01*
X490899Y1280840D01*
X495060Y1283619D01*
X499682Y1285534D01*
X504589Y1286510D01*
X507091Y1286510D01*
X1526540Y1286510D01*
X1549246Y1263804D01*
D02*
G37*
%LPC*%
G36*
X1508387Y1278490D02*
X1507490D01*
Y1252220D01*
X1533760D01*
Y1253118D01*
X1533082Y1257399D01*
X1531742Y1261522D01*
X1529774Y1265384D01*
X1527226Y1268891D01*
X1524161Y1271956D01*
X1520654Y1274504D01*
X1516792Y1276472D01*
X1512669Y1277812D01*
X1508387Y1278490D01*
D02*
G37*
G36*
X1504950D02*
X1504052D01*
X1499771Y1277812D01*
X1495648Y1276472D01*
X1491786Y1274504D01*
X1488279Y1271956D01*
X1485214Y1268891D01*
X1482666Y1265384D01*
X1480698Y1261522D01*
X1479358Y1257399D01*
X1478680Y1253118D01*
Y1252220D01*
X1504950D01*
Y1278490D01*
D02*
G37*
G36*
X678180Y1249298D02*
Y1245870D01*
X681608D01*
X681001Y1247334D01*
X679644Y1248691D01*
X678180Y1249298D01*
D02*
G37*
G36*
X675640D02*
X674176Y1248691D01*
X672819Y1247334D01*
X672212Y1245870D01*
X675640D01*
Y1249298D01*
D02*
G37*
G36*
X681608Y1243330D02*
X678180D01*
Y1239902D01*
X679644Y1240509D01*
X681001Y1241866D01*
X681608Y1243330D01*
D02*
G37*
G36*
X675640D02*
X672212D01*
X672819Y1241866D01*
X674176Y1240509D01*
X675640Y1239902D01*
Y1243330D01*
D02*
G37*
G36*
X1533760Y1249680D02*
X1507490D01*
Y1223410D01*
X1508387D01*
X1512669Y1224088D01*
X1516792Y1225428D01*
X1520654Y1227396D01*
X1524161Y1229944D01*
X1527226Y1233009D01*
X1529774Y1236516D01*
X1531742Y1240378D01*
X1533082Y1244501D01*
X1533760Y1248783D01*
Y1249680D01*
D02*
G37*
G36*
X1504950D02*
X1478680D01*
Y1248783D01*
X1479358Y1244501D01*
X1480698Y1240378D01*
X1482666Y1236516D01*
X1485214Y1233009D01*
X1488279Y1229944D01*
X1491786Y1227396D01*
X1495648Y1225428D01*
X1499771Y1224088D01*
X1504052Y1223410D01*
X1504950D01*
Y1249680D01*
D02*
G37*
G36*
X518997Y1268838D02*
X514782D01*
X510620Y1268179D01*
X506611Y1266876D01*
X502855Y1264963D01*
X499445Y1262485D01*
X496465Y1259505D01*
X493987Y1256095D01*
X492074Y1252339D01*
X490771Y1248331D01*
X490112Y1244167D01*
Y1239952D01*
X490771Y1235789D01*
X492074Y1231781D01*
X493987Y1228025D01*
X496465Y1224615D01*
X499445Y1221635D01*
X502855Y1219157D01*
X506611Y1217244D01*
X510620Y1215941D01*
X514782Y1215282D01*
X518997D01*
X523161Y1215941D01*
X527169Y1217244D01*
X530925Y1219157D01*
X534335Y1221635D01*
X537315Y1224615D01*
X539793Y1228025D01*
X541706Y1231781D01*
X543009Y1235789D01*
X543668Y1239952D01*
Y1244167D01*
X543009Y1248331D01*
X541706Y1252339D01*
X539793Y1256095D01*
X537315Y1259505D01*
X534335Y1262485D01*
X530925Y1264963D01*
X527169Y1266876D01*
X523161Y1268179D01*
X518997Y1268838D01*
D02*
G37*
G36*
X647700Y1212468D02*
Y1209040D01*
X651128D01*
X650521Y1210504D01*
X649164Y1211861D01*
X647700Y1212468D01*
D02*
G37*
G36*
X645160D02*
X643696Y1211861D01*
X642339Y1210504D01*
X641732Y1209040D01*
X645160D01*
Y1212468D01*
D02*
G37*
G36*
X651128Y1206500D02*
X647700D01*
Y1203072D01*
X649164Y1203679D01*
X650521Y1205036D01*
X651128Y1206500D01*
D02*
G37*
G36*
X645160D02*
X641732D01*
X642339Y1205036D01*
X643696Y1203679D01*
X645160Y1203072D01*
Y1206500D01*
D02*
G37*
G36*
X722682Y1207650D02*
X722630D01*
Y1198880D01*
X731400D01*
Y1198932D01*
X730716Y1201485D01*
X729394Y1203775D01*
X727525Y1205644D01*
X725235Y1206966D01*
X722682Y1207650D01*
D02*
G37*
G36*
X805232D02*
X805180D01*
Y1198880D01*
X813950D01*
Y1198932D01*
X813266Y1201485D01*
X811944Y1203775D01*
X810075Y1205644D01*
X807785Y1206966D01*
X805232Y1207650D01*
D02*
G37*
G36*
X720090D02*
X720038D01*
X717485Y1206966D01*
X715195Y1205644D01*
X713326Y1203775D01*
X712004Y1201485D01*
X711320Y1198932D01*
Y1198880D01*
X720090D01*
Y1207650D01*
D02*
G37*
G36*
X802640D02*
X802588D01*
X800035Y1206966D01*
X797745Y1205644D01*
X795876Y1203775D01*
X794554Y1201485D01*
X793870Y1198932D01*
Y1198880D01*
X802640D01*
Y1207650D01*
D02*
G37*
G36*
X1242112Y1197490D02*
X1242060D01*
Y1188720D01*
X1250830D01*
Y1188772D01*
X1250146Y1191325D01*
X1248824Y1193615D01*
X1246955Y1195484D01*
X1244665Y1196806D01*
X1242112Y1197490D01*
D02*
G37*
G36*
X1239520D02*
X1239468D01*
X1236915Y1196806D01*
X1234625Y1195484D01*
X1232756Y1193615D01*
X1231434Y1191325D01*
X1230750Y1188772D01*
Y1188720D01*
X1239520D01*
Y1197490D01*
D02*
G37*
G36*
X987598Y1256284D02*
X985982D01*
X984488Y1255665D01*
X983345Y1254522D01*
X982726Y1253028D01*
Y1252152D01*
X982672Y1251882D01*
Y1233080D01*
X956481Y1206888D01*
X939412D01*
Y1188332D01*
X957968D01*
Y1201192D01*
X958673Y1201332D01*
X959597Y1201949D01*
X987534Y1229886D01*
X988151Y1230810D01*
X988368Y1231900D01*
X988368Y1231900D01*
Y1248475D01*
X989092Y1248775D01*
X990235Y1249918D01*
X990854Y1251412D01*
Y1253028D01*
X990235Y1254522D01*
X989092Y1255665D01*
X987598Y1256284D01*
D02*
G37*
G36*
X958388Y1258824D02*
X956772D01*
X955278Y1258205D01*
X954135Y1257062D01*
X953516Y1255568D01*
Y1254723D01*
X923816Y1225024D01*
X923199Y1224100D01*
X922982Y1223010D01*
X922982Y1223010D01*
Y1206888D01*
X922068D01*
X919709Y1206256D01*
X917593Y1205034D01*
X915866Y1203307D01*
X914644Y1201191D01*
X914012Y1198831D01*
Y1196388D01*
X914644Y1194029D01*
X915866Y1191913D01*
X917593Y1190186D01*
X919709Y1188964D01*
X922068Y1188332D01*
X924511D01*
X926871Y1188964D01*
X928987Y1190186D01*
X930714Y1191913D01*
X931936Y1194029D01*
X932568Y1196388D01*
Y1198831D01*
X931936Y1201191D01*
X930714Y1203307D01*
X928987Y1205034D01*
X928665Y1205220D01*
X928678Y1205284D01*
X928678Y1205284D01*
Y1221830D01*
X957543Y1250696D01*
X958388D01*
X959882Y1251315D01*
X961025Y1252458D01*
X961644Y1253952D01*
Y1255568D01*
X961025Y1257062D01*
X959882Y1258205D01*
X958388Y1258824D01*
D02*
G37*
G36*
X838588Y1206888D02*
X820032D01*
Y1188332D01*
X838588D01*
Y1206888D01*
D02*
G37*
G36*
X756038D02*
X737482D01*
Y1188332D01*
X756038D01*
Y1206888D01*
D02*
G37*
G36*
X813950Y1196340D02*
X805180D01*
Y1187570D01*
X805232D01*
X807785Y1188254D01*
X810075Y1189576D01*
X811944Y1191445D01*
X813266Y1193735D01*
X813950Y1196288D01*
Y1196340D01*
D02*
G37*
G36*
X802640D02*
X793870D01*
Y1196288D01*
X794554Y1193735D01*
X795876Y1191445D01*
X797745Y1189576D01*
X800035Y1188254D01*
X802588Y1187570D01*
X802640D01*
Y1196340D01*
D02*
G37*
G36*
X731400D02*
X722630D01*
Y1187570D01*
X722682D01*
X725235Y1188254D01*
X727525Y1189576D01*
X729394Y1191445D01*
X730716Y1193735D01*
X731400Y1196288D01*
Y1196340D01*
D02*
G37*
G36*
X720090D02*
X711320D01*
Y1196288D01*
X712004Y1193735D01*
X713326Y1191445D01*
X715195Y1189576D01*
X717485Y1188254D01*
X720038Y1187570D01*
X720090D01*
Y1196340D01*
D02*
G37*
G36*
X1224668Y1196728D02*
X1206112D01*
Y1178172D01*
X1224668D01*
Y1196728D01*
D02*
G37*
G36*
X1250830Y1186180D02*
X1242060D01*
Y1177410D01*
X1242112D01*
X1244665Y1178094D01*
X1246955Y1179416D01*
X1248824Y1181285D01*
X1250146Y1183575D01*
X1250830Y1186128D01*
Y1186180D01*
D02*
G37*
G36*
X1239520D02*
X1230750D01*
Y1186128D01*
X1231434Y1183575D01*
X1232756Y1181285D01*
X1234625Y1179416D01*
X1236915Y1178094D01*
X1239468Y1177410D01*
X1239520D01*
Y1186180D01*
D02*
G37*
G36*
X1519417Y1202868D02*
X1515803D01*
X1512311Y1201932D01*
X1509181Y1200125D01*
X1506625Y1197569D01*
X1504818Y1194439D01*
X1503882Y1190947D01*
Y1187333D01*
X1504818Y1183841D01*
X1506625Y1180711D01*
X1509181Y1178155D01*
X1512311Y1176348D01*
X1515803Y1175412D01*
X1519417D01*
X1522909Y1176348D01*
X1526039Y1178155D01*
X1528595Y1180711D01*
X1530403Y1183841D01*
X1531338Y1187333D01*
Y1190947D01*
X1530403Y1194439D01*
X1528595Y1197569D01*
X1526039Y1200125D01*
X1522909Y1201932D01*
X1519417Y1202868D01*
D02*
G37*
G36*
X1276270Y1154697D02*
Y1151270D01*
X1279697D01*
X1279090Y1152733D01*
X1277733Y1154090D01*
X1276270Y1154697D01*
D02*
G37*
G36*
X1273730D02*
X1272267Y1154090D01*
X1270910Y1152733D01*
X1270304Y1151270D01*
X1273730D01*
Y1154697D01*
D02*
G37*
G36*
X1226270D02*
Y1151270D01*
X1229697D01*
X1229090Y1152733D01*
X1227733Y1154090D01*
X1226270Y1154697D01*
D02*
G37*
G36*
X1223730D02*
X1222267Y1154090D01*
X1220910Y1152733D01*
X1220304Y1151270D01*
X1223730D01*
Y1154697D01*
D02*
G37*
G36*
X1176270D02*
Y1151270D01*
X1179697D01*
X1179090Y1152733D01*
X1177733Y1154090D01*
X1176270Y1154697D01*
D02*
G37*
G36*
X1173730D02*
X1172267Y1154090D01*
X1170910Y1152733D01*
X1170304Y1151270D01*
X1173730D01*
Y1154697D01*
D02*
G37*
G36*
X1126270D02*
Y1151270D01*
X1129697D01*
X1129090Y1152733D01*
X1127733Y1154090D01*
X1126270Y1154697D01*
D02*
G37*
G36*
X1123730D02*
X1122267Y1154090D01*
X1120910Y1152733D01*
X1120304Y1151270D01*
X1123730D01*
Y1154697D01*
D02*
G37*
G36*
X1076270D02*
Y1151270D01*
X1079697D01*
X1079090Y1152733D01*
X1077733Y1154090D01*
X1076270Y1154697D01*
D02*
G37*
G36*
X1073730D02*
X1072267Y1154090D01*
X1070910Y1152733D01*
X1070303Y1151270D01*
X1073730D01*
Y1154697D01*
D02*
G37*
G36*
X1026270D02*
Y1151270D01*
X1029697D01*
X1029090Y1152733D01*
X1027733Y1154090D01*
X1026270Y1154697D01*
D02*
G37*
G36*
X1023730D02*
X1022267Y1154090D01*
X1020910Y1152733D01*
X1020303Y1151270D01*
X1023730D01*
Y1154697D01*
D02*
G37*
G36*
X976270D02*
Y1151270D01*
X979697D01*
X979090Y1152733D01*
X977733Y1154090D01*
X976270Y1154697D01*
D02*
G37*
G36*
X973730D02*
X972267Y1154090D01*
X970910Y1152733D01*
X970303Y1151270D01*
X973730D01*
Y1154697D01*
D02*
G37*
G36*
X876270D02*
Y1151270D01*
X879697D01*
X879090Y1152733D01*
X877733Y1154090D01*
X876270Y1154697D01*
D02*
G37*
G36*
X873730D02*
X872267Y1154090D01*
X870910Y1152733D01*
X870303Y1151270D01*
X873730D01*
Y1154697D01*
D02*
G37*
G36*
X826270D02*
Y1151270D01*
X829697D01*
X829090Y1152733D01*
X827733Y1154090D01*
X826270Y1154697D01*
D02*
G37*
G36*
X823730D02*
X822267Y1154090D01*
X820910Y1152733D01*
X820303Y1151270D01*
X823730D01*
Y1154697D01*
D02*
G37*
G36*
X776270D02*
Y1151270D01*
X779697D01*
X779090Y1152733D01*
X777733Y1154090D01*
X776270Y1154697D01*
D02*
G37*
G36*
X773730D02*
X772267Y1154090D01*
X770910Y1152733D01*
X770303Y1151270D01*
X773730D01*
Y1154697D01*
D02*
G37*
G36*
X676270D02*
Y1151270D01*
X679697D01*
X679090Y1152733D01*
X677733Y1154090D01*
X676270Y1154697D01*
D02*
G37*
G36*
X673730D02*
X672267Y1154090D01*
X670910Y1152733D01*
X670303Y1151270D01*
X673730D01*
Y1154697D01*
D02*
G37*
G36*
X626270D02*
Y1151270D01*
X629697D01*
X629090Y1152733D01*
X627733Y1154090D01*
X626270Y1154697D01*
D02*
G37*
G36*
X623730D02*
X622267Y1154090D01*
X620910Y1152733D01*
X620303Y1151270D01*
X623730D01*
Y1154697D01*
D02*
G37*
G36*
X1279697Y1148730D02*
X1276270D01*
Y1145304D01*
X1277733Y1145910D01*
X1279090Y1147267D01*
X1279697Y1148730D01*
D02*
G37*
G36*
X1273730D02*
X1270304D01*
X1270910Y1147267D01*
X1272267Y1145910D01*
X1273730Y1145304D01*
Y1148730D01*
D02*
G37*
G36*
X1229697D02*
X1226270D01*
Y1145304D01*
X1227733Y1145910D01*
X1229090Y1147267D01*
X1229697Y1148730D01*
D02*
G37*
G36*
X1223730D02*
X1220304D01*
X1220910Y1147267D01*
X1222267Y1145910D01*
X1223730Y1145304D01*
Y1148730D01*
D02*
G37*
G36*
X1179697D02*
X1176270D01*
Y1145304D01*
X1177733Y1145910D01*
X1179090Y1147267D01*
X1179697Y1148730D01*
D02*
G37*
G36*
X1173730D02*
X1170304D01*
X1170910Y1147267D01*
X1172267Y1145910D01*
X1173730Y1145304D01*
Y1148730D01*
D02*
G37*
G36*
X1129697D02*
X1126270D01*
Y1145304D01*
X1127733Y1145910D01*
X1129090Y1147267D01*
X1129697Y1148730D01*
D02*
G37*
G36*
X1123730D02*
X1120304D01*
X1120910Y1147267D01*
X1122267Y1145910D01*
X1123730Y1145304D01*
Y1148730D01*
D02*
G37*
G36*
X1079697D02*
X1076270D01*
Y1145304D01*
X1077733Y1145910D01*
X1079090Y1147267D01*
X1079697Y1148730D01*
D02*
G37*
G36*
X1073730D02*
X1070303D01*
X1070910Y1147267D01*
X1072267Y1145910D01*
X1073730Y1145304D01*
Y1148730D01*
D02*
G37*
G36*
X1029697D02*
X1026270D01*
Y1145304D01*
X1027733Y1145910D01*
X1029090Y1147267D01*
X1029697Y1148730D01*
D02*
G37*
G36*
X1023730D02*
X1020303D01*
X1020910Y1147267D01*
X1022267Y1145910D01*
X1023730Y1145304D01*
Y1148730D01*
D02*
G37*
G36*
X979697D02*
X976270D01*
Y1145304D01*
X977733Y1145910D01*
X979090Y1147267D01*
X979697Y1148730D01*
D02*
G37*
G36*
X973730D02*
X970303D01*
X970910Y1147267D01*
X972267Y1145910D01*
X973730Y1145304D01*
Y1148730D01*
D02*
G37*
G36*
X879697D02*
X876270D01*
Y1145304D01*
X877733Y1145910D01*
X879090Y1147267D01*
X879697Y1148730D01*
D02*
G37*
G36*
X873730D02*
X870303D01*
X870910Y1147267D01*
X872267Y1145910D01*
X873730Y1145304D01*
Y1148730D01*
D02*
G37*
G36*
X829697D02*
X826270D01*
Y1145304D01*
X827733Y1145910D01*
X829090Y1147267D01*
X829697Y1148730D01*
D02*
G37*
G36*
X823730D02*
X820303D01*
X820910Y1147267D01*
X822267Y1145910D01*
X823730Y1145304D01*
Y1148730D01*
D02*
G37*
G36*
X779697D02*
X776270D01*
Y1145304D01*
X777733Y1145910D01*
X779090Y1147267D01*
X779697Y1148730D01*
D02*
G37*
G36*
X773730D02*
X770303D01*
X770910Y1147267D01*
X772267Y1145910D01*
X773730Y1145304D01*
Y1148730D01*
D02*
G37*
G36*
X679697D02*
X676270D01*
Y1145304D01*
X677733Y1145910D01*
X679090Y1147267D01*
X679697Y1148730D01*
D02*
G37*
G36*
X673730D02*
X670303D01*
X670910Y1147267D01*
X672267Y1145910D01*
X673730Y1145304D01*
Y1148730D01*
D02*
G37*
G36*
X629697D02*
X626270D01*
Y1145304D01*
X627733Y1145910D01*
X629090Y1147267D01*
X629697Y1148730D01*
D02*
G37*
G36*
X623730D02*
X620303D01*
X620910Y1147267D01*
X622267Y1145910D01*
X623730Y1145304D01*
Y1148730D01*
D02*
G37*
G36*
X1070610Y1112398D02*
Y1108970D01*
X1074038D01*
X1073431Y1110434D01*
X1072074Y1111791D01*
X1070610Y1112398D01*
D02*
G37*
G36*
X1068070D02*
X1066606Y1111791D01*
X1065249Y1110434D01*
X1064642Y1108970D01*
X1068070D01*
Y1112398D01*
D02*
G37*
G36*
X1043940Y1109598D02*
Y1106170D01*
X1047368D01*
X1046761Y1107634D01*
X1045404Y1108991D01*
X1043940Y1109598D01*
D02*
G37*
G36*
X1041400D02*
X1039936Y1108991D01*
X1038579Y1107634D01*
X1037972Y1106170D01*
X1041400D01*
Y1109598D01*
D02*
G37*
G36*
X991020Y1109088D02*
Y1105660D01*
X994448D01*
X993841Y1107124D01*
X992484Y1108481D01*
X991020Y1109088D01*
D02*
G37*
G36*
X988480D02*
X987016Y1108481D01*
X985659Y1107124D01*
X985052Y1105660D01*
X988480D01*
Y1109088D01*
D02*
G37*
G36*
X1074038Y1106430D02*
X1070610D01*
Y1103002D01*
X1072074Y1103609D01*
X1073431Y1104966D01*
X1074038Y1106430D01*
D02*
G37*
G36*
X1068070D02*
X1064642D01*
X1065249Y1104966D01*
X1066606Y1103609D01*
X1068070Y1103002D01*
Y1106430D01*
D02*
G37*
G36*
X1251270Y1104697D02*
Y1101270D01*
X1254697D01*
X1254090Y1102733D01*
X1252733Y1104090D01*
X1251270Y1104697D01*
D02*
G37*
G36*
X1248730D02*
X1247267Y1104090D01*
X1245910Y1102733D01*
X1245304Y1101270D01*
X1248730D01*
Y1104697D01*
D02*
G37*
G36*
X1201270D02*
Y1101270D01*
X1204697D01*
X1204090Y1102733D01*
X1202733Y1104090D01*
X1201270Y1104697D01*
D02*
G37*
G36*
X1198730D02*
X1197267Y1104090D01*
X1195910Y1102733D01*
X1195304Y1101270D01*
X1198730D01*
Y1104697D01*
D02*
G37*
G36*
X1151270D02*
Y1101270D01*
X1154697D01*
X1154090Y1102733D01*
X1152733Y1104090D01*
X1151270Y1104697D01*
D02*
G37*
G36*
X1148730D02*
X1147267Y1104090D01*
X1145910Y1102733D01*
X1145304Y1101270D01*
X1148730D01*
Y1104697D01*
D02*
G37*
G36*
X1101270D02*
Y1101270D01*
X1104697D01*
X1104090Y1102733D01*
X1102733Y1104090D01*
X1101270Y1104697D01*
D02*
G37*
G36*
X1098730D02*
X1097267Y1104090D01*
X1095910Y1102733D01*
X1095303Y1101270D01*
X1098730D01*
Y1104697D01*
D02*
G37*
G36*
X951270D02*
Y1101270D01*
X954697D01*
X954090Y1102733D01*
X952733Y1104090D01*
X951270Y1104697D01*
D02*
G37*
G36*
X948730D02*
X947267Y1104090D01*
X945910Y1102733D01*
X945303Y1101270D01*
X948730D01*
Y1104697D01*
D02*
G37*
G36*
X901270D02*
Y1101270D01*
X904697D01*
X904090Y1102733D01*
X902733Y1104090D01*
X901270Y1104697D01*
D02*
G37*
G36*
X898730D02*
X897267Y1104090D01*
X895910Y1102733D01*
X895303Y1101270D01*
X898730D01*
Y1104697D01*
D02*
G37*
G36*
X701270D02*
Y1101270D01*
X704697D01*
X704090Y1102733D01*
X702733Y1104090D01*
X701270Y1104697D01*
D02*
G37*
G36*
X698730D02*
X697267Y1104090D01*
X695910Y1102733D01*
X695303Y1101270D01*
X698730D01*
Y1104697D01*
D02*
G37*
G36*
X651270D02*
Y1101270D01*
X654697D01*
X654090Y1102733D01*
X652733Y1104090D01*
X651270Y1104697D01*
D02*
G37*
G36*
X648730D02*
X647267Y1104090D01*
X645910Y1102733D01*
X645303Y1101270D01*
X648730D01*
Y1104697D01*
D02*
G37*
G36*
X601270D02*
Y1101270D01*
X604697D01*
X604090Y1102733D01*
X602733Y1104090D01*
X601270Y1104697D01*
D02*
G37*
G36*
X598730D02*
X597267Y1104090D01*
X595910Y1102733D01*
X595303Y1101270D01*
X598730D01*
Y1104697D01*
D02*
G37*
G36*
X1047368Y1103630D02*
X1043940D01*
Y1100202D01*
X1045404Y1100809D01*
X1046761Y1102166D01*
X1047368Y1103630D01*
D02*
G37*
G36*
X1041400D02*
X1037972D01*
X1038579Y1102166D01*
X1039936Y1100809D01*
X1041400Y1100202D01*
Y1103630D01*
D02*
G37*
G36*
X994448Y1103120D02*
X991020D01*
Y1099692D01*
X992484Y1100299D01*
X993841Y1101656D01*
X994448Y1103120D01*
D02*
G37*
G36*
X988480D02*
X985052D01*
X985659Y1101656D01*
X987016Y1100299D01*
X988480Y1099692D01*
Y1103120D01*
D02*
G37*
G36*
X1070148Y1096692D02*
X1068532D01*
X1067756Y1096371D01*
X1063777D01*
X1063777Y1096371D01*
X1062303Y1096077D01*
X1061053Y1095242D01*
X1042265Y1076454D01*
X1041441D01*
X1040996Y1076270D01*
X1019391D01*
X1018557Y1077104D01*
X1017307Y1077939D01*
X1015833Y1078232D01*
X1015833Y1078232D01*
X991118D01*
X990606Y1078444D01*
X988989D01*
X987496Y1077826D01*
X986353Y1076682D01*
X985734Y1075189D01*
Y1073572D01*
X986353Y1072078D01*
X987496Y1070935D01*
X988989Y1070316D01*
X990606D01*
X991118Y1070528D01*
X1014237D01*
X1015072Y1069694D01*
X1015072Y1069694D01*
X1016321Y1068859D01*
X1017796Y1068566D01*
X1039824D01*
Y1055431D01*
X1019484Y1035092D01*
X732790D01*
X732790Y1035092D01*
X731316Y1034799D01*
X730066Y1033964D01*
X730066Y1033964D01*
X704666Y1008564D01*
X703831Y1007314D01*
X703538Y1005840D01*
X703538Y1005840D01*
Y1004945D01*
X702268Y1004283D01*
X701270Y1004697D01*
Y1000000D01*
Y995303D01*
X702268Y995717D01*
X703538Y995055D01*
Y909320D01*
X703538Y909320D01*
X703831Y907846D01*
X704666Y906596D01*
X716096Y895166D01*
X716096Y895166D01*
X717346Y894331D01*
X718820Y894038D01*
X718820Y894038D01*
X827714D01*
X833078Y888674D01*
Y745774D01*
X830060Y742756D01*
X829548Y742544D01*
X828405Y741401D01*
X827786Y739907D01*
Y738290D01*
X828405Y736797D01*
X829548Y735654D01*
X831042Y735035D01*
X832658D01*
X834152Y735654D01*
X835295Y736797D01*
X835507Y737309D01*
X839654Y741455D01*
X839654Y741455D01*
X840489Y742705D01*
X840782Y744179D01*
X840782Y744179D01*
Y890270D01*
X840782Y890270D01*
X840489Y891744D01*
X839654Y892994D01*
X832034Y900614D01*
X830784Y901449D01*
X829310Y901742D01*
X829310Y901742D01*
X720416D01*
X711242Y910916D01*
Y1004244D01*
X734386Y1027388D01*
X1019484D01*
X1024848Y1022024D01*
Y1006709D01*
X1023003Y1005644D01*
X1021276Y1003917D01*
X1020054Y1001801D01*
X1019422Y999442D01*
Y996999D01*
X1020054Y994639D01*
X1021276Y992523D01*
X1023003Y990796D01*
X1025119Y989574D01*
X1027478Y988942D01*
X1029921D01*
X1031912Y989475D01*
X1032570Y988337D01*
X933976Y889744D01*
X933797Y889475D01*
X932527Y889860D01*
Y906741D01*
X932527Y906741D01*
X932310Y907831D01*
X931693Y908755D01*
X931693Y908755D01*
X849949Y990498D01*
X850704Y991253D01*
X851926Y993369D01*
X852558Y995729D01*
Y998171D01*
X851926Y1000531D01*
X850704Y1002647D01*
X848977Y1004374D01*
X846861Y1005596D01*
X844501Y1006228D01*
X842058D01*
X839699Y1005596D01*
X837583Y1004374D01*
X835856Y1002647D01*
X834634Y1000531D01*
X834002Y998171D01*
Y995729D01*
X834634Y993369D01*
X835856Y991253D01*
X837583Y989526D01*
X839699Y988304D01*
X842058Y987672D01*
X844501D01*
X844674Y987718D01*
X876394Y955998D01*
X876270Y955663D01*
Y951270D01*
X880663D01*
X880998Y951394D01*
X926831Y905561D01*
Y870310D01*
X926234Y869712D01*
X925615Y868218D01*
Y866602D01*
X926234Y865108D01*
X927377Y863965D01*
X928871Y863346D01*
X930488D01*
X931303Y863684D01*
X932275Y862712D01*
X931926Y861868D01*
Y860252D01*
X932545Y858758D01*
X933688Y857615D01*
X935182Y856996D01*
X936798D01*
X938292Y857615D01*
X939435Y858758D01*
X940054Y860252D01*
Y861868D01*
X939435Y863362D01*
X938838Y863960D01*
Y886550D01*
X1045255Y992968D01*
X1046515Y992802D01*
X1046676Y992523D01*
X1048403Y990796D01*
X1050519Y989574D01*
X1052878Y988942D01*
X1055322D01*
X1057681Y989574D01*
X1059797Y990796D01*
X1061234Y992233D01*
X1062504Y991821D01*
Y847512D01*
X1011768Y796777D01*
X1005259D01*
X1004413Y798046D01*
X1004697Y798730D01*
X995303D01*
X995587Y798046D01*
X994741Y796777D01*
X900852D01*
X897983Y799645D01*
X898231Y800891D01*
X898442Y800978D01*
X899800Y802336D01*
X900406Y803800D01*
X895709D01*
Y805070D01*
X894439D01*
Y809767D01*
X892975Y809161D01*
X891617Y807803D01*
X891530Y807592D01*
X890284Y807344D01*
X885074Y812554D01*
X883658Y813641D01*
X882010Y814324D01*
X880240Y814557D01*
X878471Y814324D01*
X876822Y813641D01*
X875406Y812554D01*
X874320Y811138D01*
X873636Y809489D01*
X873404Y807720D01*
X873636Y805951D01*
X874320Y804302D01*
X875406Y802886D01*
X893186Y785106D01*
X894602Y784019D01*
X896251Y783336D01*
X898020Y783103D01*
X960631D01*
X961254Y781833D01*
X961136Y781549D01*
X960903Y779780D01*
Y666724D01*
X959050Y664871D01*
X825238D01*
X807474Y682634D01*
X806058Y683721D01*
X804409Y684404D01*
X802640Y684637D01*
X800871Y684404D01*
X799222Y683721D01*
X797806Y682634D01*
X796719Y681218D01*
X796037Y679569D01*
X795804Y677800D01*
X796037Y676031D01*
X796719Y674382D01*
X797806Y672966D01*
X817572Y653200D01*
X818988Y652113D01*
X820637Y651431D01*
X822406Y651198D01*
X879746D01*
X880386Y650240D01*
X885190D01*
Y648970D01*
X886460D01*
Y644272D01*
X887924Y644879D01*
X889281Y646236D01*
X889783Y647449D01*
X891053Y647196D01*
Y645582D01*
X887976Y642504D01*
X887384Y641733D01*
X886922D01*
X885428Y641115D01*
X884286Y639972D01*
X883667Y638478D01*
Y636862D01*
X884286Y635369D01*
X885428Y634226D01*
X886922Y633607D01*
X887384D01*
X887976Y632836D01*
X895038Y625774D01*
Y621247D01*
X893056Y619266D01*
X892078Y620056D01*
X892428Y620900D01*
X889000D01*
Y617472D01*
X890464Y618079D01*
X890945Y618560D01*
X891969Y617850D01*
X891569Y616884D01*
X891286Y616201D01*
X891053Y614432D01*
Y578680D01*
X891286Y576911D01*
X891569Y576227D01*
X891969Y575262D01*
X893056Y573846D01*
X893154Y573748D01*
Y562740D01*
X893283Y561752D01*
Y558782D01*
X886118Y551617D01*
X547170D01*
X545317Y553470D01*
Y570230D01*
X545203Y571094D01*
X566174Y592066D01*
X567261Y593482D01*
X567943Y595131D01*
X568176Y596900D01*
Y647700D01*
X567943Y649469D01*
X567261Y651118D01*
X566174Y652534D01*
X544338Y674370D01*
X562364Y692396D01*
X563451Y693812D01*
X564133Y695461D01*
X564366Y697230D01*
Y765810D01*
X564133Y767579D01*
X563451Y769228D01*
X562364Y770644D01*
X548148Y784860D01*
X556014Y792726D01*
X557101Y794142D01*
X557784Y795791D01*
X558017Y797560D01*
Y916517D01*
X559083Y916658D01*
X559459D01*
X560953Y917277D01*
X561368Y917691D01*
X562364Y918456D01*
X563451Y919872D01*
X564133Y921521D01*
X564366Y923290D01*
Y1043603D01*
X564133Y1045372D01*
X563451Y1047021D01*
X562364Y1048437D01*
X562055Y1048746D01*
X560639Y1049833D01*
X558990Y1050516D01*
X557221Y1050749D01*
X555452Y1050516D01*
X553803Y1049833D01*
X552387Y1048746D01*
X551300Y1047330D01*
X550617Y1045681D01*
X550384Y1043912D01*
X550617Y1042143D01*
X550694Y1041959D01*
Y923712D01*
X549411Y923543D01*
X547762Y922861D01*
X546346Y921774D01*
X545259Y920358D01*
X544576Y918709D01*
X544343Y916940D01*
Y800392D01*
X533646Y789694D01*
X532559Y788278D01*
X531876Y786629D01*
X531643Y784860D01*
X531876Y783091D01*
X532559Y781442D01*
X533646Y780026D01*
X550694Y762978D01*
Y700062D01*
X529836Y679204D01*
X528749Y677788D01*
X528066Y676139D01*
X527834Y674370D01*
X528066Y672601D01*
X528749Y670952D01*
X529836Y669536D01*
X554504Y644868D01*
Y599732D01*
X529836Y575064D01*
X528749Y573648D01*
X528066Y571999D01*
X527834Y570230D01*
X528066Y568461D01*
X528749Y566812D01*
X529836Y565396D01*
X531252Y564309D01*
X531643Y564147D01*
Y550638D01*
X531876Y548869D01*
X532159Y548186D01*
X532559Y547220D01*
X533646Y545804D01*
X539504Y539946D01*
X540920Y538860D01*
X542569Y538177D01*
X544338Y537944D01*
X888950D01*
X890720Y538177D01*
X891403Y538460D01*
X892368Y538860D01*
X893784Y539946D01*
X901454Y547616D01*
X904954Y551116D01*
X906041Y552532D01*
X906723Y554181D01*
X906956Y555950D01*
Y562610D01*
X906826Y563598D01*
Y576580D01*
X906593Y578349D01*
X905910Y579998D01*
X904824Y581414D01*
X904726Y581512D01*
Y611600D01*
X906708Y613581D01*
X907795Y614997D01*
X908478Y616646D01*
X908710Y618416D01*
Y628606D01*
X908478Y630376D01*
X907795Y632024D01*
X906708Y633440D01*
X902478Y637670D01*
X902724Y637916D01*
X903811Y639332D01*
X904493Y640981D01*
X904726Y642750D01*
Y651198D01*
X945341D01*
X946046Y650142D01*
X945896Y649778D01*
Y648162D01*
X946515Y646668D01*
X947128Y646055D01*
Y632002D01*
X947128Y632002D01*
X947343Y630918D01*
X947957Y629999D01*
X951500Y626456D01*
X951252Y625211D01*
X951036Y625121D01*
X949679Y623764D01*
X949072Y622300D01*
X953770D01*
Y621030D01*
X955040D01*
Y616332D01*
X956504Y616939D01*
X957861Y618296D01*
X957951Y618512D01*
X959196Y618760D01*
X980148Y597808D01*
Y533775D01*
X979535Y533162D01*
X978916Y531668D01*
Y530052D01*
X979535Y528558D01*
X980678Y527415D01*
X982172Y526796D01*
X983788D01*
X985282Y527415D01*
X986425Y528558D01*
X987044Y530052D01*
Y531668D01*
X986425Y533162D01*
X985812Y533775D01*
Y598981D01*
X985813Y598982D01*
X985597Y600065D01*
X984983Y600984D01*
X984983Y600984D01*
X971033Y614934D01*
X971559Y616204D01*
X972510D01*
X974284Y616939D01*
X975641Y618296D01*
X976248Y619760D01*
X971550D01*
Y621030D01*
X970280D01*
Y625728D01*
X968816Y625121D01*
X967459Y623764D01*
X966724Y621990D01*
Y621039D01*
X965454Y620513D01*
X952792Y633175D01*
Y646055D01*
X953405Y646668D01*
X954024Y648162D01*
Y649778D01*
X953874Y650142D01*
X954579Y651198D01*
X960903D01*
Y640080D01*
X961136Y638311D01*
X961419Y637628D01*
X961819Y636662D01*
X962906Y635246D01*
X966716Y631436D01*
X968132Y630349D01*
X969781Y629666D01*
X971550Y629434D01*
X973319Y629666D01*
X974968Y630349D01*
X976384Y631436D01*
X977471Y632852D01*
X978154Y634501D01*
X978387Y636270D01*
X978154Y638039D01*
X977471Y639688D01*
X976384Y641104D01*
X974576Y642912D01*
Y663892D01*
Y776948D01*
X980732Y783103D01*
X1014600D01*
X1016369Y783336D01*
X1017052Y783619D01*
X1018018Y784019D01*
X1019434Y785106D01*
X1023971Y789642D01*
X1025144Y789156D01*
Y788980D01*
X1025879Y787206D01*
X1027236Y785849D01*
X1028700Y785242D01*
Y789940D01*
X1029970D01*
Y791210D01*
X1034668D01*
X1034061Y792674D01*
X1032704Y794031D01*
X1030930Y794766D01*
X1030754D01*
X1030268Y795939D01*
X1074174Y839846D01*
X1075261Y841262D01*
X1075944Y842911D01*
X1076177Y844680D01*
Y1068708D01*
X1075944Y1070478D01*
X1075261Y1072126D01*
X1074174Y1073542D01*
X1072758Y1074629D01*
X1071109Y1075312D01*
X1071036Y1075321D01*
X1070865Y1076625D01*
X1071642Y1076947D01*
X1072785Y1078090D01*
X1073404Y1079584D01*
Y1081200D01*
X1073192Y1081712D01*
Y1091308D01*
X1073404Y1091820D01*
Y1093437D01*
X1072785Y1094930D01*
X1071642Y1096074D01*
X1070148Y1096692D01*
D02*
G37*
G36*
X1254697Y1098730D02*
X1251270D01*
Y1095303D01*
X1252733Y1095910D01*
X1254090Y1097267D01*
X1254697Y1098730D01*
D02*
G37*
G36*
X1248730D02*
X1245304D01*
X1245910Y1097267D01*
X1247267Y1095910D01*
X1248730Y1095303D01*
Y1098730D01*
D02*
G37*
G36*
X1204697D02*
X1201270D01*
Y1095303D01*
X1202733Y1095910D01*
X1204090Y1097267D01*
X1204697Y1098730D01*
D02*
G37*
G36*
X1198730D02*
X1195304D01*
X1195910Y1097267D01*
X1197267Y1095910D01*
X1198730Y1095303D01*
Y1098730D01*
D02*
G37*
G36*
X1154697D02*
X1151270D01*
Y1095303D01*
X1152733Y1095910D01*
X1154090Y1097267D01*
X1154697Y1098730D01*
D02*
G37*
G36*
X1148730D02*
X1145304D01*
X1145910Y1097267D01*
X1147267Y1095910D01*
X1148730Y1095303D01*
Y1098730D01*
D02*
G37*
G36*
X1104697D02*
X1101270D01*
Y1095303D01*
X1102733Y1095910D01*
X1104090Y1097267D01*
X1104697Y1098730D01*
D02*
G37*
G36*
X1098730D02*
X1095303D01*
X1095910Y1097267D01*
X1097267Y1095910D01*
X1098730Y1095303D01*
Y1098730D01*
D02*
G37*
G36*
X954697D02*
X951270D01*
Y1095303D01*
X952733Y1095910D01*
X954090Y1097267D01*
X954697Y1098730D01*
D02*
G37*
G36*
X948730D02*
X945303D01*
X945910Y1097267D01*
X947267Y1095910D01*
X948730Y1095303D01*
Y1098730D01*
D02*
G37*
G36*
X904697D02*
X901270D01*
Y1095303D01*
X902733Y1095910D01*
X904090Y1097267D01*
X904697Y1098730D01*
D02*
G37*
G36*
X898730D02*
X895303D01*
X895910Y1097267D01*
X897267Y1095910D01*
X898730Y1095303D01*
Y1098730D01*
D02*
G37*
G36*
X704697D02*
X701270D01*
Y1095303D01*
X702733Y1095910D01*
X704090Y1097267D01*
X704697Y1098730D01*
D02*
G37*
G36*
X698730D02*
X695303D01*
X695910Y1097267D01*
X697267Y1095910D01*
X698730Y1095303D01*
Y1098730D01*
D02*
G37*
G36*
X654697D02*
X651270D01*
Y1095303D01*
X652733Y1095910D01*
X654090Y1097267D01*
X654697Y1098730D01*
D02*
G37*
G36*
X648730D02*
X645303D01*
X645910Y1097267D01*
X647267Y1095910D01*
X648730Y1095303D01*
Y1098730D01*
D02*
G37*
G36*
X604697D02*
X601270D01*
Y1095303D01*
X602733Y1095910D01*
X604090Y1097267D01*
X604697Y1098730D01*
D02*
G37*
G36*
X598730D02*
X595303D01*
X595910Y1097267D01*
X597267Y1095910D01*
X598730Y1095303D01*
Y1098730D01*
D02*
G37*
G36*
X1362133Y1126668D02*
X1358287D01*
X1354514Y1125918D01*
X1350960Y1124445D01*
X1347762Y1122308D01*
X1345042Y1119588D01*
X1342905Y1116390D01*
X1341432Y1112836D01*
X1340682Y1109063D01*
Y1105217D01*
X1341432Y1101444D01*
X1342905Y1097890D01*
X1345042Y1094692D01*
X1347762Y1091972D01*
X1350960Y1089835D01*
X1354514Y1088362D01*
X1358287Y1087612D01*
X1362133D01*
X1365906Y1088362D01*
X1369460Y1089835D01*
X1372658Y1091972D01*
X1375378Y1094692D01*
X1377516Y1097890D01*
X1378988Y1101444D01*
X1379738Y1105217D01*
Y1109063D01*
X1378988Y1112836D01*
X1377516Y1116390D01*
X1375378Y1119588D01*
X1372658Y1122308D01*
X1369460Y1124445D01*
X1365906Y1125918D01*
X1362133Y1126668D01*
D02*
G37*
G36*
X834390Y1090548D02*
Y1087120D01*
X837818D01*
X837211Y1088584D01*
X835854Y1089941D01*
X834390Y1090548D01*
D02*
G37*
G36*
X831850D02*
X830386Y1089941D01*
X829029Y1088584D01*
X828422Y1087120D01*
X831850D01*
Y1090548D01*
D02*
G37*
G36*
X837818Y1084580D02*
X834390D01*
Y1081152D01*
X835854Y1081759D01*
X837211Y1083116D01*
X837818Y1084580D01*
D02*
G37*
G36*
X831850D02*
X828422D01*
X829029Y1083116D01*
X830386Y1081759D01*
X831850Y1081152D01*
Y1084580D01*
D02*
G37*
G36*
X1276270Y1054697D02*
Y1051270D01*
X1279697D01*
X1279090Y1052733D01*
X1277733Y1054090D01*
X1276270Y1054697D01*
D02*
G37*
G36*
X1273730D02*
X1272267Y1054090D01*
X1270910Y1052733D01*
X1270304Y1051270D01*
X1273730D01*
Y1054697D01*
D02*
G37*
G36*
X1226270D02*
Y1051270D01*
X1229697D01*
X1229090Y1052733D01*
X1227733Y1054090D01*
X1226270Y1054697D01*
D02*
G37*
G36*
X1223730D02*
X1222267Y1054090D01*
X1220910Y1052733D01*
X1220304Y1051270D01*
X1223730D01*
Y1054697D01*
D02*
G37*
G36*
X1176270D02*
Y1051270D01*
X1179697D01*
X1179090Y1052733D01*
X1177733Y1054090D01*
X1176270Y1054697D01*
D02*
G37*
G36*
X1173730D02*
X1172267Y1054090D01*
X1170910Y1052733D01*
X1170304Y1051270D01*
X1173730D01*
Y1054697D01*
D02*
G37*
G36*
X1126270D02*
Y1051270D01*
X1129697D01*
X1129090Y1052733D01*
X1127733Y1054090D01*
X1126270Y1054697D01*
D02*
G37*
G36*
X1123730D02*
X1122267Y1054090D01*
X1120910Y1052733D01*
X1120304Y1051270D01*
X1123730D01*
Y1054697D01*
D02*
G37*
G36*
X1026270D02*
Y1051270D01*
X1029697D01*
X1029090Y1052733D01*
X1027733Y1054090D01*
X1026270Y1054697D01*
D02*
G37*
G36*
X1023730D02*
X1022267Y1054090D01*
X1020910Y1052733D01*
X1020303Y1051270D01*
X1023730D01*
Y1054697D01*
D02*
G37*
G36*
X976270D02*
Y1051270D01*
X979697D01*
X979090Y1052733D01*
X977733Y1054090D01*
X976270Y1054697D01*
D02*
G37*
G36*
X973730D02*
X972267Y1054090D01*
X970910Y1052733D01*
X970303Y1051270D01*
X973730D01*
Y1054697D01*
D02*
G37*
G36*
X776270D02*
Y1051270D01*
X779697D01*
X779090Y1052733D01*
X777733Y1054090D01*
X776270Y1054697D01*
D02*
G37*
G36*
X773730D02*
X772267Y1054090D01*
X770910Y1052733D01*
X770303Y1051270D01*
X773730D01*
Y1054697D01*
D02*
G37*
G36*
X726270D02*
Y1051270D01*
X729697D01*
X729090Y1052733D01*
X727733Y1054090D01*
X726270Y1054697D01*
D02*
G37*
G36*
X723730D02*
X722267Y1054090D01*
X720910Y1052733D01*
X720303Y1051270D01*
X723730D01*
Y1054697D01*
D02*
G37*
G36*
X626270D02*
Y1051270D01*
X629697D01*
X629090Y1052733D01*
X627733Y1054090D01*
X626270Y1054697D01*
D02*
G37*
G36*
X623730D02*
X622267Y1054090D01*
X620910Y1052733D01*
X620303Y1051270D01*
X623730D01*
Y1054697D01*
D02*
G37*
G36*
X1279697Y1048730D02*
X1276270D01*
Y1045303D01*
X1277733Y1045910D01*
X1279090Y1047267D01*
X1279697Y1048730D01*
D02*
G37*
G36*
X1273730D02*
X1270304D01*
X1270910Y1047267D01*
X1272267Y1045910D01*
X1273730Y1045303D01*
Y1048730D01*
D02*
G37*
G36*
X1229697D02*
X1226270D01*
Y1045303D01*
X1227733Y1045910D01*
X1229090Y1047267D01*
X1229697Y1048730D01*
D02*
G37*
G36*
X1223730D02*
X1220304D01*
X1220910Y1047267D01*
X1222267Y1045910D01*
X1223730Y1045303D01*
Y1048730D01*
D02*
G37*
G36*
X1179697D02*
X1176270D01*
Y1045303D01*
X1177733Y1045910D01*
X1179090Y1047267D01*
X1179697Y1048730D01*
D02*
G37*
G36*
X1173730D02*
X1170304D01*
X1170910Y1047267D01*
X1172267Y1045910D01*
X1173730Y1045303D01*
Y1048730D01*
D02*
G37*
G36*
X1129697D02*
X1126270D01*
Y1045303D01*
X1127733Y1045910D01*
X1129090Y1047267D01*
X1129697Y1048730D01*
D02*
G37*
G36*
X1123730D02*
X1120304D01*
X1120910Y1047267D01*
X1122267Y1045910D01*
X1123730Y1045303D01*
Y1048730D01*
D02*
G37*
G36*
X1029697D02*
X1026270D01*
Y1045303D01*
X1027733Y1045910D01*
X1029090Y1047267D01*
X1029697Y1048730D01*
D02*
G37*
G36*
X1023730D02*
X1020303D01*
X1020910Y1047267D01*
X1022267Y1045910D01*
X1023730Y1045303D01*
Y1048730D01*
D02*
G37*
G36*
X979697D02*
X976270D01*
Y1045303D01*
X977733Y1045910D01*
X979090Y1047267D01*
X979697Y1048730D01*
D02*
G37*
G36*
X973730D02*
X970303D01*
X970910Y1047267D01*
X972267Y1045910D01*
X973730Y1045303D01*
Y1048730D01*
D02*
G37*
G36*
X779697D02*
X776270D01*
Y1045303D01*
X777733Y1045910D01*
X779090Y1047267D01*
X779697Y1048730D01*
D02*
G37*
G36*
X773730D02*
X770303D01*
X770910Y1047267D01*
X772267Y1045910D01*
X773730Y1045303D01*
Y1048730D01*
D02*
G37*
G36*
X729697D02*
X726270D01*
Y1045303D01*
X727733Y1045910D01*
X729090Y1047267D01*
X729697Y1048730D01*
D02*
G37*
G36*
X723730D02*
X720303D01*
X720910Y1047267D01*
X722267Y1045910D01*
X723730Y1045303D01*
Y1048730D01*
D02*
G37*
G36*
X629697D02*
X626270D01*
Y1045303D01*
X627733Y1045910D01*
X629090Y1047267D01*
X629697Y1048730D01*
D02*
G37*
G36*
X623730D02*
X620303D01*
X620910Y1047267D01*
X622267Y1045910D01*
X623730Y1045303D01*
Y1048730D01*
D02*
G37*
G36*
X1251270Y1004697D02*
Y1001270D01*
X1254697D01*
X1254090Y1002733D01*
X1252733Y1004090D01*
X1251270Y1004697D01*
D02*
G37*
G36*
X1248730D02*
X1247267Y1004090D01*
X1245910Y1002733D01*
X1245304Y1001270D01*
X1248730D01*
Y1004697D01*
D02*
G37*
G36*
X1201270D02*
Y1001270D01*
X1204697D01*
X1204090Y1002733D01*
X1202733Y1004090D01*
X1201270Y1004697D01*
D02*
G37*
G36*
X1198730D02*
X1197267Y1004090D01*
X1195910Y1002733D01*
X1195304Y1001270D01*
X1198730D01*
Y1004697D01*
D02*
G37*
G36*
X1151270D02*
Y1001270D01*
X1154697D01*
X1154090Y1002733D01*
X1152733Y1004090D01*
X1151270Y1004697D01*
D02*
G37*
G36*
X1148730D02*
X1147267Y1004090D01*
X1145910Y1002733D01*
X1145304Y1001270D01*
X1148730D01*
Y1004697D01*
D02*
G37*
G36*
X1101270D02*
Y1001270D01*
X1104697D01*
X1104090Y1002733D01*
X1102733Y1004090D01*
X1101270Y1004697D01*
D02*
G37*
G36*
X1098730D02*
X1097267Y1004090D01*
X1095910Y1002733D01*
X1095303Y1001270D01*
X1098730D01*
Y1004697D01*
D02*
G37*
G36*
X901270D02*
Y1001270D01*
X904697D01*
X904090Y1002733D01*
X902733Y1004090D01*
X901270Y1004697D01*
D02*
G37*
G36*
X898730D02*
X897267Y1004090D01*
X895910Y1002733D01*
X895303Y1001270D01*
X898730D01*
Y1004697D01*
D02*
G37*
G36*
X698730D02*
X697267Y1004090D01*
X695910Y1002733D01*
X695303Y1001270D01*
X698730D01*
Y1004697D01*
D02*
G37*
G36*
X651270D02*
Y1001270D01*
X654697D01*
X654090Y1002733D01*
X652733Y1004090D01*
X651270Y1004697D01*
D02*
G37*
G36*
X648730D02*
X647267Y1004090D01*
X645910Y1002733D01*
X645303Y1001270D01*
X648730D01*
Y1004697D01*
D02*
G37*
G36*
X601270D02*
Y1001270D01*
X604697D01*
X604090Y1002733D01*
X602733Y1004090D01*
X601270Y1004697D01*
D02*
G37*
G36*
X598730D02*
X597267Y1004090D01*
X595910Y1002733D01*
X595303Y1001270D01*
X598730D01*
Y1004697D01*
D02*
G37*
G36*
X953822Y1008260D02*
X953770D01*
Y999490D01*
X962540D01*
Y999542D01*
X961856Y1002095D01*
X960534Y1004385D01*
X958665Y1006254D01*
X956375Y1007576D01*
X953822Y1008260D01*
D02*
G37*
G36*
X951230D02*
X951178D01*
X948625Y1007576D01*
X946335Y1006254D01*
X944466Y1004385D01*
X943144Y1002095D01*
X942460Y999542D01*
Y999490D01*
X951230D01*
Y1008260D01*
D02*
G37*
G36*
X768402Y1006990D02*
X768350D01*
Y998220D01*
X777120D01*
Y998272D01*
X776436Y1000825D01*
X775114Y1003115D01*
X773245Y1004984D01*
X770955Y1006306D01*
X768402Y1006990D01*
D02*
G37*
G36*
X765810D02*
X765758D01*
X763205Y1006306D01*
X760915Y1004984D01*
X759046Y1003115D01*
X757724Y1000825D01*
X757040Y998272D01*
Y998220D01*
X765810D01*
Y1006990D01*
D02*
G37*
G36*
X1254697Y998730D02*
X1251270D01*
Y995303D01*
X1252733Y995910D01*
X1254090Y997267D01*
X1254697Y998730D01*
D02*
G37*
G36*
X1248730D02*
X1245304D01*
X1245910Y997267D01*
X1247267Y995910D01*
X1248730Y995303D01*
Y998730D01*
D02*
G37*
G36*
X1204697D02*
X1201270D01*
Y995303D01*
X1202733Y995910D01*
X1204090Y997267D01*
X1204697Y998730D01*
D02*
G37*
G36*
X1198730D02*
X1195304D01*
X1195910Y997267D01*
X1197267Y995910D01*
X1198730Y995303D01*
Y998730D01*
D02*
G37*
G36*
X1154697D02*
X1151270D01*
Y995303D01*
X1152733Y995910D01*
X1154090Y997267D01*
X1154697Y998730D01*
D02*
G37*
G36*
X1148730D02*
X1145304D01*
X1145910Y997267D01*
X1147267Y995910D01*
X1148730Y995303D01*
Y998730D01*
D02*
G37*
G36*
X1104697D02*
X1101270D01*
Y995303D01*
X1102733Y995910D01*
X1104090Y997267D01*
X1104697Y998730D01*
D02*
G37*
G36*
X1098730D02*
X1095303D01*
X1095910Y997267D01*
X1097267Y995910D01*
X1098730Y995303D01*
Y998730D01*
D02*
G37*
G36*
X904697D02*
X901270D01*
Y995303D01*
X902733Y995910D01*
X904090Y997267D01*
X904697Y998730D01*
D02*
G37*
G36*
X898730D02*
X895303D01*
X895910Y997267D01*
X897267Y995910D01*
X898730Y995303D01*
Y998730D01*
D02*
G37*
G36*
X698730D02*
X695303D01*
X695910Y997267D01*
X697267Y995910D01*
X698730Y995303D01*
Y998730D01*
D02*
G37*
G36*
X654697D02*
X651270D01*
Y995303D01*
X652733Y995910D01*
X654090Y997267D01*
X654697Y998730D01*
D02*
G37*
G36*
X648730D02*
X645303D01*
X645910Y997267D01*
X647267Y995910D01*
X648730Y995303D01*
Y998730D01*
D02*
G37*
G36*
X604697D02*
X601270D01*
Y995303D01*
X602733Y995910D01*
X604090Y997267D01*
X604697Y998730D01*
D02*
G37*
G36*
X598730D02*
X595303D01*
X595910Y997267D01*
X597267Y995910D01*
X598730Y995303D01*
Y998730D01*
D02*
G37*
G36*
X1004521Y1007498D02*
X1002078D01*
X999719Y1006866D01*
X997603Y1005644D01*
X995876Y1003917D01*
X994654Y1001801D01*
X994022Y999442D01*
Y996999D01*
X994654Y994639D01*
X995876Y992523D01*
X997603Y990796D01*
X999719Y989574D01*
X1002078Y988942D01*
X1004521D01*
X1006881Y989574D01*
X1008997Y990796D01*
X1010724Y992523D01*
X1011946Y994639D01*
X1012578Y996999D01*
Y999442D01*
X1011946Y1001801D01*
X1010724Y1003917D01*
X1008997Y1005644D01*
X1006881Y1006866D01*
X1004521Y1007498D01*
D02*
G37*
G36*
X979121D02*
X976678D01*
X974319Y1006866D01*
X972203Y1005644D01*
X970476Y1003917D01*
X969254Y1001801D01*
X968622Y999442D01*
Y996999D01*
X969254Y994639D01*
X970476Y992523D01*
X972203Y990796D01*
X974319Y989574D01*
X976678Y988942D01*
X979121D01*
X981481Y989574D01*
X983597Y990796D01*
X985324Y992523D01*
X986546Y994639D01*
X987178Y996999D01*
Y999442D01*
X986546Y1001801D01*
X985324Y1003917D01*
X983597Y1005644D01*
X981481Y1006866D01*
X979121Y1007498D01*
D02*
G37*
G36*
X936378D02*
X917822D01*
Y988942D01*
X936378D01*
Y1007498D01*
D02*
G37*
G36*
X962540Y996950D02*
X953770D01*
Y988180D01*
X953822D01*
X956375Y988864D01*
X958665Y990186D01*
X960534Y992055D01*
X961856Y994345D01*
X962540Y996898D01*
Y996950D01*
D02*
G37*
G36*
X951230D02*
X942460D01*
Y996898D01*
X943144Y994345D01*
X944466Y992055D01*
X946335Y990186D01*
X948625Y988864D01*
X951178Y988180D01*
X951230D01*
Y996950D01*
D02*
G37*
G36*
X869902Y1006228D02*
X867458D01*
X865099Y1005596D01*
X862983Y1004374D01*
X861256Y1002647D01*
X860034Y1000531D01*
X859402Y998171D01*
Y995729D01*
X860034Y993369D01*
X861256Y991253D01*
X862983Y989526D01*
X865099Y988304D01*
X867458Y987672D01*
X869902D01*
X872261Y988304D01*
X874377Y989526D01*
X876104Y991253D01*
X877326Y993369D01*
X877958Y995729D01*
Y998171D01*
X877326Y1000531D01*
X876104Y1002647D01*
X874377Y1004374D01*
X872261Y1005596D01*
X869902Y1006228D01*
D02*
G37*
G36*
X750958D02*
X732402D01*
Y987672D01*
X750958D01*
Y1006228D01*
D02*
G37*
G36*
X777120Y995680D02*
X768350D01*
Y986910D01*
X768402D01*
X770955Y987594D01*
X773245Y988916D01*
X775114Y990785D01*
X776436Y993075D01*
X777120Y995628D01*
Y995680D01*
D02*
G37*
G36*
X765810D02*
X757040D01*
Y995628D01*
X757724Y993075D01*
X759046Y990785D01*
X760915Y988916D01*
X763205Y987594D01*
X765758Y986910D01*
X765810D01*
Y995680D01*
D02*
G37*
G36*
X819101Y1006228D02*
X816658D01*
X814299Y1005596D01*
X812183Y1004374D01*
X810456Y1002647D01*
X809234Y1000531D01*
X808602Y998171D01*
Y995729D01*
X809234Y993369D01*
X810456Y991253D01*
X812183Y989526D01*
X814299Y988304D01*
X816302Y987767D01*
Y965418D01*
X815032Y964892D01*
X797420Y982505D01*
Y989089D01*
X798177Y989526D01*
X799904Y991253D01*
X801126Y993369D01*
X801758Y995729D01*
Y998171D01*
X801126Y1000531D01*
X799904Y1002647D01*
X798177Y1004374D01*
X796061Y1005596D01*
X793701Y1006228D01*
X791258D01*
X788899Y1005596D01*
X786783Y1004374D01*
X785056Y1002647D01*
X783834Y1000531D01*
X783202Y998171D01*
Y995729D01*
X783834Y993369D01*
X785056Y991253D01*
X786783Y989526D01*
X788899Y988304D01*
X791258Y987672D01*
X791724D01*
Y981325D01*
X791724Y981325D01*
X791941Y980235D01*
X792559Y979311D01*
X952549Y819321D01*
X952549Y819321D01*
X953473Y818704D01*
X954123Y818574D01*
X954135Y818546D01*
X955278Y817403D01*
X956772Y816784D01*
X958388D01*
X959882Y817403D01*
X961025Y818546D01*
X961644Y820040D01*
Y821656D01*
X961025Y823150D01*
X959882Y824294D01*
X958388Y824912D01*
X956839D01*
X956684Y825127D01*
X956293Y826086D01*
X957215Y827008D01*
X957834Y828502D01*
Y830118D01*
X957215Y831612D01*
X956072Y832755D01*
X954578Y833374D01*
X953733D01*
X821998Y965110D01*
Y988614D01*
X823577Y989526D01*
X825304Y991253D01*
X826526Y993369D01*
X827158Y995729D01*
Y998171D01*
X826526Y1000531D01*
X825304Y1002647D01*
X823577Y1004374D01*
X821461Y1005596D01*
X819101Y1006228D01*
D02*
G37*
G36*
X1276270Y954697D02*
Y951270D01*
X1279697D01*
X1279090Y952733D01*
X1277733Y954090D01*
X1276270Y954697D01*
D02*
G37*
G36*
X1273730D02*
X1272267Y954090D01*
X1270910Y952733D01*
X1270304Y951270D01*
X1273730D01*
Y954697D01*
D02*
G37*
G36*
X1226270D02*
Y951270D01*
X1229697D01*
X1229090Y952733D01*
X1227733Y954090D01*
X1226270Y954697D01*
D02*
G37*
G36*
X1223730D02*
X1222267Y954090D01*
X1220910Y952733D01*
X1220304Y951270D01*
X1223730D01*
Y954697D01*
D02*
G37*
G36*
X1176270D02*
Y951270D01*
X1179697D01*
X1179090Y952733D01*
X1177733Y954090D01*
X1176270Y954697D01*
D02*
G37*
G36*
X1173730D02*
X1172267Y954090D01*
X1170910Y952733D01*
X1170304Y951270D01*
X1173730D01*
Y954697D01*
D02*
G37*
G36*
X1126270D02*
Y951270D01*
X1129697D01*
X1129090Y952733D01*
X1127733Y954090D01*
X1126270Y954697D01*
D02*
G37*
G36*
X1123730D02*
X1122267Y954090D01*
X1120910Y952733D01*
X1120304Y951270D01*
X1123730D01*
Y954697D01*
D02*
G37*
G36*
X1026270D02*
Y951270D01*
X1029697D01*
X1029090Y952733D01*
X1027733Y954090D01*
X1026270Y954697D01*
D02*
G37*
G36*
X1023730D02*
X1022267Y954090D01*
X1020910Y952733D01*
X1020303Y951270D01*
X1023730D01*
Y954697D01*
D02*
G37*
G36*
X976270D02*
Y951270D01*
X979697D01*
X979090Y952733D01*
X977733Y954090D01*
X976270Y954697D01*
D02*
G37*
G36*
X973730D02*
X972267Y954090D01*
X970910Y952733D01*
X970303Y951270D01*
X973730D01*
Y954697D01*
D02*
G37*
G36*
X926270D02*
Y951270D01*
X929697D01*
X929090Y952733D01*
X927733Y954090D01*
X926270Y954697D01*
D02*
G37*
G36*
X923730D02*
X922267Y954090D01*
X920910Y952733D01*
X920303Y951270D01*
X923730D01*
Y954697D01*
D02*
G37*
G36*
X873730D02*
X872267Y954090D01*
X870910Y952733D01*
X870303Y951270D01*
X873730D01*
Y954697D01*
D02*
G37*
G36*
X776270D02*
Y951270D01*
X779697D01*
X779090Y952733D01*
X777733Y954090D01*
X776270Y954697D01*
D02*
G37*
G36*
X773730D02*
X772267Y954090D01*
X770910Y952733D01*
X770303Y951270D01*
X773730D01*
Y954697D01*
D02*
G37*
G36*
X726270D02*
Y951270D01*
X729697D01*
X729090Y952733D01*
X727733Y954090D01*
X726270Y954697D01*
D02*
G37*
G36*
X723730D02*
X722267Y954090D01*
X720910Y952733D01*
X720303Y951270D01*
X723730D01*
Y954697D01*
D02*
G37*
G36*
X676270D02*
Y951270D01*
X679697D01*
X679090Y952733D01*
X677733Y954090D01*
X676270Y954697D01*
D02*
G37*
G36*
X673730D02*
X672267Y954090D01*
X670910Y952733D01*
X670303Y951270D01*
X673730D01*
Y954697D01*
D02*
G37*
G36*
X626270D02*
Y951270D01*
X629697D01*
X629090Y952733D01*
X627733Y954090D01*
X626270Y954697D01*
D02*
G37*
G36*
X623730D02*
X622267Y954090D01*
X620910Y952733D01*
X620303Y951270D01*
X623730D01*
Y954697D01*
D02*
G37*
G36*
X1279697Y948730D02*
X1276270D01*
Y945303D01*
X1277733Y945910D01*
X1279090Y947267D01*
X1279697Y948730D01*
D02*
G37*
G36*
X1273730D02*
X1270304D01*
X1270910Y947267D01*
X1272267Y945910D01*
X1273730Y945303D01*
Y948730D01*
D02*
G37*
G36*
X1229697D02*
X1226270D01*
Y945303D01*
X1227733Y945910D01*
X1229090Y947267D01*
X1229697Y948730D01*
D02*
G37*
G36*
X1223730D02*
X1220304D01*
X1220910Y947267D01*
X1222267Y945910D01*
X1223730Y945303D01*
Y948730D01*
D02*
G37*
G36*
X1179697D02*
X1176270D01*
Y945303D01*
X1177733Y945910D01*
X1179090Y947267D01*
X1179697Y948730D01*
D02*
G37*
G36*
X1173730D02*
X1170304D01*
X1170910Y947267D01*
X1172267Y945910D01*
X1173730Y945303D01*
Y948730D01*
D02*
G37*
G36*
X1129697D02*
X1126270D01*
Y945303D01*
X1127733Y945910D01*
X1129090Y947267D01*
X1129697Y948730D01*
D02*
G37*
G36*
X1123730D02*
X1120304D01*
X1120910Y947267D01*
X1122267Y945910D01*
X1123730Y945303D01*
Y948730D01*
D02*
G37*
G36*
X1029697D02*
X1026270D01*
Y945303D01*
X1027733Y945910D01*
X1029090Y947267D01*
X1029697Y948730D01*
D02*
G37*
G36*
X1023730D02*
X1020303D01*
X1020910Y947267D01*
X1022267Y945910D01*
X1023730Y945303D01*
Y948730D01*
D02*
G37*
G36*
X979697D02*
X976270D01*
Y945303D01*
X977733Y945910D01*
X979090Y947267D01*
X979697Y948730D01*
D02*
G37*
G36*
X973730D02*
X970303D01*
X970910Y947267D01*
X972267Y945910D01*
X973730Y945303D01*
Y948730D01*
D02*
G37*
G36*
X929697D02*
X926270D01*
Y945303D01*
X927733Y945910D01*
X929090Y947267D01*
X929697Y948730D01*
D02*
G37*
G36*
X923730D02*
X920303D01*
X920910Y947267D01*
X922267Y945910D01*
X923730Y945303D01*
Y948730D01*
D02*
G37*
G36*
X879697D02*
X876270D01*
Y945303D01*
X877733Y945910D01*
X879090Y947267D01*
X879697Y948730D01*
D02*
G37*
G36*
X873730D02*
X870303D01*
X870910Y947267D01*
X872267Y945910D01*
X873730Y945303D01*
Y948730D01*
D02*
G37*
G36*
X779697D02*
X776270D01*
Y945303D01*
X777733Y945910D01*
X779090Y947267D01*
X779697Y948730D01*
D02*
G37*
G36*
X773730D02*
X770303D01*
X770910Y947267D01*
X772267Y945910D01*
X773730Y945303D01*
Y948730D01*
D02*
G37*
G36*
X729697D02*
X726270D01*
Y945303D01*
X727733Y945910D01*
X729090Y947267D01*
X729697Y948730D01*
D02*
G37*
G36*
X723730D02*
X720303D01*
X720910Y947267D01*
X722267Y945910D01*
X723730Y945303D01*
Y948730D01*
D02*
G37*
G36*
X679697D02*
X676270D01*
Y945303D01*
X677733Y945910D01*
X679090Y947267D01*
X679697Y948730D01*
D02*
G37*
G36*
X673730D02*
X670303D01*
X670910Y947267D01*
X672267Y945910D01*
X673730Y945303D01*
Y948730D01*
D02*
G37*
G36*
X629697D02*
X626270D01*
Y945303D01*
X627733Y945910D01*
X629090Y947267D01*
X629697Y948730D01*
D02*
G37*
G36*
X623730D02*
X620303D01*
X620910Y947267D01*
X622267Y945910D01*
X623730Y945303D01*
Y948730D01*
D02*
G37*
G36*
X1251270Y904697D02*
Y901270D01*
X1254697D01*
X1254090Y902733D01*
X1252733Y904090D01*
X1251270Y904697D01*
D02*
G37*
G36*
X1248730D02*
X1247267Y904090D01*
X1245910Y902733D01*
X1245304Y901270D01*
X1248730D01*
Y904697D01*
D02*
G37*
G36*
X1151270D02*
Y901270D01*
X1154697D01*
X1154090Y902733D01*
X1152733Y904090D01*
X1151270Y904697D01*
D02*
G37*
G36*
X1148730D02*
X1147267Y904090D01*
X1145910Y902733D01*
X1145304Y901270D01*
X1148730D01*
Y904697D01*
D02*
G37*
G36*
X1101270D02*
Y901270D01*
X1104697D01*
X1104090Y902733D01*
X1102733Y904090D01*
X1101270Y904697D01*
D02*
G37*
G36*
X1098730D02*
X1097267Y904090D01*
X1095910Y902733D01*
X1095303Y901270D01*
X1098730D01*
Y904697D01*
D02*
G37*
G36*
X1001270D02*
Y901270D01*
X1004697D01*
X1004090Y902733D01*
X1002733Y904090D01*
X1001270Y904697D01*
D02*
G37*
G36*
X998730D02*
X997267Y904090D01*
X995910Y902733D01*
X995303Y901270D01*
X998730D01*
Y904697D01*
D02*
G37*
G36*
X901270D02*
Y901270D01*
X904697D01*
X904090Y902733D01*
X902733Y904090D01*
X901270Y904697D01*
D02*
G37*
G36*
X898730D02*
X897267Y904090D01*
X895910Y902733D01*
X895303Y901270D01*
X898730D01*
Y904697D01*
D02*
G37*
G36*
X851270D02*
Y901270D01*
X854697D01*
X854090Y902733D01*
X852733Y904090D01*
X851270Y904697D01*
D02*
G37*
G36*
X848730D02*
X847267Y904090D01*
X845910Y902733D01*
X845303Y901270D01*
X848730D01*
Y904697D01*
D02*
G37*
G36*
X701270D02*
Y901270D01*
X704697D01*
X704090Y902733D01*
X702733Y904090D01*
X701270Y904697D01*
D02*
G37*
G36*
X698730D02*
X697267Y904090D01*
X695910Y902733D01*
X695303Y901270D01*
X698730D01*
Y904697D01*
D02*
G37*
G36*
X651270D02*
Y901270D01*
X654697D01*
X654090Y902733D01*
X652733Y904090D01*
X651270Y904697D01*
D02*
G37*
G36*
X648730D02*
X647267Y904090D01*
X645910Y902733D01*
X645303Y901270D01*
X648730D01*
Y904697D01*
D02*
G37*
G36*
X601270D02*
Y901270D01*
X604697D01*
X604090Y902733D01*
X602733Y904090D01*
X601270Y904697D01*
D02*
G37*
G36*
X598730D02*
X597267Y904090D01*
X595910Y902733D01*
X595303Y901270D01*
X598730D01*
Y904697D01*
D02*
G37*
G36*
X1254697Y898730D02*
X1251270D01*
Y895303D01*
X1252733Y895910D01*
X1254090Y897267D01*
X1254697Y898730D01*
D02*
G37*
G36*
X1248730D02*
X1245304D01*
X1245910Y897267D01*
X1247267Y895910D01*
X1248730Y895303D01*
Y898730D01*
D02*
G37*
G36*
X1154697D02*
X1151270D01*
Y895303D01*
X1152733Y895910D01*
X1154090Y897267D01*
X1154697Y898730D01*
D02*
G37*
G36*
X1148730D02*
X1145304D01*
X1145910Y897267D01*
X1147267Y895910D01*
X1148730Y895303D01*
Y898730D01*
D02*
G37*
G36*
X1104697D02*
X1101270D01*
Y895303D01*
X1102733Y895910D01*
X1104090Y897267D01*
X1104697Y898730D01*
D02*
G37*
G36*
X1098730D02*
X1095303D01*
X1095910Y897267D01*
X1097267Y895910D01*
X1098730Y895303D01*
Y898730D01*
D02*
G37*
G36*
X1004697D02*
X1001270D01*
Y895303D01*
X1002733Y895910D01*
X1004090Y897267D01*
X1004697Y898730D01*
D02*
G37*
G36*
X998730D02*
X995303D01*
X995910Y897267D01*
X997267Y895910D01*
X998730Y895303D01*
Y898730D01*
D02*
G37*
G36*
X904697D02*
X901270D01*
Y895303D01*
X902733Y895910D01*
X904090Y897267D01*
X904697Y898730D01*
D02*
G37*
G36*
X898730D02*
X895303D01*
X895910Y897267D01*
X897267Y895910D01*
X898730Y895303D01*
Y898730D01*
D02*
G37*
G36*
X854697D02*
X851270D01*
Y895303D01*
X852733Y895910D01*
X854090Y897267D01*
X854697Y898730D01*
D02*
G37*
G36*
X848730D02*
X845303D01*
X845910Y897267D01*
X847267Y895910D01*
X848730Y895303D01*
Y898730D01*
D02*
G37*
G36*
X704697D02*
X701270D01*
Y895303D01*
X702733Y895910D01*
X704090Y897267D01*
X704697Y898730D01*
D02*
G37*
G36*
X698730D02*
X695303D01*
X695910Y897267D01*
X697267Y895910D01*
X698730Y895303D01*
Y898730D01*
D02*
G37*
G36*
X654697D02*
X651270D01*
Y895303D01*
X652733Y895910D01*
X654090Y897267D01*
X654697Y898730D01*
D02*
G37*
G36*
X648730D02*
X645303D01*
X645910Y897267D01*
X647267Y895910D01*
X648730Y895303D01*
Y898730D01*
D02*
G37*
G36*
X604697D02*
X601270D01*
Y895303D01*
X602733Y895910D01*
X604090Y897267D01*
X604697Y898730D01*
D02*
G37*
G36*
X598730D02*
X595303D01*
X595910Y897267D01*
X597267Y895910D01*
X598730Y895303D01*
Y898730D01*
D02*
G37*
G36*
X1234773Y892574D02*
Y889146D01*
X1238200D01*
X1237594Y890610D01*
X1236236Y891967D01*
X1234773Y892574D01*
D02*
G37*
G36*
X1238200Y886606D02*
X1234773D01*
Y883179D01*
X1236236Y883785D01*
X1237594Y885143D01*
X1238200Y886606D01*
D02*
G37*
G36*
X1232233Y892574D02*
X1231422Y892238D01*
X1211726D01*
X1210057Y891906D01*
X1208642Y890960D01*
X1172936Y855254D01*
X1171990Y853839D01*
X1171658Y852170D01*
Y681990D01*
X1171990Y680321D01*
X1172936Y678906D01*
X1180409Y671432D01*
X1181825Y670487D01*
X1183494Y670154D01*
X1245392D01*
X1246203Y669819D01*
Y674516D01*
Y679214D01*
X1245392Y678878D01*
X1185301D01*
X1180382Y683797D01*
Y850363D01*
X1213533Y883514D01*
X1231422D01*
X1232233Y883179D01*
Y887876D01*
Y892574D01*
D02*
G37*
G36*
X699052Y886524D02*
X698951D01*
Y877380D01*
X708095D01*
Y877481D01*
X707385Y880130D01*
X706014Y882504D01*
X704075Y884443D01*
X701701Y885814D01*
X699052Y886524D01*
D02*
G37*
G36*
X696411D02*
X696310D01*
X693661Y885814D01*
X691286Y884443D01*
X689348Y882504D01*
X687977Y880130D01*
X687267Y877481D01*
Y877380D01*
X696411D01*
Y886524D01*
D02*
G37*
G36*
X724352Y885762D02*
X721810D01*
X719355Y885104D01*
X717154Y883833D01*
X715357Y882036D01*
X714087Y879836D01*
X713429Y877381D01*
Y874839D01*
X714087Y872384D01*
X715357Y870183D01*
X717154Y868386D01*
X719355Y867116D01*
X721810Y866458D01*
X724352D01*
X726806Y867116D01*
X729007Y868386D01*
X730804Y870183D01*
X732075Y872384D01*
X732733Y874839D01*
Y877381D01*
X732075Y879836D01*
X730804Y882036D01*
X729007Y883833D01*
X726806Y885104D01*
X724352Y885762D01*
D02*
G37*
G36*
X673551D02*
X671010D01*
X668555Y885104D01*
X666354Y883833D01*
X664557Y882036D01*
X663287Y879836D01*
X662629Y877381D01*
Y874839D01*
X663287Y872384D01*
X663749Y871584D01*
X655857Y863692D01*
X655243Y862773D01*
X655027Y861689D01*
X655028Y861689D01*
Y803537D01*
X653758Y803066D01*
X652733Y804090D01*
X651270Y804697D01*
Y800000D01*
Y795303D01*
X652733Y795910D01*
X653758Y796934D01*
X655028Y796463D01*
Y703537D01*
X653758Y703066D01*
X652733Y704090D01*
X651270Y704697D01*
Y700000D01*
Y695303D01*
X652733Y695910D01*
X653758Y696934D01*
X655028Y696463D01*
Y623945D01*
X654415Y623332D01*
X653796Y621838D01*
Y620222D01*
X654415Y618728D01*
X655558Y617585D01*
X657052Y616966D01*
X658668D01*
X660162Y617585D01*
X661305Y618728D01*
X661924Y620222D01*
Y621838D01*
X661305Y623332D01*
X660692Y623945D01*
Y860516D01*
X667755Y867578D01*
X668555Y867116D01*
X671010Y866458D01*
X673551D01*
X676006Y867116D01*
X678207Y868386D01*
X680004Y870183D01*
X681275Y872384D01*
X681933Y874839D01*
Y877381D01*
X681275Y879836D01*
X680004Y882036D01*
X678207Y883833D01*
X676006Y885104D01*
X673551Y885762D01*
D02*
G37*
G36*
X708095Y874840D02*
X698951D01*
Y865696D01*
X699052D01*
X701701Y866406D01*
X704075Y867777D01*
X706014Y869716D01*
X707385Y872090D01*
X708095Y874739D01*
Y874840D01*
D02*
G37*
G36*
X696411D02*
X687267D01*
Y874739D01*
X687977Y872090D01*
X689348Y869716D01*
X691286Y867777D01*
X693661Y866406D01*
X696310Y865696D01*
X696411D01*
Y874840D01*
D02*
G37*
G36*
X1126270Y854697D02*
Y851270D01*
X1129697D01*
X1129090Y852733D01*
X1127733Y854090D01*
X1126270Y854697D01*
D02*
G37*
G36*
X1123730D02*
X1122267Y854090D01*
X1120910Y852733D01*
X1120304Y851270D01*
X1123730D01*
Y854697D01*
D02*
G37*
G36*
X1026270D02*
Y851270D01*
X1029697D01*
X1029090Y852733D01*
X1027733Y854090D01*
X1026270Y854697D01*
D02*
G37*
G36*
X1023730D02*
X1022267Y854090D01*
X1020910Y852733D01*
X1020303Y851270D01*
X1023730D01*
Y854697D01*
D02*
G37*
G36*
X976270D02*
Y851270D01*
X979697D01*
X979090Y852733D01*
X977733Y854090D01*
X976270Y854697D01*
D02*
G37*
G36*
X973730D02*
X972267Y854090D01*
X970910Y852733D01*
X970303Y851270D01*
X973730D01*
Y854697D01*
D02*
G37*
G36*
X876270D02*
Y851270D01*
X879697D01*
X879090Y852733D01*
X877733Y854090D01*
X876270Y854697D01*
D02*
G37*
G36*
X873730D02*
X872267Y854090D01*
X870910Y852733D01*
X870303Y851270D01*
X873730D01*
Y854697D01*
D02*
G37*
G36*
X826270D02*
Y851270D01*
X829697D01*
X829090Y852733D01*
X827733Y854090D01*
X826270Y854697D01*
D02*
G37*
G36*
X823730D02*
X822267Y854090D01*
X820910Y852733D01*
X820303Y851270D01*
X823730D01*
Y854697D01*
D02*
G37*
G36*
X776270D02*
Y851270D01*
X779697D01*
X779090Y852733D01*
X777733Y854090D01*
X776270Y854697D01*
D02*
G37*
G36*
X773730D02*
X772267Y854090D01*
X770910Y852733D01*
X770303Y851270D01*
X773730D01*
Y854697D01*
D02*
G37*
G36*
X676270D02*
Y851270D01*
X679697D01*
X679090Y852733D01*
X677733Y854090D01*
X676270Y854697D01*
D02*
G37*
G36*
X673730D02*
X672267Y854090D01*
X670910Y852733D01*
X670303Y851270D01*
X673730D01*
Y854697D01*
D02*
G37*
G36*
X1129697Y848730D02*
X1126270D01*
Y845303D01*
X1127733Y845910D01*
X1129090Y847267D01*
X1129697Y848730D01*
D02*
G37*
G36*
X1123730D02*
X1120304D01*
X1120910Y847267D01*
X1122267Y845910D01*
X1123730Y845303D01*
Y848730D01*
D02*
G37*
G36*
X1029697D02*
X1026270D01*
Y845303D01*
X1027733Y845910D01*
X1029090Y847267D01*
X1029697Y848730D01*
D02*
G37*
G36*
X1023730D02*
X1020303D01*
X1020910Y847267D01*
X1022267Y845910D01*
X1023730Y845303D01*
Y848730D01*
D02*
G37*
G36*
X979697D02*
X976270D01*
Y845303D01*
X977733Y845910D01*
X979090Y847267D01*
X979697Y848730D01*
D02*
G37*
G36*
X973730D02*
X970303D01*
X970910Y847267D01*
X972267Y845910D01*
X973730Y845303D01*
Y848730D01*
D02*
G37*
G36*
X879697D02*
X876270D01*
Y845303D01*
X877733Y845910D01*
X879090Y847267D01*
X879697Y848730D01*
D02*
G37*
G36*
X873730D02*
X870303D01*
X870910Y847267D01*
X872267Y845910D01*
X873730Y845303D01*
Y848730D01*
D02*
G37*
G36*
X829697D02*
X826270D01*
Y845303D01*
X827733Y845910D01*
X829090Y847267D01*
X829697Y848730D01*
D02*
G37*
G36*
X823730D02*
X820303D01*
X820910Y847267D01*
X822267Y845910D01*
X823730Y845303D01*
Y848730D01*
D02*
G37*
G36*
X779697D02*
X776270D01*
Y845303D01*
X777733Y845910D01*
X779090Y847267D01*
X779697Y848730D01*
D02*
G37*
G36*
X773730D02*
X770303D01*
X770910Y847267D01*
X772267Y845910D01*
X773730Y845303D01*
Y848730D01*
D02*
G37*
G36*
X679697D02*
X676270D01*
Y845303D01*
X677733Y845910D01*
X679090Y847267D01*
X679697Y848730D01*
D02*
G37*
G36*
X673730D02*
X670303D01*
X670910Y847267D01*
X672267Y845910D01*
X673730Y845303D01*
Y848730D01*
D02*
G37*
G36*
X727710Y847978D02*
Y844550D01*
X731138D01*
X730531Y846014D01*
X729174Y847371D01*
X727710Y847978D01*
D02*
G37*
G36*
X725170D02*
X723706Y847371D01*
X722349Y846014D01*
X721742Y844550D01*
X725170D01*
Y847978D01*
D02*
G37*
G36*
X731138Y842010D02*
X727710D01*
Y838582D01*
X729174Y839189D01*
X730531Y840546D01*
X731138Y842010D01*
D02*
G37*
G36*
X725170D02*
X721742D01*
X722349Y840546D01*
X723706Y839189D01*
X725170Y838582D01*
Y842010D01*
D02*
G37*
G36*
X1086997Y835044D02*
X1086896D01*
Y825900D01*
X1096040D01*
Y826001D01*
X1095331Y828650D01*
X1093960Y831024D01*
X1092020Y832963D01*
X1089646Y834334D01*
X1086997Y835044D01*
D02*
G37*
G36*
X1084356D02*
X1084255D01*
X1081607Y834334D01*
X1079232Y832963D01*
X1077293Y831024D01*
X1075922Y828650D01*
X1075212Y826001D01*
Y825900D01*
X1084356D01*
Y835044D01*
D02*
G37*
G36*
X1096040Y823360D02*
X1086896D01*
Y814216D01*
X1086997D01*
X1089646Y814926D01*
X1092020Y816297D01*
X1093960Y818235D01*
X1095331Y820610D01*
X1096040Y823259D01*
Y823360D01*
D02*
G37*
G36*
X1084356D02*
X1075212D01*
Y823259D01*
X1075922Y820610D01*
X1077293Y818235D01*
X1079232Y816297D01*
X1081607Y814926D01*
X1084255Y814216D01*
X1084356D01*
Y823360D01*
D02*
G37*
G36*
X866140Y812418D02*
Y808990D01*
X869568D01*
X868961Y810454D01*
X867604Y811811D01*
X866140Y812418D01*
D02*
G37*
G36*
X863600D02*
X862136Y811811D01*
X860779Y810454D01*
X860172Y808990D01*
X863600D01*
Y812418D01*
D02*
G37*
G36*
X727710Y811148D02*
Y807720D01*
X731138D01*
X730531Y809184D01*
X729174Y810541D01*
X727710Y811148D01*
D02*
G37*
G36*
X725170D02*
X723706Y810541D01*
X722349Y809184D01*
X721742Y807720D01*
X725170D01*
Y811148D01*
D02*
G37*
G36*
X896979Y809767D02*
Y806340D01*
X900406D01*
X899800Y807803D01*
X898442Y809161D01*
X896979Y809767D01*
D02*
G37*
G36*
X1440447Y1200818D02*
X1437373D01*
X1434402Y1200022D01*
X1431740Y1198485D01*
X1429565Y1196311D01*
X1428028Y1193648D01*
X1427232Y1190677D01*
Y1187603D01*
X1428028Y1184632D01*
X1429565Y1181970D01*
X1430804Y1180731D01*
Y1012482D01*
X1226481Y808159D01*
X1225394Y806743D01*
X1225165Y806189D01*
X1223895Y806441D01*
Y867556D01*
X1223562Y869225D01*
X1222617Y870640D01*
X1221202Y871586D01*
X1219533Y871918D01*
X1217864Y871586D01*
X1216449Y870640D01*
X1215503Y869225D01*
X1215171Y867556D01*
Y731187D01*
X1215503Y729518D01*
X1216449Y728103D01*
X1225006Y719546D01*
X1226421Y718600D01*
X1228090Y718268D01*
X1229759Y718600D01*
X1231174Y719546D01*
X1232120Y720961D01*
X1232452Y722630D01*
X1232120Y724299D01*
X1231174Y725714D01*
X1223895Y732994D01*
Y800208D01*
X1225165Y800461D01*
X1225394Y799906D01*
X1226481Y798491D01*
X1227896Y797404D01*
X1229545Y796721D01*
X1231315Y796488D01*
X1233084Y796721D01*
X1234733Y797404D01*
X1236149Y798491D01*
X1442474Y1004816D01*
X1443561Y1006232D01*
X1444243Y1007881D01*
X1444476Y1009650D01*
Y1178869D01*
X1446080Y1179795D01*
X1448255Y1181970D01*
X1449792Y1184632D01*
X1450588Y1187603D01*
Y1190677D01*
X1449792Y1193648D01*
X1448255Y1196311D01*
X1446080Y1198485D01*
X1443418Y1200022D01*
X1440447Y1200818D01*
D02*
G37*
G36*
X869568Y806450D02*
X866140D01*
Y803022D01*
X867604Y803629D01*
X868961Y804986D01*
X869568Y806450D01*
D02*
G37*
G36*
X863600D02*
X860172D01*
X860779Y804986D01*
X862136Y803629D01*
X863600Y803022D01*
Y806450D01*
D02*
G37*
G36*
X731138Y805180D02*
X727710D01*
Y801752D01*
X729174Y802359D01*
X730531Y803716D01*
X731138Y805180D01*
D02*
G37*
G36*
X725170D02*
X721742D01*
X722349Y803716D01*
X723706Y802359D01*
X725170Y801752D01*
Y805180D01*
D02*
G37*
G36*
X1151270Y804697D02*
Y801270D01*
X1154697D01*
X1154090Y802733D01*
X1152733Y804090D01*
X1151270Y804697D01*
D02*
G37*
G36*
X1148730D02*
X1147267Y804090D01*
X1145910Y802733D01*
X1145304Y801270D01*
X1148730D01*
Y804697D01*
D02*
G37*
G36*
X1001270D02*
Y801270D01*
X1004697D01*
X1004090Y802733D01*
X1002733Y804090D01*
X1001270Y804697D01*
D02*
G37*
G36*
X998730D02*
X997267Y804090D01*
X995910Y802733D01*
X995303Y801270D01*
X998730D01*
Y804697D01*
D02*
G37*
G36*
X751270D02*
Y801270D01*
X754697D01*
X754090Y802733D01*
X752733Y804090D01*
X751270Y804697D01*
D02*
G37*
G36*
X748730D02*
X747267Y804090D01*
X745910Y802733D01*
X745303Y801270D01*
X748730D01*
Y804697D01*
D02*
G37*
G36*
X648730D02*
X647267Y804090D01*
X645910Y802733D01*
X645303Y801270D01*
X648730D01*
Y804697D01*
D02*
G37*
G36*
X601270D02*
Y801270D01*
X604697D01*
X604090Y802733D01*
X602733Y804090D01*
X601270Y804697D01*
D02*
G37*
G36*
X598730D02*
X597267Y804090D01*
X595910Y802733D01*
X595303Y801270D01*
X598730D01*
Y804697D01*
D02*
G37*
G36*
X1154697Y798730D02*
X1151270D01*
Y795303D01*
X1152733Y795910D01*
X1154090Y797267D01*
X1154697Y798730D01*
D02*
G37*
G36*
X1148730D02*
X1145304D01*
X1145910Y797267D01*
X1147267Y795910D01*
X1148730Y795303D01*
Y798730D01*
D02*
G37*
G36*
X754697D02*
X751270D01*
Y795303D01*
X752733Y795910D01*
X754090Y797267D01*
X754697Y798730D01*
D02*
G37*
G36*
X748730D02*
X745303D01*
X745910Y797267D01*
X747267Y795910D01*
X748730Y795303D01*
Y798730D01*
D02*
G37*
G36*
X648730D02*
X645303D01*
X645910Y797267D01*
X647267Y795910D01*
X648730Y795303D01*
Y798730D01*
D02*
G37*
G36*
X604697D02*
X601270D01*
Y795303D01*
X602733Y795910D01*
X604090Y797267D01*
X604697Y798730D01*
D02*
G37*
G36*
X598730D02*
X595303D01*
X595910Y797267D01*
X597267Y795910D01*
X598730Y795303D01*
Y798730D01*
D02*
G37*
G36*
X850900Y797049D02*
Y793622D01*
X854327D01*
X853721Y795085D01*
X852363Y796443D01*
X850900Y797049D01*
D02*
G37*
G36*
X848360D02*
X846896Y796443D01*
X845538Y795085D01*
X844932Y793622D01*
X848360D01*
Y797049D01*
D02*
G37*
G36*
X1086897Y808882D02*
X1084355D01*
X1081901Y808224D01*
X1079700Y806953D01*
X1077903Y805156D01*
X1076632Y802955D01*
X1075974Y800501D01*
Y797959D01*
X1076632Y795504D01*
X1077903Y793303D01*
X1079700Y791506D01*
X1081901Y790236D01*
X1084355Y789578D01*
X1086897D01*
X1089352Y790236D01*
X1091553Y791506D01*
X1093350Y793303D01*
X1094620Y795504D01*
X1095278Y797959D01*
Y800501D01*
X1094620Y802955D01*
X1093350Y805156D01*
X1091553Y806953D01*
X1089352Y808224D01*
X1086897Y808882D01*
D02*
G37*
G36*
X854327Y791081D02*
X850900D01*
Y787654D01*
X852363Y788260D01*
X853721Y789618D01*
X854327Y791081D01*
D02*
G37*
G36*
X848360D02*
X844932D01*
X845538Y789618D01*
X846896Y788260D01*
X848360Y787654D01*
Y791081D01*
D02*
G37*
G36*
X1034668Y788670D02*
X1031240D01*
Y785242D01*
X1032704Y785849D01*
X1034061Y787206D01*
X1034668Y788670D01*
D02*
G37*
G36*
X1043940Y767968D02*
Y764540D01*
X1047368D01*
X1046761Y766004D01*
X1045404Y767361D01*
X1043940Y767968D01*
D02*
G37*
G36*
X1041400D02*
X1039936Y767361D01*
X1038579Y766004D01*
X1037972Y764540D01*
X1041400D01*
Y767968D01*
D02*
G37*
G36*
X1086897Y783482D02*
X1084355D01*
X1081901Y782824D01*
X1079700Y781553D01*
X1077903Y779756D01*
X1076632Y777555D01*
X1075974Y775101D01*
Y772559D01*
X1076632Y770104D01*
X1077903Y767903D01*
X1079700Y766106D01*
X1081901Y764836D01*
X1084355Y764178D01*
X1086897D01*
X1089352Y764836D01*
X1091553Y766106D01*
X1093350Y767903D01*
X1094620Y770104D01*
X1095278Y772559D01*
Y775101D01*
X1094620Y777555D01*
X1093350Y779756D01*
X1091553Y781553D01*
X1089352Y782824D01*
X1086897Y783482D01*
D02*
G37*
G36*
X1047368Y762000D02*
X1043940D01*
Y758572D01*
X1045404Y759179D01*
X1046761Y760536D01*
X1047368Y762000D01*
D02*
G37*
G36*
X1041400D02*
X1037972D01*
X1038579Y760536D01*
X1039936Y759179D01*
X1041400Y758572D01*
Y762000D01*
D02*
G37*
G36*
X1126270Y754697D02*
Y751270D01*
X1129697D01*
X1129090Y752733D01*
X1127733Y754090D01*
X1126270Y754697D01*
D02*
G37*
G36*
X1123730D02*
X1122267Y754090D01*
X1120910Y752733D01*
X1120304Y751270D01*
X1123730D01*
Y754697D01*
D02*
G37*
G36*
X926270D02*
Y751270D01*
X929697D01*
X929090Y752733D01*
X927733Y754090D01*
X926270Y754697D01*
D02*
G37*
G36*
X923730D02*
X922267Y754090D01*
X920910Y752733D01*
X920303Y751270D01*
X923730D01*
Y754697D01*
D02*
G37*
G36*
X676270D02*
Y751270D01*
X679697D01*
X679090Y752733D01*
X677733Y754090D01*
X676270Y754697D01*
D02*
G37*
G36*
X673730D02*
X672267Y754090D01*
X670910Y752733D01*
X670303Y751270D01*
X673730D01*
Y754697D01*
D02*
G37*
G36*
X1095278Y758082D02*
X1075974D01*
Y746364D01*
X1075053Y745716D01*
X1074704Y745612D01*
X1073770Y745798D01*
X1073770Y745798D01*
X1045570D01*
X1044972Y746395D01*
X1043478Y747014D01*
X1041862D01*
X1040368Y746395D01*
X1039225Y745252D01*
X1038606Y743758D01*
Y742142D01*
X1039225Y740648D01*
X1040368Y739505D01*
X1041862Y738886D01*
X1043478D01*
X1044972Y739505D01*
X1045570Y740102D01*
X1071170D01*
X1072111Y739399D01*
X1072328Y738309D01*
X1072945Y737385D01*
X1074582Y735749D01*
X1074582Y735749D01*
X1075506Y735132D01*
X1076595Y734915D01*
X1076595Y734915D01*
X1082238D01*
X1107132Y710020D01*
Y619030D01*
X1104307Y616204D01*
X1103462D01*
X1101968Y615585D01*
X1100825Y614442D01*
X1100206Y612948D01*
Y611332D01*
X1100825Y609838D01*
X1101968Y608695D01*
X1103462Y608076D01*
X1105078D01*
X1106572Y608695D01*
X1107715Y609838D01*
X1108334Y611332D01*
Y612177D01*
X1111994Y615836D01*
X1111994Y615836D01*
X1112611Y616760D01*
X1112828Y617850D01*
Y711200D01*
X1112828Y711200D01*
X1112611Y712290D01*
X1111994Y713214D01*
X1087603Y737605D01*
X1088089Y738778D01*
X1095278D01*
Y758082D01*
D02*
G37*
G36*
X679697Y748730D02*
X676270D01*
Y745303D01*
X677733Y745910D01*
X679090Y747267D01*
X679697Y748730D01*
D02*
G37*
G36*
X673730D02*
X670303D01*
X670910Y747267D01*
X672267Y745910D01*
X673730Y745303D01*
Y748730D01*
D02*
G37*
G36*
X1129697D02*
X1126270D01*
Y745303D01*
X1127733Y745910D01*
X1129090Y747267D01*
X1129697Y748730D01*
D02*
G37*
G36*
X1123730D02*
X1120304D01*
X1120910Y747267D01*
X1122267Y745910D01*
X1123730Y745303D01*
Y748730D01*
D02*
G37*
G36*
X929697D02*
X926270D01*
Y745303D01*
X927733Y745910D01*
X929090Y747267D01*
X929697Y748730D01*
D02*
G37*
G36*
X923730D02*
X920303D01*
X920910Y747267D01*
X922267Y745910D01*
X923730Y745303D01*
Y748730D01*
D02*
G37*
G36*
X740410Y745108D02*
Y741680D01*
X743838D01*
X743231Y743144D01*
X741874Y744501D01*
X740410Y745108D01*
D02*
G37*
G36*
X737870D02*
X736406Y744501D01*
X735049Y743144D01*
X734442Y741680D01*
X737870D01*
Y745108D01*
D02*
G37*
G36*
X707580Y754205D02*
X699580D01*
X697550Y753938D01*
X695657Y753154D01*
X694033Y751908D01*
X692786Y750283D01*
X692002Y748391D01*
X691735Y746360D01*
X692002Y744330D01*
X692786Y742438D01*
X694033Y740813D01*
X695657Y739566D01*
X697550Y738782D01*
X699580Y738515D01*
X707580D01*
X709611Y738782D01*
X711503Y739566D01*
X713127Y740813D01*
X714374Y742438D01*
X715158Y744330D01*
X715425Y746360D01*
X715158Y748391D01*
X714374Y750283D01*
X713127Y751908D01*
X711503Y753154D01*
X709611Y753938D01*
X707580Y754205D01*
D02*
G37*
G36*
X743838Y739140D02*
X740410D01*
Y735712D01*
X741874Y736319D01*
X743231Y737676D01*
X743838Y739140D01*
D02*
G37*
G36*
X737870D02*
X734442D01*
X735049Y737676D01*
X736406Y736319D01*
X737870Y735712D01*
Y739140D01*
D02*
G37*
G36*
X817880Y718438D02*
Y715010D01*
X821308D01*
X820701Y716474D01*
X819344Y717831D01*
X817880Y718438D01*
D02*
G37*
G36*
X815340D02*
X813876Y717831D01*
X812519Y716474D01*
X811912Y715010D01*
X815340D01*
Y718438D01*
D02*
G37*
G36*
X821308Y712470D02*
X817880D01*
Y709042D01*
X819344Y709649D01*
X820701Y711006D01*
X821308Y712470D01*
D02*
G37*
G36*
X815340D02*
X811912D01*
X812519Y711006D01*
X813876Y709649D01*
X815340Y709042D01*
Y712470D01*
D02*
G37*
G36*
X739140Y710819D02*
Y707391D01*
X742567D01*
X741961Y708855D01*
X740603Y710212D01*
X739140Y710819D01*
D02*
G37*
G36*
X736600D02*
X735136Y710212D01*
X733779Y708855D01*
X733172Y707391D01*
X736600D01*
Y710819D01*
D02*
G37*
G36*
X1100462Y707447D02*
Y704021D01*
X1103888D01*
X1103282Y705484D01*
X1101925Y706841D01*
X1100462Y707447D01*
D02*
G37*
G36*
X1097922D02*
X1096459Y706841D01*
X1095102Y705484D01*
X1094495Y704021D01*
X1097922D01*
Y707447D01*
D02*
G37*
G36*
X742567Y704851D02*
X739140D01*
Y701423D01*
X740603Y702030D01*
X741961Y703387D01*
X742567Y704851D01*
D02*
G37*
G36*
X736600D02*
X733172D01*
X733779Y703387D01*
X735136Y702030D01*
X736600Y701423D01*
Y704851D01*
D02*
G37*
G36*
X1251270Y704697D02*
Y701270D01*
X1254697D01*
X1254090Y702733D01*
X1252733Y704090D01*
X1251270Y704697D01*
D02*
G37*
G36*
X1248730D02*
X1247267Y704090D01*
X1245910Y702733D01*
X1245304Y701270D01*
X1248730D01*
Y704697D01*
D02*
G37*
G36*
X1201270D02*
Y701270D01*
X1204697D01*
X1204090Y702733D01*
X1202733Y704090D01*
X1201270Y704697D01*
D02*
G37*
G36*
X1198730D02*
X1197267Y704090D01*
X1195910Y702733D01*
X1195304Y701270D01*
X1198730D01*
Y704697D01*
D02*
G37*
G36*
X1151270D02*
Y701270D01*
X1154697D01*
X1154090Y702733D01*
X1152733Y704090D01*
X1151270Y704697D01*
D02*
G37*
G36*
X1148730D02*
X1147267Y704090D01*
X1145910Y702733D01*
X1145304Y701270D01*
X1148730D01*
Y704697D01*
D02*
G37*
G36*
X951270D02*
Y701270D01*
X954697D01*
X954090Y702733D01*
X952733Y704090D01*
X951270Y704697D01*
D02*
G37*
G36*
X948730D02*
X947267Y704090D01*
X945910Y702733D01*
X945303Y701270D01*
X948730D01*
Y704697D01*
D02*
G37*
G36*
X901270D02*
Y701270D01*
X904697D01*
X904090Y702733D01*
X902733Y704090D01*
X901270Y704697D01*
D02*
G37*
G36*
X898730D02*
X897267Y704090D01*
X895910Y702733D01*
X895303Y701270D01*
X898730D01*
Y704697D01*
D02*
G37*
G36*
X648730D02*
X647267Y704090D01*
X645910Y702733D01*
X645303Y701270D01*
X648730D01*
Y704697D01*
D02*
G37*
G36*
X599442D02*
Y701270D01*
X602868D01*
X602262Y702733D01*
X600905Y704090D01*
X599442Y704697D01*
D02*
G37*
G36*
X596902D02*
X595439Y704090D01*
X594082Y702733D01*
X593475Y701270D01*
X596902D01*
Y704697D01*
D02*
G37*
G36*
X1103888Y701481D02*
X1100462D01*
Y698054D01*
X1101925Y698660D01*
X1103282Y700017D01*
X1103888Y701481D01*
D02*
G37*
G36*
X1097922D02*
X1094495D01*
X1095102Y700017D01*
X1096459Y698660D01*
X1097922Y698054D01*
Y701481D01*
D02*
G37*
G36*
X1254697Y698730D02*
X1251270D01*
Y695303D01*
X1252733Y695910D01*
X1254090Y697267D01*
X1254697Y698730D01*
D02*
G37*
G36*
X1248730D02*
X1245304D01*
X1245910Y697267D01*
X1247267Y695910D01*
X1248730Y695303D01*
Y698730D01*
D02*
G37*
G36*
X1204697D02*
X1201270D01*
Y695303D01*
X1202733Y695910D01*
X1204090Y697267D01*
X1204697Y698730D01*
D02*
G37*
G36*
X1198730D02*
X1195304D01*
X1195910Y697267D01*
X1197267Y695910D01*
X1198730Y695303D01*
Y698730D01*
D02*
G37*
G36*
X1154697D02*
X1151270D01*
Y695303D01*
X1152733Y695910D01*
X1154090Y697267D01*
X1154697Y698730D01*
D02*
G37*
G36*
X1148730D02*
X1145304D01*
X1145910Y697267D01*
X1147267Y695910D01*
X1148730Y695303D01*
Y698730D01*
D02*
G37*
G36*
X954697D02*
X951270D01*
Y695303D01*
X952733Y695910D01*
X954090Y697267D01*
X954697Y698730D01*
D02*
G37*
G36*
X948730D02*
X945303D01*
X945910Y697267D01*
X947267Y695910D01*
X948730Y695303D01*
Y698730D01*
D02*
G37*
G36*
X904697D02*
X901270D01*
Y695303D01*
X902733Y695910D01*
X904090Y697267D01*
X904697Y698730D01*
D02*
G37*
G36*
X898730D02*
X895303D01*
X895910Y697267D01*
X897267Y695910D01*
X898730Y695303D01*
Y698730D01*
D02*
G37*
G36*
X648730D02*
X645303D01*
X645910Y697267D01*
X647267Y695910D01*
X648730Y695303D01*
Y698730D01*
D02*
G37*
G36*
X602868D02*
X599442D01*
Y695303D01*
X600905Y695910D01*
X602262Y697267D01*
X602868Y698730D01*
D02*
G37*
G36*
X596902D02*
X593475D01*
X594082Y697267D01*
X595439Y695910D01*
X596902Y695303D01*
Y698730D01*
D02*
G37*
G36*
X707580Y704205D02*
X699580D01*
X697550Y703938D01*
X695657Y703154D01*
X694033Y701907D01*
X692786Y700282D01*
X692002Y698390D01*
X691735Y696360D01*
X692002Y694329D01*
X692786Y692437D01*
X694033Y690813D01*
X695657Y689566D01*
X697550Y688782D01*
X699580Y688515D01*
X707580D01*
X709611Y688782D01*
X711503Y689566D01*
X713127Y690813D01*
X714374Y692437D01*
X715158Y694329D01*
X715425Y696360D01*
X715158Y698390D01*
X714374Y700282D01*
X713127Y701907D01*
X711503Y703154D01*
X709611Y703938D01*
X707580Y704205D01*
D02*
G37*
G36*
X824230Y681608D02*
Y678180D01*
X827658D01*
X827051Y679644D01*
X825694Y681001D01*
X824230Y681608D01*
D02*
G37*
G36*
X821690D02*
X820226Y681001D01*
X818869Y679644D01*
X818262Y678180D01*
X821690D01*
Y681608D01*
D02*
G37*
G36*
X1248743Y679214D02*
Y675786D01*
X1252170D01*
X1251564Y677250D01*
X1250206Y678607D01*
X1248743Y679214D01*
D02*
G37*
G36*
X827658Y675640D02*
X824230D01*
Y672212D01*
X825694Y672819D01*
X827051Y674176D01*
X827658Y675640D01*
D02*
G37*
G36*
X821690D02*
X818262D01*
X818869Y674176D01*
X820226Y672819D01*
X821690Y672212D01*
Y675640D01*
D02*
G37*
G36*
X1252170Y673246D02*
X1248743D01*
Y669819D01*
X1250206Y670425D01*
X1251564Y671783D01*
X1252170Y673246D01*
D02*
G37*
G36*
X1034588Y703834D02*
X1032972D01*
X1031478Y703215D01*
X1030335Y702072D01*
X1029716Y700578D01*
Y698962D01*
X1030335Y697468D01*
X1030932Y696870D01*
Y651605D01*
X1029662Y651353D01*
X1029090Y652733D01*
X1027733Y654090D01*
X1026270Y654697D01*
Y650000D01*
Y645303D01*
X1027733Y645910D01*
X1029090Y647267D01*
X1029662Y648647D01*
X1030932Y648395D01*
Y522610D01*
X1030932Y522610D01*
X1031149Y521520D01*
X1031766Y520596D01*
X1100206Y452157D01*
Y451312D01*
X1100825Y449818D01*
X1101968Y448675D01*
X1103462Y448056D01*
X1105078D01*
X1106572Y448675D01*
X1107715Y449818D01*
X1108334Y451312D01*
Y452928D01*
X1107715Y454422D01*
X1106572Y455565D01*
X1105078Y456184D01*
X1104233D01*
X1036628Y523790D01*
Y696870D01*
X1037225Y697468D01*
X1037844Y698962D01*
Y700578D01*
X1037225Y702072D01*
X1036082Y703215D01*
X1034588Y703834D01*
D02*
G37*
G36*
X1276270Y654697D02*
Y651270D01*
X1279697D01*
X1279090Y652733D01*
X1277733Y654090D01*
X1276270Y654697D01*
D02*
G37*
G36*
X1273730D02*
X1272267Y654090D01*
X1270910Y652733D01*
X1270304Y651270D01*
X1273730D01*
Y654697D01*
D02*
G37*
G36*
X1176270D02*
Y651270D01*
X1179697D01*
X1179090Y652733D01*
X1177733Y654090D01*
X1176270Y654697D01*
D02*
G37*
G36*
X1173730D02*
X1172267Y654090D01*
X1170910Y652733D01*
X1170304Y651270D01*
X1173730D01*
Y654697D01*
D02*
G37*
G36*
X1126270D02*
Y651270D01*
X1129697D01*
X1129090Y652733D01*
X1127733Y654090D01*
X1126270Y654697D01*
D02*
G37*
G36*
X1123730D02*
X1122267Y654090D01*
X1120910Y652733D01*
X1120304Y651270D01*
X1123730D01*
Y654697D01*
D02*
G37*
G36*
X1076270D02*
Y651270D01*
X1079697D01*
X1079090Y652733D01*
X1077733Y654090D01*
X1076270Y654697D01*
D02*
G37*
G36*
X1073730D02*
X1072267Y654090D01*
X1070910Y652733D01*
X1070303Y651270D01*
X1073730D01*
Y654697D01*
D02*
G37*
G36*
X1023730D02*
X1022267Y654090D01*
X1020910Y652733D01*
X1020303Y651270D01*
X1023730D01*
Y654697D01*
D02*
G37*
G36*
X776270D02*
Y651270D01*
X779697D01*
X779090Y652733D01*
X777733Y654090D01*
X776270Y654697D01*
D02*
G37*
G36*
X773730D02*
X772267Y654090D01*
X770910Y652733D01*
X770303Y651270D01*
X773730D01*
Y654697D01*
D02*
G37*
G36*
X726270D02*
Y651270D01*
X729697D01*
X729090Y652733D01*
X727733Y654090D01*
X726270Y654697D01*
D02*
G37*
G36*
X723730D02*
X722267Y654090D01*
X720910Y652733D01*
X720303Y651270D01*
X723730D01*
Y654697D01*
D02*
G37*
G36*
X676270D02*
Y651270D01*
X679697D01*
X679090Y652733D01*
X677733Y654090D01*
X676270Y654697D01*
D02*
G37*
G36*
X673730D02*
X672267Y654090D01*
X670910Y652733D01*
X670303Y651270D01*
X673730D01*
Y654697D01*
D02*
G37*
G36*
X1279697Y648730D02*
X1276270D01*
Y645303D01*
X1277733Y645910D01*
X1279090Y647267D01*
X1279697Y648730D01*
D02*
G37*
G36*
X1273730D02*
X1270304D01*
X1270910Y647267D01*
X1272267Y645910D01*
X1273730Y645303D01*
Y648730D01*
D02*
G37*
G36*
X1179697D02*
X1176270D01*
Y645303D01*
X1177733Y645910D01*
X1179090Y647267D01*
X1179697Y648730D01*
D02*
G37*
G36*
X1173730D02*
X1170304D01*
X1170910Y647267D01*
X1172267Y645910D01*
X1173730Y645303D01*
Y648730D01*
D02*
G37*
G36*
X1129697D02*
X1126270D01*
Y645303D01*
X1127733Y645910D01*
X1129090Y647267D01*
X1129697Y648730D01*
D02*
G37*
G36*
X1123730D02*
X1120304D01*
X1120910Y647267D01*
X1122267Y645910D01*
X1123730Y645303D01*
Y648730D01*
D02*
G37*
G36*
X1079697D02*
X1076270D01*
Y645303D01*
X1077733Y645910D01*
X1079090Y647267D01*
X1079697Y648730D01*
D02*
G37*
G36*
X1073730D02*
X1070303D01*
X1070910Y647267D01*
X1072267Y645910D01*
X1073730Y645303D01*
Y648730D01*
D02*
G37*
G36*
X1023730D02*
X1020303D01*
X1020910Y647267D01*
X1022267Y645910D01*
X1023730Y645303D01*
Y648730D01*
D02*
G37*
G36*
X779697D02*
X776270D01*
Y645303D01*
X777733Y645910D01*
X779090Y647267D01*
X779697Y648730D01*
D02*
G37*
G36*
X773730D02*
X770303D01*
X770910Y647267D01*
X772267Y645910D01*
X773730Y645303D01*
Y648730D01*
D02*
G37*
G36*
X729697D02*
X726270D01*
Y645303D01*
X727733Y645910D01*
X729090Y647267D01*
X729697Y648730D01*
D02*
G37*
G36*
X723730D02*
X720303D01*
X720910Y647267D01*
X722267Y645910D01*
X723730Y645303D01*
Y648730D01*
D02*
G37*
G36*
X679697D02*
X676270D01*
Y645303D01*
X677733Y645910D01*
X679090Y647267D01*
X679697Y648730D01*
D02*
G37*
G36*
X673730D02*
X670303D01*
X670910Y647267D01*
X672267Y645910D01*
X673730Y645303D01*
Y648730D01*
D02*
G37*
G36*
X883920Y647700D02*
X880492D01*
X881099Y646236D01*
X882456Y644879D01*
X883920Y644272D01*
Y647700D01*
D02*
G37*
G36*
X656533Y885762D02*
X637229D01*
Y866458D01*
X644048D01*
Y843634D01*
X625377Y824963D01*
X624763Y824044D01*
X624548Y822960D01*
X624548Y822960D01*
Y643890D01*
X624548Y643890D01*
X624763Y642806D01*
X625377Y641887D01*
X636016Y631248D01*
Y630382D01*
X636635Y628888D01*
X637778Y627745D01*
X639272Y627126D01*
X640888D01*
X642382Y627745D01*
X643525Y628888D01*
X644144Y630382D01*
Y631998D01*
X643525Y633492D01*
X642382Y634635D01*
X640888Y635254D01*
X640022D01*
X630212Y645063D01*
Y821787D01*
X648884Y840458D01*
X648884Y840458D01*
X649498Y841377D01*
X649713Y842461D01*
X649713Y842461D01*
Y866458D01*
X656533D01*
Y885762D01*
D02*
G37*
G36*
X889000Y626868D02*
Y623440D01*
X892428D01*
X891821Y624904D01*
X890464Y626261D01*
X889000Y626868D01*
D02*
G37*
G36*
X886460D02*
X884996Y626261D01*
X883639Y624904D01*
X883032Y623440D01*
X886460D01*
Y626868D01*
D02*
G37*
G36*
X972820Y625728D02*
Y622300D01*
X976248D01*
X975641Y623764D01*
X974284Y625121D01*
X972820Y625728D01*
D02*
G37*
G36*
X886460Y620900D02*
X883032D01*
X883639Y619436D01*
X884996Y618079D01*
X886460Y617472D01*
Y620900D01*
D02*
G37*
G36*
X952500Y619760D02*
X949072D01*
X949679Y618296D01*
X951036Y616939D01*
X952500Y616332D01*
Y619760D01*
D02*
G37*
G36*
X1185540Y616838D02*
Y613410D01*
X1188968D01*
X1188361Y614874D01*
X1187004Y616231D01*
X1185540Y616838D01*
D02*
G37*
G36*
X1183000D02*
X1181536Y616231D01*
X1180179Y614874D01*
X1179572Y613410D01*
X1183000D01*
Y616838D01*
D02*
G37*
G36*
X1165540D02*
Y613410D01*
X1168968D01*
X1168361Y614874D01*
X1167004Y616231D01*
X1165540Y616838D01*
D02*
G37*
G36*
X1163000D02*
X1161536Y616231D01*
X1160179Y614874D01*
X1159572Y613410D01*
X1163000D01*
Y616838D01*
D02*
G37*
G36*
X1125078Y616204D02*
X1123462D01*
X1121968Y615585D01*
X1120825Y614442D01*
X1120206Y612948D01*
Y611332D01*
X1120825Y609838D01*
X1121968Y608695D01*
X1123462Y608076D01*
X1125078D01*
X1126572Y608695D01*
X1127715Y609838D01*
X1128334Y611332D01*
Y612948D01*
X1127715Y614442D01*
X1126572Y615585D01*
X1125078Y616204D01*
D02*
G37*
G36*
X1188968Y610870D02*
X1185540D01*
Y607442D01*
X1187004Y608049D01*
X1188361Y609406D01*
X1188968Y610870D01*
D02*
G37*
G36*
X1183000D02*
X1179572D01*
X1180179Y609406D01*
X1181536Y608049D01*
X1183000Y607442D01*
Y610870D01*
D02*
G37*
G36*
X1168968D02*
X1165540D01*
Y607442D01*
X1167004Y608049D01*
X1168361Y609406D01*
X1168968Y610870D01*
D02*
G37*
G36*
X1163000D02*
X1159572D01*
X1160179Y609406D01*
X1161536Y608049D01*
X1163000Y607442D01*
Y610870D01*
D02*
G37*
G36*
X1101468Y604895D02*
Y601468D01*
X1104895D01*
X1104289Y602932D01*
X1102932Y604289D01*
X1101468Y604895D01*
D02*
G37*
G36*
X1251270Y604697D02*
Y601270D01*
X1254697D01*
X1254090Y602733D01*
X1252733Y604090D01*
X1251270Y604697D01*
D02*
G37*
G36*
X1248730D02*
X1247267Y604090D01*
X1245910Y602733D01*
X1245304Y601270D01*
X1248730D01*
Y604697D01*
D02*
G37*
G36*
X1201270D02*
Y601270D01*
X1204697D01*
X1204090Y602733D01*
X1202733Y604090D01*
X1201270Y604697D01*
D02*
G37*
G36*
X1198730D02*
X1197267Y604090D01*
X1195910Y602733D01*
X1195304Y601270D01*
X1198730D01*
Y604697D01*
D02*
G37*
G36*
X1051270D02*
Y601270D01*
X1054697D01*
X1054090Y602733D01*
X1052733Y604090D01*
X1051270Y604697D01*
D02*
G37*
G36*
X1048730D02*
X1047267Y604090D01*
X1045910Y602733D01*
X1045303Y601270D01*
X1048730D01*
Y604697D01*
D02*
G37*
G36*
X1001270D02*
Y601270D01*
X1004697D01*
X1004090Y602733D01*
X1002733Y604090D01*
X1001270Y604697D01*
D02*
G37*
G36*
X998730D02*
X997267Y604090D01*
X995910Y602733D01*
X995303Y601270D01*
X998730D01*
Y604697D01*
D02*
G37*
G36*
X951270D02*
Y601270D01*
X954697D01*
X954090Y602733D01*
X952733Y604090D01*
X951270Y604697D01*
D02*
G37*
G36*
X948730D02*
X947267Y604090D01*
X945910Y602733D01*
X945303Y601270D01*
X948730D01*
Y604697D01*
D02*
G37*
G36*
X601270D02*
Y601270D01*
X604697D01*
X604090Y602733D01*
X602733Y604090D01*
X601270Y604697D01*
D02*
G37*
G36*
X598730D02*
X597267Y604090D01*
X595910Y602733D01*
X595303Y601270D01*
X598730D01*
Y604697D01*
D02*
G37*
G36*
X1146161Y599588D02*
Y596161D01*
X1149588D01*
X1148982Y597625D01*
X1147625Y598982D01*
X1146161Y599588D01*
D02*
G37*
G36*
X1143622D02*
X1142158Y598982D01*
X1140801Y597625D01*
X1140195Y596161D01*
X1143622D01*
Y599588D01*
D02*
G37*
G36*
X1254697Y598730D02*
X1251270D01*
Y595303D01*
X1252733Y595910D01*
X1254090Y597267D01*
X1254697Y598730D01*
D02*
G37*
G36*
X1248730D02*
X1245304D01*
X1245910Y597267D01*
X1247267Y595910D01*
X1248730Y595303D01*
Y598730D01*
D02*
G37*
G36*
X1204697D02*
X1201270D01*
Y595303D01*
X1202733Y595910D01*
X1204090Y597267D01*
X1204697Y598730D01*
D02*
G37*
G36*
X1198730D02*
X1195304D01*
X1195910Y597267D01*
X1197267Y595910D01*
X1198730Y595303D01*
Y598730D01*
D02*
G37*
G36*
X1054697D02*
X1051270D01*
Y595303D01*
X1052733Y595910D01*
X1054090Y597267D01*
X1054697Y598730D01*
D02*
G37*
G36*
X1048730D02*
X1045303D01*
X1045910Y597267D01*
X1047267Y595910D01*
X1048730Y595303D01*
Y598730D01*
D02*
G37*
G36*
X1004697D02*
X1001270D01*
Y595303D01*
X1002733Y595910D01*
X1004090Y597267D01*
X1004697Y598730D01*
D02*
G37*
G36*
X998730D02*
X995303D01*
X995910Y597267D01*
X997267Y595910D01*
X998730Y595303D01*
Y598730D01*
D02*
G37*
G36*
X954697D02*
X951270D01*
Y595303D01*
X952733Y595910D01*
X954090Y597267D01*
X954697Y598730D01*
D02*
G37*
G36*
X948730D02*
X945303D01*
X945910Y597267D01*
X947267Y595910D01*
X948730Y595303D01*
Y598730D01*
D02*
G37*
G36*
X604697D02*
X601270D01*
Y595303D01*
X602733Y595910D01*
X604090Y597267D01*
X604697Y598730D01*
D02*
G37*
G36*
X598730D02*
X595303D01*
X595910Y597267D01*
X597267Y595910D01*
X598730Y595303D01*
Y598730D01*
D02*
G37*
G36*
X1149588Y593621D02*
X1146161D01*
Y590195D01*
X1147625Y590801D01*
X1148982Y592158D01*
X1149588Y593621D01*
D02*
G37*
G36*
X1143622D02*
X1140195D01*
X1140801Y592158D01*
X1142158Y590801D01*
X1143622Y590195D01*
Y593621D01*
D02*
G37*
G36*
X1519533Y574668D02*
X1515687D01*
X1511914Y573918D01*
X1508360Y572445D01*
X1505162Y570308D01*
X1502442Y567588D01*
X1500305Y564390D01*
X1498832Y560836D01*
X1498082Y557063D01*
Y553217D01*
X1498832Y549444D01*
X1500305Y545890D01*
X1502442Y542692D01*
X1505162Y539972D01*
X1508360Y537835D01*
X1511914Y536362D01*
X1515687Y535612D01*
X1519533D01*
X1523306Y536362D01*
X1526860Y537835D01*
X1530058Y539972D01*
X1532778Y542692D01*
X1534915Y545890D01*
X1536388Y549444D01*
X1537138Y553217D01*
Y557063D01*
X1536388Y560836D01*
X1534915Y564390D01*
X1532778Y567588D01*
X1530058Y570308D01*
X1526860Y572445D01*
X1523306Y573918D01*
X1519533Y574668D01*
D02*
G37*
G36*
X1440447Y478618D02*
X1437373D01*
X1434402Y477822D01*
X1431740Y476285D01*
X1429565Y474110D01*
X1428028Y471447D01*
X1427232Y468477D01*
Y465403D01*
X1428028Y462433D01*
X1429565Y459770D01*
X1431740Y457595D01*
X1434402Y456058D01*
X1437373Y455262D01*
X1440447D01*
X1443418Y456058D01*
X1446080Y457595D01*
X1448255Y459770D01*
X1449792Y462433D01*
X1450588Y465403D01*
Y468477D01*
X1449792Y471447D01*
X1448255Y474110D01*
X1446080Y476285D01*
X1443418Y477822D01*
X1440447Y478618D01*
D02*
G37*
G36*
X1185540Y456818D02*
Y453390D01*
X1188968D01*
X1188361Y454854D01*
X1187004Y456211D01*
X1185540Y456818D01*
D02*
G37*
G36*
X1183000D02*
X1181536Y456211D01*
X1180179Y454854D01*
X1179572Y453390D01*
X1183000D01*
Y456818D01*
D02*
G37*
G36*
X1045540D02*
Y453390D01*
X1048968D01*
X1048361Y454854D01*
X1047004Y456211D01*
X1045540Y456818D01*
D02*
G37*
G36*
X1043000D02*
X1041536Y456211D01*
X1040179Y454854D01*
X1039572Y453390D01*
X1043000D01*
Y456818D01*
D02*
G37*
G36*
X1075228Y715264D02*
X1073612D01*
X1072118Y714645D01*
X1070975Y713502D01*
X1070356Y712008D01*
Y710392D01*
X1070975Y708898D01*
X1071572Y708300D01*
Y676910D01*
X1071572Y676910D01*
X1071789Y675820D01*
X1072406Y674896D01*
X1083002Y664300D01*
Y586740D01*
X1083002Y586740D01*
X1083219Y585650D01*
X1083836Y584726D01*
X1141422Y527140D01*
Y455020D01*
X1140825Y454422D01*
X1140206Y452928D01*
Y451312D01*
X1140825Y449818D01*
X1141968Y448675D01*
X1143462Y448056D01*
X1145078D01*
X1146572Y448675D01*
X1147715Y449818D01*
X1148334Y451312D01*
Y452928D01*
X1147715Y454422D01*
X1147118Y455020D01*
Y528320D01*
X1146901Y529410D01*
X1146284Y530334D01*
X1146284Y530334D01*
X1088698Y587920D01*
Y598694D01*
X1089968Y599220D01*
X1161422Y527766D01*
Y455020D01*
X1160825Y454422D01*
X1160206Y452928D01*
Y451312D01*
X1160825Y449818D01*
X1161968Y448675D01*
X1163462Y448056D01*
X1165078D01*
X1166572Y448675D01*
X1167715Y449818D01*
X1168334Y451312D01*
Y452928D01*
X1167715Y454422D01*
X1167118Y455020D01*
Y528945D01*
X1167118Y528945D01*
X1166901Y530035D01*
X1166284Y530959D01*
X1102469Y594773D01*
X1102717Y596019D01*
X1102932Y596108D01*
X1104289Y597465D01*
X1104895Y598928D01*
X1100198D01*
Y600198D01*
X1098928D01*
Y604895D01*
X1097465Y604289D01*
X1096108Y602932D01*
X1096019Y602717D01*
X1094773Y602469D01*
X1093778Y603465D01*
Y687070D01*
X1093561Y688160D01*
X1092944Y689084D01*
X1092944Y689084D01*
X1088644Y693383D01*
Y694228D01*
X1088025Y695722D01*
X1086882Y696865D01*
X1085388Y697484D01*
X1083772D01*
X1082278Y696865D01*
X1081135Y695722D01*
X1080516Y694228D01*
Y692612D01*
X1081135Y691118D01*
X1082278Y689975D01*
X1083772Y689356D01*
X1084617D01*
X1088082Y685890D01*
Y669071D01*
X1086812Y668545D01*
X1077268Y678090D01*
Y708300D01*
X1077865Y708898D01*
X1078484Y710392D01*
Y712008D01*
X1077865Y713502D01*
X1076722Y714645D01*
X1075228Y715264D01*
D02*
G37*
G36*
X1057448Y707644D02*
X1055832D01*
X1054338Y707025D01*
X1053195Y705882D01*
X1052576Y704388D01*
Y702772D01*
X1053195Y701278D01*
X1054338Y700135D01*
X1055832Y699516D01*
X1056677D01*
X1061412Y694780D01*
Y581660D01*
X1061412Y581660D01*
X1061629Y580570D01*
X1062246Y579646D01*
X1121422Y520470D01*
Y455020D01*
X1120825Y454422D01*
X1120206Y452928D01*
Y451312D01*
X1120825Y449818D01*
X1121968Y448675D01*
X1123462Y448056D01*
X1125078D01*
X1126572Y448675D01*
X1127715Y449818D01*
X1128334Y451312D01*
Y452928D01*
X1127715Y454422D01*
X1127118Y455020D01*
Y521650D01*
X1127118Y521650D01*
X1126901Y522740D01*
X1126284Y523664D01*
X1126284Y523664D01*
X1067108Y582840D01*
Y695960D01*
X1067108Y695960D01*
X1066891Y697050D01*
X1066274Y697974D01*
X1060704Y703543D01*
Y704388D01*
X1060085Y705882D01*
X1058942Y707025D01*
X1057448Y707644D01*
D02*
G37*
G36*
X1188968Y450850D02*
X1185540D01*
Y447422D01*
X1187004Y448029D01*
X1188361Y449386D01*
X1188968Y450850D01*
D02*
G37*
G36*
X1183000D02*
X1179572D01*
X1180179Y449386D01*
X1181536Y448029D01*
X1183000Y447422D01*
Y450850D01*
D02*
G37*
G36*
X1048968D02*
X1045540D01*
Y447422D01*
X1047004Y448029D01*
X1048361Y449386D01*
X1048968Y450850D01*
D02*
G37*
G36*
X1043000D02*
X1039572D01*
X1040179Y449386D01*
X1041536Y448029D01*
X1043000Y447422D01*
Y450850D01*
D02*
G37*
G36*
X1510927Y433940D02*
X1510030D01*
Y407670D01*
X1536300D01*
Y408568D01*
X1535622Y412849D01*
X1534282Y416972D01*
X1532314Y420834D01*
X1529766Y424341D01*
X1526701Y427406D01*
X1523194Y429954D01*
X1519332Y431922D01*
X1515209Y433262D01*
X1510927Y433940D01*
D02*
G37*
G36*
X1507490D02*
X1506593D01*
X1502311Y433262D01*
X1498188Y431922D01*
X1494326Y429954D01*
X1490819Y427406D01*
X1487754Y424341D01*
X1485206Y420834D01*
X1483238Y416972D01*
X1481898Y412849D01*
X1481220Y408568D01*
Y407670D01*
X1507490D01*
Y433940D01*
D02*
G37*
G36*
X521538Y443338D02*
X517323D01*
X513159Y442679D01*
X509151Y441376D01*
X505395Y439463D01*
X501985Y436985D01*
X499005Y434005D01*
X496527Y430595D01*
X494614Y426839D01*
X493311Y422831D01*
X492652Y418667D01*
Y414453D01*
X493311Y410289D01*
X494614Y406281D01*
X496527Y402525D01*
X499005Y399115D01*
X501985Y396135D01*
X505395Y393657D01*
X509151Y391744D01*
X513159Y390441D01*
X517323Y389782D01*
X521538D01*
X525700Y390441D01*
X529709Y391744D01*
X533465Y393657D01*
X536875Y396135D01*
X539855Y399115D01*
X542333Y402525D01*
X544246Y406281D01*
X545549Y410289D01*
X546208Y414453D01*
Y418667D01*
X545549Y422831D01*
X544246Y426839D01*
X542333Y430595D01*
X539855Y434005D01*
X536875Y436985D01*
X533465Y439463D01*
X529709Y441376D01*
X525700Y442679D01*
X521538Y443338D01*
D02*
G37*
G36*
X1536300Y405130D02*
X1510030D01*
Y378860D01*
X1510927D01*
X1515209Y379538D01*
X1519332Y380878D01*
X1523194Y382846D01*
X1526701Y385394D01*
X1529766Y388459D01*
X1532314Y391966D01*
X1534282Y395828D01*
X1535622Y399951D01*
X1536300Y404232D01*
Y405130D01*
D02*
G37*
G36*
X1507490D02*
X1481220D01*
Y404232D01*
X1481898Y399951D01*
X1483238Y395828D01*
X1485206Y391966D01*
X1487754Y388459D01*
X1490819Y385394D01*
X1494326Y382846D01*
X1498188Y380878D01*
X1502311Y379538D01*
X1506593Y378860D01*
X1507490D01*
Y405130D01*
D02*
G37*
%LPD*%
G36*
X1065488Y1086986D02*
Y1081712D01*
X1065276Y1081200D01*
Y1079584D01*
X1065895Y1078090D01*
X1067038Y1076947D01*
X1067815Y1076625D01*
X1067644Y1075321D01*
X1067571Y1075312D01*
X1065922Y1074629D01*
X1064506Y1073542D01*
X1063419Y1072126D01*
X1062737Y1070478D01*
X1062504Y1068708D01*
Y1004619D01*
X1061234Y1004208D01*
X1059797Y1005644D01*
X1057681Y1006866D01*
X1055322Y1007498D01*
X1052878D01*
X1050519Y1006866D01*
X1048403Y1005644D01*
X1046676Y1003917D01*
X1045454Y1001801D01*
X1044822Y999443D01*
X1043774Y999234D01*
X1042850Y998617D01*
X1042850Y998617D01*
X1038583Y994351D01*
X1037445Y995008D01*
X1037978Y996999D01*
Y999442D01*
X1037346Y1001801D01*
X1036124Y1003917D01*
X1034397Y1005644D01*
X1032552Y1006709D01*
Y1023620D01*
X1032552Y1023620D01*
X1032259Y1025094D01*
X1031424Y1026344D01*
X1026528Y1031240D01*
X1046400Y1051112D01*
X1046400Y1051112D01*
X1047235Y1052362D01*
X1047528Y1053836D01*
X1047528Y1053836D01*
Y1070822D01*
X1064218Y1087512D01*
X1065488Y1086986D01*
D02*
G37*
D11*
X949960Y632002D02*
Y648970D01*
Y632002D02*
X982980Y598982D01*
Y530860D02*
Y598982D01*
X627380Y643890D02*
X640080Y631190D01*
X627380Y643890D02*
Y822960D01*
X646881Y842461D01*
Y876110D01*
X657860Y861689D02*
X672281Y876110D01*
X657860Y621030D02*
Y861689D01*
D70*
X1033780Y522610D02*
X1104270Y452120D01*
X1033780Y522610D02*
Y699770D01*
X1064260Y581660D02*
X1124270Y521650D01*
X1064260Y581660D02*
Y695960D01*
X1124270Y452120D02*
Y521650D01*
X1056640Y703580D02*
X1064260Y695960D01*
X1085850Y586740D02*
Y665480D01*
X1144270Y452120D02*
Y528320D01*
X1085850Y586740D02*
X1144270Y528320D01*
X1090930Y602285D02*
Y687070D01*
X1164270Y452120D02*
Y528945D01*
X1090930Y602285D02*
X1164270Y528945D01*
X1074420Y676910D02*
X1085850Y665480D01*
X1074420Y676910D02*
Y711200D01*
X1084580Y693420D02*
X1090930Y687070D01*
X1083417Y737763D02*
X1109980Y711200D01*
X1104270Y612140D02*
X1109980Y617850D01*
Y711200D01*
X1074959Y739399D02*
Y741761D01*
X1042670Y742950D02*
X1073770D01*
X1074959Y739399D02*
X1076595Y737763D01*
X1083417D01*
X1073770Y742950D02*
X1074959Y741761D01*
X947440Y1196228D02*
X955175Y1203963D01*
X954563Y821335D02*
X957094D01*
X957580Y820848D01*
X844550Y991870D02*
X929679Y906741D01*
X935990Y861060D02*
Y887730D01*
X819150Y963930D02*
Y991870D01*
X935990Y887730D02*
X1044864Y996604D01*
X929679Y867410D02*
Y906741D01*
X793750Y991870D02*
X794572Y991048D01*
X955175Y1203963D02*
X957583D01*
X947440Y1193820D02*
Y1196228D01*
X794572Y981325D02*
Y991048D01*
Y981325D02*
X954563Y821335D01*
X819150Y963930D02*
X953770Y829310D01*
X925772Y1205226D02*
X925830Y1205284D01*
X925772Y1200092D02*
Y1205226D01*
X985520Y1231900D02*
Y1251882D01*
X923290Y1197610D02*
X925772Y1200092D01*
X925830Y1223010D02*
X957580Y1254760D01*
X925830Y1205284D02*
Y1223010D01*
X1052484Y996604D02*
X1054100Y998220D01*
X957583Y1203963D02*
X985520Y1231900D01*
X1044864Y996604D02*
X1052484D01*
D72*
X1231315Y803325D02*
X1437640Y1009650D01*
Y1192823D01*
X534670Y674370D02*
X561340Y647700D01*
X534670Y570230D02*
X561340Y596900D01*
Y647700D01*
X538480Y550638D02*
Y570230D01*
X544338Y544780D02*
X888950D01*
X538480Y550638D02*
X544338Y544780D01*
X896620Y552450D02*
X900120Y555950D01*
X888950Y544780D02*
X896620Y552450D01*
X534670Y674370D02*
X557530Y697230D01*
X538480Y784860D02*
X557530Y765810D01*
Y697230D02*
Y765810D01*
X538480Y784860D02*
X551180Y797560D01*
Y916940D01*
X557221Y1043912D02*
X557530Y1043603D01*
Y923290D02*
Y1043603D01*
X897890Y578680D02*
X899990Y576580D01*
X892810Y637670D02*
X897890Y642750D01*
X1014600Y789940D02*
X1069340Y844680D01*
X900120Y555950D02*
Y562610D01*
X892810Y637670D02*
X901874Y628606D01*
X977900Y789940D02*
X1014600D01*
X967740Y779780D02*
X977900Y789940D01*
X897890Y578680D02*
Y614432D01*
X901874Y618416D01*
X967740Y663892D02*
Y779780D01*
X898020Y789940D02*
X977900D01*
X822406Y658034D02*
X897890D01*
X961882D02*
X967740Y663892D01*
X880240Y807720D02*
X898020Y789940D01*
X899990Y562740D02*
Y576580D01*
X901874Y618416D02*
Y628606D01*
X967740Y640080D02*
Y663892D01*
X1069340Y844680D02*
Y1068708D01*
X897890Y642750D02*
Y658034D01*
X961882D01*
X802640Y677800D02*
X822406Y658034D01*
X967740Y640080D02*
X971550Y636270D01*
D73*
X1176020Y852170D02*
X1211726Y887876D01*
X1233503D01*
X1176020Y681990D02*
X1183494Y674516D01*
X1176020Y681990D02*
Y852170D01*
X1183494Y674516D02*
X1247473D01*
X1219533Y731187D02*
Y867556D01*
Y731187D02*
X1228090Y722630D01*
D76*
X1028700Y998220D02*
Y1023620D01*
X1021080Y1031240D02*
X1028700Y1023620D01*
X1021080Y1031240D02*
X1043676Y1053836D01*
X1069076Y1092519D02*
X1069340Y1092783D01*
Y1080392D02*
Y1092628D01*
X707390Y909320D02*
X718820Y897890D01*
X829310D02*
X836930Y890270D01*
X831850Y739099D02*
X836930Y744179D01*
X707390Y1005840D02*
X732790Y1031240D01*
X1063777Y1092519D02*
X1069076D01*
X1017796Y1072418D02*
X1043676D01*
X836930Y744179D02*
Y890270D01*
X732790Y1031240D02*
X1021080D01*
X1015833Y1074380D02*
X1017796Y1072418D01*
X1043676D02*
X1063777Y1092519D01*
X989798Y1074380D02*
X1015833D01*
X707390Y909320D02*
Y1005840D01*
X1043676Y1053836D02*
Y1072418D01*
X718820Y897890D02*
X829310D01*
D77*
X721360Y1197610D02*
D03*
X767080Y996950D02*
D03*
X803910Y1197610D02*
D03*
X952500Y998220D02*
D03*
X1240790Y1187450D02*
D03*
X1003300Y998220D02*
D03*
X977900D02*
D03*
X843280Y996950D02*
D03*
X1028700Y998220D02*
D03*
X1054100D02*
D03*
X792480Y996950D02*
D03*
X817880D02*
D03*
X868680D02*
D03*
X923290Y1197610D02*
D03*
D78*
X1085626Y824630D02*
D03*
X697681Y876110D02*
D03*
X723081D02*
D03*
X672281D02*
D03*
X1085626Y773830D02*
D03*
Y799230D02*
D03*
D79*
X646881Y876110D02*
D03*
D80*
X1438910Y1189140D02*
D03*
Y466940D02*
D03*
D81*
X1360210Y1107140D02*
D03*
X1517610Y555140D02*
D03*
D82*
Y1189140D02*
D03*
D83*
X1215390Y1187450D02*
D03*
X927100Y998220D02*
D03*
X829310Y1197610D02*
D03*
X741680Y996950D02*
D03*
X948690Y1197610D02*
D03*
X746760D02*
D03*
D84*
X1085626Y748430D02*
D03*
D86*
X1056640Y703580D02*
D03*
X1033780Y699770D02*
D03*
X1074420Y711200D02*
D03*
X1124270Y612140D02*
D03*
X982980Y530860D02*
D03*
X949960Y648970D02*
D03*
X1124270Y452120D02*
D03*
X737870Y706121D02*
D03*
X822960Y676910D02*
D03*
X816610Y713740D02*
D03*
X739140Y740410D02*
D03*
X885190Y648970D02*
D03*
X887730Y622170D02*
D03*
X646430Y1207770D02*
D03*
X676910Y1244600D02*
D03*
X849630Y792352D02*
D03*
X726440Y806450D02*
D03*
X895709Y805070D02*
D03*
X726440Y843280D02*
D03*
X864870Y807720D02*
D03*
X833120Y1085850D02*
D03*
X1044270Y452120D02*
D03*
X1184270Y612140D02*
D03*
X1164270D02*
D03*
X1184270Y452120D02*
D03*
X953770Y621030D02*
D03*
X971550D02*
D03*
X1029970Y789940D02*
D03*
X1042670Y763270D02*
D03*
Y1104900D02*
D03*
X1069340Y1107700D02*
D03*
X989750Y1104390D02*
D03*
X1247473Y674516D02*
D03*
X1233503Y887876D02*
D03*
X1144270Y452120D02*
D03*
X1104270D02*
D03*
X1084580Y693420D02*
D03*
X1164270Y452120D02*
D03*
X1104270Y612140D02*
D03*
X1042670Y742950D02*
D03*
X640080Y631190D02*
D03*
X657860Y621030D02*
D03*
X1228090Y722630D02*
D03*
X1219533Y867556D02*
D03*
X1230630Y802640D02*
D03*
X534670Y570230D02*
D03*
Y674370D02*
D03*
X538480Y784860D02*
D03*
X551180Y916940D02*
D03*
X886460Y544830D02*
D03*
X558651Y920722D02*
D03*
X557530Y1043603D02*
D03*
X896620Y552450D02*
D03*
X1042250Y1072390D02*
D03*
X989798Y1074380D02*
D03*
X1069340Y1080392D02*
D03*
X891540Y544830D02*
D03*
X929679Y867410D02*
D03*
X986790Y1252220D02*
D03*
X1069340Y1092628D02*
D03*
X831850Y739099D02*
D03*
X935990Y861060D02*
D03*
X957580Y820848D02*
D03*
X953770Y829310D02*
D03*
X957580Y1254760D02*
D03*
D87*
X1100198Y600198D02*
D03*
X1099192Y702751D02*
D03*
X1075000Y650000D02*
D03*
X1050000Y600000D02*
D03*
X1200000D02*
D03*
X1144892Y594892D02*
D03*
X1025000Y650000D02*
D03*
X950000Y600000D02*
D03*
X1000000D02*
D03*
X600000D02*
D03*
Y800000D02*
D03*
Y900000D02*
D03*
X625000Y950000D02*
D03*
X600000Y1000000D02*
D03*
X625000Y1050000D02*
D03*
X600000Y1100000D02*
D03*
X625000Y1150000D02*
D03*
X675000Y650000D02*
D03*
X650000Y700000D02*
D03*
X675000Y750000D02*
D03*
X650000Y800000D02*
D03*
X675000Y850000D02*
D03*
X650000Y900000D02*
D03*
X675000Y950000D02*
D03*
X650000Y1000000D02*
D03*
Y1100000D02*
D03*
X675000Y1150000D02*
D03*
X725000Y650000D02*
D03*
X700000Y900000D02*
D03*
X725000Y950000D02*
D03*
X700000Y1000000D02*
D03*
X725000Y1050000D02*
D03*
X700000Y1100000D02*
D03*
X775000Y650000D02*
D03*
X750000Y800000D02*
D03*
X775000Y850000D02*
D03*
Y950000D02*
D03*
Y1050000D02*
D03*
Y1150000D02*
D03*
X825000Y850000D02*
D03*
Y1150000D02*
D03*
X875000Y850000D02*
D03*
X850000Y900000D02*
D03*
X875000Y950000D02*
D03*
Y1150000D02*
D03*
X900000Y700000D02*
D03*
X925000Y750000D02*
D03*
X900000Y900000D02*
D03*
X925000Y950000D02*
D03*
X900000Y1000000D02*
D03*
Y1100000D02*
D03*
X950000Y700000D02*
D03*
X975000Y850000D02*
D03*
Y950000D02*
D03*
Y1050000D02*
D03*
X950000Y1100000D02*
D03*
X975000Y1150000D02*
D03*
X1000000Y800000D02*
D03*
X1025000Y850000D02*
D03*
X1000000Y900000D02*
D03*
X1025000Y950000D02*
D03*
Y1050000D02*
D03*
Y1150000D02*
D03*
X1075000D02*
D03*
X1125000Y650000D02*
D03*
Y750000D02*
D03*
Y850000D02*
D03*
X1100000Y900000D02*
D03*
X1125000Y950000D02*
D03*
X1100000Y1000000D02*
D03*
X1125000Y1050000D02*
D03*
X1100000Y1100000D02*
D03*
X1125000Y1150000D02*
D03*
X1175000Y650000D02*
D03*
X1150000Y700000D02*
D03*
Y800000D02*
D03*
Y900000D02*
D03*
X1175000Y950000D02*
D03*
X1150000Y1000000D02*
D03*
X1175000Y1050000D02*
D03*
X1150000Y1100000D02*
D03*
X1175000Y1150000D02*
D03*
X1200000Y700000D02*
D03*
X1225000Y950000D02*
D03*
X1200000Y1000000D02*
D03*
X1225000Y1050000D02*
D03*
X1200000Y1100000D02*
D03*
X1225000Y1150000D02*
D03*
X1250000Y600000D02*
D03*
X1275000Y650000D02*
D03*
X1250000Y700000D02*
D03*
Y900000D02*
D03*
X1275000Y950000D02*
D03*
X1250000Y1000000D02*
D03*
X1275000Y1050000D02*
D03*
X1250000Y1100000D02*
D03*
X1275000Y1150000D02*
D03*
X598172Y700000D02*
D03*
X1069340Y1068708D02*
D03*
X1014600Y789940D02*
D03*
X880240Y807720D02*
D03*
X971550Y636270D02*
D03*
X887730Y637670D02*
D03*
X900120Y562610D02*
D03*
X899990Y576580D02*
D03*
X802640Y677800D02*
D03*
D88*
X1508760Y406400D02*
D03*
X1506220Y1250950D02*
D03*
X519430Y416560D02*
D03*
X516890Y1242060D02*
D03*
D89*
X703580Y696360D02*
D03*
Y746360D02*
D03*
M02*
