G04*
G04 #@! TF.GenerationSoftware,Altium Limited,Altium Designer,25.8.1 (18)*
G04*
G04 Layer_Color=8388736*
%FSLAX44Y44*%
%MOMM*%
G71*
G04*
G04 #@! TF.SameCoordinates,AA280DD8-45CF-45BC-BA98-0C41F0D0A2F3*
G04*
G04*
G04 #@! TF.FilePolarity,Negative*
G04*
G01*
G75*
%ADD19R,0.9906X0.9906*%
%ADD39R,0.5032X1.6782*%
%ADD40R,1.6782X0.5032*%
%ADD41R,1.0532X1.0532*%
%ADD42C,1.0500*%
%ADD43R,0.7532X0.7532*%
%ADD44R,1.0532X1.0532*%
%ADD45R,1.1432X0.9532*%
%ADD46R,0.9532X1.1432*%
%ADD47R,1.7532X1.2032*%
%ADD48O,3.2032X1.7032*%
%ADD49R,0.6532X1.6282*%
%ADD50R,0.7532X0.7532*%
%ADD51R,0.6532X1.6782*%
%ADD52R,0.8532X1.4032*%
%ADD53R,0.8032X1.4032*%
%ADD54R,1.8032X1.6532*%
%ADD55R,1.7532X2.4032*%
%ADD56R,2.1032X1.8532*%
%ADD57R,1.2032X1.1532*%
%ADD58R,1.5032X2.1032*%
%ADD59C,1.7032*%
%ADD60C,1.7780*%
%ADD61R,1.7780X1.7780*%
%ADD62C,2.1832*%
%ADD63C,3.7532*%
%ADD64C,2.5932*%
%ADD65R,1.7032X1.7032*%
%ADD66R,1.7780X1.7780*%
%ADD67C,1.4032*%
%ADD68C,0.6602*%
%ADD69C,5.2032*%
G36*
X1216200Y680870D02*
Y692870D01*
X1222200D01*
Y680870D01*
X1216200D01*
D02*
G37*
G36*
X1255320Y724450D02*
Y736450D01*
X1261820D01*
Y724450D01*
X1255320D01*
D02*
G37*
G36*
Y749450D02*
Y761450D01*
X1261820D01*
Y749450D01*
X1255320D01*
D02*
G37*
D19*
X1144270Y612140D02*
D03*
X1124270D02*
D03*
X1104270D02*
D03*
X1084270D02*
D03*
X1064270D02*
D03*
X1044270D02*
D03*
X1064270Y452120D02*
D03*
X1084270D02*
D03*
X1104270D02*
D03*
X1124270D02*
D03*
X1144270D02*
D03*
X1164270D02*
D03*
X1044270D02*
D03*
X1164270Y612140D02*
D03*
X1184270Y452120D02*
D03*
X1184270Y612140D02*
D03*
D39*
X944600Y674140D02*
D03*
X894600D02*
D03*
Y788900D02*
D03*
X889600D02*
D03*
X964600Y674140D02*
D03*
X899600D02*
D03*
X889600D02*
D03*
X904600D02*
D03*
X909600D02*
D03*
X914600D02*
D03*
X919600D02*
D03*
X924600D02*
D03*
X929600D02*
D03*
X934600D02*
D03*
X939600D02*
D03*
X949600D02*
D03*
X959600D02*
D03*
X964600Y788900D02*
D03*
X959600D02*
D03*
X949600D02*
D03*
X944600D02*
D03*
X939600D02*
D03*
X934600D02*
D03*
X924600D02*
D03*
X919600D02*
D03*
X914600D02*
D03*
X909600D02*
D03*
X904600D02*
D03*
X899600D02*
D03*
X954600Y674140D02*
D03*
Y788900D02*
D03*
X929600D02*
D03*
D40*
X984480Y704020D02*
D03*
X869720Y714020D02*
D03*
X984480Y709020D02*
D03*
Y699020D02*
D03*
Y694020D02*
D03*
Y744020D02*
D03*
Y769020D02*
D03*
X869720D02*
D03*
Y764020D02*
D03*
Y759020D02*
D03*
Y754020D02*
D03*
Y749020D02*
D03*
Y744020D02*
D03*
Y739020D02*
D03*
Y734020D02*
D03*
Y729020D02*
D03*
Y724020D02*
D03*
Y719020D02*
D03*
Y709020D02*
D03*
Y704020D02*
D03*
Y699020D02*
D03*
Y694020D02*
D03*
X984480Y714020D02*
D03*
Y719020D02*
D03*
Y724020D02*
D03*
Y729020D02*
D03*
Y734020D02*
D03*
Y749020D02*
D03*
Y754020D02*
D03*
Y759020D02*
D03*
Y764020D02*
D03*
Y739020D02*
D03*
D41*
X739140Y706250D02*
D03*
X822960Y678050D02*
D03*
X739140Y737740D02*
D03*
X887730Y622170D02*
D03*
X850900Y792480D02*
D03*
X971550Y620770D02*
D03*
X1069340Y1107700D02*
D03*
X971550Y636270D02*
D03*
X887730Y637670D02*
D03*
X850900Y776980D02*
D03*
X1069340Y1092200D02*
D03*
X739140Y753240D02*
D03*
Y690750D02*
D03*
X822960Y693550D02*
D03*
D42*
X646430Y1207770D02*
D03*
X676910Y1244600D02*
D03*
X675640Y1207770D02*
D03*
X986790Y1254760D02*
D03*
X957580D02*
D03*
X645160Y1244600D02*
D03*
D43*
X726440Y805942D02*
D03*
Y843534D02*
D03*
X833120Y1085088D02*
D03*
X1258570Y700278D02*
D03*
X1209636Y701238D02*
D03*
Y712922D02*
D03*
X1242060Y813562D02*
D03*
Y801878D02*
D03*
X1230630Y813562D02*
D03*
Y801878D02*
D03*
X1209040Y801370D02*
D03*
Y813054D02*
D03*
X1220470Y801388D02*
D03*
Y813072D02*
D03*
X1258570Y711962D02*
D03*
X1069340Y1068708D02*
D03*
X833120Y1096772D02*
D03*
X1069340Y1080392D02*
D03*
X741680Y831088D02*
D03*
Y842772D02*
D03*
X726440Y831850D02*
D03*
X741680Y794258D02*
D03*
Y805942D02*
D03*
X726440Y794258D02*
D03*
D44*
X864740Y807720D02*
D03*
X1030100Y789940D02*
D03*
X1014600D02*
D03*
X880240Y807720D02*
D03*
D45*
X953770Y621650D02*
D03*
Y635650D02*
D03*
D46*
X1042050Y764540D02*
D03*
X1028050D02*
D03*
D47*
X989750Y1104390D02*
D03*
X1042250D02*
D03*
X989750Y1072390D02*
D03*
X1042250D02*
D03*
X807300Y1066040D02*
D03*
X754800D02*
D03*
Y1098040D02*
D03*
X807300D02*
D03*
D48*
X537221Y1018512D02*
D03*
X538651Y895322D02*
D03*
X558651Y810232D02*
D03*
X557221Y701012D02*
D03*
X558651Y592882D02*
D03*
X538651Y618282D02*
D03*
Y567482D02*
D03*
X537221Y726412D02*
D03*
Y675612D02*
D03*
X538651Y835632D02*
D03*
Y784832D02*
D03*
Y946122D02*
D03*
X558651Y920722D02*
D03*
X537221Y1069312D02*
D03*
X557221Y1043912D02*
D03*
D49*
X1221180Y734800D02*
D03*
X1208180D02*
D03*
X1214680D02*
D03*
X1227680D02*
D03*
Y779040D02*
D03*
X1221180D02*
D03*
X1214680D02*
D03*
X1208180D02*
D03*
D50*
X1218692Y887730D02*
D03*
X1217676Y645160D02*
D03*
X1219708Y701040D02*
D03*
X580973Y587971D02*
D03*
X579639Y690852D02*
D03*
X580973Y807691D02*
D03*
X593863Y920722D02*
D03*
X582179D02*
D03*
X580973Y837359D02*
D03*
X592657D02*
D03*
Y807691D02*
D03*
X579639Y718792D02*
D03*
X591323D02*
D03*
Y690852D02*
D03*
X580973Y615951D02*
D03*
X592657D02*
D03*
Y587971D02*
D03*
X1231392Y701040D02*
D03*
X1229360Y645160D02*
D03*
X1207008Y887730D02*
D03*
X1251712Y778510D02*
D03*
X1240028D02*
D03*
D51*
X1301190Y703410D02*
D03*
X1294690D02*
D03*
X1288190D02*
D03*
X1307690D02*
D03*
Y762170D02*
D03*
X1301190D02*
D03*
X1294690D02*
D03*
X1288190D02*
D03*
D52*
X1249070Y730450D02*
D03*
X1268070D02*
D03*
Y755450D02*
D03*
X1249070D02*
D03*
D53*
X1228700Y686870D02*
D03*
X1209700D02*
D03*
Y661870D02*
D03*
X1228700D02*
D03*
D54*
X1230630Y836930D02*
D03*
Y866430D02*
D03*
X1205230Y836930D02*
D03*
Y866430D02*
D03*
D55*
X1211580Y914220D02*
D03*
Y955220D02*
D03*
D56*
X1217930Y756920D02*
D03*
D57*
X802640Y677800D02*
D03*
Y693800D02*
D03*
D58*
X693420Y798580D02*
D03*
X638420D02*
D03*
Y830580D02*
D03*
X693420D02*
D03*
D59*
X721360Y1197610D02*
D03*
X767080Y996950D02*
D03*
X803910Y1197610D02*
D03*
X952500Y998220D02*
D03*
X1240790Y1187450D02*
D03*
X1003300Y998220D02*
D03*
X977900D02*
D03*
X843280Y996950D02*
D03*
X1028700Y998220D02*
D03*
X1054100D02*
D03*
X792480Y996950D02*
D03*
X817880D02*
D03*
X868680D02*
D03*
X923290Y1197610D02*
D03*
D60*
X1085626Y824630D02*
D03*
X697681Y876110D02*
D03*
X723081D02*
D03*
X672281D02*
D03*
X1085626Y773830D02*
D03*
Y799230D02*
D03*
D61*
X646881Y876110D02*
D03*
D62*
X1438910Y1189140D02*
D03*
Y466940D02*
D03*
D63*
X1360210Y1107140D02*
D03*
X1517610Y555140D02*
D03*
D64*
Y1189140D02*
D03*
D65*
X1215390Y1187450D02*
D03*
X927100Y998220D02*
D03*
X829310Y1197610D02*
D03*
X741680Y996950D02*
D03*
X948690Y1197610D02*
D03*
X746760D02*
D03*
D66*
X1085626Y748430D02*
D03*
D67*
X703580Y696360D02*
D03*
Y746360D02*
D03*
D68*
X1100198Y600198D02*
D03*
X1099192Y702751D02*
D03*
X1075000Y650000D02*
D03*
X1050000Y600000D02*
D03*
X1200000D02*
D03*
X1144892Y594892D02*
D03*
X1025000Y650000D02*
D03*
X950000Y600000D02*
D03*
X1000000D02*
D03*
X600000D02*
D03*
Y800000D02*
D03*
Y900000D02*
D03*
X625000Y950000D02*
D03*
X600000Y1000000D02*
D03*
X625000Y1050000D02*
D03*
X600000Y1100000D02*
D03*
X625000Y1150000D02*
D03*
X675000Y650000D02*
D03*
X650000Y700000D02*
D03*
X675000Y750000D02*
D03*
X650000Y800000D02*
D03*
X675000Y850000D02*
D03*
X650000Y900000D02*
D03*
X675000Y950000D02*
D03*
X650000Y1000000D02*
D03*
Y1100000D02*
D03*
X675000Y1150000D02*
D03*
X725000Y650000D02*
D03*
X700000Y900000D02*
D03*
X725000Y950000D02*
D03*
X700000Y1000000D02*
D03*
X725000Y1050000D02*
D03*
X700000Y1100000D02*
D03*
X775000Y650000D02*
D03*
X750000Y800000D02*
D03*
X775000Y850000D02*
D03*
Y950000D02*
D03*
Y1050000D02*
D03*
Y1150000D02*
D03*
X825000Y850000D02*
D03*
Y1150000D02*
D03*
X875000Y850000D02*
D03*
X850000Y900000D02*
D03*
X875000Y950000D02*
D03*
Y1150000D02*
D03*
X900000Y700000D02*
D03*
X925000Y750000D02*
D03*
X900000Y900000D02*
D03*
X925000Y950000D02*
D03*
X900000Y1000000D02*
D03*
Y1100000D02*
D03*
X950000Y700000D02*
D03*
X975000Y850000D02*
D03*
Y950000D02*
D03*
Y1050000D02*
D03*
X950000Y1100000D02*
D03*
X975000Y1150000D02*
D03*
X1000000Y800000D02*
D03*
X1025000Y850000D02*
D03*
X1000000Y900000D02*
D03*
X1025000Y950000D02*
D03*
Y1050000D02*
D03*
Y1150000D02*
D03*
X1075000D02*
D03*
X1125000Y650000D02*
D03*
Y750000D02*
D03*
Y850000D02*
D03*
X1100000Y900000D02*
D03*
X1125000Y950000D02*
D03*
X1100000Y1000000D02*
D03*
X1125000Y1050000D02*
D03*
X1100000Y1100000D02*
D03*
X1125000Y1150000D02*
D03*
X1175000Y650000D02*
D03*
X1150000Y700000D02*
D03*
Y800000D02*
D03*
Y900000D02*
D03*
X1175000Y950000D02*
D03*
X1150000Y1000000D02*
D03*
X1175000Y1050000D02*
D03*
X1150000Y1100000D02*
D03*
X1175000Y1150000D02*
D03*
X1200000Y700000D02*
D03*
X1225000Y950000D02*
D03*
X1200000Y1000000D02*
D03*
X1225000Y1050000D02*
D03*
X1200000Y1100000D02*
D03*
X1225000Y1150000D02*
D03*
X1250000Y600000D02*
D03*
X1275000Y650000D02*
D03*
X1250000Y700000D02*
D03*
Y900000D02*
D03*
X1275000Y950000D02*
D03*
X1250000Y1000000D02*
D03*
X1275000Y1050000D02*
D03*
X1250000Y1100000D02*
D03*
X1275000Y1150000D02*
D03*
X598172Y700000D02*
D03*
X1069340Y1068708D02*
D03*
X1014600Y789940D02*
D03*
X880240Y807720D02*
D03*
X971550Y636270D02*
D03*
X887730Y637670D02*
D03*
X900120Y562610D02*
D03*
X899990Y576580D02*
D03*
X802640Y677800D02*
D03*
D69*
X1508760Y406400D02*
D03*
X1506220Y1250950D02*
D03*
X519430Y416560D02*
D03*
X516890Y1242060D02*
D03*
M02*
