G04*
G04 #@! TF.GenerationSoftware,Altium Limited,Altium Designer,25.8.1 (18)*
G04*
G04 Layer_Color=2752767*
%FSLAX44Y44*%
%MOMM*%
G71*
G04*
G04 #@! TF.SameCoordinates,AA280DD8-45CF-45BC-BA98-0C41F0D0A2F3*
G04*
G04*
G04 #@! TF.FilePolarity,Positive*
G04*
G01*
G75*
%ADD15C,0.1270*%
%ADD93C,0.1693*%
D15*
X716280Y1192530D02*
X718820D01*
X721360Y1195070D01*
X723900Y1192530D01*
X726440D01*
Y1195070D01*
X723900Y1197610D01*
X726440Y1200150D01*
Y1202690D01*
X723900D01*
X721360Y1200150D01*
X718820Y1202690D01*
X716280D01*
Y1200150D01*
X718820Y1197610D01*
X716280Y1195070D01*
Y1192530D01*
X762000Y991870D02*
X764540D01*
X767080Y994410D01*
X769620Y991870D01*
X772160D01*
Y994410D01*
X769620Y996950D01*
X772160Y999490D01*
Y1002030D01*
X769620D01*
X767080Y999490D01*
X764540Y1002030D01*
X762000D01*
Y999490D01*
X764540Y996950D01*
X762000Y994410D01*
Y991870D01*
X798830Y1192530D02*
X801370D01*
X803910Y1195070D01*
X806450Y1192530D01*
X808990D01*
Y1195070D01*
X806450Y1197610D01*
X808990Y1200150D01*
Y1202690D01*
X806450D01*
X803910Y1200150D01*
X801370Y1202690D01*
X798830D01*
Y1200150D01*
X801370Y1197610D01*
X798830Y1195070D01*
Y1192530D01*
X947420Y993140D02*
X949960D01*
X952500Y995680D01*
X955040Y993140D01*
X957580D01*
Y995680D01*
X955040Y998220D01*
X957580Y1000760D01*
Y1003300D01*
X955040D01*
X952500Y1000760D01*
X949960Y1003300D01*
X947420D01*
Y1000760D01*
X949960Y998220D01*
X947420Y995680D01*
Y993140D01*
X1080546Y819550D02*
X1083086D01*
X1085626Y822090D01*
X1088166Y819550D01*
X1090706D01*
Y822090D01*
X1088166Y824630D01*
X1090706Y827170D01*
Y829710D01*
X1088166D01*
X1085626Y827170D01*
X1083086Y829710D01*
X1080546D01*
Y827170D01*
X1083086Y824630D01*
X1080546Y822090D01*
Y819550D01*
X1235710Y1182370D02*
X1238250D01*
X1240790Y1184910D01*
X1243330Y1182370D01*
X1245870D01*
Y1184910D01*
X1243330Y1187450D01*
X1245870Y1189990D01*
Y1192530D01*
X1243330D01*
X1240790Y1189990D01*
X1238250Y1192530D01*
X1235710D01*
Y1189990D01*
X1238250Y1187450D01*
X1235710Y1184910D01*
Y1182370D01*
X692601Y871030D02*
X695141D01*
X697681Y873570D01*
X700221Y871030D01*
X702761D01*
Y873570D01*
X700221Y876110D01*
X702761Y878650D01*
Y881190D01*
X700221D01*
X697681Y878650D01*
X695141Y881190D01*
X692601D01*
Y878650D01*
X695141Y876110D01*
X692601Y873570D01*
Y871030D01*
X718001D02*
X720541D01*
X723081Y873570D01*
X725621Y871030D01*
X728161D01*
Y873570D01*
X725621Y876110D01*
X728161Y878650D01*
Y881190D01*
X725621D01*
X723081Y878650D01*
X720541Y881190D01*
X718001D01*
Y878650D01*
X720541Y876110D01*
X718001Y873570D01*
Y871030D01*
X667201D02*
X669741D01*
X672281Y873570D01*
X674821Y871030D01*
X677361D01*
Y873570D01*
X674821Y876110D01*
X677361Y878650D01*
Y881190D01*
X674821D01*
X672281Y878650D01*
X669741Y881190D01*
X667201D01*
Y878650D01*
X669741Y876110D01*
X667201Y873570D01*
Y871030D01*
X641801D02*
X644341D01*
X646881Y873570D01*
X649421Y871030D01*
X651961D01*
Y873570D01*
X649421Y876110D01*
X651961Y878650D01*
Y881190D01*
X649421D01*
X646881Y878650D01*
X644341Y881190D01*
X641801D01*
Y878650D01*
X644341Y876110D01*
X641801Y873570D01*
Y871030D01*
X1433830Y1189140D02*
X1438910Y1194220D01*
X1443990Y1189140D01*
X1438910Y1184060D01*
X1433830Y1189140D01*
Y466940D02*
X1438910Y472020D01*
X1443990Y466940D01*
X1438910Y461860D01*
X1433830Y466940D01*
X1360210Y1102060D02*
X1355130Y1112220D01*
X1365290D01*
X1360210Y1102060D01*
Y1104092D02*
X1357162Y1110188D01*
X1363258D01*
X1360210Y1104092D01*
X1517610Y550060D02*
X1512530Y560220D01*
X1522690D01*
X1517610Y550060D01*
Y552092D02*
X1514562Y558188D01*
X1520658D01*
X1517610Y552092D01*
Y1184060D02*
X1520150Y1186600D01*
X1522690D01*
X1520150Y1189140D01*
X1522690Y1191680D01*
X1520150D01*
X1517610Y1194220D01*
X1515070Y1191680D01*
X1512530D01*
X1515070Y1189140D01*
X1512530Y1186600D01*
X1515070D01*
X1517610Y1184060D01*
Y1186092D02*
X1519134Y1187616D01*
X1520658D01*
X1519134Y1189140D01*
X1520658Y1190664D01*
X1519134D01*
X1517610Y1192188D01*
X1516086Y1190664D01*
X1514562D01*
X1516086Y1189140D01*
X1514562Y1187616D01*
X1516086D01*
X1517610Y1186092D01*
X1210310Y1182370D02*
X1212850D01*
X1215390Y1184910D01*
X1217930Y1182370D01*
X1220470D01*
Y1184910D01*
X1217930Y1187450D01*
X1220470Y1189990D01*
Y1192530D01*
X1217930D01*
X1215390Y1189990D01*
X1212850Y1192530D01*
X1210310D01*
Y1189990D01*
X1212850Y1187450D01*
X1210310Y1184910D01*
Y1182370D01*
X922020Y993140D02*
X924560D01*
X927100Y995680D01*
X929640Y993140D01*
X932180D01*
Y995680D01*
X929640Y998220D01*
X932180Y1000760D01*
Y1003300D01*
X929640D01*
X927100Y1000760D01*
X924560Y1003300D01*
X922020D01*
Y1000760D01*
X924560Y998220D01*
X922020Y995680D01*
Y993140D01*
X824230Y1192530D02*
X826770D01*
X829310Y1195070D01*
X831850Y1192530D01*
X834390D01*
Y1195070D01*
X831850Y1197610D01*
X834390Y1200150D01*
Y1202690D01*
X831850D01*
X829310Y1200150D01*
X826770Y1202690D01*
X824230D01*
Y1200150D01*
X826770Y1197610D01*
X824230Y1195070D01*
Y1192530D01*
X736600Y991870D02*
X739140D01*
X741680Y994410D01*
X744220Y991870D01*
X746760D01*
Y994410D01*
X744220Y996950D01*
X746760Y999490D01*
Y1002030D01*
X744220D01*
X741680Y999490D01*
X739140Y1002030D01*
X736600D01*
Y999490D01*
X739140Y996950D01*
X736600Y994410D01*
Y991870D01*
X1080546Y743350D02*
X1083086D01*
X1085626Y745890D01*
X1088166Y743350D01*
X1090706D01*
Y745890D01*
X1088166Y748430D01*
X1090706Y750970D01*
Y753510D01*
X1088166D01*
X1085626Y750970D01*
X1083086Y753510D01*
X1080546D01*
Y750970D01*
X1083086Y748430D01*
X1080546Y745890D01*
Y743350D01*
X998220Y993140D02*
X1000760D01*
X1003300Y995680D01*
X1005840Y993140D01*
X1008380D01*
Y995680D01*
X1005840Y998220D01*
X1008380Y1000760D01*
Y1003300D01*
X1005840D01*
X1003300Y1000760D01*
X1000760Y1003300D01*
X998220D01*
Y1000760D01*
X1000760Y998220D01*
X998220Y995680D01*
Y993140D01*
X1080546Y768750D02*
X1083086D01*
X1085626Y771290D01*
X1088166Y768750D01*
X1090706D01*
Y771290D01*
X1088166Y773830D01*
X1090706Y776370D01*
Y778910D01*
X1088166D01*
X1085626Y776370D01*
X1083086Y778910D01*
X1080546D01*
Y776370D01*
X1083086Y773830D01*
X1080546Y771290D01*
Y768750D01*
X972820Y993140D02*
X975360D01*
X977900Y995680D01*
X980440Y993140D01*
X982980D01*
Y995680D01*
X980440Y998220D01*
X982980Y1000760D01*
Y1003300D01*
X980440D01*
X977900Y1000760D01*
X975360Y1003300D01*
X972820D01*
Y1000760D01*
X975360Y998220D01*
X972820Y995680D01*
Y993140D01*
X838200Y991870D02*
X840740D01*
X843280Y994410D01*
X845820Y991870D01*
X848360D01*
Y994410D01*
X845820Y996950D01*
X848360Y999490D01*
Y1002030D01*
X845820D01*
X843280Y999490D01*
X840740Y1002030D01*
X838200D01*
Y999490D01*
X840740Y996950D01*
X838200Y994410D01*
Y991870D01*
X943610Y1192530D02*
X946150D01*
X948690Y1195070D01*
X951230Y1192530D01*
X953770D01*
Y1195070D01*
X951230Y1197610D01*
X953770Y1200150D01*
Y1202690D01*
X951230D01*
X948690Y1200150D01*
X946150Y1202690D01*
X943610D01*
Y1200150D01*
X946150Y1197610D01*
X943610Y1195070D01*
Y1192530D01*
X1023620Y993140D02*
X1026160D01*
X1028700Y995680D01*
X1031240Y993140D01*
X1033780D01*
Y995680D01*
X1031240Y998220D01*
X1033780Y1000760D01*
Y1003300D01*
X1031240D01*
X1028700Y1000760D01*
X1026160Y1003300D01*
X1023620D01*
Y1000760D01*
X1026160Y998220D01*
X1023620Y995680D01*
Y993140D01*
X1049020D02*
X1051560D01*
X1054100Y995680D01*
X1056640Y993140D01*
X1059180D01*
Y995680D01*
X1056640Y998220D01*
X1059180Y1000760D01*
Y1003300D01*
X1056640D01*
X1054100Y1000760D01*
X1051560Y1003300D01*
X1049020D01*
Y1000760D01*
X1051560Y998220D01*
X1049020Y995680D01*
Y993140D01*
X787400Y991870D02*
X789940D01*
X792480Y994410D01*
X795020Y991870D01*
X797560D01*
Y994410D01*
X795020Y996950D01*
X797560Y999490D01*
Y1002030D01*
X795020D01*
X792480Y999490D01*
X789940Y1002030D01*
X787400D01*
Y999490D01*
X789940Y996950D01*
X787400Y994410D01*
Y991870D01*
X812800D02*
X815340D01*
X817880Y994410D01*
X820420Y991870D01*
X822960D01*
Y994410D01*
X820420Y996950D01*
X822960Y999490D01*
Y1002030D01*
X820420D01*
X817880Y999490D01*
X815340Y1002030D01*
X812800D01*
Y999490D01*
X815340Y996950D01*
X812800Y994410D01*
Y991870D01*
X863600D02*
X866140D01*
X868680Y994410D01*
X871220Y991870D01*
X873760D01*
Y994410D01*
X871220Y996950D01*
X873760Y999490D01*
Y1002030D01*
X871220D01*
X868680Y999490D01*
X866140Y1002030D01*
X863600D01*
Y999490D01*
X866140Y996950D01*
X863600Y994410D01*
Y991870D01*
X918210Y1192530D02*
X920750D01*
X923290Y1195070D01*
X925830Y1192530D01*
X928370D01*
Y1195070D01*
X925830Y1197610D01*
X928370Y1200150D01*
Y1202690D01*
X925830D01*
X923290Y1200150D01*
X920750Y1202690D01*
X918210D01*
Y1200150D01*
X920750Y1197610D01*
X918210Y1195070D01*
Y1192530D01*
X1080546Y794150D02*
X1083086D01*
X1085626Y796690D01*
X1088166Y794150D01*
X1090706D01*
Y796690D01*
X1088166Y799230D01*
X1090706Y801770D01*
Y804310D01*
X1088166D01*
X1085626Y801770D01*
X1083086Y804310D01*
X1080546D01*
Y801770D01*
X1083086Y799230D01*
X1080546Y796690D01*
Y794150D01*
X741680Y1192530D02*
X744220D01*
X746760Y1195070D01*
X749300Y1192530D01*
X751840D01*
Y1195070D01*
X749300Y1197610D01*
X751840Y1200150D01*
Y1202690D01*
X749300D01*
X746760Y1200150D01*
X744220Y1202690D01*
X741680D01*
Y1200150D01*
X744220Y1197610D01*
X741680Y1195070D01*
Y1192530D01*
X703580Y691280D02*
X698500Y701440D01*
X708660D01*
X703580Y691280D01*
Y741280D02*
X698500Y751440D01*
X708660D01*
X703580Y741280D01*
X1054100Y701040D02*
Y698500D01*
X1059180D01*
Y701040D01*
X1061720D01*
Y706120D01*
X1059180D01*
Y708660D01*
X1054100D01*
Y706120D01*
X1051560D01*
Y701040D01*
X1054100D01*
X1031240Y697230D02*
Y694690D01*
X1036320D01*
Y697230D01*
X1038860D01*
Y702310D01*
X1036320D01*
Y704850D01*
X1031240D01*
Y702310D01*
X1028700D01*
Y697230D01*
X1031240D01*
X1071880Y708660D02*
Y706120D01*
X1076960D01*
Y708660D01*
X1079500D01*
Y713740D01*
X1076960D01*
Y716280D01*
X1071880D01*
Y713740D01*
X1069340D01*
Y708660D01*
X1071880D01*
X1121730Y609600D02*
Y607060D01*
X1126810D01*
Y609600D01*
X1129350D01*
Y614680D01*
X1126810D01*
Y617220D01*
X1121730D01*
Y614680D01*
X1119190D01*
Y609600D01*
X1121730D01*
X980440Y528320D02*
Y525780D01*
X985520D01*
Y528320D01*
X988060D01*
Y533400D01*
X985520D01*
Y535940D01*
X980440D01*
Y533400D01*
X977900D01*
Y528320D01*
X980440D01*
X947420Y646430D02*
Y643890D01*
X952500D01*
Y646430D01*
X955040D01*
Y651510D01*
X952500D01*
Y654050D01*
X947420D01*
Y651510D01*
X944880D01*
Y646430D01*
X947420D01*
X1121730Y449580D02*
Y447040D01*
X1126810D01*
Y449580D01*
X1129350D01*
Y454660D01*
X1126810D01*
Y457200D01*
X1121730D01*
Y454660D01*
X1119190D01*
Y449580D01*
X1121730D01*
X735330Y703581D02*
Y701041D01*
X740410D01*
Y703581D01*
X742950D01*
Y708661D01*
X740410D01*
Y711201D01*
X735330D01*
Y708661D01*
X732790D01*
Y703581D01*
X735330D01*
X820420Y674370D02*
Y671830D01*
X825500D01*
Y674370D01*
X828040D01*
Y679450D01*
X825500D01*
Y681990D01*
X820420D01*
Y679450D01*
X817880D01*
Y674370D01*
X820420D01*
X814070Y711200D02*
Y708660D01*
X819150D01*
Y711200D01*
X821690D01*
Y716280D01*
X819150D01*
Y718820D01*
X814070D01*
Y716280D01*
X811530D01*
Y711200D01*
X814070D01*
X736600Y737870D02*
Y735330D01*
X741680D01*
Y737870D01*
X744220D01*
Y742950D01*
X741680D01*
Y745490D01*
X736600D01*
Y742950D01*
X734060D01*
Y737870D01*
X736600D01*
X882650Y646430D02*
Y643890D01*
X887730D01*
Y646430D01*
X890270D01*
Y651510D01*
X887730D01*
Y654050D01*
X882650D01*
Y651510D01*
X880110D01*
Y646430D01*
X882650D01*
X885190Y619630D02*
Y617090D01*
X890270D01*
Y619630D01*
X892810D01*
Y624710D01*
X890270D01*
Y627250D01*
X885190D01*
Y624710D01*
X882650D01*
Y619630D01*
X885190D01*
X643890Y1205230D02*
Y1202690D01*
X648970D01*
Y1205230D01*
X651510D01*
Y1210310D01*
X648970D01*
Y1212850D01*
X643890D01*
Y1210310D01*
X641350D01*
Y1205230D01*
X643890D01*
X674370Y1242060D02*
Y1239520D01*
X679450D01*
Y1242060D01*
X681990D01*
Y1247140D01*
X679450D01*
Y1249680D01*
X674370D01*
Y1247140D01*
X671830D01*
Y1242060D01*
X674370D01*
X847090Y789811D02*
Y787271D01*
X852170D01*
Y789811D01*
X854710D01*
Y794892D01*
X852170D01*
Y797431D01*
X847090D01*
Y794892D01*
X844550D01*
Y789811D01*
X847090D01*
X723900Y803910D02*
Y801370D01*
X728980D01*
Y803910D01*
X731520D01*
Y808990D01*
X728980D01*
Y811530D01*
X723900D01*
Y808990D01*
X721360D01*
Y803910D01*
X723900D01*
X893169Y802530D02*
Y799990D01*
X898249D01*
Y802530D01*
X900789D01*
Y807610D01*
X898249D01*
Y810150D01*
X893169D01*
Y807610D01*
X890629D01*
Y802530D01*
X893169D01*
X723900Y840740D02*
Y838200D01*
X728980D01*
Y840740D01*
X731520D01*
Y845820D01*
X728980D01*
Y848360D01*
X723900D01*
Y845820D01*
X721360D01*
Y840740D01*
X723900D01*
X862330Y805180D02*
Y802640D01*
X867410D01*
Y805180D01*
X869950D01*
Y810260D01*
X867410D01*
Y812800D01*
X862330D01*
Y810260D01*
X859790D01*
Y805180D01*
X862330D01*
X830580Y1083310D02*
Y1080770D01*
X835660D01*
Y1083310D01*
X838200D01*
Y1088390D01*
X835660D01*
Y1090930D01*
X830580D01*
Y1088390D01*
X828040D01*
Y1083310D01*
X830580D01*
X1041730Y449580D02*
Y447040D01*
X1046810D01*
Y449580D01*
X1049350D01*
Y454660D01*
X1046810D01*
Y457200D01*
X1041730D01*
Y454660D01*
X1039190D01*
Y449580D01*
X1041730D01*
X1181730Y609600D02*
Y607060D01*
X1186810D01*
Y609600D01*
X1189350D01*
Y614680D01*
X1186810D01*
Y617220D01*
X1181730D01*
Y614680D01*
X1179190D01*
Y609600D01*
X1181730D01*
X1503680Y401320D02*
Y411480D01*
X1513840D01*
Y401320D01*
X1503680D01*
X1161730Y609600D02*
Y607060D01*
X1166810D01*
Y609600D01*
X1169350D01*
Y614680D01*
X1166810D01*
Y617220D01*
X1161730D01*
Y614680D01*
X1159190D01*
Y609600D01*
X1161730D01*
X1181730Y449580D02*
Y447040D01*
X1186810D01*
Y449580D01*
X1189350D01*
Y454660D01*
X1186810D01*
Y457200D01*
X1181730D01*
Y454660D01*
X1179190D01*
Y449580D01*
X1181730D01*
X951230Y618490D02*
Y615950D01*
X956310D01*
Y618490D01*
X958850D01*
Y623570D01*
X956310D01*
Y626110D01*
X951230D01*
Y623570D01*
X948690D01*
Y618490D01*
X951230D01*
X969010D02*
Y615950D01*
X974090D01*
Y618490D01*
X976630D01*
Y623570D01*
X974090D01*
Y626110D01*
X969010D01*
Y623570D01*
X966470D01*
Y618490D01*
X969010D01*
X1027430Y787400D02*
Y784860D01*
X1032510D01*
Y787400D01*
X1035050D01*
Y792480D01*
X1032510D01*
Y795020D01*
X1027430D01*
Y792480D01*
X1024890D01*
Y787400D01*
X1027430D01*
X1040130Y760730D02*
Y758190D01*
X1045210D01*
Y760730D01*
X1047750D01*
Y765810D01*
X1045210D01*
Y768350D01*
X1040130D01*
Y765810D01*
X1037590D01*
Y760730D01*
X1040130D01*
Y1102360D02*
Y1099820D01*
X1045210D01*
Y1102360D01*
X1047750D01*
Y1107440D01*
X1045210D01*
Y1109980D01*
X1040130D01*
Y1107440D01*
X1037590D01*
Y1102360D01*
X1040130D01*
X1066800Y1105160D02*
Y1102620D01*
X1071880D01*
Y1105160D01*
X1074420D01*
Y1110240D01*
X1071880D01*
Y1112780D01*
X1066800D01*
Y1110240D01*
X1064260D01*
Y1105160D01*
X1066800D01*
X1501140Y1245870D02*
Y1256030D01*
X1511300D01*
Y1245870D01*
X1501140D01*
X987210Y1101850D02*
Y1099310D01*
X992290D01*
Y1101850D01*
X994830D01*
Y1106930D01*
X992290D01*
Y1109470D01*
X987210D01*
Y1106930D01*
X984670D01*
Y1101850D01*
X987210D01*
X1244933Y671976D02*
Y669436D01*
X1250013D01*
Y671976D01*
X1252553D01*
Y677056D01*
X1250013D01*
Y679596D01*
X1244933D01*
Y677056D01*
X1242393D01*
Y671976D01*
X1244933D01*
X1230963Y885336D02*
Y882796D01*
X1236043D01*
Y885336D01*
X1238583D01*
Y890416D01*
X1236043D01*
Y892956D01*
X1230963D01*
Y890416D01*
X1228423D01*
Y885336D01*
X1230963D01*
X1141730Y449580D02*
Y447040D01*
X1146810D01*
Y449580D01*
X1149350D01*
Y454660D01*
X1146810D01*
Y457200D01*
X1141730D01*
Y454660D01*
X1139190D01*
Y449580D01*
X1141730D01*
X1101730D02*
Y447040D01*
X1106810D01*
Y449580D01*
X1109350D01*
Y454660D01*
X1106810D01*
Y457200D01*
X1101730D01*
Y454660D01*
X1099190D01*
Y449580D01*
X1101730D01*
X1082040Y690880D02*
Y688340D01*
X1087120D01*
Y690880D01*
X1089660D01*
Y695960D01*
X1087120D01*
Y698500D01*
X1082040D01*
Y695960D01*
X1079500D01*
Y690880D01*
X1082040D01*
X1161730Y449580D02*
Y447040D01*
X1166810D01*
Y449580D01*
X1169350D01*
Y454660D01*
X1166810D01*
Y457200D01*
X1161730D01*
Y454660D01*
X1159190D01*
Y449580D01*
X1161730D01*
X1101730Y609600D02*
Y607060D01*
X1106810D01*
Y609600D01*
X1109350D01*
Y614680D01*
X1106810D01*
Y617220D01*
X1101730D01*
Y614680D01*
X1099190D01*
Y609600D01*
X1101730D01*
X1040130Y740410D02*
Y737870D01*
X1045210D01*
Y740410D01*
X1047750D01*
Y745490D01*
X1045210D01*
Y748030D01*
X1040130D01*
Y745490D01*
X1037590D01*
Y740410D01*
X1040130D01*
X637540Y628650D02*
Y626110D01*
X642620D01*
Y628650D01*
X645160D01*
Y633730D01*
X642620D01*
Y636270D01*
X637540D01*
Y633730D01*
X635000D01*
Y628650D01*
X637540D01*
X655320Y618490D02*
Y615950D01*
X660400D01*
Y618490D01*
X662940D01*
Y623570D01*
X660400D01*
Y626110D01*
X655320D01*
Y623570D01*
X652780D01*
Y618490D01*
X655320D01*
X1225550Y720090D02*
Y717550D01*
X1230630D01*
Y720090D01*
X1233170D01*
Y725170D01*
X1230630D01*
Y727710D01*
X1225550D01*
Y725170D01*
X1223010D01*
Y720090D01*
X1225550D01*
X1216993Y865016D02*
Y862476D01*
X1222073D01*
Y865016D01*
X1224613D01*
Y870096D01*
X1222073D01*
Y872636D01*
X1216993D01*
Y870096D01*
X1214453D01*
Y865016D01*
X1216993D01*
X1228090Y800100D02*
Y797560D01*
X1233170D01*
Y800100D01*
X1235710D01*
Y805180D01*
X1233170D01*
Y807720D01*
X1228090D01*
Y805180D01*
X1225550D01*
Y800100D01*
X1228090D01*
X532130Y567690D02*
Y565150D01*
X537210D01*
Y567690D01*
X539750D01*
Y572770D01*
X537210D01*
Y575310D01*
X532130D01*
Y572770D01*
X529590D01*
Y567690D01*
X532130D01*
Y671830D02*
Y669290D01*
X537210D01*
Y671830D01*
X539750D01*
Y676910D01*
X537210D01*
Y679450D01*
X532130D01*
Y676910D01*
X529590D01*
Y671830D01*
X532130D01*
X535940Y782320D02*
Y779780D01*
X541020D01*
Y782320D01*
X543560D01*
Y787400D01*
X541020D01*
Y789940D01*
X535940D01*
Y787400D01*
X533400D01*
Y782320D01*
X535940D01*
X548640Y914400D02*
Y911860D01*
X553720D01*
Y914400D01*
X556260D01*
Y919480D01*
X553720D01*
Y922020D01*
X548640D01*
Y919480D01*
X546100D01*
Y914400D01*
X548640D01*
X883920Y542290D02*
Y539750D01*
X889000D01*
Y542290D01*
X891540D01*
Y547370D01*
X889000D01*
Y549910D01*
X883920D01*
Y547370D01*
X881380D01*
Y542290D01*
X883920D01*
X556111Y918182D02*
Y915642D01*
X561191D01*
Y918182D01*
X563731D01*
Y923262D01*
X561191D01*
Y925802D01*
X556111D01*
Y923262D01*
X553571D01*
Y918182D01*
X556111D01*
X554990Y1041063D02*
Y1038523D01*
X560070D01*
Y1041063D01*
X562610D01*
Y1046143D01*
X560070D01*
Y1048683D01*
X554990D01*
Y1046143D01*
X552450D01*
Y1041063D01*
X554990D01*
X894080Y549910D02*
Y547370D01*
X899160D01*
Y549910D01*
X901700D01*
Y554990D01*
X899160D01*
Y557530D01*
X894080D01*
Y554990D01*
X891540D01*
Y549910D01*
X894080D01*
X1039710Y1069850D02*
Y1067310D01*
X1044790D01*
Y1069850D01*
X1047330D01*
Y1074930D01*
X1044790D01*
Y1077470D01*
X1039710D01*
Y1074930D01*
X1037170D01*
Y1069850D01*
X1039710D01*
X987258Y1071840D02*
Y1069300D01*
X992338D01*
Y1071840D01*
X994878D01*
Y1076920D01*
X992338D01*
Y1079460D01*
X987258D01*
Y1076920D01*
X984718D01*
Y1071840D01*
X987258D01*
X1066800Y1077852D02*
Y1075312D01*
X1071880D01*
Y1077852D01*
X1074420D01*
Y1082932D01*
X1071880D01*
Y1085472D01*
X1066800D01*
Y1082932D01*
X1064260D01*
Y1077852D01*
X1066800D01*
X1064260Y1063628D02*
Y1073788D01*
X1074420D01*
Y1063628D01*
X1064260D01*
X1066292Y1065660D02*
Y1071756D01*
X1072388D01*
Y1065660D01*
X1066292D01*
X1009520Y784860D02*
Y795020D01*
X1019680D01*
Y784860D01*
X1009520D01*
X1011552Y786892D02*
Y792988D01*
X1017648D01*
Y786892D01*
X1011552D01*
X875160Y802640D02*
Y812800D01*
X885320D01*
Y802640D01*
X875160D01*
X877192Y804672D02*
Y810768D01*
X883288D01*
Y804672D01*
X877192D01*
X966470Y631190D02*
Y641350D01*
X976630D01*
Y631190D01*
X966470D01*
X968502Y633222D02*
Y639318D01*
X974598D01*
Y633222D01*
X968502D01*
X882650Y632590D02*
Y642750D01*
X892810D01*
Y632590D01*
X882650D01*
X884682Y634622D02*
Y640718D01*
X890778D01*
Y634622D01*
X884682D01*
X895040Y557530D02*
Y567690D01*
X905200D01*
Y557530D01*
X895040D01*
X897072Y559562D02*
Y565658D01*
X903168D01*
Y559562D01*
X897072D01*
X894910Y571500D02*
Y581660D01*
X905070D01*
Y571500D01*
X894910D01*
X896942Y573532D02*
Y579628D01*
X903038D01*
Y573532D01*
X896942D01*
X889000Y542290D02*
Y539750D01*
X894080D01*
Y542290D01*
X896620D01*
Y547370D01*
X894080D01*
Y549910D01*
X889000D01*
Y547370D01*
X886460D01*
Y542290D01*
X889000D01*
X797560Y672720D02*
Y682880D01*
X807720D01*
Y672720D01*
X797560D01*
X799592Y674752D02*
Y680848D01*
X805688D01*
Y674752D01*
X799592D01*
X927139Y864870D02*
Y862330D01*
X932219D01*
Y864870D01*
X934759D01*
Y869950D01*
X932219D01*
Y872490D01*
X927139D01*
Y869950D01*
X924599D01*
Y864870D01*
X927139D01*
X984250Y1249680D02*
Y1247140D01*
X989330D01*
Y1249680D01*
X991870D01*
Y1254760D01*
X989330D01*
Y1257300D01*
X984250D01*
Y1254760D01*
X981710D01*
Y1249680D01*
X984250D01*
X1066800Y1090088D02*
Y1087548D01*
X1071880D01*
Y1090088D01*
X1074420D01*
Y1095168D01*
X1071880D01*
Y1097708D01*
X1066800D01*
Y1095168D01*
X1064260D01*
Y1090088D01*
X1066800D01*
X829310Y736559D02*
Y734019D01*
X834390D01*
Y736559D01*
X836930D01*
Y741639D01*
X834390D01*
Y744179D01*
X829310D01*
Y741639D01*
X826770D01*
Y736559D01*
X829310D01*
X933450Y858520D02*
Y855980D01*
X938530D01*
Y858520D01*
X941070D01*
Y863600D01*
X938530D01*
Y866140D01*
X933450D01*
Y863600D01*
X930910D01*
Y858520D01*
X933450D01*
X955040Y818308D02*
Y815768D01*
X960120D01*
Y818308D01*
X962660D01*
Y823388D01*
X960120D01*
Y825928D01*
X955040D01*
Y823388D01*
X952500D01*
Y818308D01*
X955040D01*
X951230Y826770D02*
Y824230D01*
X956310D01*
Y826770D01*
X958850D01*
Y831850D01*
X956310D01*
Y834390D01*
X951230D01*
Y831850D01*
X948690D01*
Y826770D01*
X951230D01*
X955040Y1252220D02*
Y1249680D01*
X960120D01*
Y1252220D01*
X962660D01*
Y1257300D01*
X960120D01*
Y1259840D01*
X955040D01*
Y1257300D01*
X952500D01*
Y1252220D01*
X955040D01*
X514350Y411480D02*
Y421640D01*
X524510D01*
Y411480D01*
X514350D01*
X511810Y1236980D02*
Y1247140D01*
X521970D01*
Y1236980D01*
X511810D01*
D93*
X1105278Y600198D02*
G03*
X1105278Y600198I-5080J0D01*
G01*
X1104272Y702751D02*
G03*
X1104272Y702751I-5080J0D01*
G01*
X1080080Y650000D02*
G03*
X1080080Y650000I-5080J0D01*
G01*
X1055080Y600000D02*
G03*
X1055080Y600000I-5080J0D01*
G01*
X1205080D02*
G03*
X1205080Y600000I-5080J0D01*
G01*
X1149971Y594892D02*
G03*
X1149971Y594892I-5080J0D01*
G01*
X1030080Y650000D02*
G03*
X1030080Y650000I-5080J0D01*
G01*
X955080Y600000D02*
G03*
X955080Y600000I-5080J0D01*
G01*
X1005080D02*
G03*
X1005080Y600000I-5080J0D01*
G01*
X605080D02*
G03*
X605080Y600000I-5080J0D01*
G01*
Y800000D02*
G03*
X605080Y800000I-5080J0D01*
G01*
Y900000D02*
G03*
X605080Y900000I-5080J0D01*
G01*
X630080Y950000D02*
G03*
X630080Y950000I-5080J0D01*
G01*
X605080Y1000000D02*
G03*
X605080Y1000000I-5080J0D01*
G01*
X630080Y1050000D02*
G03*
X630080Y1050000I-5080J0D01*
G01*
X605080Y1100000D02*
G03*
X605080Y1100000I-5080J0D01*
G01*
X630080Y1150000D02*
G03*
X630080Y1150000I-5080J0D01*
G01*
X680080Y650000D02*
G03*
X680080Y650000I-5080J0D01*
G01*
X655080Y700000D02*
G03*
X655080Y700000I-5080J0D01*
G01*
X680080Y750000D02*
G03*
X680080Y750000I-5080J0D01*
G01*
X655080Y800000D02*
G03*
X655080Y800000I-5080J0D01*
G01*
X680080Y850000D02*
G03*
X680080Y850000I-5080J0D01*
G01*
X655080Y900000D02*
G03*
X655080Y900000I-5080J0D01*
G01*
X680080Y950000D02*
G03*
X680080Y950000I-5080J0D01*
G01*
X655080Y1000000D02*
G03*
X655080Y1000000I-5080J0D01*
G01*
Y1100000D02*
G03*
X655080Y1100000I-5080J0D01*
G01*
X680080Y1150000D02*
G03*
X680080Y1150000I-5080J0D01*
G01*
X730080Y650000D02*
G03*
X730080Y650000I-5080J0D01*
G01*
X705080Y900000D02*
G03*
X705080Y900000I-5080J0D01*
G01*
X730080Y950000D02*
G03*
X730080Y950000I-5080J0D01*
G01*
X705080Y1000000D02*
G03*
X705080Y1000000I-5080J0D01*
G01*
X730080Y1050000D02*
G03*
X730080Y1050000I-5080J0D01*
G01*
X705080Y1100000D02*
G03*
X705080Y1100000I-5080J0D01*
G01*
X780080Y650000D02*
G03*
X780080Y650000I-5080J0D01*
G01*
X755080Y800000D02*
G03*
X755080Y800000I-5080J0D01*
G01*
X780080Y850000D02*
G03*
X780080Y850000I-5080J0D01*
G01*
Y950000D02*
G03*
X780080Y950000I-5080J0D01*
G01*
Y1050000D02*
G03*
X780080Y1050000I-5080J0D01*
G01*
Y1150000D02*
G03*
X780080Y1150000I-5080J0D01*
G01*
X830080Y850000D02*
G03*
X830080Y850000I-5080J0D01*
G01*
Y1150000D02*
G03*
X830080Y1150000I-5080J0D01*
G01*
X880080Y850000D02*
G03*
X880080Y850000I-5080J0D01*
G01*
X855080Y900000D02*
G03*
X855080Y900000I-5080J0D01*
G01*
X880080Y950000D02*
G03*
X880080Y950000I-5080J0D01*
G01*
Y1150000D02*
G03*
X880080Y1150000I-5080J0D01*
G01*
X905080Y700000D02*
G03*
X905080Y700000I-5080J0D01*
G01*
X930080Y750000D02*
G03*
X930080Y750000I-5080J0D01*
G01*
X905080Y900000D02*
G03*
X905080Y900000I-5080J0D01*
G01*
X930080Y950000D02*
G03*
X930080Y950000I-5080J0D01*
G01*
X905080Y1000000D02*
G03*
X905080Y1000000I-5080J0D01*
G01*
Y1100000D02*
G03*
X905080Y1100000I-5080J0D01*
G01*
X955080Y700000D02*
G03*
X955080Y700000I-5080J0D01*
G01*
X980080Y850000D02*
G03*
X980080Y850000I-5080J0D01*
G01*
Y950000D02*
G03*
X980080Y950000I-5080J0D01*
G01*
Y1050000D02*
G03*
X980080Y1050000I-5080J0D01*
G01*
X955080Y1100000D02*
G03*
X955080Y1100000I-5080J0D01*
G01*
X980080Y1150000D02*
G03*
X980080Y1150000I-5080J0D01*
G01*
X1005080Y800000D02*
G03*
X1005080Y800000I-5080J0D01*
G01*
X1030080Y850000D02*
G03*
X1030080Y850000I-5080J0D01*
G01*
X1005080Y900000D02*
G03*
X1005080Y900000I-5080J0D01*
G01*
X1030080Y950000D02*
G03*
X1030080Y950000I-5080J0D01*
G01*
Y1050000D02*
G03*
X1030080Y1050000I-5080J0D01*
G01*
Y1150000D02*
G03*
X1030080Y1150000I-5080J0D01*
G01*
X1080080D02*
G03*
X1080080Y1150000I-5080J0D01*
G01*
X1130080Y650000D02*
G03*
X1130080Y650000I-5080J0D01*
G01*
Y750000D02*
G03*
X1130080Y750000I-5080J0D01*
G01*
Y850000D02*
G03*
X1130080Y850000I-5080J0D01*
G01*
X1105080Y900000D02*
G03*
X1105080Y900000I-5080J0D01*
G01*
X1130080Y950000D02*
G03*
X1130080Y950000I-5080J0D01*
G01*
X1105080Y1000000D02*
G03*
X1105080Y1000000I-5080J0D01*
G01*
X1130080Y1050000D02*
G03*
X1130080Y1050000I-5080J0D01*
G01*
X1105080Y1100000D02*
G03*
X1105080Y1100000I-5080J0D01*
G01*
X1130080Y1150000D02*
G03*
X1130080Y1150000I-5080J0D01*
G01*
X1180080Y650000D02*
G03*
X1180080Y650000I-5080J0D01*
G01*
X1155080Y700000D02*
G03*
X1155080Y700000I-5080J0D01*
G01*
Y800000D02*
G03*
X1155080Y800000I-5080J0D01*
G01*
Y900000D02*
G03*
X1155080Y900000I-5080J0D01*
G01*
X1180080Y950000D02*
G03*
X1180080Y950000I-5080J0D01*
G01*
X1155080Y1000000D02*
G03*
X1155080Y1000000I-5080J0D01*
G01*
X1180080Y1050000D02*
G03*
X1180080Y1050000I-5080J0D01*
G01*
X1155080Y1100000D02*
G03*
X1155080Y1100000I-5080J0D01*
G01*
X1180080Y1150000D02*
G03*
X1180080Y1150000I-5080J0D01*
G01*
X1205080Y700000D02*
G03*
X1205080Y700000I-5080J0D01*
G01*
X1230080Y950000D02*
G03*
X1230080Y950000I-5080J0D01*
G01*
X1205080Y1000000D02*
G03*
X1205080Y1000000I-5080J0D01*
G01*
X1230080Y1050000D02*
G03*
X1230080Y1050000I-5080J0D01*
G01*
X1205080Y1100000D02*
G03*
X1205080Y1100000I-5080J0D01*
G01*
X1230080Y1150000D02*
G03*
X1230080Y1150000I-5080J0D01*
G01*
X1255080Y600000D02*
G03*
X1255080Y600000I-5080J0D01*
G01*
X1280080Y650000D02*
G03*
X1280080Y650000I-5080J0D01*
G01*
X1255080Y700000D02*
G03*
X1255080Y700000I-5080J0D01*
G01*
Y900000D02*
G03*
X1255080Y900000I-5080J0D01*
G01*
X1280080Y950000D02*
G03*
X1280080Y950000I-5080J0D01*
G01*
X1255080Y1000000D02*
G03*
X1255080Y1000000I-5080J0D01*
G01*
X1280080Y1050000D02*
G03*
X1280080Y1050000I-5080J0D01*
G01*
X1255080Y1100000D02*
G03*
X1255080Y1100000I-5080J0D01*
G01*
X1280080Y1150000D02*
G03*
X1280080Y1150000I-5080J0D01*
G01*
X603252Y700000D02*
G03*
X603252Y700000I-5080J0D01*
G01*
M02*
